<svg xmlns="http://www.w3.org/2000/svg" xmlns:xlink="http://www.w3.org/1999/xlink" viewBox="0 0 988 1678.53"><defs><style>.cls-1{fill:#afca90;}.cls-2{isolation:isolate;}.cls-3{clip-path:url(#clip-path);}.cls-4{fill:#3c2517;}.cls-5{fill:#f1ae75;}.cls-6{fill:#deb4a0;}.cls-10,.cls-11,.cls-16,.cls-6{mix-blend-mode:multiply;}.cls-7{fill:#1a1819;}.cls-8{fill:#32313b;}.cls-9{fill:#fff;}.cls-10,.cls-11{fill:#f5ccb9;}.cls-10{opacity:0.8;}.cls-12{fill:#3c2518;}.cls-13{fill:#393744;}.cls-14{fill:#f05e45;}.cls-15{fill:#696772;}.cls-16{fill:#c8c8c8;}</style><clipPath id="clip-path" transform="translate(-6 -6)"><path class="cls-1" d="M994,500c0,276.14-217.86,492-494,492S6,776.14,6,500,223.86,6,500,6,994,223.86,994,500Z"/></clipPath></defs><title>f1-circle-avatar-1000x1000</title><g class="cls-2"><g id="f1"><path class="cls-1" d="M994,500c0,276.14-217.86,492-494,492S6,776.14,6,500,223.86,6,500,6,994,223.86,994,500Z" transform="translate(-6 -6)"/><g class="cls-3"><g id="woman"><path class="cls-4" d="M781.2,408q-1.36-3.18-2.65-6.37c-20.49-50.54-11.15-98.36-23.08-150.2C729.5,138.62,675.83,68,612.67,95.35,529.21-3.33,397.44,77.84,373.79,93.06c-25.08,16.14-40.71,27-63.83,64.29-29.23,47.14-41.65,101.43-54.69,155.34-14.16,58.56-68.37,102.52-77.11,162.14C169,537.5,205.32,567,164.48,628.76c-15.84,23.94-41.71,46.42-50.5,73.75-9.76,30.32.72,63.91-8.16,94.5-13,44.65-63.8,63.23-72,107.47-8.14,44,29.2,78.83,63.25,99.58,54.1,33,121.34,32.82,184.68,31.67,180.12-3.27,359.5,31,539.47,23.24,101.72-4.36,108.49-61.57,106.36-84.61-2.9-31.47-37.94-56.33-51.76-84.75-18.49-38,6.23-90.63.75-132.56C871,714.59,835,695.82,826.49,653.87c-7.34-36,13.21-72.61,11.37-109.27C835.38,495,800.22,452.41,781.2,408Z" transform="translate(-6 -6)"/><polygon class="cls-5" points="561.41 748.88 561.41 655.35 414.75 655.35 414.75 748.88 378.09 759.06 414.75 988.16 561.41 988.16 598.07 759.06 561.41 748.88"/><polygon class="cls-6" points="414.75 655.97 414.75 689.96 561.41 748.88 561.41 655.97 414.75 655.97"/><path class="cls-7" d="M754.23,1684.53c3-197.76-47.11-274.7-47.11-274.7H281.05s-50.15,76.94-47.11,274.7H754.23Z" transform="translate(-6 -6)"/><path class="cls-8" d="M674.13,1157.21c34.79-35.54,91.6-107.58,18.74-212C646,878.08,786,768.54,579.58,757.73l-85.5,233.92-85.5-233.92c-206.4,10.81-66.46,120.36-113.28,187.47-72.86,104.44-16.05,176.48,18.74,212,0,0-9.81,159-78.85,363.63H469.63l24.45-88,24.45,88H753C683.94,1316.17,674.13,1157.21,674.13,1157.21Z" transform="translate(-6 -6)"/><path class="cls-5" d="M274.16,1345.87c-10.16,0-96.5,18.92-65.18,41.92,10.89,8,35.66-9.86,47.68-12.34,8.82-1.82,22.23.7,27.75-8C289.35,1359.74,284.36,1345.76,274.16,1345.87Z" transform="translate(-6 -6)"/><path class="cls-5" d="M279,1363.85c-27.84-2.17-63.27-39.69-68-37.63-2.09.9-38.16,62-36,68.7,2.37,7.23,74.42,66.09,104.15,68.82C304.24,1466,338,1443,341.59,1413,344.6,1387.67,304.11,1365.6,279,1363.85Z" transform="translate(-6 -6)"/><path class="cls-8" d="M199.54,1429.24c-49-42.54-84.29-103.51-112-157C72.52,1243.1,55.65,1208.18,44.75,1170c-14.84-51.94-1.24-94.39,12.27-125.56,26.41-60.92,147.56-249.62,295.84-279.86l-3.41,150.64C296,942.21,180,1042.92,160,1089c-10.93,25.2-11,37.47-7.35,50.14,8.2,28.7,22.1,57.31,34.62,81.51,24.47,47.31,43.61,89.29,71.35,124.77Z" transform="translate(-6 -6)"/><polygon class="cls-9" points="657.53 809.5 577.15 839.89 608.7 883.89 488.08 985.65 573.71 749.84 657.53 809.5"/><polygon class="cls-9" points="318.62 809.5 402.57 750.83 488.08 985.65 367.45 883.89 399.01 839.89 318.62 809.5"/><path class="cls-5" d="M673.59,415.86l4-76.16c4.24-80.89-84-188-158.16-191.86S346.31,241.24,342.07,322.12l-4,76.16c-20.59-1.08-38.14,14.44-39.2,34.66l-2,38.08c-1.06,20.22,14.77,37.49,35.36,38.57-4.24,80.88,83.89,190.91,158,194.79s173.27-96.32,177.51-177.21c20.59,1.08,38.14-14.44,39.2-34.66l2-38.08C710,434.21,694.18,416.94,673.59,415.86Z" transform="translate(-6 -6)"/><path class="cls-10" d="M497.35,568.91l-7.1,135.47c74.12,3.88,173.27-96.32,177.51-177.21,20.59,1.08,38.14-14.44,39.2-34.66l2-38.08c1.06-20.22-14.77-37.49-35.36-38.57l4-76.16c4.24-80.89-84-188-158.16-191.86L503.88,444.42c-30.17,55.38-43.42,115.21-43.42,115.21Z" transform="translate(-6 -6)"/><circle class="cls-11" cx="414.87" cy="445.7" r="28.96" transform="translate(-44.01 846.73) rotate(-89)"/><circle class="cls-12" cx="415.25" cy="438.38" r="28.96" transform="translate(-36.31 839.92) rotate(-89)"/><circle class="cls-9" cx="425.54" cy="429.87" r="7.24" transform="translate(-17.68 841.86) rotate(-89)"/><path class="cls-12" d="M451.64,417.12C447,404.45,433.78,394.34,418.85,392c-9.15-1.48-26.49-1-42.31,17a10.93,10.93,0,0,1-2.19-.12,21.48,21.48,0,0,1-6.1-2,28.64,28.64,0,0,1-8-6.11,0.94,0.94,0,0,0-1-.23,0.91,0.91,0,0,0-.48,1.19,31.79,31.79,0,0,0,1.5,3.15,29.79,29.79,0,0,0,4.59,6.48,28.74,28.74,0,0,0,6.57,5.25A22.35,22.35,0,0,0,374,417.9c0.67,0.28,1.39.45,1.27,0.43a4.75,4.75,0,0,0,4.82-2.3C390.55,403,403.9,397,417.69,399.19c12.19,2,23.33,10.37,27.06,20.48A3.67,3.67,0,0,0,451.64,417.12Z" transform="translate(-6 -6)"/><circle class="cls-11" cx="597.94" cy="455.3" r="28.96" transform="matrix(0.02, -1, 1, 0.02, 126.27, 1039.2)"/><circle class="cls-12" cx="598.32" cy="447.97" r="28.96" transform="translate(133.97 1032.39) rotate(-89)"/><circle class="cls-9" cx="608.61" cy="439.46" r="7.24" transform="matrix(0.02, -1, 1, 0.02, 152.58, 1034.3)"/><path class="cls-12" d="M564.36,423c6-12.11,20.14-20.79,35.24-21.6,9.25-.52,26.45,1.75,40.31,21.31a11,11,0,0,0,2.19.11,21.49,21.49,0,0,0,6.27-1.31A28.64,28.64,0,0,0,657,416.3a0.94,0.94,0,0,1,1-.12,0.9,0.9,0,0,1,.35,1.23,31.8,31.8,0,0,1-1.82,3,29.84,29.84,0,0,1-5.25,6,28.72,28.72,0,0,1-7.08,4.53,22.42,22.42,0,0,1-2.81,1c-0.7.21-1.43,0.3-1.31,0.3a4.75,4.75,0,0,1-4.55-2.79c-9-14.08-21.65-21.44-35.61-20.67-12.33.67-24.28,7.87-29.05,17.53A3.67,3.67,0,0,1,564.36,423Z" transform="translate(-6 -6)"/><path class="cls-13" d="M698.79,400.44L673,399.09c-14.21-10.75-41.11-12.17-65.48-13.39-41-2.15-68.89,4.46-83,19.57-4.43-2.85-11.11-4-18.7-4.36s-14.34,0-19.05,2.38c-12.43-16.5-39.47-26-80.47-28.14-24.36-1.33-51.27-2.73-66.52,6.48l-25.75-1.35-1.46,27.83,10.81,6.77c-2,43.43,16.52,94.85,75.71,98,48.67,2.55,80.21-22.28,93.73-73.79a49.66,49.66,0,0,0,1.61-10.91c0.89-2.86,4.82-5.54,10.25-5.25s9.06,3.36,9.65,6.3a49.65,49.65,0,0,0,.46,11c8.07,52.64,36.83,80.63,85.51,83.18,59.19,3.1,83-46.1,85.53-89.5l11.45-5.6ZM480.11,435.69c-11.88,45.24-38.13,66.16-80.27,64-64.21-3.36-63.91-71.24-63.2-84.82,1.09-20.83,47.62-20.26,68.65-19.16C451.67,398.09,485.47,416.42,480.11,435.69ZM601,510.19c-42.14-2.21-66.07-25.76-73.15-72-3.31-19.72,32.22-34.42,78.6-32,21,1.1,67.36,5.4,66.27,26.23C672,446,665.25,513.55,601,510.19Z" transform="translate(-6 -6)"/><path class="cls-4" d="M734.2,284.14c-25.83-137.55-119-203.43-210.9-206C431.6,71.08,332.09,126.87,292,261c-35.15,117.64-45.18,227-1.51,406.36,86.07-50.53-48.27-488.35,222-383.62,279.75-75.9,100.38,345.48,180.7,404.73C755.4,514.61,756.86,404.81,734.2,284.14Z" transform="translate(-6 -6)"/><path class="cls-14" d="M557.42,592.91c-1.51,28.76-29,50.7-61.31,49s-57.36-26.38-55.85-55.14Z" transform="translate(-6 -6)"/><path class="cls-9" d="M448.8,589.8h97.77a0,0,0,0,1,0,0v18.55a1,1,0,0,1-1,1H449.8a1,1,0,0,1-1-1V589.8A0,0,0,0,1,448.8,589.8Z" transform="translate(26.06 -31.23) rotate(3)"/><path class="cls-15" d="M742,712.66l57.5-222.89a13.9,13.9,0,0,0-10-16.93l-58.29-15a13.9,13.9,0,0,0-16.93,10l-57.5,222.87a13.9,13.9,0,0,0,10,16.93l58.29,15A13.89,13.89,0,0,0,742,712.66Z" transform="translate(-6 -6)"/><path class="cls-16" d="M664.3,661.52l42.46-164.58a43.77,43.77,0,0,1,77.58-15.37,43.82,43.82,0,0,0-68.42,24.54L673.47,670.69A43.73,43.73,0,0,0,681.09,708,43.93,43.93,0,0,1,664.3,661.52Z" transform="translate(-6 -6)"/><path class="cls-13" d="M765.21,497.28l2.34-9.09a7,7,0,1,0-13.63-3.52l-2.35,9.09A7,7,0,1,0,765.21,497.28Z" transform="translate(-6 -6)"/><path class="cls-5" d="M673.89,614l53.91,73.44,82.4-30.88-24.58-96.9c-7.18-19.15-43.17-27.77-65.93-19.24S666.71,594.81,673.89,614Z" transform="translate(-6 -6)"/><path class="cls-8" d="M855.2,1035.58a52.8,52.8,0,0,0,49.45-71.33L807.21,623.48l-98.88,37.05,51.14,197.66S707,792.83,663.53,773.7L644.78,938.52l183,89.35A52.74,52.74,0,0,0,855.2,1035.58Z" transform="translate(-6 -6)"/></g></g></g></g></svg>