<svg xmlns="http://www.w3.org/2000/svg" xmlns:xlink="http://www.w3.org/1999/xlink" viewBox="0 0 999 1109.7"><defs><style>.cls-1{fill:#afca90;}.cls-2{isolation:isolate;}.cls-3{clip-path:url(#clip-path);}.cls-4{fill:#3c2517;}.cls-5{fill:#f1ae75;}.cls-6{fill:#deb4a0;}.cls-10,.cls-11,.cls-16,.cls-6{mix-blend-mode:multiply;}.cls-7{fill:#1a1819;}.cls-8{fill:#32313b;}.cls-9{fill:#fff;}.cls-10,.cls-11{fill:#f5ccb9;}.cls-10{opacity:0.8;}.cls-12{fill:#3c2518;}.cls-13{fill:#393744;}.cls-14{fill:#f05e45;}.cls-15{fill:#696772;}.cls-16{fill:#c8c8c8;}</style><clipPath id="clip-path" transform="translate(-1)"><polygon class="cls-1" points="1000 1001.25 1 1000 1 0 1000 0 1000 1001.25"/></clipPath></defs><title>f1-square-avatar-1000x1000</title><g class="cls-2"><g id="f1"><polygon class="cls-1" points="999 1001.25 0 1000 0 0 999 0 999 1001.25"/><g class="cls-3"><g id="woman"><path class="cls-4" d="M704.82,264q-0.9-2.1-1.76-4.22c-13.57-33.48-7.39-65.16-15.29-99.5C670.57,85.55,635,38.76,593.18,56.88c-55.3-65.37-142.59-11.6-158.26-1.51C418.3,66.06,408,73.26,392.64,98c-19.37,31.23-27.59,67.2-36.23,102.91-9.38,38.79-45.29,67.92-51.09,107.42-6.08,41.52,18,61.09-9.07,102-10.49,15.86-27.63,30.75-33.46,48.86-6.46,20.09.48,42.34-5.41,62.6-8.59,29.58-42.27,41.89-47.7,71.2-5.4,29.12,19.34,52.22,41.9,66,35.84,21.84,80.39,21.74,122.35,21,119.33-2.16,238.16,20.51,357.39,15.4,67.39-2.89,71.87-40.79,70.47-56.06-1.92-20.85-25.14-37.31-34.29-56.15-12.25-25.2,4.13-60,.5-87.82-3.68-28.12-27.51-40.56-33.18-68.35-4.86-23.83,8.75-48.1,7.53-72.39C740.71,321.67,717.42,293.43,704.82,264Z" transform="translate(-1)"/><polygon class="cls-5" points="562.19 493.82 562.19 431.86 465.03 431.86 465.03 493.82 440.74 500.56 465.03 652.34 562.19 652.34 586.48 500.56 562.19 493.82"/><polygon class="cls-6" points="465.03 432.26 465.03 454.78 562.19 493.82 562.19 432.26 465.03 432.26"/><path class="cls-7" d="M687,1109.7c2-131-31.21-182-31.21-182H373.48s-33.22,51-31.21,182H687Z" transform="translate(-1)"/><path class="cls-8" d="M633.89,760.35c23-23.54,60.68-71.27,12.41-140.46-31-44.46,61.69-117-75-124.19l-56.64,155L458,495.7c-136.74,7.16-44,79.74-75,124.19-48.27,69.19-10.64,116.91,12.41,140.46,0,0-6.5,105.31-52.24,240.9H498.41l16.2-58.3,16.2,58.3H686.13C640.39,865.66,633.89,760.35,633.89,760.35Z" transform="translate(-1)"/><path class="cls-5" d="M368.92,885.34c-6.73,0-63.93,12.54-43.18,27.77,7.22,5.3,23.62-6.53,31.59-8.18,5.84-1.21,14.73.47,18.38-5.27C379,894.53,375.67,885.27,368.92,885.34Z" transform="translate(-1)"/><path class="cls-5" d="M372.14,897.25c-18.44-1.44-41.91-26.29-45.07-24.93-1.38.6-25.28,41.1-23.83,45.51,1.57,4.79,49.3,43.78,69,45.59,16.61,1.53,39-13.76,41.35-33.6C415.58,913,388.75,898.41,372.14,897.25Z" transform="translate(-1)"/><path class="cls-8" d="M319.48,940.57c-32.48-28.18-55.84-68.58-74.17-104-10-19.3-21.16-42.44-28.38-67.73-9.83-34.41-.82-62.53,8.13-83.18,17.49-40.36,97.75-165.37,196-185.4L418.79,600C383.37,617.92,306.5,684.64,293.26,715.2,286,731.89,286,740,288.39,748.41c5.43,19,14.64,38,22.93,54,16.21,31.34,28.89,59.16,47.27,82.66Z" transform="translate(-1)"/><polygon class="cls-9" points="625.87 533.97 572.62 554.11 593.52 583.26 513.61 650.67 570.34 494.45 625.87 533.97"/><polygon class="cls-9" points="401.35 533.97 456.96 495.11 513.61 650.67 433.7 583.26 454.6 554.11 401.35 533.97"/><path class="cls-5" d="M633.53,269.22l2.64-50.45C639,165.18,580.5,94.23,531.4,91.66S416.71,153.53,413.9,207.12l-2.64,50.45a24.51,24.51,0,0,0-26,23L384,305.76a24.51,24.51,0,0,0,23.43,25.55c-2.81,53.59,55.58,126.47,104.68,129S626.86,396.55,629.67,343a24.51,24.51,0,0,0,26-23L657,294.77A24.51,24.51,0,0,0,633.53,269.22Z" transform="translate(-1)"/><path class="cls-10" d="M516.78,370.61l-4.7,89.75c49.1,2.57,114.79-63.81,117.6-117.4a24.51,24.51,0,0,0,26-23L657,294.77a24.51,24.51,0,0,0-23.43-25.55l2.64-50.45C639,165.18,580.5,94.23,531.4,91.66L521.1,288.14c-20,36.69-28.77,76.33-28.77,76.33Z" transform="translate(-1)"/><circle class="cls-11" cx="462.13" cy="288.99" r="19.19" transform="matrix(0.02, -1, 1, 0.02, 164.12, 746.01)"/><circle class="cls-12" cx="462.39" cy="284.14" r="19.19" transform="matrix(0.02, -1, 1, 0.02, 169.22, 741.49)"/><circle class="cls-9" cx="469.2" cy="278.5" r="4.8" transform="translate(181.57 742.78) rotate(-89)"/><path class="cls-12" d="M486.49,270.05c-3.1-8.39-11.83-15.09-21.72-16.67-6.06-1-17.55-.68-28,11.25a7.24,7.24,0,0,1-1.45-.08,14.23,14.23,0,0,1-4-1.3,19,19,0,0,1-5.33-4,0.63,0.63,0,0,0-.68-0.15,0.6,0.6,0,0,0-.32.79,21.06,21.06,0,0,0,1,2.09,19.74,19.74,0,0,0,3,4.29,19,19,0,0,0,4.35,3.48,14.81,14.81,0,0,0,1.78.87c0.45,0.18.92,0.3,0.84,0.29a3.15,3.15,0,0,0,3.19-1.52c6.91-8.65,15.75-12.63,24.89-11.15,8.08,1.29,15.45,6.87,17.93,13.56A2.43,2.43,0,0,0,486.49,270.05Z" transform="translate(-1)"/><circle class="cls-11" cx="583.41" cy="295.34" r="19.19" transform="translate(276.93 873.52) rotate(-89)"/><circle class="cls-12" cx="583.67" cy="290.49" r="19.19" transform="translate(282.03 869) rotate(-89)"/><circle class="cls-9" cx="590.49" cy="284.86" r="4.8" transform="translate(294.35 870.27) rotate(-89)"/><path class="cls-12" d="M561.17,274c4-8,13.35-13.77,23.35-14.31,6.13-.34,17.53,1.16,26.7,14.12a7.28,7.28,0,0,0,1.45.07,14.24,14.24,0,0,0,4.15-.87,19,19,0,0,0,5.72-3.47,0.63,0.63,0,0,1,.7-0.08,0.6,0.6,0,0,1,.23.81,21.07,21.07,0,0,1-1.21,2,19.77,19.77,0,0,1-3.48,4,19,19,0,0,1-4.69,3,14.85,14.85,0,0,1-1.86.68c-0.46.14-.95,0.2-0.87,0.2a3.15,3.15,0,0,1-3-1.85c-6-9.33-14.35-14.2-23.59-13.7-8.17.44-16.09,5.22-19.25,11.62A2.43,2.43,0,0,1,561.17,274Z" transform="translate(-1)"/><path class="cls-13" d="M650.23,259l-17.06-.89c-9.41-7.12-27.24-8.06-43.38-8.87-27.17-1.42-45.64,3-55,13-2.94-1.89-7.36-2.63-12.39-2.89s-9.5,0-12.62,1.58c-8.23-10.93-26.15-17.22-53.31-18.64-16.14-.88-34-1.81-44.07,4.29l-17.06-.89-1,18.43,7.16,4.48c-1.35,28.77,10.94,62.84,50.15,64.89,32.25,1.69,53.14-14.76,62.1-48.88a32.9,32.9,0,0,0,1.06-7.23c0.59-1.89,3.19-3.67,6.79-3.48s6,2.22,6.39,4.17a32.9,32.9,0,0,0,.3,7.3c5.34,34.87,24.4,53.42,56.65,55.11,39.21,2.06,55-30.54,56.66-59.3l7.59-3.71ZM505.36,282.36c-7.87,30-25.26,43.83-53.18,42.37-42.54-2.23-42.34-47.2-41.87-56.19,0.72-13.8,31.55-13.42,45.48-12.69C486.51,257.45,508.91,269.59,505.36,282.36Zm80.11,49.35C557.55,330.25,541.7,314.64,537,284c-2.2-13.07,21.34-22.8,52.07-21.19,13.93,0.73,44.63,3.58,43.9,17.38C632.51,289.19,628,333.94,585.47,331.71Z" transform="translate(-1)"/><path class="cls-4" d="M673.69,182C656.57,90.83,594.87,47.18,534,45.5c-60.75-4.7-126.67,32.26-153.22,121.1-23.29,77.94-29.93,150.38-1,269.21,57-33.47-32-323.53,147.08-254.15,185.33-50.28,66.5,228.88,119.71,268.13C687.73,334.64,688.7,261.9,673.69,182Z" transform="translate(-1)"/><path class="cls-14" d="M556.57,386.51c-1,19.05-19.18,33.59-40.62,32.46s-38-17.48-37-36.53Z" transform="translate(-1)"/><path class="cls-9" d="M484.61,384.45h64.77a0,0,0,0,1,0,0v12a1,1,0,0,1-1,1H485.61a1,1,0,0,1-1-1v-12a0,0,0,0,1,0,0Z" transform="translate(20.17 -26.52) rotate(3)"/><path class="cls-15" d="M678.84,465.84l38.1-147.66A9.21,9.21,0,0,0,710.33,307l-38.62-10a9.21,9.21,0,0,0-11.21,6.61L622.4,451.27A9.21,9.21,0,0,0,629,462.49l38.62,10A9.2,9.2,0,0,0,678.84,465.84Z" transform="translate(-1)"/><path class="cls-16" d="M627.38,432l28.13-109a29,29,0,0,1,51.4-10.18A29,29,0,0,0,661.59,329L633.45,438a29,29,0,0,0,5,24.75A29.1,29.1,0,0,1,627.38,432Z" transform="translate(-1)"/><path class="cls-13" d="M694.23,323.16l1.55-6a4.66,4.66,0,1,0-9-2.33l-1.55,6A4.66,4.66,0,1,0,694.23,323.16Z" transform="translate(-1)"/><path class="cls-5" d="M633.73,400.46l35.72,48.65L724,428.66l-16.28-64.2c-4.76-12.69-28.6-18.4-43.68-12.75S629,387.77,633.73,400.46Z" transform="translate(-1)"/><path class="cls-8" d="M753.85,679.78a35,35,0,0,0,32.76-47.25L722.06,406.77l-65.51,24.55,33.88,130.95s-34.74-43.3-63.56-56L614.44,615.48l121.22,59.2A34.94,34.94,0,0,0,753.85,679.78Z" transform="translate(-1)"/></g></g></g></g></svg>