<svg xmlns="http://www.w3.org/2000/svg" xmlns:xlink="http://www.w3.org/1999/xlink" viewBox="0 0 988 1639.93"><defs><style>.cls-1{fill:#eedb75;}.cls-2{isolation:isolate;}.cls-3{clip-path:url(#clip-path);}.cls-4{fill:#3c2518;}.cls-5{fill:#be8858;}.cls-6{fill:#deb4a0;}.cls-11,.cls-13,.cls-14,.cls-6{mix-blend-mode:multiply;}.cls-7{fill:#2a2a33;}.cls-8{fill:#fff;}.cls-9{fill:#43414e;}.cls-10{fill:#e7e7e7;}.cls-11{fill:#c8c8c8;}.cls-12{fill:#696772;}.cls-13{fill:#f5ccb9;opacity:0.8;}.cls-14{fill:#f7cdba;}.cls-15{fill:#f05e45;}</style><clipPath id="clip-path" transform="translate(-6 -6)"><path class="cls-1" d="M994,500c0,276.14-217.86,492-494,492S6,776.14,6,500,223.86,6,500,6,994,223.86,994,500Z"/></clipPath></defs><title>f2-circle-avatar-1000x1000</title><g class="cls-2"><g id="f2"><path class="cls-1" d="M994,500c0,276.14-217.86,492-494,492S6,776.14,6,500,223.86,6,500,6,994,223.86,994,500Z" transform="translate(-6 -6)"/><g class="cls-3"><g id="woman"><path class="cls-4" d="M798.21,456.2a45.38,45.38,0,0,0,6.19-9.78A49.13,49.13,0,0,0,789,376.26a49.4,49.4,0,0,0-7.9-34.24,51.3,51.3,0,0,0-22.68-76.17,48.36,48.36,0,0,0-19.58-49.1,41,41,0,0,0-48-53.79A42.85,42.85,0,0,0,635,135.57a38.84,38.84,0,0,0-34.22-20.83,55,55,0,0,0-64.34-41.41A56.2,56.2,0,0,0,434,92.48,43.19,43.19,0,0,0,407.92,108a45.9,45.9,0,0,0-70.77,14.28,54.32,54.32,0,0,0-52.58,66.26,38.24,38.24,0,0,0-26.66,36.36,37.62,37.62,0,0,0,.42,4.22,42,42,0,0,0-23.45,64.05,42,42,0,0,0-15.15,32.35c0,0.41,0,.8.06,1.21A56,56,0,0,0,206,418.15a47.08,47.08,0,0,0,6.43,47.95A38.36,38.36,0,0,0,218,518.82a47.21,47.21,0,0,0,25.92,62.3,41.33,41.33,0,0,0,22.73,50.39,41.63,41.63,0,0,0,41.51,47.19c0.7,0,1.38-.07,2.07-0.1a50.35,50.35,0,0,0,59.49,45.25,39.11,39.11,0,0,0,46.77,37.87,45.34,45.34,0,0,0,61,16.84A53.42,53.42,0,0,0,566.51,746a38.49,38.49,0,0,0,23.61-11.2,41.26,41.26,0,0,0,63.22-16.46,50.46,50.46,0,0,0,59.07-55.21,45.8,45.8,0,0,0,24.8-36.79,49.67,49.67,0,0,0,28.92-53.57,48.92,48.92,0,0,0,16.9-37c0-1.52-.09-3-0.23-4.5A45.69,45.69,0,0,0,798.21,456.2Z" transform="translate(-6 -6)"/><polygon class="cls-5" points="570.45 744.14 570.45 653.44 428.22 653.44 428.22 744.14 392.67 754.02 428.22 976.2 570.45 976.2 606.01 754.02 570.45 744.14"/><polygon class="cls-6" points="428.22 654.03 428.22 687 570.45 744.14 570.45 654.03 428.22 654.03"/><path class="cls-7" d="M757.72,1645.93c1.9-187.52-45.78-260.61-45.78-260.61H298.74s-47.68,73.09-45.78,260.61H757.72Z" transform="translate(-6 -6)"/><rect class="cls-8" x="356.25" y="855.17" width="288.95" height="524.15"/><path class="cls-9" d="M469.77,979.76L422.41,752.9C222.24,763.39,358,869.63,312.55,934.71,241.89,1036,297,1105.86,330.72,1140.33c0,0-9.52,154.16-76.47,352.65H466.12v-72.21Z" transform="translate(-6 -6)"/><polygon class="cls-7" points="335 802.93 412.95 832.4 382.35 875.07 463.77 973.76 416.28 745.07 335 802.93"/><path class="cls-9" d="M540.89,979.76L588.26,752.9c200.17,10.48,64.46,116.72,109.86,181.81,70.66,101.28,15.57,171.15-18.17,205.62,0,0,9.52,154.16,76.47,352.65H544.54v-72.21Z" transform="translate(-6 -6)"/><polygon class="cls-7" points="663.67 802.93 585.71 832.4 616.31 875.07 534.89 973.76 582.39 745.07 663.67 802.93"/><path class="cls-10" d="M632.46,1197.39H380a36.88,36.88,0,0,1-36.87-36.87L327.34,949.8a36.87,36.87,0,0,1,36.87-36.87h284a36.87,36.87,0,0,1,36.87,36.87l-15.8,210.71A36.88,36.88,0,0,1,632.46,1197.39Z" transform="translate(-6 -6)"/><path class="cls-11" d="M648.93,912.93H363.55a36.15,36.15,0,0,0-30.23,16.31,36,36,0,0,1,19.89-6H638.59a36.2,36.2,0,0,1,36.2,36.2L659,1171.53a36,36,0,0,1-6,19.89,36.15,36.15,0,0,0,16.31-30.23l15.8-212.05A36.2,36.2,0,0,0,648.93,912.93Z" transform="translate(-6 -6)"/><rect class="cls-12" x="350.67" y="1033.64" width="31.03" height="31.03" rx="1.75" ry="1.75"/><path class="cls-5" d="M380.85,1085.42s-26.78,3-47.57,4.52l-15.19.92-13.11.4-12.58-.05-2,85.31,15.77,0.07,15.77-.48,17.72-1.07c23.89-1.78,52.51-5,52.51-5,18.37-2.41,29.68-23.81,25.79-47C414,1099.72,397.36,1083.27,380.85,1085.42Z" transform="translate(-6 -6)"/><path class="cls-5" d="M352.46,1063.36c-14.11,1.59-25.06,11.59-33.31,21.55a132.4,132.4,0,0,0-13.83,20.41c-3.3,6.19-2.53,15.22,2.19,19.89s11.44,3.37,14.65-3.06c0.07-.13,1-2,2.73-4.71a96.16,96.16,0,0,1,7.05-9.94c5.94-7.33,13.93-14.75,23.58-15.86,5.57-.63,9.3-7.46,8.33-15.25S357.79,1062.76,352.46,1063.36Z" transform="translate(-6 -6)"/><path class="cls-9" d="M281.79,1188.46c-214-19-208.67-99.72-153.28-197.73,42.28-74.82,141.35-197,206.58-219.3l-5.93,64.3,37.41,67.12C284.83,950.44,261.5,985.48,223.27,1043c-12.65,19-9.2,22.79-8.82,23.1,8.08,6.58,71.07,10,103.06,7.46l8.2,113.46C315.14,1187.84,292.83,1188.46,281.79,1188.46Z" transform="translate(-6 -6)"/><path class="cls-5" d="M629.82,1085.42s26.78,3,47.57,4.52l15.19,0.92,13.11,0.4,12.58-.05,2,85.31-15.77.07-15.77-.48L671,1175c-23.89-1.78-52.51-5-52.51-5-18.37-2.41-29.68-23.81-25.79-47C596.66,1099.72,613.31,1083.27,629.82,1085.42Z" transform="translate(-6 -6)"/><path class="cls-5" d="M658.21,1063.36c14.11,1.59,25.06,11.59,33.31,21.55a132.4,132.4,0,0,1,13.83,20.41c3.3,6.19,2.53,15.22-2.19,19.89s-11.44,3.37-14.65-3.06c-0.07-.13-1-2-2.73-4.71a96.15,96.15,0,0,0-7.05-9.94c-5.94-7.33-13.93-14.75-23.58-15.86-5.57-.63-9.3-7.46-8.33-15.25S652.89,1062.76,658.21,1063.36Z" transform="translate(-6 -6)"/><path class="cls-9" d="M728.88,1188.46c214-19,208.67-99.72,153.28-197.73-42.28-74.82-141.35-197-206.58-219.3l11.5,70.76-43,60.66C725.84,950.44,749.17,985.48,787.4,1043c12.65,19,9.2,22.79,8.82,23.1-8.08,6.58-71.07,10-103.06,7.46L685,1187C695.53,1187.84,717.84,1188.46,728.88,1188.46Z" transform="translate(-6 -6)"/><path class="cls-5" d="M667.64,415.72v-74c0-78.55-90.94-177.79-162.92-177.79S341.81,263.21,341.81,341.76v74c-20,0-36.2,15.92-36.2,35.56v37c0,19.64,16.21,35.56,36.2,35.56,0,78.55,90.94,180.63,162.92,180.63S667.64,602.36,667.64,523.81c20,0,36.2-15.92,36.2-35.56v-37C703.85,431.64,687.64,415.72,667.64,415.72Z" transform="translate(-6 -6)"/><path class="cls-13" d="M504.73,572.88V704.44c72,0,162.92-102.08,162.92-180.63,20,0,36.2-15.92,36.2-35.56v-37c0-19.64-16.21-35.56-36.2-35.56v-74c0-78.55-90.93-177.79-162.92-177.79V452c-26.41,55.17-36.2,113.78-36.2,113.78Z" transform="translate(-6 -6)"/><circle class="cls-14" cx="416.05" cy="477.23" r="28.09" transform="translate(-22.41 8.81) rotate(-2)"/><circle class="cls-4" cx="416.05" cy="470.12" r="28.09" transform="translate(-22.16 8.81) rotate(-2)"/><circle class="cls-8" cx="425.58" cy="475.58" r="7.02" transform="translate(-22.34 9.15) rotate(-2)"/><path class="cls-4" d="M450.21,447.68c-5.18-12-18.45-21.16-33-22.71-8.94-1-25.71.35-40.12,18.59a10.67,10.67,0,0,1-2.13,0,20.83,20.83,0,0,1-6-1.59,27.77,27.77,0,0,1-8.1-5.51,0.92,0.92,0,0,0-1-.17,0.88,0.88,0,0,0-.4,1.17,30.8,30.8,0,0,0,1.62,3,28.9,28.9,0,0,0,4.78,6,27.86,27.86,0,0,0,6.62,4.75,21.75,21.75,0,0,0,2.67,1.14c0.67,0.24,1.37.37,1.25,0.35a4.61,4.61,0,0,0,4.55-2.47c9.44-13.18,22.06-19.66,35.53-18.21,11.91,1.27,23.12,8.86,27.25,18.46A3.56,3.56,0,1,0,450.21,447.68Z" transform="translate(-6 -6)"/><circle class="cls-14" cx="593.84" cy="477.23" r="28.09" transform="translate(-22.3 15.02) rotate(-2)"/><circle class="cls-4" cx="593.84" cy="470.12" r="28.09" transform="translate(-22.05 15.02) rotate(-2)"/><circle class="cls-8" cx="603.37" cy="475.58" r="7.02" transform="matrix(1, -0.03, 0.03, 1, -22.23, 15.35)"/><path class="cls-4" d="M559.68,447.68c5.18-12,18.46-21.16,33-22.71,8.94-1,25.71.35,40.12,18.59a10.67,10.67,0,0,0,2.13,0,20.83,20.83,0,0,0,6-1.59,27.77,27.77,0,0,0,8.1-5.51,0.92,0.92,0,0,1,1-.17,0.88,0.88,0,0,1,.4,1.17,30.8,30.8,0,0,1-1.62,3,28.9,28.9,0,0,1-4.78,6,27.85,27.85,0,0,1-6.62,4.75,21.75,21.75,0,0,1-2.67,1.14c-0.67.24-1.37,0.37-1.25,0.35a4.61,4.61,0,0,1-4.55-2.47c-9.44-13.18-22.06-19.66-35.53-18.21-11.91,1.27-23.12,8.86-27.25,18.46A3.56,3.56,0,1,1,559.68,447.68Z" transform="translate(-6 -6)"/><path class="cls-4" d="M738.79,281.64a41.14,41.14,0,0,0,1.58-47.28,42.4,42.4,0,0,0-23.83-67.68,38,38,0,0,0-10.87-4.81,41.49,41.49,0,0,0-66.88-43.19,48.75,48.75,0,1,0-90.3,36,40.64,40.64,0,0,0-14,6.42c0-.48.07-1,0.07-1.45A43.92,43.92,0,0,0,517,124.48,46.51,46.51,0,0,0,470.68,71c-0.88,0-1.74.08-2.61,0.13a56.49,56.49,0,0,0-49.69,13.19,45.46,45.46,0,0,0-41.06,45.16,39.48,39.48,0,0,0-31.1,21.9,46.06,46.06,0,0,0-22,39.2,41.51,41.51,0,0,0-27.09,49.46A52.31,52.31,0,0,0,304,321a53.29,53.29,0,0,0,89.69,46.2,39.22,39.22,0,0,0,30.39-29.68l0.55,0a40.94,40.94,0,0,0,40.94-40.94c0-.24,0-0.46,0-0.7a42.19,42.19,0,0,0,28.2-26,54,54,0,0,0,5.87-1.68,54.15,54.15,0,0,0,50.1,34.43,40.87,40.87,0,0,0,40.65,36.73c1.23,0,2.45-.08,3.65-0.18A42,42,0,0,0,672.15,365,53.73,53.73,0,1,0,738.79,281.64Z" transform="translate(-6 -6)"/><path class="cls-15" d="M557.52,597c0,27.93-25.47,50.57-56.89,50.57S443.74,624.94,443.74,597H557.52Z" transform="translate(-6 -6)"/><path class="cls-8" d="M446.59,591h94.82a0,0,0,0,1,0,0v18a1,1,0,0,1-1,1H447.59a1,1,0,0,1-1-1V591A0,0,0,0,1,446.59,591Z"/></g></g></g></g></svg>