<svg xmlns="http://www.w3.org/2000/svg" xmlns:xlink="http://www.w3.org/1999/xlink" viewBox="0 0 999 1098.85"><defs><style>.cls-1{fill:#eedb75;}.cls-2{isolation:isolate;}.cls-3{clip-path:url(#clip-path);}.cls-4{fill:#3c2518;}.cls-5{fill:#be8858;}.cls-6{fill:#deb4a0;}.cls-11,.cls-13,.cls-14,.cls-6{mix-blend-mode:multiply;}.cls-7{fill:#2a2a33;}.cls-8{fill:#fff;}.cls-9{fill:#43414e;}.cls-10{fill:#e7e7e7;}.cls-11{fill:#c8c8c8;}.cls-12{fill:#696772;}.cls-13{fill:#f5ccb9;opacity:0.8;}.cls-14{fill:#f7cdba;}.cls-15{fill:#f05e45;}</style><clipPath id="clip-path" transform="translate(-1)"><polygon class="cls-1" points="1000 1001.25 1 1000 1 0 1000 0 1000 1001.25"/></clipPath></defs><title>f2-square-avatar-1000x1000</title><g class="cls-2"><g id="f2"><polygon class="cls-1" points="999 1001.25 0 1000 0 0 999 0 999 1001.25"/><g class="cls-3"><g id="woman"><path class="cls-4" d="M702.24,297.68a30.56,30.56,0,0,0,4.17-6.59,33.08,33.08,0,0,0-10.34-47.24,33.26,33.26,0,0,0-5.32-23.06,34.54,34.54,0,0,0-15.27-51.3,32.56,32.56,0,0,0-13.18-33.06A27.59,27.59,0,0,0,630,100.21a28.85,28.85,0,0,0-37.63-18.44,26.15,26.15,0,0,0-23-14A37,37,0,0,0,526,39.86a37.85,37.85,0,0,0-69,12.9,29.08,29.08,0,0,0-17.55,10.48,30.91,30.91,0,0,0-47.66,9.62,36.58,36.58,0,0,0-35.4,44.62,25.75,25.75,0,0,0-18,24.48,25.33,25.33,0,0,0,.29,2.84,28.27,28.27,0,0,0-15.79,43.13,28.31,28.31,0,0,0-10.2,21.79c0,0.27,0,.54,0,0.82a37.69,37.69,0,0,0-9.29,61.53,31.7,31.7,0,0,0,4.33,32.29,25.83,25.83,0,0,0,3.74,35.5,31.79,31.79,0,0,0,17.46,42,27.83,27.83,0,0,0,15.3,33.94,28,28,0,0,0,28,31.78c0.47,0,.93,0,1.4-0.07a33.91,33.91,0,0,0,40.06,30.47,26.34,26.34,0,0,0,31.5,25.5,30.53,30.53,0,0,0,41.07,11.34,36,36,0,0,0,60-21.93,25.92,25.92,0,0,0,15.9-7.54,27.78,27.78,0,0,0,42.57-11.08A34,34,0,0,0,644.47,437a30.84,30.84,0,0,0,16.7-24.78,33.45,33.45,0,0,0,19.48-36.07A32.94,32.94,0,0,0,692,351.25c0-1-.06-2-0.15-3A30.76,30.76,0,0,0,702.24,297.68Z" transform="translate(-1)"/><polygon class="cls-5" points="551.91 495.62 551.91 434.54 456.14 434.54 456.14 495.62 432.19 502.27 456.14 651.89 551.91 651.89 575.86 502.27 551.91 495.62"/><polygon class="cls-6" points="456.14 434.94 456.14 457.14 551.91 495.62 551.91 434.94 456.14 434.94"/><path class="cls-7" d="M675,1098.85c1.28-126.28-30.83-175.5-30.83-175.5H365.9s-32.11,49.22-30.83,175.5H675Z" transform="translate(-1)"/><rect class="cls-8" x="407.67" y="570.39" width="194.58" height="352.96"/><path class="cls-9" d="M481.08,650.25L449.18,497.48c-134.79,7.06-43.4,78.6-74,122.43-47.58,68.2-10.49,115.25,12.24,138.46,0,0-6.41,103.81-51.5,237.47H478.62V947.22Z" transform="translate(-1)"/><polygon class="cls-7" points="393.36 535.21 445.85 555.06 425.25 583.79 480.08 650.25 448.1 496.25 393.36 535.21"/><path class="cls-9" d="M529,650.25l31.89-152.77c134.79,7.06,43.4,78.6,74,122.43,47.58,68.2,10.48,115.25-12.24,138.46,0,0,6.41,103.81,51.5,237.47H531.43V947.22Z" transform="translate(-1)"/><polygon class="cls-7" points="614.69 535.21 562.19 555.06 582.8 583.79 527.97 650.25 559.95 496.25 614.69 535.21"/><path class="cls-10" d="M590.63,796.8h-170A24.83,24.83,0,0,1,395.81,772L385.16,630.07A24.83,24.83,0,0,1,410,605.24H601.27a24.83,24.83,0,0,1,24.83,24.83L615.46,772A24.83,24.83,0,0,1,590.63,796.8Z" transform="translate(-1)"/><path class="cls-11" d="M601.72,605.24H409.54a24.35,24.35,0,0,0-20.36,11,24.25,24.25,0,0,1,13.39-4H594.76a24.38,24.38,0,0,1,24.38,24.38l-10.64,142.8a24.25,24.25,0,0,1-4,13.39,24.35,24.35,0,0,0,11-20.36l10.64-142.8A24.38,24.38,0,0,0,601.72,605.24Z" transform="translate(-1)"/><rect class="cls-12" x="403.91" y="690.57" width="20.9" height="20.9" rx="1.75" ry="1.75"/><path class="cls-5" d="M421.2,721.4s-18,2-32,3l-10.23.62-8.83.27-8.47,0-1.34,57.45,10.62,0,10.62-.32,11.93-.72c16.09-1.2,35.36-3.39,35.36-3.39,12.37-1.62,20-16,17.37-31.62S432.32,719.95,421.2,721.4Z" transform="translate(-1)"/><path class="cls-5" d="M402.08,706.54c-9.5,1.07-16.88,7.8-22.43,14.51a89.16,89.16,0,0,0-9.31,13.75c-2.22,4.17-1.7,10.25,1.48,13.39s7.71,2.27,9.87-2.06c0-.09.7-1.34,1.84-3.17a64.75,64.75,0,0,1,4.75-6.69c4-4.93,9.38-9.93,15.88-10.68,3.75-.42,6.27-5,5.61-10.27S405.66,706.14,402.08,706.54Z" transform="translate(-1)"/><path class="cls-9" d="M354.49,790.78C210.38,778,214,723.63,251.27,657.63,279.74,607.24,346.46,525,390.38,510l-4,43.3,25.19,45.2c-55,32-70.75,55.65-96.49,94.37-8.52,12.82-6.2,15.35-5.94,15.55,5.44,4.43,47.86,6.76,69.4,5l5.52,76.4C376.95,790.37,361.92,790.78,354.49,790.78Z" transform="translate(-1)"/><path class="cls-5" d="M588.85,721.4s18,2,32,3l10.23,0.62,8.83,0.27,8.47,0,1.34,57.45-10.62,0-10.62-.32-11.93-.72c-16.09-1.2-35.36-3.39-35.36-3.39-12.37-1.62-20-16-17.37-31.62S577.73,719.95,588.85,721.4Z" transform="translate(-1)"/><path class="cls-5" d="M608,706.54c9.5,1.07,16.88,7.8,22.43,14.51a89.16,89.16,0,0,1,9.31,13.75c2.22,4.17,1.7,10.25-1.48,13.39s-7.71,2.27-9.87-2.06c0-.09-0.7-1.34-1.84-3.17a64.75,64.75,0,0,0-4.75-6.69c-4-4.93-9.38-9.93-15.88-10.68-3.75-.42-6.27-5-5.61-10.27S604.39,706.14,608,706.54Z" transform="translate(-1)"/><path class="cls-9" d="M655.56,790.78C799.67,778,796.08,723.63,758.78,657.63,730.31,607.24,663.59,525,619.67,510l7.74,47.65-28.94,40.85c55,32,70.75,55.65,96.49,94.37,8.52,12.82,6.2,15.35,5.94,15.55-5.44,4.43-47.86,6.76-69.4,5L626,789.8C633.1,790.37,648.13,790.78,655.56,790.78Z" transform="translate(-1)"/><path class="cls-5" d="M614.32,270.42v-49.8c0-52.9-61.24-119.72-109.71-119.72S394.91,167.72,394.91,220.61v49.8a24.17,24.17,0,0,0-24.38,23.94v24.9a24.17,24.17,0,0,0,24.38,23.94c0,52.9,61.24,121.64,109.71,121.64s109.71-68.74,109.71-121.64a24.17,24.17,0,0,0,24.38-23.94v-24.9A24.17,24.17,0,0,0,614.32,270.42Z" transform="translate(-1)"/><path class="cls-13" d="M504.62,376.25v88.59c48.47,0,109.71-68.74,109.71-121.64a24.17,24.17,0,0,0,24.38-23.94v-24.9a24.17,24.17,0,0,0-24.38-23.94v-49.8c0-52.9-61.24-119.72-109.71-119.72V294.84c-17.79,37.15-24.38,76.62-24.38,76.62Z" transform="translate(-1)"/><circle class="cls-14" cx="444.9" cy="311.84" r="18.91" transform="translate(-11.61 15.72) rotate(-2)"/><circle class="cls-4" cx="444.9" cy="307.05" r="18.91" transform="translate(-11.45 15.72) rotate(-2)"/><circle class="cls-8" cx="451.32" cy="310.73" r="4.73" transform="matrix(1, -0.03, 0.03, 1, -11.57, 15.94)"/><path class="cls-4" d="M467.9,291.94c-3.49-8.1-12.43-14.25-22.25-15.29-6-.66-17.31.23-27,12.52a7.18,7.18,0,0,1-1.43,0,14,14,0,0,1-4-1.07,18.7,18.7,0,0,1-5.46-3.71,0.62,0.62,0,0,0-.68-0.12,0.59,0.59,0,0,0-.27.79,20.74,20.74,0,0,0,1.09,2,19.46,19.46,0,0,0,3.22,4.07,18.76,18.76,0,0,0,4.46,3.2,14.64,14.64,0,0,0,1.8.77c0.45,0.16.92,0.25,0.84,0.24a3.1,3.1,0,0,0,3.06-1.66c6.36-8.88,14.86-13.24,23.93-12.27,8,0.86,15.57,6,18.35,12.43A2.39,2.39,0,1,0,467.9,291.94Z" transform="translate(-1)"/><circle class="cls-14" cx="564.62" cy="311.84" r="18.91" transform="translate(-11.54 19.9) rotate(-2)"/><circle class="cls-4" cx="564.62" cy="307.05" r="18.91" transform="matrix(1, -0.03, 0.03, 1, -11.37, 19.9)"/><circle class="cls-8" cx="571.04" cy="310.73" r="4.73" transform="matrix(1, -0.03, 0.03, 1, -11.5, 20.12)"/><path class="cls-4" d="M541.62,291.94c3.49-8.1,12.43-14.25,22.25-15.29,6-.66,17.31.23,27,12.52a7.18,7.18,0,0,0,1.43,0,14,14,0,0,0,4-1.07,18.7,18.7,0,0,0,5.46-3.71,0.62,0.62,0,0,1,.68-0.12,0.59,0.59,0,0,1,.27.79,20.74,20.74,0,0,1-1.09,2,19.46,19.46,0,0,1-3.22,4.07,18.76,18.76,0,0,1-4.46,3.2,14.65,14.65,0,0,1-1.8.77c-0.45.16-.92,0.25-0.84,0.24a3.1,3.1,0,0,1-3.06-1.66c-6.36-8.88-14.86-13.24-23.93-12.27-8,.86-15.57,6-18.35,12.43A2.4,2.4,0,1,1,541.62,291.94Z" transform="translate(-1)"/><path class="cls-4" d="M662.23,180.13a27.7,27.7,0,0,0,1.06-31.84,28.55,28.55,0,0,0-16-45.57,25.58,25.58,0,0,0-7.32-3.24,27.94,27.94,0,0,0-45-29.08,32.83,32.83,0,1,0-60.81,24.23,27.37,27.37,0,0,0-9.42,4.32c0-.33,0-0.65,0-1A29.58,29.58,0,0,0,512.87,74.3a31.32,31.32,0,0,0-31.19-36c-0.59,0-1.17.06-1.76,0.09a38,38,0,0,0-33.46,8.89,30.61,30.61,0,0,0-27.65,30.41,26.59,26.59,0,0,0-20.94,14.75A31,31,0,0,0,383,118.83a28,28,0,0,0-18.24,33.31,35.23,35.23,0,0,0,4.67,54.49,35.89,35.89,0,0,0,60.4,31.11,26.41,26.41,0,0,0,20.46-20l0.37,0a27.57,27.57,0,0,0,27.57-27.57c0-.16,0-0.31,0-0.47a28.41,28.41,0,0,0,19-17.52,36.34,36.34,0,0,0,4-1.13,36.46,36.46,0,0,0,33.74,23.19A27.52,27.52,0,0,0,562.31,219c0.83,0,1.65-.05,2.46-0.12a28.26,28.26,0,0,0,52.59,17.38A36.18,36.18,0,1,0,662.23,180.13Z" transform="translate(-1)"/><path class="cls-15" d="M540.16,392.5c0,18.81-17.15,34.05-38.31,34.05s-38.31-15.25-38.31-34.05h76.62Z" transform="translate(-1)"/><path class="cls-8" d="M468.51,392.5h63.85a0,0,0,0,1,0,0v11.77a1,1,0,0,1-1,1H469.51a1,1,0,0,1-1-1V392.5A0,0,0,0,1,468.51,392.5Z"/></g></g></g></g></svg>