<svg xmlns="http://www.w3.org/2000/svg" xmlns:xlink="http://www.w3.org/1999/xlink" viewBox="0 0 988 1666.11"><defs><style>.cls-1{fill:#988f76;}.cls-2{isolation:isolate;}.cls-3{clip-path:url(#clip-path);}.cls-12,.cls-13,.cls-4{fill:#f7cdba;}.cls-5{fill:#deb4a0;}.cls-10,.cls-12,.cls-13,.cls-5{mix-blend-mode:multiply;}.cls-6{fill:#2a2a33;}.cls-7{fill:#fff;}.cls-8{fill:#43414e;}.cls-9{fill:#e7e7e7;}.cls-10{fill:#c8c8c8;}.cls-11{fill:#696772;}.cls-12{opacity:0.8;}.cls-14{fill:#3c2518;}.cls-15{fill:#f05e45;}.cls-16{fill:#3c2517;}.cls-17{fill:#503d31;}</style><clipPath id="clip-path" transform="translate(-6 -6)"><path class="cls-1" d="M994,500c0,276.14-217.86,492-494,492S6,776.14,6,500,223.86,6,500,6,994,223.86,994,500Z"/></clipPath></defs><title>f3-circle-avatar-1000x1000</title><g class="cls-2"><g id="f3"><path class="cls-1" d="M994,500c0,276.14-217.86,492-494,492S6,776.14,6,500,223.86,6,500,6,994,223.86,994,500Z" transform="translate(-6 -6)"/><g class="cls-3"><g id="woman"><polygon class="cls-4" points="570.76 745.51 570.76 652.29 424.59 652.29 424.59 745.51 388.05 755.65 424.59 983.99 570.76 983.99 607.3 755.65 570.76 745.51"/><polygon class="cls-5" points="424.59 652.9 424.59 686.78 570.76 745.51 570.76 652.9 424.59 652.9"/><path class="cls-6" d="M763,1672.11c1.95-192.71-47-267.83-47-267.83H291.35s-49,75.12-47,267.83H763Z" transform="translate(-6 -6)"/><rect class="cls-7" x="350.63" y="868.74" width="296.95" height="529.53"/><path class="cls-8" d="M467.12,987.49L418.45,754.34c-205.71,10.77-66.24,120-112.9,186.84-72.62,104.09-16,175.89,18.67,211.31,0,0-9.78,158.43-78.59,362.41H463.37V1440.7Z" transform="translate(-6 -6)"/><polygon class="cls-6" points="328.78 805.92 408.89 836.21 377.45 880.06 461.13 981.49 412.32 746.46 328.78 805.92"/><path class="cls-8" d="M540.21,987.49l48.67-233.14c205.71,10.77,66.24,120,112.9,186.84,72.62,104.09,16,175.89-18.67,211.31,0,0,9.78,158.43,78.59,362.41H544V1440.7Z" transform="translate(-6 -6)"/><polygon class="cls-6" points="666.56 805.92 586.44 836.21 617.89 880.06 534.21 981.49 583.02 746.46 666.56 805.92"/><path class="cls-9" d="M634.31,1211.14H374.89a37.9,37.9,0,0,1-37.9-37.9L320.75,956.7a37.9,37.9,0,0,1,37.9-37.9H650.56a37.89,37.89,0,0,1,37.9,37.9l-16.24,216.55A37.9,37.9,0,0,1,634.31,1211.14Z" transform="translate(-6 -6)"/><path class="cls-10" d="M651.24,918.8H358a37.16,37.16,0,0,0-31.07,16.77,37,37,0,0,1,20.44-6.13H640.61a37.21,37.21,0,0,1,37.21,37.21l-16.24,217.92a37,37,0,0,1-6.13,20.44,37.16,37.16,0,0,0,16.77-31.07L688.45,956A37.21,37.21,0,0,0,651.24,918.8Z" transform="translate(-6 -6)"/><rect class="cls-11" x="344.88" y="1043.02" width="31.89" height="31.89" rx="1.75" ry="1.75"/><path class="cls-4" d="M375.74,1096.07s-27.52,3.06-48.89,4.65l-15.61.94-13.47.41-12.93-.05-2,87.68,16.21,0.07,16.21-.49,18.21-1.1c24.55-1.83,54-5.18,54-5.18,18.88-2.47,30.5-24.47,26.5-48.26C409.82,1110.76,392.71,1093.86,375.74,1096.07Z" transform="translate(-6 -6)"/><path class="cls-4" d="M346.56,1073.4c-14.5,1.64-25.75,11.91-34.23,22.15a136.09,136.09,0,0,0-14.21,21c-3.39,6.36-2.6,15.64,2.26,20.44s11.76,3.47,15.06-3.15c0.07-.13,1.06-2,2.8-4.84a98.68,98.68,0,0,1,7.25-10.22c6.1-7.53,14.31-15.16,24.23-16.3,5.73-.65,9.56-7.66,8.56-15.67S352,1072.78,346.56,1073.4Z" transform="translate(-6 -6)"/><path class="cls-8" d="M273.93,1202C54,1182.46,59.48,1099.48,116.41,998.75c43.46-76.89,145.27-202.41,212.3-225.37l-6.1,66.08,38.44,69c-84,48.91-108,84.93-147.26,144-13,19.56-9.46,23.42-9.07,23.74,8.3,6.76,73,10.31,105.92,7.67l8.43,116.6C308.21,1201.33,285.28,1202,273.93,1202Z" transform="translate(-6 -6)"/><path class="cls-4" d="M631.6,1096.07s27.52,3.06,48.89,4.65l15.61,0.94,13.47,0.41,12.93-.05,2,87.68-16.21.07-16.21-.49-18.21-1.1c-24.55-1.83-54-5.18-54-5.18-18.88-2.47-30.5-24.47-26.5-48.26C597.52,1110.76,614.63,1093.86,631.6,1096.07Z" transform="translate(-6 -6)"/><path class="cls-4" d="M660.79,1073.4c14.5,1.64,25.75,11.91,34.23,22.15a136,136,0,0,1,14.21,21c3.39,6.36,2.6,15.64-2.26,20.44s-11.76,3.47-15.06-3.15c-0.07-.13-1.06-2-2.8-4.84a98.7,98.7,0,0,0-7.25-10.22c-6.1-7.53-14.31-15.16-24.23-16.3-5.73-.65-9.56-7.66-8.56-15.67S655.31,1072.78,660.79,1073.4Z" transform="translate(-6 -6)"/><path class="cls-8" d="M733.41,1202c219.93-19.5,214.45-102.48,157.53-203.21-43.45-76.89-145.27-202.41-212.3-225.37l11.82,72.72-44.16,62.33c84,48.91,108,84.93,147.26,144,13,19.56,9.45,23.42,9.07,23.74-8.3,6.76-73,10.31-105.91,7.67l-8.43,116.6C699.14,1201.33,722.07,1202,733.41,1202Z" transform="translate(-6 -6)"/><path class="cls-4" d="M670.7,407V331c0-80.73-93.45-182.71-167.43-182.71S335.84,250.25,335.84,331v76c-20.55,0-37.21,16.36-37.21,36.54v38c0,20.18,16.66,36.54,37.21,36.54,0,80.73,93.45,185.63,167.43,185.63S670.7,598.8,670.7,518.08c20.55,0,37.21-16.36,37.21-36.54v-38C707.9,423.35,691.25,407,670.7,407Z" transform="translate(-6 -6)"/><path class="cls-12" d="M503.27,568.51V703.71c74,0,167.43-104.91,167.43-185.63,20.55,0,37.21-16.36,37.21-36.54v-38c0-20.18-16.66-36.54-37.21-36.54V331c0-80.73-93.45-182.71-167.43-182.71v296C476.12,501,466.06,561.2,466.06,561.2Z" transform="translate(-6 -6)"/><circle class="cls-13" cx="411.91" cy="471.03" r="28.86" transform="translate(-22.19 8.67) rotate(-2)"/><circle class="cls-14" cx="411.91" cy="463.73" r="28.86" transform="translate(-21.94 8.66) rotate(-2)"/><circle class="cls-7" cx="421.71" cy="469.34" r="7.22" transform="translate(-22.13 9.01) rotate(-2)"/><path class="cls-14" d="M447,440.67c-5.32-12.37-19-21.74-33.95-23.34-9.18-1-26.42.36-41.23,19.11a11,11,0,0,1-2.19,0,21.42,21.42,0,0,1-6.17-1.63,28.53,28.53,0,0,1-8.33-5.66,0.94,0.94,0,0,0-1-.18,0.9,0.9,0,0,0-.42,1.21,31.85,31.85,0,0,0,1.66,3.06,29.72,29.72,0,0,0,4.91,6.21,28.64,28.64,0,0,0,6.81,4.88,22.36,22.36,0,0,0,2.74,1.17c0.69,0.24,1.41.38,1.29,0.36a4.73,4.73,0,0,0,4.68-2.54c9.7-13.54,22.67-20.21,36.52-18.72,12.24,1.31,23.76,9.1,28,19A3.66,3.66,0,1,0,447,440.67Z" transform="translate(-6 -6)"/><circle class="cls-13" cx="594.62" cy="471.03" r="28.86" transform="translate(-22.08 15.04) rotate(-2)"/><circle class="cls-14" cx="594.62" cy="463.73" r="28.86" transform="translate(-21.82 15.04) rotate(-2)"/><circle class="cls-7" cx="604.42" cy="469.34" r="7.22" transform="translate(-22.01 15.38) rotate(-2)"/><path class="cls-14" d="M559.52,440.67c5.32-12.37,19-21.74,33.95-23.34,9.18-1,26.42.36,41.23,19.11a11,11,0,0,0,2.19,0,21.42,21.42,0,0,0,6.17-1.63,28.54,28.54,0,0,0,8.33-5.66,0.94,0.94,0,0,1,1-.18,0.9,0.9,0,0,1,.42,1.21,31.76,31.76,0,0,1-1.66,3.06,29.72,29.72,0,0,1-4.91,6.21,28.64,28.64,0,0,1-6.81,4.88,22.36,22.36,0,0,1-2.74,1.17c-0.69.24-1.41,0.38-1.29,0.36a4.73,4.73,0,0,1-4.68-2.54c-9.7-13.54-22.67-20.21-36.52-18.72-12.24,1.31-23.76,9.1-28,19A3.66,3.66,0,1,1,559.52,440.67Z" transform="translate(-6 -6)"/><path class="cls-15" d="M561.47,595.5c0,28.7-26.18,52-58.47,52s-58.47-23.27-58.47-52H561.47Z" transform="translate(-6 -6)"/><path class="cls-7" d="M447.64,589.5h97.45a0,0,0,0,1,0,0V608a1,1,0,0,1-1,1H448.64a1,1,0,0,1-1-1V589.5A0,0,0,0,1,447.64,589.5Z"/><circle class="cls-16" cx="619.89" cy="141.93" r="102.32"/><path class="cls-7" d="M669.95,397.66c-14.7-10-41.57-10-65.87-9.92-40.93,0-68.33,8-81.56,23.81-4.56-2.6-11.27-3.37-18.84-3.37s-14.27.76-18.84,3.37c-13.23-15.78-40.64-23.81-81.56-23.81-24.32-.05-51.17,0-65.87,9.92H311.7v27.77l11.11,6.17c0.24,43.33,21.39,93.54,80.46,93.54,48.58,0,78.67-26.36,89.44-78.33a49.52,49.52,0,0,0,1-10.94c0.74-2.89,4.5-5.76,9.93-5.76s9.19,2.87,9.93,5.76a49.48,49.48,0,0,0,1,10.94c10.77,52,40.86,78.33,89.44,78.33,59.07,0,80.22-50.22,80.46-93.54l11.11-6.17V397.66H669.95ZM479.83,444.15c-9.46,45.65-34.5,67.84-76.56,67.84-64.08,0-67.33-67.57-67.33-81.12,0-9.52,2.16-16.3,6.6-20.73,8.57-8.54,39.74-9.23,60.73-9.23,46.29,0,64.58,10.53,71.78,19.38C480.19,426.6,481.8,434.62,479.83,444.15ZM604.07,512c-42.06,0-67.1-22.19-76.56-67.84-2-9.52-.36-17.55,4.78-23.87,7.19-8.84,25.49-19.38,71.78-19.38,23.79-.05,51.29-0.17,60.73,9.23,4.44,4.43,6.6,11.21,6.6,20.73C671.4,444.41,668.15,512,604.07,512Z" transform="translate(-6 -6)"/><path class="cls-17" d="M429,334.06c-5,17.83-14.69,41.37-31.57,55.4,49.7-12.72,92-42.1,122.64-76.88-3,18-14.4,37.57-32,54.89a227.74,227.74,0,0,0,38.81-22.36c27.7-19.44,45-44.66,63.29-70.23,17.81,65.23,46.43,127.39,115.6,161.73,49.66-100,39-331.59-178.67-338.2C257.32,90.2,266.6,378.51,285.24,448.89,341.75,431,417.51,351.09,429,334.06Z" transform="translate(-6 -6)"/></g></g></g></g></svg>