<svg xmlns="http://www.w3.org/2000/svg" xmlns:xlink="http://www.w3.org/1999/xlink" viewBox="0 0 999 1105.44"><defs><style>.cls-1{fill:#988f76;}.cls-2{isolation:isolate;}.cls-3{clip-path:url(#clip-path);}.cls-12,.cls-13,.cls-4{fill:#f7cdba;}.cls-5{fill:#deb4a0;}.cls-10,.cls-12,.cls-13,.cls-5{mix-blend-mode:multiply;}.cls-6{fill:#2a2a33;}.cls-7{fill:#fff;}.cls-8{fill:#43414e;}.cls-9{fill:#e7e7e7;}.cls-10{fill:#c8c8c8;}.cls-11{fill:#696772;}.cls-12{opacity:0.8;}.cls-14{fill:#3c2518;}.cls-15{fill:#f05e45;}.cls-16{fill:#3c2517;}.cls-17{fill:#503d31;}</style><clipPath id="clip-path" transform="translate(-1)"><polygon class="cls-1" points="1000 1001.25 1 1000 1 0 1000 0 1000 1001.25"/></clipPath></defs><title>f3-square-avatar-1000x1000</title><g class="cls-2"><g id="f3"><polygon class="cls-1" points="999 1001.25 0 1000 0 0 999 0 999 1001.25"/><g class="cls-3"><g id="woman"><polygon class="cls-4" points="553.96 492.78 553.96 430.74 456.69 430.74 456.69 492.78 432.37 499.53 456.69 651.48 553.96 651.49 578.28 499.53 553.96 492.78"/><polygon class="cls-5" points="456.69 431.14 456.69 453.69 553.96 492.77 553.96 431.14 456.69 431.14"/><path class="cls-6" d="M678.94,1105.44c1.3-128.25-31.31-178.24-31.31-178.24H365s-32.61,50-31.31,178.24H678.94Z" transform="translate(-1)"/><rect class="cls-7" x="407.46" y="574.79" width="197.62" height="352.4"/><path class="cls-8" d="M482,649.82L449.61,494.66c-136.9,7.17-44.08,79.83-75.14,124.34-48.33,69.27-10.65,117.05,12.43,140.63,0,0-6.51,105.44-52.3,241.19H479.5V951.44Z" transform="translate(-1)"/><polygon class="cls-6" points="392.92 532.98 446.24 553.14 425.31 582.32 481 649.82 448.52 493.41 392.92 532.98"/><path class="cls-8" d="M530.64,649.82L563,494.66c136.9,7.17,44.08,79.83,75.14,124.34,48.33,69.27,10.65,117.05-12.43,140.63,0,0,6.51,105.44,52.3,241.19H533.14V951.44Z" transform="translate(-1)"/><polygon class="cls-6" points="617.72 532.98 564.4 553.14 585.33 582.32 529.64 649.82 562.12 493.41 617.72 532.98"/><path class="cls-9" d="M593.27,798.66H420.62a25.22,25.22,0,0,1-25.22-25.22L384.59,629.33a25.22,25.22,0,0,1,25.22-25.22H604.07a25.22,25.22,0,0,1,25.22,25.22L618.49,773.44A25.22,25.22,0,0,1,593.27,798.66Z" transform="translate(-1)"/><path class="cls-10" d="M604.53,604.11H409.35a24.73,24.73,0,0,0-20.68,11.16,24.63,24.63,0,0,1,13.6-4.08H597.46a24.76,24.76,0,0,1,24.76,24.76L611.41,781a24.63,24.63,0,0,1-4.08,13.6,24.73,24.73,0,0,0,11.16-20.68l10.81-145A24.76,24.76,0,0,0,604.53,604.11Z" transform="translate(-1)"/><rect class="cls-11" x="403.64" y="690.77" width="21.22" height="21.22" rx="1.75" ry="1.75"/><path class="cls-4" d="M421.18,722.08s-18.31,2-32.54,3.09l-10.39.63-9,.27-8.61,0-1.36,58.35,10.79,0,10.79-.33,12.12-.73c16.34-1.22,35.91-3.45,35.91-3.45,12.57-1.65,20.3-16.29,17.64-32.12S432.48,720.61,421.18,722.08Z" transform="translate(-1)"/><path class="cls-4" d="M401.76,707c-9.65,1.09-17.14,7.93-22.78,14.74a90.57,90.57,0,0,0-9.46,14c-2.25,4.23-1.73,10.41,1.5,13.6s7.83,2.31,10-2.09c0-.09.71-1.36,1.86-3.22a65.67,65.67,0,0,1,4.82-6.8c4.06-5,9.52-10.09,16.13-10.85,3.81-.43,6.36-5.1,5.7-10.43S405.41,706.58,401.76,707Z" transform="translate(-1)"/><path class="cls-8" d="M353.43,792.55c-146.37-13-142.72-68.2-104.83-135.24,28.92-51.17,96.68-134.7,141.29-150l-4.06,44,25.59,45.9c-55.89,32.55-71.85,56.52-98,95.85-8.66,13-6.29,15.59-6,15.8,5.53,4.5,48.61,6.86,70.49,5.1l5.61,77.6C376.24,792.13,361,792.55,353.43,792.55Z" transform="translate(-1)"/><path class="cls-4" d="M591.46,722.08s18.31,2,32.54,3.09l10.39,0.63,9,0.27,8.61,0,1.36,58.35-10.79,0-10.79-.33-12.12-.73c-16.34-1.22-35.91-3.45-35.91-3.45-12.57-1.65-20.3-16.29-17.64-32.12S580.17,720.61,591.46,722.08Z" transform="translate(-1)"/><path class="cls-4" d="M610.88,707c9.65,1.09,17.14,7.93,22.78,14.74a90.53,90.53,0,0,1,9.46,14c2.26,4.23,1.73,10.41-1.5,13.6s-7.83,2.31-10-2.09c0-.09-0.71-1.36-1.86-3.22a65.69,65.69,0,0,0-4.82-6.8c-4.06-5-9.52-10.09-16.13-10.85-3.81-.43-6.36-5.1-5.7-10.43S607.24,706.58,610.88,707Z" transform="translate(-1)"/><path class="cls-8" d="M659.21,792.55c146.37-13,142.72-68.2,104.83-135.24-28.92-51.17-96.68-134.7-141.28-150l7.86,48.4-29.39,41.48c55.89,32.55,71.85,56.52,98,95.85,8.65,13,6.29,15.59,6,15.8-5.53,4.5-48.61,6.86-70.49,5.1l-5.61,77.6C636.4,792.13,651.66,792.55,659.21,792.55Z" transform="translate(-1)"/><path class="cls-4" d="M617.48,263.5V212.91c0-53.72-62.19-121.59-111.42-121.59S394.63,159.19,394.63,212.91V263.5a24.54,24.54,0,0,0-24.76,24.32v25.29a24.54,24.54,0,0,0,24.76,24.32c0,53.72,62.19,123.54,111.42,123.54s111.42-69.82,111.42-123.54a24.54,24.54,0,0,0,24.76-24.32V287.82A24.54,24.54,0,0,0,617.48,263.5Z" transform="translate(-1)"/><path class="cls-12" d="M506.05,371v90c49.23,0,111.42-69.82,111.42-123.54a24.54,24.54,0,0,0,24.76-24.32V287.82a24.54,24.54,0,0,0-24.76-24.32V212.91c0-53.72-62.19-121.59-111.42-121.59v197C488,326,481.29,366.12,481.29,366.12Z" transform="translate(-1)"/><circle class="cls-13" cx="445.26" cy="306.12" r="19.21" transform="translate(-11.41 15.73) rotate(-2)"/><circle class="cls-14" cx="445.26" cy="301.26" r="19.21" transform="matrix(1, -0.03, 0.03, 1, -11.24, 15.73)"/><circle class="cls-7" cx="451.78" cy="304.99" r="4.8" transform="matrix(1, -0.03, 0.03, 1, -11.37, 15.96)"/><path class="cls-14" d="M468.62,285.91c-3.54-8.23-12.62-14.47-22.59-15.53-6.11-.66-17.58.24-27.44,12.72a7.3,7.3,0,0,1-1.46,0A14.25,14.25,0,0,1,413,282a19,19,0,0,1-5.54-3.77,0.63,0.63,0,0,0-.69-0.12,0.6,0.6,0,0,0-.28.8,21.19,21.19,0,0,0,1.11,2,19.78,19.78,0,0,0,3.27,4.13,19.06,19.06,0,0,0,4.53,3.25,14.88,14.88,0,0,0,1.82.78c0.46,0.16.94,0.25,0.86,0.24a3.15,3.15,0,0,0,3.11-1.69c6.46-9,15.09-13.45,24.3-12.46,8.14,0.87,15.81,6.06,18.64,12.62A2.43,2.43,0,1,0,468.62,285.91Z" transform="translate(-1)"/><circle class="cls-13" cx="566.85" cy="306.12" r="19.21" transform="translate(-11.34 19.97) rotate(-2)"/><circle class="cls-14" cx="566.85" cy="301.26" r="19.21" transform="matrix(1, -0.03, 0.03, 1, -11.17, 19.97)"/><circle class="cls-7" cx="573.37" cy="304.99" r="4.8" transform="matrix(1, -0.03, 0.03, 1, -11.3, 20.2)"/><path class="cls-14" d="M543.49,285.91c3.54-8.23,12.62-14.47,22.59-15.53,6.11-.66,17.58.24,27.44,12.72a7.3,7.3,0,0,0,1.46,0,14.25,14.25,0,0,0,4.11-1.09,19,19,0,0,0,5.54-3.77,0.63,0.63,0,0,1,.69-0.12,0.6,0.6,0,0,1,.28.8,21.14,21.14,0,0,1-1.11,2,19.78,19.78,0,0,1-3.27,4.13,19.06,19.06,0,0,1-4.53,3.25,14.88,14.88,0,0,1-1.82.78c-0.46.16-.94,0.25-0.86,0.24a3.15,3.15,0,0,1-3.11-1.69c-6.46-9-15.09-13.45-24.3-12.46-8.14.87-15.81,6.06-18.64,12.62A2.43,2.43,0,1,1,543.49,285.91Z" transform="translate(-1)"/><path class="cls-15" d="M544.79,389c0,19.1-17.42,34.59-38.91,34.59S467,408.05,467,389h77.82Z" transform="translate(-1)"/><path class="cls-7" d="M472,389h64.85a0,0,0,0,1,0,0v12a1,1,0,0,1-1,1H473a1,1,0,0,1-1-1V389A0,0,0,0,1,472,389Z"/><circle class="cls-16" cx="586.66" cy="91.09" r="68.09"/><path class="cls-7" d="M617,257.29c-9.78-6.64-27.66-6.67-43.84-6.6-27.24,0-45.48,5.35-54.28,15.84-3-1.73-7.5-2.24-12.54-2.24s-9.5.51-12.54,2.24c-8.81-10.5-27-15.84-54.28-15.84-16.18,0-34.05,0-43.84,6.6h-17.1v18.48l7.39,4.11c0.16,28.84,14.23,62.25,53.55,62.25,32.33,0,52.35-17.54,59.52-52.13a33,33,0,0,0,.68-7.28c0.49-1.93,3-3.84,6.61-3.84s6.12,1.91,6.61,3.84a32.93,32.93,0,0,0,.68,7.28c7.17,34.59,27.19,52.13,59.52,52.13,39.31,0,53.39-33.42,53.55-62.25l7.39-4.11V257.29H617ZM490.46,288.22c-6.3,30.38-23,45.15-51,45.15-42.65,0-44.81-45-44.81-54,0-6.34,1.44-10.85,4.39-13.79,5.7-5.68,26.45-6.15,40.42-6.15,30.8,0,43,7,47.77,12.9C490.7,276.55,491.77,281.89,490.46,288.22Zm82.68,45.15c-28,0-44.66-14.77-51-45.15-1.31-6.34-.24-11.68,3.18-15.88,4.79-5.89,17-12.9,47.77-12.9,15.83,0,34.13-.11,40.42,6.15,3,2.94,4.39,7.46,4.39,13.79C617.95,288.4,615.79,333.37,573.14,333.37Z" transform="translate(-1)"/><path class="cls-17" d="M456.62,215c-3.31,11.87-9.78,27.53-21,36.87,33.07-8.46,61.24-28,81.61-51.17-2,12-9.58,25-21.3,36.53a151.56,151.56,0,0,0,25.83-14.88c18.43-12.94,30-29.72,42.12-46.74,11.85,43.41,30.9,84.78,76.93,107.63,33-66.56,26-220.67-118.91-225.07C342.37,52.67,348.55,244.54,361,291.38,398.56,279.5,449,226.29,456.62,215Z" transform="translate(-1)"/></g></g></g></g></svg>