<svg xmlns="http://www.w3.org/2000/svg" xmlns:xlink="http://www.w3.org/1999/xlink" viewBox="0 0 988 1825.4"><defs><style>.cls-1{fill:#c47329;}.cls-2{isolation:isolate;}.cls-3{clip-path:url(#clip-path);}.cls-13,.cls-4{fill:#f7cdba;}.cls-5{fill:#deb4a0;}.cls-10,.cls-13,.cls-5{mix-blend-mode:multiply;}.cls-6{fill:#1a1819;}.cls-7{fill:#32313b;}.cls-8{fill:#fff;}.cls-9{fill:#e7e7e7;}.cls-10{fill:#c8c8c8;}.cls-11{fill:#696772;}.cls-12{fill:#503d31;}.cls-14{fill:#3c2518;}.cls-15{fill:#f05e45;}</style><clipPath id="clip-path" transform="translate(-6 -6)"><path class="cls-1" d="M994,500c0,276.14-217.86,492-494,492S6,776.14,6,500,223.86,6,500,6,994,223.86,994,500Z"/></clipPath></defs><title>f4-circle-avatar-1000x1000</title><g class="cls-2"><g id="f4"><path class="cls-1" d="M994,500c0,276.14-217.86,492-494,492S6,776.14,6,500,223.86,6,500,6,994,223.86,994,500Z" transform="translate(-6 -6)"/><g class="cls-3"><g id="woman"><polygon class="cls-4" points="575.27 745.52 575.27 646.34 419.76 646.34 419.76 745.52 380.88 756.31 419.76 999.24 575.27 999.24 614.15 756.31 575.27 745.52"/><polygon class="cls-5" points="419.76 646.99 419.76 683.04 575.27 745.52 575.27 646.99 419.76 646.99"/><path class="cls-6" d="M779.22,1743.49c4.37-214.23-49.81-297.49-49.81-297.49H277.63s-54.24,83.15-49.84,297.49H779.22Z" transform="translate(-6 -6)"/><path class="cls-7" d="M694.43,1178.13c36.89-37.69,97.13-114.07,19.87-224.81C664.65,882.16,813,766,594.18,754.53l-90.66,248-90.66-248C194,766,342.38,882.16,292.73,953.32c-77.26,110.74-17,187.13,19.87,224.81,0,0-10.4,168.56-83.61,385.58h248.6l25.93-93.31,25.93,93.31H778C704.83,1346.69,694.43,1178.13,694.43,1178.13Z" transform="translate(-6 -6)"/><polygon class="cls-8" points="317.83 809.79 403.07 842.02 369.61 888.67 497.52 996.58 406.71 746.53 317.83 809.79"/><polygon class="cls-8" points="677.2 809.79 588.18 747.58 497.52 996.58 625.42 888.67 591.96 842.02 677.2 809.79"/><rect class="cls-9" x="309.03" y="1035.47" width="273.54" height="155.51" rx="5" ry="5" transform="translate(1553.02 661.42) rotate(90)"/><path class="cls-10" d="M475,976.45H416.64A48.37,48.37,0,0,0,377.89,996a48.16,48.16,0,0,1,29-9.84h58.32a48.6,48.6,0,0,1,48.6,48.6v176.35a48.17,48.17,0,0,1-9.84,29,48.37,48.37,0,0,0,19.56-38.76V1025A48.6,48.6,0,0,0,475,976.45Z" transform="translate(-6 -6)"/><rect class="cls-11" x="433.36" y="994.24" width="24.88" height="24.88" rx="1.28" ry="1.28" transform="translate(1446.48 554.88) rotate(90)"/><path class="cls-4" d="M398.51,1118.1s-29.28,3.26-52,4.94l-16.61,1-14.33.44-13.76-.06-2.18,93.28,17.24,0.07,17.24-.52,19.37-1.17c26.12-1.95,57.41-5.51,57.41-5.51,20.09-2.63,32.45-26,28.19-51.34C434.77,1133.73,416.56,1115.75,398.51,1118.1Z" transform="translate(-6 -6)"/><path class="cls-4" d="M367.46,1094c-15.43,1.74-27.4,12.67-36.42,23.56a144.79,144.79,0,0,0-15.12,22.32c-3.61,6.77-2.76,16.64,2.4,21.75s12.51,3.69,16-3.35c0.07-.14,1.13-2.17,3-5.15a105,105,0,0,1,7.71-10.87c6.49-8,15.23-16.13,25.78-17.34,6.09-.69,10.17-8.15,9.11-16.68S373.29,1093.32,367.46,1094Z" transform="translate(-6 -6)"/><path class="cls-7" d="M266.87,1238.53c-234-20.75-235.93-116.8-175.37-224,46.23-81.81,154.55-215.34,225.87-239.78l1,69.26,33.38,74.43c-89.36,52-114.87,90.36-156.67,153.23-13.84,20.81-10.06,24.92-9.65,25.25,8.83,7.19,101,18.75,136,15.93l9,124C318.88,1237.86,278.94,1238.53,266.87,1238.53Z" transform="translate(-6 -6)"/><path class="cls-4" d="M787.53,1781.08l-0.06-140.58s52.21-40.07,65.12-.11c33.84,104.69-8.83,191-28.84,191S787.53,1808.88,787.53,1781.08Z" transform="translate(-6 -6)"/><path class="cls-4" d="M763.11,1763.6c0-51.91,23.13-88.25,24.55-89.78,5.59-6,13.61-4.56,17.93,3.19s3.3,18.87-2.27,24.87a47.29,47.29,0,0,0-2.48,5,138.31,138.31,0,0,0-5,13.19,142.56,142.56,0,0,0-7.16,43.48c0,9.8-5.72,17.75-12.78,17.75S763.11,1773.4,763.11,1763.6Z" transform="translate(-6 -6)"/><path class="cls-7" d="M762.23,1688.6l104.2-.24s1.32-574.51-7.7-654.11c-12.31-180.77-127-276.32-227.31-276.32,0,0,84.76,48.89,57.52,93,13.18,42.34-2.44,85.43,8.76,96.17,35.48,34.06,43.35,41.35,50,99.74C756.12,1121.44,762.23,1688.6,762.23,1688.6Z" transform="translate(-6 -6)"/><path class="cls-12" d="M405.53,672.77c31.64-.26,108.82,6.2,176.33,0,46.8-4.3,94.45-21.64,121.72-57C877.93,390,635.49,61.87,385.87,68.8,200.37,74,153.85,674.81,405.53,672.77Z" transform="translate(-6 -6)"/><path class="cls-4" d="M681.64,384.14V303.28c0-85.89-99.43-194.39-178.13-194.39S325.38,217.39,325.38,303.28v80.86c-21.86,0-39.58,17.41-39.58,38.88v40.43c0,21.47,17.72,38.88,39.58,38.88,0,85.89,99.43,197.5,178.13,197.5s178.13-111.61,178.13-197.5c21.86,0,39.58-17.41,39.58-38.88V423C721.23,401.55,703.51,384.14,681.64,384.14Z" transform="translate(-6 -6)"/><path class="cls-13" d="M503.51,556V699.83c78.7,0,178.13-111.61,178.13-197.5,21.86,0,39.58-17.41,39.58-38.88V423c0-21.47-17.72-38.88-39.58-38.88V303.28c0-85.89-99.43-194.39-178.13-194.39V423.8c-28.88,60.32-39.58,124.41-39.58,124.41Z" transform="translate(-6 -6)"/><circle class="cls-13" cx="406.32" cy="452.28" r="30.71" transform="translate(-21.53 8.45) rotate(-2)"/><circle class="cls-14" cx="406.32" cy="444.5" r="30.71" transform="matrix(1, -0.03, 0.03, 1, -21.26, 8.45)"/><circle class="cls-8" cx="416.74" cy="450.47" r="7.68" transform="translate(-21.47 8.82) rotate(-2)"/><path class="cls-14" d="M443.67,420c-5.66-13.16-20.18-23.13-36.12-24.83-9.77-1.06-28.11.38-43.86,20.33a11.59,11.59,0,0,1-2.33,0,22.78,22.78,0,0,1-6.56-1.74,30.35,30.35,0,0,1-8.86-6,1,1,0,0,0-1.1-.19,1,1,0,0,0-.44,1.28,33.63,33.63,0,0,0,1.77,3.25,31.6,31.6,0,0,0,5.22,6.61,30.46,30.46,0,0,0,7.24,5.19,23.93,23.93,0,0,0,2.92,1.25c0.73,0.26,1.5.4,1.37,0.39a5,5,0,0,0,5-2.7c10.32-14.41,24.12-21.5,38.85-19.91,13,1.39,25.28,9.69,29.79,20.18A3.89,3.89,0,1,0,443.67,420Z" transform="translate(-6 -6)"/><circle class="cls-13" cx="600.71" cy="452.28" r="30.71" transform="translate(-21.42 15.24) rotate(-2)"/><circle class="cls-14" cx="600.71" cy="444.5" r="30.71" transform="translate(-21.14 15.23) rotate(-2)"/><circle class="cls-8" cx="611.13" cy="450.47" r="7.68" transform="translate(-21.35 15.61) rotate(-2)"/><path class="cls-14" d="M563.36,420c5.67-13.16,20.18-23.13,36.12-24.83,9.77-1.06,28.11.38,43.86,20.33a11.59,11.59,0,0,0,2.33,0,22.78,22.78,0,0,0,6.56-1.74,30.36,30.36,0,0,0,8.86-6,1,1,0,0,1,1.1-.19,1,1,0,0,1,.44,1.28,33.61,33.61,0,0,1-1.77,3.25,31.6,31.6,0,0,1-5.22,6.61,30.5,30.5,0,0,1-7.24,5.19,23.93,23.93,0,0,1-2.92,1.25c-0.73.26-1.5,0.4-1.37,0.39a5,5,0,0,1-5-2.7c-10.32-14.41-24.12-21.5-38.85-19.91-13,1.39-25.27,9.69-29.79,20.18A3.89,3.89,0,1,1,563.36,420Z" transform="translate(-6 -6)"/><path class="cls-12" d="M783.45,418.26C736.57,357.35,763.39,31.57,496.2,46.08,225.33,60.8,309.8,349.21,325.38,384.14c10.52-3.72,73.51-95.32,100.27-158.15C491.49,339.47,707.66,405,783.45,418.26Z" transform="translate(-6 -6)"/><path class="cls-15" d="M565.44,584.7c0,30.54-27.85,55.29-62.2,55.29S441,615.24,441,584.7H565.44Z" transform="translate(-6 -6)"/><path class="cls-8" d="M444.71,578.7H548.39a0,0,0,0,1,0,0v19.73a1,1,0,0,1-1,1H445.71a1,1,0,0,1-1-1V578.7A0,0,0,0,1,444.71,578.7Z"/></g></g></g></g></svg>