<svg xmlns="http://www.w3.org/2000/svg" xmlns:xlink="http://www.w3.org/1999/xlink" viewBox="0 0 999 1214.05"><defs><style>.cls-1{fill:#c47329;}.cls-2{isolation:isolate;}.cls-3{clip-path:url(#clip-path);}.cls-13,.cls-4{fill:#f7cdba;}.cls-5{fill:#deb4a0;}.cls-10,.cls-13,.cls-5{mix-blend-mode:multiply;}.cls-6{fill:#1a1819;}.cls-7{fill:#32313b;}.cls-8{fill:#fff;}.cls-9{fill:#e7e7e7;}.cls-10{fill:#c8c8c8;}.cls-11{fill:#696772;}.cls-12{fill:#503d31;}.cls-14{fill:#3c2518;}.cls-15{fill:#f05e45;}</style><clipPath id="clip-path" transform="translate(-1)"><polygon class="cls-1" points="1000 1001.25 1 1000 1 0 1000 0 1000 1001.25"/></clipPath></defs><title>f4-square-avatar-1000x1000</title><g class="cls-2"><g id="f4"><polygon class="cls-1" points="999 1001.25 0 1000 0 0 999 0 999 1001.25"/><g class="cls-3"><g id="woman"><polygon class="cls-4" points="557.77 493.81 557.77 427.67 454.05 427.67 454.05 493.81 428.12 501.01 454.05 663.03 557.77 663.03 583.7 501.01 557.77 493.81"/><polygon class="cls-5" points="454.05 428.1 454.05 452.14 557.77 493.81 557.77 428.1 454.05 428.1"/><path class="cls-6" d="M690.8,1155.42C693.71,1012.54,657.58,957,657.58,957H356.25s-36.18,55.46-33.24,198.41H690.8Z" transform="translate(-1)"/><path class="cls-7" d="M634.25,778.35C658.85,753.21,699,702.26,647.5,628.4c-33.11-47.46,65.86-124.94-80.12-132.58L506.91,661.26,446.44,495.82c-146,7.64-47,85.12-80.12,132.58C314.8,702.26,355,753.21,379.58,778.35c0,0-6.94,112.42-55.77,257.16H489.62l17.29-62.23,17.29,62.23H690C641.19,890.77,634.25,778.35,634.25,778.35Z" transform="translate(-1)"/><polygon class="cls-8" points="386.07 536.68 442.92 558.17 420.61 589.29 505.92 661.26 445.35 494.49 386.07 536.68"/><polygon class="cls-8" points="625.76 536.68 566.39 495.19 505.92 661.26 591.22 589.29 568.91 558.17 625.76 536.68"/><rect class="cls-9" x="377.2" y="683.19" width="182.44" height="103.72" rx="5" ry="5" transform="translate(1202.48 266.63) rotate(90)"/><path class="cls-10" d="M487.87,643.83H449a32.26,32.26,0,0,0-25.85,13,32.12,32.12,0,0,1,19.37-6.56h38.89a32.41,32.41,0,0,1,32.41,32.41V800.35a32.13,32.13,0,0,1-6.56,19.37,32.26,32.26,0,0,0,13-25.85V676.25A32.41,32.41,0,0,0,487.87,643.83Z" transform="translate(-1)"/><rect class="cls-11" x="460.12" y="655.7" width="16.6" height="16.6" rx="1.28" ry="1.28" transform="translate(1131.42 195.57) rotate(90)"/><path class="cls-4" d="M436.88,738.31s-19.53,2.17-34.69,3.3l-11.08.67-9.56.29-9.18,0-1.45,62.21,11.5,0,11.5-.35,12.92-.78c17.42-1.3,38.29-3.67,38.29-3.67,13.4-1.75,21.64-17.37,18.8-34.24S448.92,736.74,436.88,738.31Z" transform="translate(-1)"/><path class="cls-4" d="M416.17,722.22c-10.29,1.16-18.27,8.45-24.29,15.71a96.57,96.57,0,0,0-10.08,14.89c-2.4,4.51-1.84,11.1,1.6,14.5s8.34,2.46,10.69-2.23c0-.1.75-1.45,2-3.44a70,70,0,0,1,5.14-7.25c4.33-5.34,10.16-10.76,17.19-11.56,4.06-.46,6.78-5.44,6.08-11.12S420.06,721.78,416.17,722.22Z" transform="translate(-1)"/><path class="cls-7" d="M349.08,818.63c-156.06-13.84-157.36-77.9-117-149.38C263,614.69,335.2,525.62,382.76,509.33l0.69,46.19,22.26,49.64c-59.6,34.71-76.61,60.26-104.49,102.2-9.23,13.88-6.71,16.62-6.43,16.84,5.89,4.8,67.39,12.5,90.71,10.63l6,82.74C383.77,818.18,357.13,818.63,349.08,818.63Z" transform="translate(-1)"/><path class="cls-4" d="M696.34,1180.49l0-93.76s34.82-26.73,43.43-.07c22.57,69.82-5.89,127.4-19.23,127.4S696.34,1199,696.34,1180.49Z" transform="translate(-1)"/><path class="cls-4" d="M680.05,1168.83c0-34.62,15.43-58.86,16.37-59.88,3.73-4,9.08-3,12,2.13s2.2,12.58-1.51,16.59a31.54,31.54,0,0,0-1.65,3.37,92.25,92.25,0,0,0-3.34,8.79,95.08,95.08,0,0,0-4.77,29c0,6.54-3.82,11.84-8.53,11.84S680.05,1175.37,680.05,1168.83Z" transform="translate(-1)"/><path class="cls-7" d="M679.47,1118.81l69.49-.16s0.88-383.18-5.13-436.27c-8.21-120.57-84.71-184.29-151.61-184.29,0,0,56.53,32.61,38.36,62,8.79,28.24-1.63,57,5.84,64.14,23.67,22.71,28.91,27.58,33.32,66.52C675.39,740.54,679.47,1118.81,679.47,1118.81Z" transform="translate(-1)"/><path class="cls-12" d="M441.56,441.29c21.1-.17,72.58,4.13,117.6,0,31.22-2.87,63-14.43,81.18-38C756.63,252.66,594.94,33.84,428.45,38.46,304.73,41.9,273.7,442.65,441.56,441.29Z" transform="translate(-1)"/><path class="cls-4" d="M625.72,248.78V194.85c0-57.28-66.31-129.65-118.81-129.65S388.11,137.57,388.11,194.85v53.93a26.17,26.17,0,0,0-26.4,25.93v27a26.17,26.17,0,0,0,26.4,25.93c0,57.28,66.31,131.72,118.81,131.72s118.81-74.44,118.81-131.72a26.17,26.17,0,0,0,26.4-25.93v-27A26.17,26.17,0,0,0,625.72,248.78Z" transform="translate(-1)"/><path class="cls-13" d="M506.91,363.39v95.94c52.49,0,118.81-74.44,118.81-131.72a26.17,26.17,0,0,0,26.4-25.93v-27a26.17,26.17,0,0,0-26.4-25.93V194.85c0-57.28-66.31-129.65-118.81-129.65v210c-19.26,40.23-26.4,83-26.4,83Z" transform="translate(-1)"/><circle class="cls-13" cx="442.09" cy="294.23" r="20.48" transform="translate(-11 15.6) rotate(-2)"/><circle class="cls-14" cx="442.09" cy="289.04" r="20.48" transform="translate(-10.82 15.6) rotate(-2)"/><circle class="cls-8" cx="449.04" cy="293.03" r="5.12" transform="translate(-10.95 15.85) rotate(-2)"/><path class="cls-14" d="M467,272.68c-3.78-8.77-13.46-15.43-24.09-16.56-6.52-.71-18.75.25-29.26,13.56a7.73,7.73,0,0,1-1.55,0,15.19,15.19,0,0,1-4.38-1.16,20.25,20.25,0,0,1-5.91-4,0.67,0.67,0,0,0-.74-0.13,0.64,0.64,0,0,0-.29.86A22.43,22.43,0,0,0,402,267.4a21.07,21.07,0,0,0,3.48,4.41,20.32,20.32,0,0,0,4.83,3.46,16,16,0,0,0,1.94.83c0.49,0.17,1,.27.91,0.26a3.36,3.36,0,0,0,3.32-1.8c6.88-9.61,16.09-14.34,25.91-13.28,8.68,0.93,16.86,6.46,19.87,13.46A2.59,2.59,0,1,0,467,272.68Z" transform="translate(-1)"/><circle class="cls-13" cx="571.74" cy="294.23" r="20.48" transform="translate(-10.92 20.13) rotate(-2)"/><circle class="cls-14" cx="571.74" cy="289.04" r="20.48" transform="translate(-10.74 20.13) rotate(-2)"/><circle class="cls-8" cx="578.69" cy="293.03" r="5.12" transform="translate(-10.88 20.38) rotate(-2)"/><path class="cls-14" d="M546.83,272.68c3.78-8.77,13.46-15.43,24.09-16.56,6.52-.71,18.75.25,29.26,13.56a7.73,7.73,0,0,0,1.55,0,15.2,15.2,0,0,0,4.38-1.16,20.25,20.25,0,0,0,5.91-4,0.67,0.67,0,0,1,.74-0.13,0.64,0.64,0,0,1,.29.86,22.42,22.42,0,0,1-1.18,2.17,21.07,21.07,0,0,1-3.48,4.41,20.34,20.34,0,0,1-4.83,3.46,16,16,0,0,1-1.94.83c-0.49.17-1,.27-0.91,0.26a3.36,3.36,0,0,1-3.32-1.8c-6.88-9.61-16.09-14.34-25.91-13.28-8.68.93-16.86,6.46-19.87,13.46A2.59,2.59,0,1,1,546.83,272.68Z" transform="translate(-1)"/><path class="cls-12" d="M693.62,271.54C662.35,230.92,680.24,13.63,502,23.31,321.38,33.13,377.71,225.49,388.11,248.78c7-2.48,49-63.58,66.87-105.48C498.89,219,643.07,262.69,693.62,271.54Z" transform="translate(-1)"/><path class="cls-15" d="M548.21,382.55c0,20.37-18.57,36.88-41.49,36.88s-41.49-16.51-41.49-36.88h83Z" transform="translate(-1)"/><path class="cls-8" d="M470.7,382.55h69.15a0,0,0,0,1,0,0v12.83a1,1,0,0,1-1,1H471.7a1,1,0,0,1-1-1V382.55A0,0,0,0,1,470.7,382.55Z"/></g></g></g></g></svg>