<svg id="f5" xmlns="http://www.w3.org/2000/svg" xmlns:xlink="http://www.w3.org/1999/xlink" viewBox="0 0 988 3008.55"><defs><style>.cls-1{fill:#818060;}.cls-2{fill:none;}.cls-3{clip-path:url(#clip-path);}.cls-4{fill:#d6d5d5;}.cls-5{fill:#d3a889;}.cls-6{fill:#bf9980;}.cls-7{fill:#deb79a;}.cls-8{fill:#e1bd9a;}.cls-9{fill:#f1d1ad;}.cls-10{fill:#f9f9fa;}.cls-11{opacity:0.7;}.cls-12{clip-path:url(#clip-path-2);}.cls-13{fill:#e1be9b;}.cls-14{fill:#c76970;}.cls-15{fill:#d87375;}.cls-16{fill:#3d2e28;}.cls-17{fill:#fffdf9;}.cls-18{fill:#486870;}.cls-19{fill:#fff;}</style><clipPath id="clip-path" transform="translate(-6 -6)"><path class="cls-1" d="M994,500c0,276.14-217.86,492-494,492S6,776.14,6,500,223.86,6,500,6,994,223.86,994,500Z"/></clipPath><clipPath id="clip-path-2" transform="translate(-6 -6)"><rect class="cls-2" x="419.21" y="645.81" width="162.15" height="96.39"/></clipPath></defs><title>f5-circle-avatar-1000x1000</title><path class="cls-1" d="M994,500c0,276.14-217.86,492-494,492S6,776.14,6,500,223.86,6,500,6,994,223.86,994,500Z" transform="translate(-6 -6)"/><g class="cls-3"><path class="cls-4" d="M830.82,1589.27c-2.4,18.46-5.38,34.93-8.77,49.5a163.76,163.76,0,0,1-86.79-14.36c12.89-19.87,23.74-39.61,26.16-54.38,6.4-40-20.13-134.05-19.84-150.15,1.09-60,6.35-115.76,6.35-115.76l-3.21-42.83-0.44-5.09-38.47-231.06-4.12-24.5-17.34-14.07L645.5,892c2.5-37.87,7.18-76.61,15.68-109.34a182.57,182.57,0,0,1,29.32,17.55c27.29,19.91,57.13,52.73,77.77,106.24,10.74,24.79,20.44,54.38,28.28,89.81,12.5,56.62,20.2,127.92,19.74,217.9,0,0.66.17,2.15,0.37,4.3,0,0.37.08,0.75,0.13,1.28,0.14,1.28.27,2.94,0.43,4.76,0,0.7.13,1.41,0.21,2.32,0.12,1.57.25,3.44,0.47,5.3,0.17,2.23.37,4.59,0.58,7.16,0.14,1.32.27,2.73,0.44,4.18a10.84,10.84,0,0,0,.12,1.65c0.17,2,.33,3.93.47,6,6.77,79.46,21,265.62,11.3,338.09" transform="translate(-6 -6)"/><path class="cls-5" d="M507.7,132.66c-243.27-.41-244.7,195.1-233.86,322.57-16.7-29.92-66-18.83-62,29.09,3.85,45.86,73.61,66.63,72.59,61.62,20,103.88,134.63,161.57,223.26,169.73,0.62,0.08,1.26,0,1.86.08V132.7c-0.6,0-1.24,0-1.86,0" transform="translate(-6 -6)"/><path class="cls-6" d="M224.05,464.09c12.21-18.54,31-10.51,35.68-6.46,4.89,4.39,8.78,10.31,5.78,21.27-1.7,6.17-8.57,6.66-6.91,16,1.82,10.55,7,11.22,9.91,13.62s6.5,4.18,8.36,8.65a22.31,22.31,0,0,1,1.06,13.2c-1.86,7.57-13.47,1.53-21.27-1.78-5.17-2.23-21.44-15.31-25.56-19.74-10.39-11-15.17-32.4-7-44.74" transform="translate(-6 -6)"/><path class="cls-7" d="M508.94,132.66c243.25-.41,244.66,195.1,233.84,322.57,16.7-29.92,66-18.83,62,29.09-3.87,45.86-73.63,66.63-72.7,61.62C712.23,649.83,597.55,707.52,508.94,715.68c-0.64.08-1.28,0-1.92,0.08V132.7c0.68,0,1.28,0,1.92,0" transform="translate(-6 -6)"/><path class="cls-6" d="M794.3,464.09c-12.21-18.54-31.06-10.51-35.65-6.46-4.9,4.39-8.82,10.31-5.79,21.27,1.74,6.17,8.57,6.66,6.87,16-1.82,10.55-7,11.22-9.89,13.62s-6.48,4.18-8.34,8.65a22.38,22.38,0,0,0-1.06,13.2c1.9,7.57,13.51,1.53,21.27-1.78,5.17-2.23,21.44-15.31,25.6-19.74,10.34-11,15.13-32.4,7-44.74" transform="translate(-6 -6)"/><path d="M743.46,610.51C709,742.66,631.92,770.43,494.27,770.43S245.08,698.79,245.08,610.51,356.66,450.64,494.27,450.64s271.52,74.45,249.19,159.87" transform="translate(-6 -6)"/><path d="M536.36,2942.49c3.83,3.23,15.77.75,15.77,0.75l6.74-41.05h-33.4s3,33.56,10.89,40.31" transform="translate(-6 -6)"/><path d="M467.59,2942.49c-3.81,3.23-15.77.75-15.77,0.75l-6.73-41.05h33.38s-3,33.56-10.89,40.31" transform="translate(-6 -6)"/><path class="cls-8" d="M435.17,696.39L341.8,897.94l-40.54-.13s-24.29,85.51,9.35,143,107.56,99.95,57,200.89-122.27,166-122.11,344.38,152,459.43,145.16,618.94c-1.82,42.92-44.2,130.37-45.52,176.22s57.9,292.77,60.22,369.21c1.88,63-31.52,114.35-53.39,136.7s-60.53,83.64-18.52,97.22,98,30,125-49.25c9.23-27,19.18-17.92,20.22-37.29,0.93-17.26-6.74-61.79-5.65-100.94,2.42-82.94,6-517.25,6.54-596.59,0.5-79.5,1.1-619.68,1.1-619.68l19.49,7.78v-885a368.58,368.58,0,0,1-65-7" transform="translate(-6 -6)"/><path class="cls-9" d="M597.82,2750.08c2.32-76.44,61.54-323.31,60.18-369.17s-43.64-133.35-45.48-176.23c-6.81-159.54,145-440.64,145.16-619s-71.54-243.4-122.09-344.34,23.34-143.41,57-200.89,9.37-143,9.37-143l-54.63.21-85.9-199.48a294.09,294.09,0,0,1-61.25,5.09v885.1a7,7,0,0,0,1.49.25c5.59-.58,20.86-8.4,20.86-8.4s0.54,540.22,1.1,619.64,4.14,513.77,6.52,596.67c1.1,39.11-6.56,83.64-5.63,100.9,1,19.37,11,10.35,20.18,37.33,27,79.17,83.06,62.78,125.05,49.21s3.31-74.91-18.56-97.22-55.21-73.71-53.35-136.7" transform="translate(-6 -6)"/><path d="M307.65,2962.44A262.31,262.31,0,0,1,324,2923.49l3-2.36-0.56,2.48c5.3,13.16,15.46,20.82,34,25.45a63.47,63.47,0,0,0,16.16,2c55.21,0,96.25-70.28,100.74-78.35l-0.35-3.81,2.85,4.34c0.85,9.68,1.35,17.18,1.1,22.31-0.56,10.22-3.6,13.08-7.45,16.68s-8.65,7.74-12.85,21c-30.94,97.83-178.34,107.11-153.07,29.17" transform="translate(-6 -6)"/><path d="M695.26,2962.44a260.36,260.36,0,0,0-16.45-38.94l-2.75-2.73,0.31,2.86c-5.26,13.16-15.44,20.82-34,25.45a62.78,62.78,0,0,1-16.14,2c-55.23,0-96.2-70.28-100.69-78.35l0.58-3.81-3.08,4.34c-0.85,9.68-1.37,17.18-1.1,22.31,0.54,10.22,3.56,13.08,7.45,16.68,3.68,3.52,8.61,7.74,12.85,21,30.9,97.83,178.34,107.11,153.07,29.17" transform="translate(-6 -6)"/><path class="cls-4" d="M498.49,1618.78c-6,0-12,0-17.92-.13-104.4-1.08-179.41-12.62-236.07-36.29l-1.66-.7,0-1.82c0.68-134.51,43.41-205.69,84.64-274.52,12.72-21.19,25.91-43.17,37.68-66.68,38-75.9,4.16-118.24-28.6-159.21-10-12.54-20.34-25.53-28.33-39.11a91.48,91.48,0,0,1-5.19-10.18l-1-2.23,2.07-1.2a389.32,389.32,0,0,1,194.31-51.86h1.7a389.11,389.11,0,0,1,197.35,54.71l2.09,1.24-1,2.24c-1.12,2.36-2.38,4.59-3.7,6.91-8,13.62-18.29,26.66-28.35,39.15-32.67,41-66.53,83.4-28.56,159.21,11.74,23.51,24.92,45.4,37.6,66.59,41.06,68.41,83.48,139.14,84.7,272.24v1.78l-1.56.7c-56.2,25.08-131.21,37.46-236.23,39-7.93.13-15.93,0.17-24,.17" transform="translate(-6 -6)"/><path d="M382.19,2132.92l-0.56-3.39c-11-69-37.29-148.87-65.18-233.34-36.81-111.75-74.87-227.17-75-316.65-0.17-137.82,43.06-209.92,84.9-279.65,12.71-21.11,25.81-43,37.58-66.55,7-14,11.88-27.52,14.46-40.35l0.66-3.23H624.14l0.68,3.19A161.4,161.4,0,0,0,639.18,1233c11.69,23.39,24.79,45.28,37.49,66.43,41.93,69.9,85.2,142,85,279.78-0.13,89.48-38.16,204.82-75,316.36-28,84.88-54.34,164.88-65.27,233.92l-0.52,3.44H382.19Z" transform="translate(-6 -6)"/><path class="cls-8" d="M435.52,699.74l-0.08.08-5.26,11.75L314.61,968.63c-6.44,8.78-13,17.67-19.45,26.49-72,98-142.68,195.22-146.08,204.41a8.94,8.94,0,0,0-.35,2.4,6.29,6.29,0,0,0,.08,1.53,19.77,19.77,0,0,0,.35,2.32c0.08,0.54.2,1.16,0.33,1.78,8.69,42.09,95.44,210.25,95.44,210.25s92.4,21.81,118.28,28.81,40,0,16.49,103.55-63.53,47.06-70.61,11.79-28.27-28.27-56.49-35.3S64.41,1239.51,47.87,1216.7A36.23,36.23,0,0,1,41,1199.94v-0.45c-0.12-.91-0.17-1.74-0.25-2.73a42.33,42.33,0,0,1,.13-8.23c0.08-.83.22-1.82,0.35-2.73,4.09-29,30-78.92,102.64-178.13,51.61-70.56,91.92-119.36,121.16-152.18a219.77,219.77,0,0,1,28.7-34.93,197.63,197.63,0,0,1,29.28-23.76c2.07-1.41,4.2-2.77,6.27-4C359.57,774.49,384,771.59,384,771.59c16.1,0,26.9-19.78,34.2-50.2,0.37-1.7.79-3.43,1.18-5.26,1-4.47,1.9-9,2.59-13.82,0.12-.75.25-1.58,0.33-2.28,0.25-1.41.47-2.77,0.68-4.26v-0.08c4.16,1.49,8.38,2.86,12.58,4.06" transform="translate(-6 -6)"/><path class="cls-9" d="M824.26,1590.68c-12.33,93.28-37.08,135-70.77,143.61s-85.32-17.13-67.4-46.06,63.49-84.47,68.74-116.79c6.41-40-20.18-134-19.83-150.11,1.1-60.05,6.35-115.8,6.35-115.8l-3.27-42.8-0.37-5.09-38.49-231.11-4.09-24.46L677.8,988,566.13,716.5l-6.06-14.69v0c2.83-.75,5.71-1.58,8.54-2.36s5.73-1.78,8.57-2.77v0c0.08,1,.29,2,0.43,2.94v0.17c0.12,1.16.29,2.32,0.5,3.39,0.48,3,1,5.92,1.66,8.82s1.1,5.46,1.74,8.11c7.33,31,18.31,51.48,34.62,51.48,0,0,31.62,3.68,67.81,30,27.29,19.95,57.14,52.72,77.77,106.28,10.72,24.79,20.42,54.38,28.23,89.77,12.54,56.62,20.22,128,19.74,217.9,0.08,0.66.23,2.15,0.44,4.3a6.45,6.45,0,0,0,.12,1.24c0.12,1.37.25,3,.42,4.8,0.06,0.7.14,1.45,0.18,2.28,0.17,1.66.29,3.48,0.5,5.34,0.17,2.23.39,4.59,0.6,7.16,0.13,1.32.25,2.77,0.42,4.18a9.54,9.54,0,0,0,.14,1.7c0.17,1.9.29,3.89,0.46,6,6.79,79.5,21,265.66,11.32,338.09" transform="translate(-6 -6)"/><path class="cls-4" d="M497.25,1091.88c-64.63,0-127.1-9.6-171.26-26.28l-0.7-.25-0.47-.67a233.48,233.48,0,0,1-16.49-24c-11.17-19.12-17.28-43.21-18.08-71.6l0-1.53,1.26-.83c41.16-26.53,120-43,205.79-43h2.94c91.49,0.41,174.5,19.74,211.51,49.33l1.1,0.87-0.08,1.41c-1.51,25.54-7.49,47.43-17.8,65-3.64,6.29-7.76,12.25-12.79,19.29l-0.85,1.08h-0.85c-44,19.45-109.59,30.83-180.24,31.16h-2.94Z" transform="translate(-6 -6)"/><path class="cls-4" d="M239,1517.83c-33.36-35.84-111-165-157.35-242.28-18.44-30.75-31.79-53-35.95-58.68a39,39,0,0,1-7.28-18l0-.87a24.31,24.31,0,0,1-.25-2.48,47.32,47.32,0,0,1,.13-8.73c0.08-.67.17-1.57,0.29-2.4,4.74-33.44,36.57-88.77,103.24-179.74,44-60.13,84.76-111.37,121.28-152.39a218.09,218.09,0,0,1,28.87-35.05,201.06,201.06,0,0,1,29.63-24.13c2.15-1.44,4.26-2.86,6.44-4.06a183.24,183.24,0,0,1,22.16-11.46l4.16-1.82-12.13,136.7-25.08,55.87-19.8,26.94c-94,128.05-143,196.59-145.66,203.79a5.47,5.47,0,0,0-.17,1.49v0.95a21.07,21.07,0,0,0,.29,2.24,14.56,14.56,0,0,0,.35,1.57c8.17,39.77,87.12,194.1,94.67,208.76,5,1.11,24.54,5.79,46.79,11.17l2.59,0.58-0.6,2.61a170.17,170.17,0,0,1-52.81,89.65l-1.95,1.65Z" transform="translate(-6 -6)"/><path class="cls-4" d="M797.53,1642.45a162.92,162.92,0,0,1-70-15.64l-2.75-1.28,1.65-2.65c15.29-23.51,23.74-41,25.72-53.31,4.2-26.16-6.4-77.81-13.39-112-3.81-18.62-6.52-32.07-6.43-37.74,1.06-59.43,6.27-115.38,6.35-116l-3.64-47.43-38.45-230.89-4-23.42L675.6,988.25l-39.36-95.81v-0.62c2.92-43.91,8.22-80.83,15.81-109.8l0.85-3.14,2.92,1.41A185,185,0,0,1,685.58,798c34.45,25.21,60.94,61.38,78.7,107.48,11.4,26.49,21,56.82,28.35,90.18,13.55,61.34,20.26,134.84,19.78,218.48l0.43,4.06a5.25,5.25,0,0,0,.08.95c0.17,1.61.29,3.27,0.41,5.13,0,0,1.12,12.21,1.33,14.78l0.37,4.09c0,0.7.08,1.2,0.12,1.66,0.23,2,.35,4,0.52,6.12,6.6,77.44,21,265.66,11.32,338.63-2.38,17.84-5.34,34.6-8.82,49.7l-0.47,1.86-1.91.25a167,167,0,0,1-18.27,1" transform="translate(-6 -6)"/><path class="cls-4" d="M256,1004.84c0-79.21,16.66-142.33,49.56-187.57l0.12-.17,0.37-.33a180.11,180.11,0,0,1,36.54-37.37c1.31-1,2.84-2.07,4.41-3.14l1.82-1.24a3.33,3.33,0,0,1,1-.67c1.95-1.32,3.85-2.56,5.79-3.72,13.35-7.95,44-23.14,52.85-25.75l3.48-1-0.21,37.58c-0.47,8.11,13.8,39.4,37.5,64.48,11.79,12.46,29.24,43.62,48.57,43.62C520.9,889.13,543,854.2,557,838.68c22.6-25,36.59-53.55,35.9-61.5l-0.08-1,0.56-.79c3.6-5.3-1.2-19.45-5.26-27.73l-2.75-5.46,5.92,1.7c20.42,6,75.22,33.15,105.06,74.87,32.14,45,48.4,107.56,48.4,186v4.64l-4-2.28C710.41,989.91,676,971.28,670.49,970l-356.38-.2c-4.49,1.24-30.67,19.74-53.82,37.16l-4.32,3.27v-5.42Z" transform="translate(-6 -6)"/><path class="cls-10" d="M614.79,784.46c-4.16-9.81-14.11-19-17.76-26.82-6-12.91-11.57-24.42-11.57-24.42-1.33,12.37-22,67.34-22,67.34s-63.12,78.22-52.94,80.21,56.53,8.77,70.27,23.59S592.33,933,595.89,913s30-102.23,18.89-128.51" transform="translate(-6 -6)"/><path class="cls-10" d="M435.81,800.6s-20.65-55-22-67.38c0,0-5.51,11.51-11.57,24.42-3.64,7.87-13.65,17-17.75,26.86-11.07,26.24,15.29,108.35,18.85,128.42s1.26,6.29,15.09-8.57,60.34-21.52,70.56-23.59-53.18-80.17-53.18-80.17" transform="translate(-6 -6)"/><polygon class="cls-10" points="494.33 998.35 476.41 933.99 458.49 869.68 494.33 869.68 530.27 869.68 512.31 933.99 494.33 998.35"/><g class="cls-11"><g class="cls-12"><path class="cls-6" d="M577.6,699.83c0.13,1.07.33,2.28,0.54,3.35a104.3,104.3,0,0,1-12,13.32c-13.45,12.58-34.81,25.7-65.91,25.7h-0.43c-33-.13-56.31-17.13-69.61-30.63a106.48,106.48,0,0,1-8.28-9.27c0.12-.75.25-1.58,0.35-2.28,0.25-1.41.45-2.77,0.62-4.26-1.18-.42-2.4-0.87-3.68-1.24,1.49-8.86,2.71-18.25,3.56-27.89,0.64-6.62,1.33-13.21,1.9-20a319.64,319.64,0,0,0,74.25,9.68h0.89c0.89,0,1.82,0,2.73,0a301.06,301.06,0,0,0,73.17-10.47c0.6,6.62,1.28,13.24,1.88,19.54,1.14,10.55,2.24,20.49,3.77,29.92-1.36.5-2.75,1-4.2,1.45,0.08,1,.29,1.95.43,2.9v0.21Z" transform="translate(-6 -6)"/></g></g><path class="cls-13" d="M499.89,188c-81.28,0-140.71,22.39-176.72,66.59-50.22,61.75-48.32,156.15-29.8,223.82,5.63,20.74,8.57,76.53,12.46,97.05,17.59,91.55,124,140.34,194.06,140.34,0.58,0,1.26-.08,1.86-0.08V188.08c-0.64,0-1.24,0-1.86,0" transform="translate(-6 -6)"/><path class="cls-9" d="M676.22,254.75c-35.76-43.91-94.51-66.3-174.47-66.67V715.76c80-.87,175.71-54.25,192.14-140.26,3.87-20.49,6.79-76.32,12.48-97,18.52-67.58,20.3-161.78-30.15-223.74" transform="translate(-6 -6)"/><path class="cls-14" d="M542.69,633s-18.35,19.66-41,19.66-40-19.24-40-19.24a265.31,265.31,0,0,1,40-2.94,335.47,335.47,0,0,1,41,2.53" transform="translate(-6 -6)"/><path class="cls-15" d="M513.24,624c-6.35,0-11.44,3.93-11.57,8.9-0.12-5-5.26-8.9-11.57-8.9-6.48,0-29.41,9-29.41,9s22.41,2.4,28.83,2.4,12,2.53,12.15-2.23c0.08,4.8,4.76,2.94,11.11,2.94s29.88-3.1,29.88-3.1-23-9-29.42-9" transform="translate(-6 -6)"/><path d="M295.84,727S-8.54,519.34,262.52,150.5C330.7,57.75,411.95,46.2,461.76,45.62c53.43-.62,91.57,27.23,91.57,27.23s195.51,19,224.75,148.5c23.18,102.52,48.17,143.78,35.47,233.92C785.61,652.69,712.46,719.36,712.46,719.36l-55.94,42.3S695.1,656.37,705,591.77s2.75-87.62-8.44-132.36-40.85-81.2-91.8-118.49-45.18-125.78-45.18-125.78S308.07,325.07,312.23,607.9c0.89,58.6,48.49,159.92,48.49,159.92Z" transform="translate(-6 -6)"/><path class="cls-16" d="M343.46,427.15a1.55,1.55,0,0,1,.12,2.18h0a1.55,1.55,0,0,1-2.19.13l-14.69-13.07a1.55,1.55,0,0,1-.13-2.19h0a1.56,1.56,0,0,1,2.19-.13Z" transform="translate(-6 -6)"/><path class="cls-17" d="M387.37,406.95a56.18,56.18,0,0,0-48.68,28.11,56.21,56.21,0,0,0,97.36,0A56.19,56.19,0,0,0,387.37,406.95Z" transform="translate(-6 -6)"/><circle class="cls-18" cx="381.96" cy="429.4" r="27.76"/><circle class="cls-16" cx="381.96" cy="429.4" r="13.63"/><circle class="cls-19" cx="391.16" cy="414.43" r="8"/><path class="cls-2" d="M429.75,406.95a56.18,56.18,0,0,0-48.68,28.11h97.36A56.19,56.19,0,0,0,429.75,406.95Z" transform="translate(-6 -6)"/><path class="cls-2" d="M429.75,463.17a56.19,56.19,0,0,0,48.68-28.11H381.07A56.18,56.18,0,0,0,429.75,463.17Z" transform="translate(-6 -6)"/><path class="cls-16" d="M338.69,435.06a56.21,56.21,0,0,1,97.36,0h1.81a1.81,1.81,0,0,0-.24-0.9,58,58,0,0,0-100.49,0,1.81,1.81,0,0,0-.24.9h1.81Z" transform="translate(-6 -6)"/><path class="cls-16" d="M348.27,422.56a1.55,1.55,0,0,1-.1,2.19h0a1.54,1.54,0,0,1-2.18-.1l-13.28-14.51a1.55,1.55,0,0,1,.1-2.19h0a1.55,1.55,0,0,1,2.19.1Z" transform="translate(-6 -6)"/><path class="cls-16" d="M653.41,428a1.55,1.55,0,0,0-.13,2.19h0a1.55,1.55,0,0,0,2.19.13l14.69-13.07a1.55,1.55,0,0,0,.13-2.19h0a1.55,1.55,0,0,0-2.19-.13Z" transform="translate(-6 -6)"/><path class="cls-16" d="M648.59,423.47a1.55,1.55,0,0,0,.1,2.19h0a1.55,1.55,0,0,0,2.19-.1l13.27-14.51a1.55,1.55,0,0,0-.1-2.19h0a1.55,1.55,0,0,0-2.19.1Z" transform="translate(-6 -6)"/><path class="cls-17" d="M609.49,407.85A56.18,56.18,0,0,1,658.17,436a56.2,56.2,0,0,1-97.36,0A56.19,56.19,0,0,1,609.49,407.85Z" transform="translate(-6 -6)"/><circle class="cls-18" cx="602.91" cy="430.3" r="27.76"/><circle class="cls-16" cx="602.91" cy="430.3" r="13.63"/><circle class="cls-19" cx="593.7" cy="415.33" r="8"/><path class="cls-2" d="M567.11,407.85A56.18,56.18,0,0,1,615.79,436H518.43A56.19,56.19,0,0,1,567.11,407.85Z" transform="translate(-6 -6)"/><path class="cls-2" d="M567.11,464.07A56.18,56.18,0,0,1,518.43,436h97.36A56.17,56.17,0,0,1,567.11,464.07Z" transform="translate(-6 -6)"/><path class="cls-16" d="M658.17,436a56.21,56.21,0,0,0-97.36,0H559a1.78,1.78,0,0,1,.24-0.9,58,58,0,0,1,100.48,0,1.75,1.75,0,0,1,.24.9h-1.81Z" transform="translate(-6 -6)"/><path d="M295.84,727S-8.54,519.34,262.52,150.5C330.7,57.75,411.95,46.2,461.76,45.62c53.43-.62,91.57,27.23,91.57,27.23s195.51,19,224.75,148.5c23.18,102.52,48.17,143.78,35.47,233.92C785.61,652.69,712.46,719.36,712.46,719.36l-55.94,42.3S695.1,656.37,705,591.77s2.75-87.62-8.44-132.36-40.85-81.2-91.8-118.49-45.18-125.78-45.18-125.78S308.07,325.07,312.23,607.9c0.89,58.6,48.49,159.92,48.49,159.92Z" transform="translate(-6 -6)"/></g></svg>