<svg id="f5" xmlns="http://www.w3.org/2000/svg" xmlns:xlink="http://www.w3.org/1999/xlink" viewBox="0 0 999 2011.97"><defs><style>.cls-1{fill:#818060;}.cls-2{fill:none;}.cls-3{clip-path:url(#clip-path);}.cls-4{fill:#d6d5d5;}.cls-5{fill:#d3a889;}.cls-6{fill:#bf9980;}.cls-7{fill:#deb79a;}.cls-8{fill:#e1bd9a;}.cls-9{fill:#f1d1ad;}.cls-10{fill:#f9f9fa;}.cls-11{opacity:0.7;}.cls-12{clip-path:url(#clip-path-2);}.cls-13{fill:#e1be9b;}.cls-14{fill:#c76970;}.cls-15{fill:#d87375;}.cls-16{fill:#3d2e28;}.cls-17{fill:#fffdf9;}.cls-18{fill:#486870;}.cls-19{fill:#fff;}</style><clipPath id="clip-path" transform="translate(-1)"><polygon class="cls-1" points="1000 1001.25 1 1000 1 0 1000 0 1000 1001.25"/></clipPath><clipPath id="clip-path-2" transform="translate(-1)"><rect class="cls-2" x="445.11" y="425.09" width="108.63" height="64.58"/></clipPath></defs><title>f5-square-avatar-1000x1000</title><polygon class="cls-1" points="999 1001.25 0 1000 0 0 999 0 999 1001.25"/><g class="cls-3"><path class="cls-4" d="M720.86,1057.14c-1.61,12.36-3.6,23.4-5.88,33.16a109.7,109.7,0,0,1-58.14-9.62c8.64-13.31,15.9-26.53,17.52-36.43,4.28-26.81-13.49-89.81-13.29-100.59,0.73-40.2,4.26-77.55,4.26-77.55l-2.15-28.7L662.88,834,637.11,679.2l-2.76-16.41-11.62-9.43L596.7,590c1.68-25.37,4.81-51.32,10.51-73.25a122.31,122.31,0,0,1,19.64,11.76c18.28,13.34,38.27,35.32,52.1,71.17,7.19,16.61,13.7,36.43,18.95,60.17,8.38,37.93,13.53,85.7,13.23,146,0,0.44.11,1.44,0.25,2.88,0,0.25.06,0.5,0.09,0.86,0.1,0.86.18,2,.29,3.19,0,0.47.09,0.94,0.14,1.55,0.08,1.05.17,2.3,0.32,3.55,0.11,1.5.25,3.08,0.39,4.8,0.1,0.89.18,1.83,0.29,2.8a7.26,7.26,0,0,0,.08,1.11c0.11,1.33.22,2.63,0.32,4,4.53,53.23,14,177.95,7.57,226.5" transform="translate(-1)"/><path class="cls-5" d="M504.39,81.31C341.41,81,340.46,212,347.72,297.41c-11.19-20-44.24-12.62-41.53,19.49,2.58,30.72,49.31,44.64,48.63,41.28C368.18,427.78,445,466.43,504.39,471.89c0.42,0.05.85,0,1.25,0.05V81.34l-1.25,0" transform="translate(-1)"/><path class="cls-6" d="M314.37,303.35c8.18-12.42,20.78-7,23.9-4.33,3.27,2.94,5.88,6.9,3.87,14.25-1.14,4.13-5.74,4.46-4.63,10.7,1.22,7.07,4.66,7.52,6.64,9.12s4.35,2.8,5.6,5.79a14.94,14.94,0,0,1,.71,8.84c-1.25,5.07-9,1-14.25-1.19-3.47-1.5-14.36-10.26-17.12-13.22-7-7.4-10.16-21.71-4.72-30" transform="translate(-1)"/><path class="cls-7" d="M505.22,81.31c163-.28,163.9,130.7,156.65,216.1,11.19-20,44.24-12.62,41.55,19.49-2.59,30.72-49.32,44.64-48.7,41.28-13.31,69.59-90.14,108.24-149.5,113.71-0.43.05-.86,0-1.29,0.05V81.34c0.46,0,.86,0,1.29,0" transform="translate(-1)"/><path class="cls-6" d="M696.39,303.35c-8.18-12.42-20.81-7-23.89-4.33-3.28,2.94-5.91,6.9-3.88,14.25,1.16,4.13,5.74,4.46,4.6,10.7-1.22,7.07-4.66,7.52-6.63,9.12s-4.34,2.8-5.59,5.79a15,15,0,0,0-.71,8.84c1.27,5.07,9.05,1,14.25-1.19,3.46-1.5,14.36-10.26,17.15-13.22,6.93-7.4,10.13-21.71,4.68-30" transform="translate(-1)"/><path d="M662.33,401.44C639.22,490,587.61,508.58,495.39,508.58s-166.94-48-166.94-107.14,74.75-107.1,166.94-107.1,181.9,49.88,166.94,107.1" transform="translate(-1)"/><path d="M523.59,1963.69c2.56,2.16,10.56.5,10.56,0.5l4.52-27.5H516.29s2,22.48,7.29,27" transform="translate(-1)"/><path d="M477.52,1963.69c-2.55,2.16-10.56.5-10.56,0.5l-4.51-27.5h22.36s-2,22.48-7.29,27" transform="translate(-1)"/><path class="cls-8" d="M455.8,459L393.25,594l-27.16-.09s-16.27,57.28,6.27,95.77,72.06,67,38.19,134.58S328.63,935.47,328.74,1055,430.57,1362.76,426,1469.62c-1.22,28.75-29.61,87.34-30.5,118.06s38.79,196.13,40.34,247.34c1.26,42.17-21.11,76.61-35.77,91.58s-40.55,56-12.41,65.13,65.67,20.08,83.76-33c6.18-18.08,12.85-12,13.54-25,0.62-11.56-4.52-41.39-3.78-67.62,1.62-55.56,4-346.52,4.38-399.67s0.74-415.14.74-415.14l13.06,5.21V463.63A246.92,246.92,0,0,1,455.8,459" transform="translate(-1)"/><path class="cls-9" d="M564.76,1834.8c1.55-51.21,41.23-216.6,40.31-247.32s-29.24-89.33-30.47-118.06c-4.56-106.88,97.14-295.2,97.25-414.67s-47.92-163.06-81.79-230.68S605.7,728,628.24,689.49s6.28-95.79,6.28-95.79l-36.6.14L540.38,460.19a197,197,0,0,1-41,3.41v593a4.66,4.66,0,0,0,1,.16c3.74-.39,14-5.63,14-5.63s0.36,361.91.74,415.12,2.77,344.19,4.37,399.73c0.74,26.2-4.4,56-3.77,67.59,0.65,13,7.35,6.93,13.52,25,18.11,53,55.64,42.06,83.77,33s2.22-50.18-12.44-65.13-37-49.38-35.74-91.58" transform="translate(-1)"/><path d="M370.37,1977.06a175.73,175.73,0,0,1,11-26.09l2-1.58-0.37,1.66c3.55,8.82,10.36,13.95,22.79,17.05a42.52,42.52,0,0,0,10.83,1.36c37,0,64.48-47.08,67.49-52.49l-0.24-2.55,1.91,2.91a124.14,124.14,0,0,1,.74,14.95c-0.37,6.85-2.41,8.76-5,11.17s-5.79,5.19-8.61,14.06c-20.73,65.54-119.47,71.75-102.54,19.54" transform="translate(-1)"/><path d="M630,1977.06A174.42,174.42,0,0,0,619,1951l-1.84-1.83,0.21,1.91c-3.52,8.82-10.34,13.95-22.8,17.05a42.06,42.06,0,0,1-10.81,1.36c-37,0-64.45-47.08-67.46-52.49l0.39-2.55-2.06,2.91a121.22,121.22,0,0,0-.74,14.95c0.36,6.85,2.38,8.76,5,11.17s5.77,5.19,8.61,14.06c20.7,65.54,119.47,71.75,102.54,19.54" transform="translate(-1)"/><path class="cls-4" d="M498.22,1076.91c-4,0-8,0-12-.09-69.94-.72-120.19-8.45-158.15-24.31L327,1052l0-1.22c0.46-90.11,29.08-137.8,56.7-183.91,8.52-14.2,17.36-28.92,25.24-44.67,25.47-50.85,2.79-79.21-19.16-106.66-6.71-8.4-13.63-17.11-19-26.2a61.28,61.28,0,0,1-3.48-6.82l-0.65-1.5,1.39-.81a260.82,260.82,0,0,1,130.17-34.74h1.14a260.68,260.68,0,0,1,132.21,36.65L633,683l-0.68,1.5c-0.75,1.58-1.6,3.08-2.48,4.63-5.34,9.12-12.25,17.86-19,26.23-21.89,27.48-44.57,55.87-19.13,106.66,7.86,15.75,16.69,30.42,25.19,44.61,27.51,45.83,55.93,93.21,56.74,182.38v1.19l-1,.47c-37.65,16.8-87.9,25.09-158.26,26.12-5.31.09-10.68,0.11-16.1,0.11" transform="translate(-1)"/><path d="M420.31,1421.35l-0.37-2.27c-7.35-46.22-25-99.73-43.67-156.32-24.66-74.86-50.16-152.19-50.22-212.13-0.11-92.33,28.85-140.63,56.88-187.35,8.51-14.14,17.29-28.81,25.17-44.58a109.34,109.34,0,0,0,9.69-27l0.44-2.16H582.4l0.46,2.14a108.13,108.13,0,0,0,9.62,26.84c7.83,15.67,16.61,30.33,25.12,44.5,28.09,46.83,57.08,95.13,57,187.43-0.09,59.94-25.56,137.22-50.23,211.94-18.74,56.87-36.4,110.46-43.72,156.71l-0.35,2.3h-160Z" transform="translate(-1)"/><path class="cls-8" d="M456,461.22l-0.06.06-3.52,7.87L375,641.35c-4.31,5.88-8.71,11.84-13,17.74C313.77,724.73,266.42,789.88,264.14,796a6,6,0,0,0-.24,1.61,4.21,4.21,0,0,0,.06,1,13.25,13.25,0,0,0,.24,1.55c0.05,0.36.14,0.78,0.22,1.19,5.82,28.2,63.93,140.85,63.93,140.85s61.9,14.61,79.24,19.3,26.81,0,11,69.37-42.56,31.53-47.3,7.9-18.94-18.94-37.85-23.65S207.42,822.82,196.34,807.54a24.27,24.27,0,0,1-4.57-11.23V796c-0.08-.61-0.11-1.16-0.17-1.83a28.36,28.36,0,0,1,.09-5.52c0.05-.55.15-1.22,0.24-1.83C194.66,767.4,212,734,260.67,667.5c34.58-47.27,61.58-80,81.17-101.95a147.23,147.23,0,0,1,19.23-23.4,132.4,132.4,0,0,1,19.62-15.92c1.39-.94,2.81-1.86,4.2-2.69,20.27-12.25,36.6-14.2,36.6-14.2,10.79,0,18-13.25,22.91-33.63,0.25-1.14.53-2.3,0.79-3.52,0.68-3,1.27-6,1.73-9.26,0.08-.5.16-1.06,0.22-1.53,0.17-.94.32-1.86,0.46-2.85V458.5c2.79,1,5.62,1.91,8.43,2.72" transform="translate(-1)"/><path class="cls-9" d="M716.46,1058.08c-8.26,62.49-24.84,90.47-47.41,96.21s-57.16-11.48-45.15-30.86,42.53-56.59,46.05-78.24c4.3-26.81-13.52-89.78-13.28-100.56,0.74-40.23,4.26-77.58,4.26-77.58l-2.19-28.67L658.49,835,632.7,680.14,630,663.76l-11.62-9.45L543.54,472.45l-4.06-9.84v0c1.9-.5,3.82-1.06,5.72-1.58s3.84-1.19,5.74-1.86v0c0.05,0.7.19,1.33,0.29,2v0.11c0.08,0.78.2,1.55,0.33,2.27,0.32,2,.68,4,1.11,5.91s0.74,3.66,1.16,5.43c4.91,20.79,12.27,34.49,23.19,34.49,0,0,21.18,2.47,45.43,20.13,18.28,13.36,38.28,35.32,52.1,71.2,7.18,16.61,13.68,36.43,18.91,60.14,8.4,37.93,13.54,85.73,13.22,146,0.06,0.44.15,1.44,0.29,2.88a4.32,4.32,0,0,0,.08.83c0.08,0.92.16,2,.28,3.22,0,0.47.1,1,.12,1.52,0.11,1.11.2,2.33,0.34,3.58,0.11,1.5.26,3.08,0.4,4.8,0.09,0.89.17,1.86,0.28,2.8a6.39,6.39,0,0,0,.1,1.14c0.11,1.27.19,2.61,0.31,4,4.55,53.26,14.06,178,7.58,226.5" transform="translate(-1)"/><path class="cls-4" d="M497.39,723.92c-43.29,0-85.15-6.43-114.73-17.61l-0.47-.16-0.32-.45a156.41,156.41,0,0,1-11-16.08c-7.48-12.81-11.58-28.95-12.11-48l0-1,0.85-.55c27.57-17.77,80.4-28.81,137.87-28.81h2c61.29,0.28,116.9,13.22,141.69,33l0.74,0.58-0.06.94c-1,17.11-5,31.78-11.92,43.56-2.44,4.22-5.2,8.21-8.57,12.92l-0.57.72H620.1c-29.44,13-73.42,20.65-120.75,20.88h-2Z" transform="translate(-1)"/><path class="cls-4" d="M324.39,1009.28C302,985.27,250,898.71,219,847c-12.35-20.6-21.29-35.49-24.08-39.31a26.15,26.15,0,0,1-4.88-12l0-.58a16.28,16.28,0,0,1-.17-1.66,31.7,31.7,0,0,1,.09-5.85c0.05-.45.11-1.05,0.19-1.61,3.17-22.4,24.5-59.47,69.16-120.41,29.44-40.28,56.78-74.61,81.25-102.09a146.1,146.1,0,0,1,19.34-23.48,134.7,134.7,0,0,1,19.85-16.17c1.44-1,2.86-1.91,4.31-2.72a122.76,122.76,0,0,1,14.85-7.68l2.79-1.22-8.13,91.58-16.8,37.43-13.27,18c-63,85.78-95.82,131.7-97.58,136.52a3.66,3.66,0,0,0-.11,1v0.64a14.11,14.11,0,0,0,.2,1.5,9.75,9.75,0,0,0,.24,1.05c5.47,26.65,58.36,130,63.42,139.85,3.32,0.75,16.44,3.88,31.34,7.48l1.73,0.39-0.4,1.75a114,114,0,0,1-35.38,60.06l-1.3,1.11Z" transform="translate(-1)"/><path class="cls-4" d="M698.55,1092.76a109.14,109.14,0,0,1-46.87-10.48l-1.84-.86,1.11-1.77c10.25-15.75,15.9-27.45,17.23-35.71,2.81-17.52-4.28-52.12-9-75-2.55-12.48-4.37-21.49-4.31-25.29,0.71-39.81,4.2-77.3,4.26-77.69l-2.44-31.78L631,679.48l-2.66-15.69-11.42-9.29L590.5,590.31v-0.42c2-29.42,5.51-54.15,10.59-73.56l0.57-2.11,2,0.94a124,124,0,0,1,19.94,11.89c23.08,16.89,40.83,41.12,52.72,72a337.83,337.83,0,0,1,19,60.41c9.08,41.09,13.57,90.33,13.25,146.37l0.29,2.72a3.52,3.52,0,0,0,.06.64c0.11,1.08.19,2.19,0.28,3.44,0,0,.75,8.18.89,9.9l0.25,2.74c0,0.47.05,0.81,0.08,1.11,0.15,1.36.24,2.66,0.35,4.1,4.42,51.88,14.06,178,7.58,226.86-1.6,12-3.58,23.18-5.91,33.3l-0.32,1.25-1.28.16a111.88,111.88,0,0,1-12.24.69" transform="translate(-1)"/><path class="cls-4" d="M335.74,665.61c0-53.07,11.16-95.35,33.2-125.66l0.08-.11,0.25-.22a120.66,120.66,0,0,1,24.48-25c0.87-.69,1.9-1.39,3-2.11l1.22-.83a2.23,2.23,0,0,1,.65-0.45c1.3-.89,2.58-1.72,3.88-2.49,8.94-5.32,29.5-15.5,35.4-17.25l2.33-.69-0.14,25.17c-0.32,5.43,9.25,26.4,25.12,43.2,7.9,8.35,19.59,29.22,32.54,29.22,15.51-.28,30.3-23.68,39.69-34.08,15.14-16.75,24.51-35.88,24.05-41.2l-0.06-.64,0.37-.53c2.41-3.55-.8-13-3.52-18.58l-1.85-3.66,4,1.14c13.68,4,50.39,22.21,70.38,50.16,21.53,30.14,32.43,72.06,32.43,124.63v3.11l-2.66-1.52c-20.34-11.59-43.39-24.07-47.08-24.9l-238.75-.14c-3,.83-20.54,13.22-36.06,24.9l-2.9,2.19v-3.63Z" transform="translate(-1)"/><path class="cls-10" d="M576.13,518c-2.79-6.57-9.45-12.7-11.9-18-4-8.65-7.75-16.36-7.75-16.36-0.89,8.29-14.76,45.11-14.76,45.11s-42.28,52.4-35.46,53.73,37.87,5.88,47.08,15.8,7.75,19.16,10.14,5.77,20.07-68.49,12.66-86.09" transform="translate(-1)"/><path class="cls-10" d="M456.23,528.79s-13.84-36.85-14.74-45.14c0,0-3.69,7.71-7.75,16.36-2.44,5.27-9.15,11.4-11.89,18-7.42,17.58,10.24,72.59,12.63,86s0.85,4.21,10.11-5.74,40.42-14.42,47.27-15.8-35.63-53.71-35.63-53.71" transform="translate(-1)"/><polygon class="cls-10" points="498.45 665.28 486.45 622.17 474.44 579.08 498.45 579.08 522.53 579.08 510.5 622.17 498.45 665.28"/><g class="cls-11"><g class="cls-12"><path class="cls-6" d="M551.22,461.28c0.09,0.72.22,1.52,0.36,2.25a69.87,69.87,0,0,1-8,8.93,63,63,0,0,1-44.15,17.22h-0.29c-22.11-.09-37.72-11.48-46.64-20.52a71.33,71.33,0,0,1-5.54-6.21c0.08-.5.16-1.06,0.24-1.53,0.16-.94.3-1.86,0.41-2.85-0.79-.28-1.61-0.58-2.47-0.83,1-5.93,1.82-12.23,2.38-18.69,0.43-4.44.89-8.85,1.27-13.39a214.14,214.14,0,0,0,49.74,6.49h0.6c0.6,0,1.22,0,1.83,0a201.69,201.69,0,0,0,49-7c0.4,4.44.86,8.87,1.26,13.09,0.76,7.07,1.5,13.72,2.52,20-0.91.34-1.84,0.67-2.81,1,0.05,0.67.19,1.3,0.29,1.94v0.14Z" transform="translate(-1)"/></g></g><path class="cls-13" d="M499.16,118.41c-54.45,0-94.27,15-118.39,44.61-33.64,41.37-32.37,104.61-20,149.94,3.77,13.89,5.74,51.27,8.34,65,11.79,61.33,83.07,94,130,94,0.39,0,.85-0.06,1.25-0.06V118.44l-1.25,0" transform="translate(-1)"/><path class="cls-9" d="M617.29,163.11c-24-29.42-63.31-44.42-116.88-44.67V471.95c53.62-.58,117.71-36.35,128.72-94,2.59-13.72,4.55-51.13,8.36-65,12.41-45.28,13.6-108.38-20.2-149.89" transform="translate(-1)"/><path class="cls-14" d="M527.83,416.52s-12.3,13.17-27.46,13.17S473.6,416.8,473.6,416.8a177.74,177.74,0,0,1,26.77-2,224.74,224.74,0,0,1,27.46,1.69" transform="translate(-1)"/><path class="cls-15" d="M508.1,410.48c-4.26,0-7.67,2.63-7.75,6-0.08-3.33-3.52-6-7.75-6s-19.7,6-19.7,6,15,1.61,19.31,1.61,8.05,1.69,8.14-1.5c0.06,3.22,3.19,2,7.44,2s20-2.08,20-2.08-15.39-6-19.71-6" transform="translate(-1)"/><path d="M362.46,479.46s-203.91-139.1-22.32-386.2C385.82,31.13,440.24,23.4,473.61,23,509.41,22.59,535,41.25,535,41.25s131,12.75,150.57,99.48c15.53,68.68,32.27,96.32,23.76,156.71-18.72,132.25-67.72,176.92-67.72,176.92L604.09,502.7s25.84-70.53,32.45-113.81,1.84-58.7-5.66-88.67-27.37-54.4-61.5-79.38-30.27-84.26-30.27-84.26S370.65,210.21,373.44,399.69C374,439,405.92,506.83,405.92,506.83Z" transform="translate(-1)"/><path class="cls-16" d="M394.36,278.6a1,1,0,0,1,.08,1.46h0a1,1,0,0,1-1.47.08l-9.84-8.76a1,1,0,0,1-.09-1.47h0a1,1,0,0,1,1.47-.09Z" transform="translate(-1)"/><path class="cls-17" d="M423.78,265.07a37.64,37.64,0,0,0-32.61,18.83,37.65,37.65,0,0,0,65.23,0A37.64,37.64,0,0,0,423.78,265.07Z" transform="translate(-1)"/><circle class="cls-18" cx="423.17" cy="284.13" r="18.59"/><circle class="cls-16" cx="423.17" cy="284.13" r="9.13"/><circle class="cls-19" cx="429.34" cy="274.1" r="5.36"/><path class="cls-2" d="M452.17,265.07a37.64,37.64,0,0,0-32.61,18.83h65.23A37.64,37.64,0,0,0,452.17,265.07Z" transform="translate(-1)"/><path class="cls-2" d="M452.17,302.73a37.64,37.64,0,0,0,32.61-18.83H419.56A37.64,37.64,0,0,0,452.17,302.73Z" transform="translate(-1)"/><path class="cls-16" d="M391.17,283.9a37.66,37.66,0,0,1,65.23,0h1.21a1.21,1.21,0,0,0-.16-0.6,38.87,38.87,0,0,0-67.32,0,1.21,1.21,0,0,0-.16.6h1.21Z" transform="translate(-1)"/><path class="cls-16" d="M397.59,275.53a1,1,0,0,1-.07,1.47h0a1,1,0,0,1-1.46-.07l-8.9-9.72a1,1,0,0,1,.07-1.47h0a1,1,0,0,1,1.47.07Z" transform="translate(-1)"/><path class="cls-16" d="M602,279.2a1,1,0,0,0-.09,1.47h0a1,1,0,0,0,1.47.08l9.84-8.76a1,1,0,0,0,.09-1.47h0a1,1,0,0,0-1.47-.09Z" transform="translate(-1)"/><path class="cls-16" d="M598.78,276.13a1,1,0,0,0,.07,1.47h0a1,1,0,0,0,1.47-.07l8.89-9.72a1,1,0,0,0-.07-1.47h0a1,1,0,0,0-1.47.07Z" transform="translate(-1)"/><path class="cls-17" d="M572.58,265.67A37.64,37.64,0,0,1,605.2,284.5a37.65,37.65,0,0,1-65.22,0A37.64,37.64,0,0,1,572.58,265.67Z" transform="translate(-1)"/><circle class="cls-18" cx="571.19" cy="284.73" r="18.59"/><circle class="cls-16" cx="571.19" cy="284.73" r="9.13"/><circle class="cls-19" cx="565.03" cy="274.71" r="5.36"/><path class="cls-2" d="M544.19,265.67A37.64,37.64,0,0,1,576.8,284.5H511.58A37.64,37.64,0,0,1,544.19,265.67Z" transform="translate(-1)"/><path class="cls-2" d="M544.19,303.33a37.64,37.64,0,0,1-32.61-18.83H576.8A37.63,37.63,0,0,1,544.19,303.33Z" transform="translate(-1)"/><path class="cls-16" d="M605.2,284.5a37.66,37.66,0,0,0-65.22,0h-1.21a1.19,1.19,0,0,1,.16-0.6,38.86,38.86,0,0,1,67.31,0,1.17,1.17,0,0,1,.16.6H605.2Z" transform="translate(-1)"/><path d="M362.46,479.46s-203.91-139.1-22.32-386.2C385.82,31.13,440.24,23.4,473.61,23,509.41,22.59,535,41.25,535,41.25s131,12.75,150.57,99.48c15.53,68.68,32.27,96.32,23.76,156.71-18.72,132.25-67.72,176.92-67.72,176.92L604.09,502.7s25.84-70.53,32.45-113.81,1.84-58.7-5.66-88.67-27.37-54.4-61.5-79.38-30.27-84.26-30.27-84.26S370.65,210.21,373.44,399.69C374,439,405.92,506.83,405.92,506.83Z" transform="translate(-1)"/></g></svg>