<svg id="fa7c96c0-e206-4e24-a7a4-e819df090090" data-name="f6" xmlns="http://www.w3.org/2000/svg" xmlns:xlink="http://www.w3.org/1999/xlink" viewBox="0 0 988 2666.04"><defs><style>.f02dbf9f-e0a2-434f-8f6e-1592ba5e34fe{fill:#7b5251;}.\36 900f4e8-2d7f-4f09-b167-0e2cdd545a96{fill:none;}.\31 58c58e2-0cad-47dd-886f-213d40101bf4{clip-path:url(#1fa0b5c7-4883-4a12-a165-5a8ca973b1aa);}.\34 b27e884-f482-499a-bd97-db90780cb276{fill:#f7f8f9;}.\36 fa7f724-c58b-43eb-b7ff-d92c0c2c0f82{fill:#dcc59f;}.\32 186f443-1f97-4299-a6be-678a856d5fe9{fill:#edd9b4;}.\39 bfe9abc-9f41-475e-a92c-d2ba0f388192{fill:#080a08;}.f2971ee8-e254-42d8-9e73-8355ed9d13cb{fill:#331c16;}.\33 f57764f-aa7d-46b1-bffd-5f6e59f83208{opacity:0.7;}.\32 49d68a0-5313-48ea-9c3f-381b57777c94{clip-path:url(#18028def-0678-45db-8abc-3fd6f3732503);}.\31 421c6bc-9959-49ec-8dee-a94164e55063{fill:#bc9f82;}.b6a88154-000c-4cb5-bc5c-58793274f1c3{fill:#511f1f;}.\31 60bbdc7-b5a2-49d7-8683-c47737009877{fill:#ccae8b;}.\30 6641a74-5899-4fda-bf26-c634cd2ef733{fill:#d9bf9f;}.\33 1cda658-0a65-4aed-9a8b-d8eebce0d12c{fill:#dcc5a1;}.\36 1edfd76-cbb5-43ca-94b2-5de295bdad69{fill:#b47070;}.d8a955c9-7b97-42fd-865e-80b43f8eb79f{fill:#c07874;}.\33 6eb3dcf-dfd9-475a-a1cc-69829ac61b65{fill:#3d2e28;}.b9b1acbd-9cba-415e-9f06-aad4ef9d8c8f{fill:#fffdf9;}.\32 94b420f-33f7-4ce5-bb65-5b4444cb3309{fill:#897770;}.\35 7dbb722-c848-4146-92d9-d79bd51a7b49{fill:#fff;}</style><clipPath id="1fa0b5c7-4883-4a12-a165-5a8ca973b1aa" transform="translate(-6 -6)"><path class="f02dbf9f-e0a2-434f-8f6e-1592ba5e34fe" d="M994,500c0,276.14-217.86,492-494,492S6,776.14,6,500,223.86,6,500,6,994,223.86,994,500Z"/></clipPath><clipPath id="18028def-0678-45db-8abc-3fd6f3732503" transform="translate(-6 -6)"><rect class="6900f4e8-2d7f-4f09-b167-0e2cdd545a96" x="433.84" y="651.05" width="141.52" height="84.62"/></clipPath></defs><title>f6-circle-avatar-1000x1000</title><path class="f02dbf9f-e0a2-434f-8f6e-1592ba5e34fe" d="M994,500c0,276.14-217.86,492-494,492S6,776.14,6,500,223.86,6,500,6,994,223.86,994,500Z" transform="translate(-6 -6)"/><g class="158c58e2-0cad-47dd-886f-213d40101bf4"><path class="4b27e884-f482-499a-bd97-db90780cb276" d="M528.89,477.37c-9.26,31-19.88,66.4-39.68,101.84s-80.16,81-82.29,129.51c-4.47,104.21,143.15,153.75,202.67,171.45s79.36,19.45,86,45.12,1.2,68.54,1.2,68.54,50.15-27.41,64.28-48.44c30.42-45.12-2.88-75.82-2.88-75.82s-12.32,10.6,2.25,34.5S775,949.2,769.72,955.4s-23.83,25.69-23.83,25.69S837.91,955,820,880.17c-3-12.81-11.45-3.41,0,0,25.57,7.61,20.79,49.87,20.79,49.87s62.41-80.81-64-126.54c-12-4.36-77.12-20.45-83.82-74.28-3.75-29.82,18.09-32.46,22.08-68.91,5.14-47.2-62.45-37.28-88.44-81.75-5-8.45,19.49-13.24,0-36.23-23.61-27.74-32.28-25.54-66-41.93s-31.74-23-31.74-23" transform="translate(-6 -6)"/><path class="6fa7f724-c58b-43eb-b7ff-d92c0c2c0f82" d="M448.63,692.31l-80.4,173.57-34.89-.16s-20.93,73.63,8,123.12,92.63,86,49.07,172.94-105.25,142.93-105.08,296.49,130.86,395.53,125,532.91c-1.54,36.9-38,112.2-39.18,151.73s49.87,252,51.84,317.82c1.6,54.19-27.17,98.44-46,117.67s-52.06,72-16,83.74,84.39,25.72,107.65-42.43c7.94-23.22,16.53-15.42,17.41-32.11,0.76-14.87-5.85-53.21-4.86-86.9,2.06-71.34,5.18-445.29,5.62-513.68s0.95-533.43.95-533.43l16.78,6.68v-762a315.91,315.91,0,0,1-56-6" transform="translate(-6 -6)"/><path class="2186f443-1f97-4299-a6be-678a856d5fe9" d="M588.67,2460.45c2-65.83,52.93-278.34,51.8-317.84s-37.6-114.79-39.14-151.71c-5.9-137.36,124.82-379.38,125-532.91s-61.56-209.54-105.12-296.48,20.1-123.46,49.07-173,8.05-123.07,8.05-123.07l-47,.15-74-171.74a253.28,253.28,0,0,1-52.73,4.38v762a8.57,8.57,0,0,0,1.3.26c4.79-.52,17.91-7.26,17.91-7.26s0.48,465.07,1,533.48,3.56,442.34,5.62,513.68c0.95,33.67-5.66,72-4.9,86.88,0.87,16.65,9.5,8.91,17.41,32.16,23.25,68.15,71.53,54,107.65,42.34s2.84-64.46-15.93-83.69-47.6-63.44-46-117.69" transform="translate(-6 -6)"/><path class="4b27e884-f482-499a-bd97-db90780cb276" d="M407.47,2672c-15.59,0-31.29-4.6-47.33-9.8-7.48-2.39-12.55-6.74-15.09-12.79-4.87-11.69.87-27.54,6.53-38.72l1.15-2.32,0.95,2.39c4.56,11.32,13.35,17.85,29.31,21.92a55.56,55.56,0,0,0,13.92,1.76c47.55,0,82.81-60.56,86.69-67.48l1.82-3.27,0.35,3.73c0.72,8.31,1.13,14.79.91,19.19-0.46,8.78-3,11.25-6.42,14.4-3.15,3-7.15,6.74-11.06,18.06-12.08,35.65-32.31,52.91-61.73,52.91" transform="translate(-6 -6)"/><path class="4b27e884-f482-499a-bd97-db90780cb276" d="M604.2,2672c15.59,0,31.28-4.6,47.33-9.8,7.48-2.39,12.55-6.74,15.09-12.79,4.86-11.69-.84-27.54-6.5-38.72l-1.19-2.32-0.95,2.39c-4.57,11.32-13.35,17.85-29.31,21.92a55.56,55.56,0,0,1-13.92,1.76c-47.51,0-82.82-60.56-86.69-67.48l-1.87-3.27-0.3,3.73c-0.73,8.31-1.13,14.79-.91,19.19,0.45,8.78,3.08,11.25,6.42,14.4s7.11,6.74,11,18.06c12.16,35.65,32.35,52.91,61.77,52.91" transform="translate(-6 -6)"/><path class="9bfe9abc-9f41-475e-a92c-d2ba0f388192" d="M390.43,1161.36c-43.48,86.93-105.2,142.91-105,296.48s130.83,395.55,125,532.91c-1.6,36.88-38.1,112.21-39.23,151.75-0.76,26.95,22.81,134.78,38.47,221.36-3,99.41-62.27,211.51-62.27,211.51s65,62,158.5,62c93.65,0,175.65-62,175.65-62s-77.62-114.28-78.34-217.58c15.59-85.52,38.12-189.22,37.28-215.65-1-39.48-37.54-114.77-39.11-151.69-5.87-137.34,124.82-379.35,125-532.87S664.73,1248,621.17,1161.1C608.66,1136,605,1115.22,606.87,1097H404.72c1.95,18.28-1.67,39.18-14.29,64.35" transform="translate(-6 -6)"/><path class="6fa7f724-c58b-43eb-b7ff-d92c0c2c0f82" d="M448.91,695.21l0,0.08-4.53,10.11-99.5,221.32c-5.59,7.54-11.21,15.22-16.76,22.81-62,84.39-122.87,168.1-125.74,175.95a7.61,7.61,0,0,0-.32,2.1,4.44,4.44,0,0,0,.05,1.3c0.11,0.63.15,1.32,0.3,2,0.08,0.5.22,1,.3,1.52,7.5,36.27,82.15,181,82.15,181s79.6,18.73,101.84,24.78,34.46,0,14.22,89.14-54.71,40.52-60.82,10.19-24.3-24.37-48.63-30.42-162-247.22-176.24-266.83a31.25,31.25,0,0,1-5.87-14.44v-0.43a22.51,22.51,0,0,1-.22-2.32,35.14,35.14,0,0,1,.11-7.05c0.07-.78.15-1.56,0.28-2.41,3.53-24.93,25.84-67.95,88.36-153.32,44.43-60.74,79.18-102.78,104.3-131a182.27,182.27,0,0,1,24.78-30,162.36,162.36,0,0,1,25.17-20.49c1.78-1.23,3.57-2.36,5.4-3.44,26-15.77,47-18.28,47-18.28,13.88,0,23.18-17,29.42-43.21,0.35-1.44.73-2.93,1.08-4.53,0.87-3.84,1.63-7.72,2.19-11.9,0.13-.65.24-1.33,0.32-1.95,0.22-1.24.37-2.39,0.57-3.67v0c3.6,1.24,7.26,2.43,10.82,3.45" transform="translate(-6 -6)"/><path class="2186f443-1f97-4299-a6be-678a856d5fe9" d="M783.58,1462.27c-10.6,80.31-31.89,116.31-60.93,123.64s-73.44-14.76-58-39.68,54.66-72.68,59.19-100.58c5.51-34.41-17.37-115.33-17.07-129.21,0.91-51.69,5.47-99.65,5.47-99.65l-2.82-36.92-0.33-4.33L676,976.56l-3.56-21-14.87-12.12L561.37,709.65,556.13,697v0c2.47-.63,5-1.32,7.4-2s4.9-1.52,7.33-2.43v0.08c0.09,0.87.24,1.71,0.35,2.5v0.19c0.11,0.95.33,1.95,0.48,2.89,0.39,2.58.89,5.12,1.41,7.59s0.95,4.72,1.48,7c6.31,26.76,15.78,44.32,29.81,44.32,0,0,27.25,3.19,58.39,25.93,23.52,17.13,49.19,45.34,67,91.48,9.21,21.33,17.56,46.85,24.33,77.28,10.75,48.74,17.41,110.19,16.95,187.59,0.07,0.57.19,1.85,0.39,3.73,0,0.33.08,0.67,0.11,1.09,0.11,1.13.22,2.54,0.33,4.11,0,0.57.11,1.22,0.2,2,0.08,1.35.22,2.92,0.37,4.55,0.19,1.95.33,4,.54,6.16,0.11,1.19.26,2.39,0.33,3.62a6.55,6.55,0,0,0,.15,1.44c0.11,1.67.28,3.34,0.39,5.16,5.85,68.47,18.06,228.71,9.73,291.09" transform="translate(-6 -6)"/><path class="9bfe9abc-9f41-475e-a92c-d2ba0f388192" d="M677.44,881.18c-19.8-58.91-53.51-91.58-63.25-125a95.69,95.69,0,0,0-17.85-4.75h-1.08c-0.95-.15-12.27-12.73-16.83-24.89-3.88,2-12.92,6.07-19.23,7.74-19.54,5.6-52.52,13.92-52.52,13.92s15.53,32,31.89,79.36c13,37.75-7.76,66.11-32.89,67.2-25.07-1.09-45.75-29.45-32.8-67.2,16.39-47.33,31.89-79.36,31.89-79.36s-32.94-8.32-52.52-13.92c-6.31-1.67-17.87-5.77-21.72-7.74-4.62,12.16-13.46,24.74-14.36,24.89h-1.06a95.91,95.91,0,0,0-17.91,4.75c-9.72,33.45-34.17,70-63.2,125-13.51,25.65-10.54,54.44-4.08,77.39a103.81,103.81,0,0,0,9.89,27.25c0.15,0.37.3,0.76,0.44,1.11h0.09c0.37,0.67.71,1.39,1.09,2,20.57,35.19,58.65,63.83,63.29,108.63H606.85c4.57-45,42.76-73.66,63.4-108.85,5.66-9.62,25.39-53.27,7.18-107.57" transform="translate(-6 -6)"/><path class="f2971ee8-e254-42d8-9e73-8355ed9d13cb" d="M295.36,1313a10,10,0,1,1-10-10,10,10,0,0,1,10,10" transform="translate(-6 -6)"/><path class="f2971ee8-e254-42d8-9e73-8355ed9d13cb" d="M293.16,1332.94a10,10,0,1,1-9.95-10,10,10,0,0,1,9.95,10" transform="translate(-6 -6)"/><path class="f2971ee8-e254-42d8-9e73-8355ed9d13cb" d="M285.38,1351.06a10,10,0,1,1-10-9.95,10,10,0,0,1,10,9.95" transform="translate(-6 -6)"/><path class="f2971ee8-e254-42d8-9e73-8355ed9d13cb" d="M271.61,1364.49a10,10,0,1,1-10-9.95,10,10,0,0,1,10,9.95" transform="translate(-6 -6)"/><g class="3f57764f-aa7d-46b1-bffd-5f6e59f83208"><g class="249d68a0-5313-48ea-9c3f-381b57777c94"><path class="1421c6bc-9959-49ec-8dee-a94164e55063" d="M572.06,698.44c0.15,1,.3,2,0.48,2.95a85.48,85.48,0,0,1-10.49,11.71c-11.71,11.06-30.32,22.55-57.51,22.55H504.2c-28.86-.08-49.19-15-60.79-26.84a102.53,102.53,0,0,1-7.22-8.18c0.11-.67.22-1.36,0.3-2,0.24-1.26.39-2.43,0.58-3.77-1-.3-2.14-0.72-3.23-1.09,1.3-7.76,2.36-16,3.12-24.44,0.54-5.81,1.09-11.6,1.67-17.56a280.3,280.3,0,0,0,64.81,8.52h0.76a18.62,18.62,0,0,0,2.32-.1A262.54,262.54,0,0,0,570.41,651c0.54,5.77,1.11,11.58,1.65,17.18,1,9.23,1.93,18,3.3,26.27-1.19.37-2.43,0.8-3.66,1.24,0.08,0.87.22,1.71,0.35,2.56v0.15Z" transform="translate(-6 -6)"/></g></g><path class="b6a88154-000c-4cb5-bc5c-58793274f1c3" d="M919.66,430.56c0,65.87-201.69,220.53-418.15,220.53S83.36,517.76,83.36,451.85s194.41-92,410.86-92,425.45,4.84,425.45,70.75" transform="translate(-6 -6)"/><path class="160bbdc7-b5a2-49d7-8683-c47737009877" d="M503.68,160.89c-228.57-.43-229.9,183.24-219.75,303-15.66-28.14-62-17.69-58.18,27.32,3.64,43.1,69.13,62.64,68.26,57.89,18.65,97.57,126.41,151.78,209.67,159.5,0.59,0,1.17,0,1.78,0V160.93c-0.61,0-1.19,0-1.78,0" transform="translate(-6 -6)"/><path class="1421c6bc-9959-49ec-8dee-a94164e55063" d="M237.18,472.21c11.52-17.41,29.16-9.89,33.54-6.05,4.6,4.14,8.28,9.69,5.44,20-1.63,5.75-8.06,6.24-6.46,15,1.74,9.89,6.53,10.53,9.26,12.77s6.09,4,7.83,8.15a20.55,20.55,0,0,1,1,12.38c-1.78,7.15-12.7,1.49-20-1.67-4.79-2.1-20.14-14.37-24-18.51-9.73-10.41-14.25-30.49-6.63-42.07" transform="translate(-6 -6)"/><path class="06641a74-5899-4fda-bf26-c634cd2ef733" d="M504.81,160.89c228.6-.43,229.9,183.24,219.71,303,15.7-28.14,62-17.69,58.26,27.32-3.64,43.1-69.18,62.64-68.23,57.89-18.69,97.57-126.45,151.78-209.74,159.5-0.56,0-1.21,0-1.74,0V160.93c0.57,0,1.19,0,1.74,0" transform="translate(-6 -6)"/><path class="1421c6bc-9959-49ec-8dee-a94164e55063" d="M772.91,472.21c-11.45-17.41-29.16-9.89-33.5-6.05-4.59,4.14-8.24,9.69-5.42,20,1.67,5.75,8.05,6.24,6.46,15-1.67,9.89-6.5,10.53-9.28,12.77s-6.13,4-7.83,8.15a21.3,21.3,0,0,0-1,12.38c1.78,7.15,12.66,1.49,20-1.67,4.83-2.1,20.16-14.37,24-18.51,9.74-10.41,14.25-30.49,6.59-42.07" transform="translate(-6 -6)"/><path class="31cda658-0a65-4aed-9a8b-d8eebce0d12c" d="M502.46,212.86c-76.28,0-132.17,21.06-166,62.6-47.24,58-45.42,146.64-28,210.29,5.29,19.45,8,71.86,11.71,91.11,16.47,86,116.43,131.89,182.26,131.89,0.61,0,1.22-.08,1.82-0.08V212.93c-0.63,0-1.2-.07-1.82-0.07" transform="translate(-6 -6)"/><path class="2186f443-1f97-4299-a6be-678a856d5fe9" d="M668.16,275.57c-33.57-41.3-88.79-62.31-163.9-62.66V708.68c75.19-.78,165-51,180.48-131.81,3.68-19.26,6.42-71.64,11.73-91.15,17.33-63.4,19.1-151.93-28.31-210.15" transform="translate(-6 -6)"/><path class="61edfd76-cbb5-43ca-94b2-5de295bdad69" d="M542.7,631s-17.26,18.43-38.55,18.43-37.51-18.06-37.51-18.06a248.82,248.82,0,0,1,37.51-2.76A313,313,0,0,1,542.7,631" transform="translate(-6 -6)"/><path class="d8a955c9-7b97-42fd-865e-80b43f8eb79f" d="M515.1,622.42c-6,0-10.8,3.77-11,8.37-0.11-4.6-4.9-8.37-10.84-8.37s-27.67,8.52-27.67,8.52,21.07,2.21,27.1,2.21,11.3,2.39,11.41-2c0.11,4.47,4.44,2.73,10.45,2.73s28.08-2.9,28.08-2.9-21.59-8.52-27.58-8.52" transform="translate(-6 -6)"/><path class="36eb3dcf-dfd9-475a-a1cc-69829ac61b65" d="M364.32,450.65a1.37,1.37,0,0,1,.11,1.94h0a1.37,1.37,0,0,1-1.94.11l-13-11.58a1.37,1.37,0,0,1-.11-1.94h0a1.38,1.38,0,0,1,1.94-.11Z" transform="translate(-6 -6)"/><path class="36eb3dcf-dfd9-475a-a1cc-69829ac61b65" d="M368.58,446.59a1.37,1.37,0,0,1-.09,1.94h0a1.37,1.37,0,0,1-1.93-.09L354.8,435.59a1.38,1.38,0,0,1,.09-1.94h0a1.38,1.38,0,0,1,1.94.09Z" transform="translate(-6 -6)"/><path class="b9b1acbd-9cba-415e-9f06-aad4ef9d8c8f" d="M403.2,432.76a49.75,49.75,0,0,0-43.11,24.9,49.77,49.77,0,0,0,86.21,0A49.76,49.76,0,0,0,403.2,432.76Z" transform="translate(-6 -6)"/><circle class="294b420f-33f7-4ce5-bb65-5b4444cb3309" cx="396.68" cy="455" r="21.54"/><circle class="36eb3dcf-dfd9-475a-a1cc-69829ac61b65" cx="396.86" cy="455.28" r="10.58"/><ellipse class="57dbb722-c848-4146-92d9-d79bd51a7b49" cx="404" cy="443.66" rx="6.21" ry="6.21"/><path class="6900f4e8-2d7f-4f09-b167-0e2cdd545a96" d="M403.2,482.55c18.42,0,110.52-10,43.11-24.89H360.1C444.73,472.53,384.78,482.55,403.2,482.55Z" transform="translate(-6 -6)"/><path class="36eb3dcf-dfd9-475a-a1cc-69829ac61b65" d="M360.1,457.65a49.76,49.76,0,0,1,86.21,0h1.6a1.62,1.62,0,0,0-.21-0.8,51.36,51.36,0,0,0-89,0,1.63,1.63,0,0,0-.21.8h1.6Z" transform="translate(-6 -6)"/><path class="36eb3dcf-dfd9-475a-a1cc-69829ac61b65" d="M640.25,449.67a1.38,1.38,0,0,0-.12,1.94h0a1.37,1.37,0,0,0,1.94.11l13-11.58a1.38,1.38,0,0,0,.12-1.94h0a1.38,1.38,0,0,0-1.94-.11Z" transform="translate(-6 -6)"/><path class="36eb3dcf-dfd9-475a-a1cc-69829ac61b65" d="M636,445.61a1.38,1.38,0,0,0,.08,1.94h0a1.38,1.38,0,0,0,1.94-.09l11.75-12.85a1.37,1.37,0,0,0-.08-1.94h0a1.37,1.37,0,0,0-1.94.09Z" transform="translate(-6 -6)"/><path class="b9b1acbd-9cba-415e-9f06-aad4ef9d8c8f" d="M601.37,431.77a49.75,49.75,0,0,1,43.1,24.91,49.78,49.78,0,0,1-86.21,0A49.76,49.76,0,0,1,601.37,431.77Z" transform="translate(-6 -6)"/><ellipse class="294b420f-33f7-4ce5-bb65-5b4444cb3309" cx="595.89" cy="454.02" rx="21.54" ry="21.54"/><circle class="36eb3dcf-dfd9-475a-a1cc-69829ac61b65" cx="595.7" cy="454.3" r="10.58"/><circle class="57dbb722-c848-4146-92d9-d79bd51a7b49" cx="588.56" cy="442.68" r="6.21"/><path class="6900f4e8-2d7f-4f09-b167-0e2cdd545a96" d="M601.37,431.77a49.75,49.75,0,0,1,43.1,24.91H558.26A49.76,49.76,0,0,1,601.37,431.77Z" transform="translate(-6 -6)"/><path class="6900f4e8-2d7f-4f09-b167-0e2cdd545a96" d="M601.37,481.57a49.76,49.76,0,0,1-43.11-24.89h86.21A49.75,49.75,0,0,1,601.37,481.57Z" transform="translate(-6 -6)"/><path class="36eb3dcf-dfd9-475a-a1cc-69829ac61b65" d="M644.47,456.68a49.76,49.76,0,0,0-86.21,0h-1.6a1.58,1.58,0,0,1,.21-0.8,51.35,51.35,0,0,1,89,0,1.6,1.6,0,0,1,.21.8h-1.6Z" transform="translate(-6 -6)"/><path class="4b27e884-f482-499a-bd97-db90780cb276" d="M751.77,286.91c-2.95-9.46-6-18.25-9.22-26.72v-3.62c0-35.73-29.12-82-75.47-127S591.67,93.81,553.29,95.13c0,0-.11.24-0.32,0.74C536.18,91.94,445.61,72.49,391.71,94,332.13,117.83,283.41,158.73,249,268.59s-6.1,199.78.54,238.16C270.61,628.32,372,705.25,372,705.25s-25.59-32.46-37-64.81c-8.89-25.13-22.12-68.26-22.12-131.78S370.72,366.5,370.72,366.5,344,415.84,338.8,470.08c-5.36,54.23,22.64,96.21,22.64,96.21S326,495.84,382.61,443.24a395.39,395.39,0,0,0,45.27-50.13s0,0.07,0,.11c-14.22,41.54,14.33,76.48,14.33,76.48s-0.52-53.34,29-71.44c72-44.15,83.46-62.38,93.58-97.9a86.15,86.15,0,0,0,2.75-13.66L633.3,389.45c3.08,4.45,8.09,12,13.94,21.79,17.11,28.47,40.65,75.15,40.65,115.74,0,63.51-13.24,106.65-22.12,131.78-11.45,32.35-37,64.81-37,64.81s101.41-76.93,122.52-198.48c6.68-38.4,35-128.38.52-238.18" transform="translate(-6 -6)"/><path class="9bfe9abc-9f41-475e-a92c-d2ba0f388192" d="M782.34,229.08H235.86s-1-12.27,0-16.15c19.66-76,92.56-167.32,265.74-167.32,167.85,0,256.87,89.16,280.74,167.32,1.23,3.84,0,16.15,0,16.15" transform="translate(-6 -6)"/><path class="4b27e884-f482-499a-bd97-db90780cb276" d="M782.34,327.09H235.86v-98s92.56-68,265.74-68c167.85,0,280.74,68,280.74,68v98Z" transform="translate(-6 -6)"/><path class="9bfe9abc-9f41-475e-a92c-d2ba0f388192" d="M494.22,359.83c-152.12,4.9-407.09,77-407.09,77S244.79,241.2,489.43,240.9c217-.32,430.23,176.28,430.23,176.28s-325.48-60.54-425.45-57.35" transform="translate(-6 -6)"/></g></svg>