<svg id="f6" xmlns="http://www.w3.org/2000/svg" xmlns:xlink="http://www.w3.org/1999/xlink" viewBox="0 0 999 1787.12"><defs><style>.cls-1{fill:#7b5251;}.cls-2{fill:none;}.cls-3{clip-path:url(#clip-path);}.cls-4{fill:#f7f8f9;}.cls-5{fill:#dcc59f;}.cls-6{fill:#edd9b4;}.cls-7{fill:#080a08;}.cls-8{fill:#331c16;}.cls-9{opacity:0.7;}.cls-10{clip-path:url(#clip-path-2);}.cls-11{fill:#bc9f82;}.cls-12{fill:#511f1f;}.cls-13{fill:#ccae8b;}.cls-14{fill:#d9bf9f;}.cls-15{fill:#dcc5a1;}.cls-16{fill:#b47070;}.cls-17{fill:#c07874;}.cls-18{fill:#3d2e28;}.cls-19{fill:#fffdf9;}.cls-20{fill:#897770;}.cls-21{fill:#fff;}</style><clipPath id="clip-path" transform="translate(-1)"><polygon class="cls-1" points="1000 1001.25 1 1000 1 0 1000 0 1000 1001.25"/></clipPath><clipPath id="clip-path-2" transform="translate(-1)"><rect class="cls-2" x="457.81" y="429.65" width="95.06" height="56.83"/></clipPath></defs><title>f6-square-avatar-1000x1000</title><polygon class="cls-1" points="999 1001.25 0 1000 0 0 999 0 999 1001.25"/><g class="cls-3"><path class="cls-4" d="M521.65,313c-6.22,20.81-13.35,44.6-26.65,68.4s-53.84,54.38-55.27,87c-3,70,96.15,103.27,136.13,115.16s53.31,13.06,57.78,30.31,0.81,46,.81,46,33.69-18.41,43.17-32.54c20.43-30.31-1.93-50.92-1.93-50.92s-8.28,7.12,1.51,23.17,9.77,30.31,6.22,34.47-16,17.25-16,17.25,61.81-17.54,49.77-67.78c-2-8.6-7.69-2.29,0,0,17.18,5.11,14,33.5,14,33.5s41.92-54.28-43-85c-8.09-2.93-51.8-13.74-56.3-49.89-2.52-20,12.15-21.8,14.83-46.29,3.45-31.7-41.95-25-59.4-54.91-3.33-5.67,13.09-8.89,0-24.34C571.44,338,565.62,339.47,543,328.46S521.65,313,521.65,313" transform="translate(-1)"/><path class="cls-5" d="M467.75,457.37L413.74,574l-23.44-.11s-14.06,49.45,5.39,82.7,62.22,57.78,33,116.16-70.7,96-70.58,199.15S446,1237.53,442,1329.8c-1,24.78-25.56,75.36-26.32,101.91s33.5,169.24,34.82,213.48c1.07,36.4-18.25,66.12-30.87,79s-35,48.38-10.72,56.25,56.68,17.28,72.3-28.5c5.34-15.6,11.11-10.36,11.69-21.57,0.51-10-3.93-35.74-3.27-58.37,1.38-47.92,3.48-299.09,3.78-345s0.64-358.3.64-358.3l11.27,4.49V461.38a212.19,212.19,0,0,1-37.58-4" transform="translate(-1)"/><path class="cls-6" d="M561.81,1645c1.32-44.22,35.55-187,34.79-213.49s-25.26-77.1-26.29-101.9c-4-92.26,83.84-254.83,83.94-357.95s-41.35-140.75-70.61-199.14,13.5-82.93,33-116.17S622,573.69,622,573.69l-31.59.1L540.74,458.44a170.13,170.13,0,0,1-35.42,2.94V973.2a5.76,5.76,0,0,0,.87.18c3.22-.35,12-4.87,12-4.87s0.32,312.38.66,358.33,2.39,297.11,3.78,345c0.64,22.61-3.8,48.38-3.29,58.35,0.59,11.18,6.38,6,11.69,21.6,15.62,45.78,48,36.3,72.31,28.44s1.91-43.3-10.7-56.21-32-42.61-30.87-79" transform="translate(-1)"/><path class="cls-4" d="M440.1,1787.12c-10.47,0-21-3.09-31.79-6.58-5-1.61-8.43-4.52-10.13-8.59-3.27-7.85.58-18.5,4.39-26l0.77-1.56L404,1746c3.07,7.6,9,12,19.68,14.72a37.32,37.32,0,0,0,9.35,1.18c31.94,0,55.62-40.68,58.23-45.33l1.22-2.2,0.24,2.51a106.21,106.21,0,0,1,.61,12.89c-0.31,5.9-2,7.55-4.31,9.67s-4.8,4.53-7.43,12.13c-8.12,23.95-21.7,35.54-41.47,35.54" transform="translate(-1)"/><path class="cls-4" d="M572.24,1787.12c10.47,0,21-3.09,31.79-6.58,5-1.61,8.43-4.52,10.14-8.59,3.27-7.85-.56-18.5-4.36-26l-0.8-1.56-0.64,1.61c-3.07,7.6-9,12-19.68,14.72a37.32,37.32,0,0,1-9.35,1.18c-31.91,0-55.63-40.68-58.23-45.33l-1.26-2.2-0.2,2.51a106.32,106.32,0,0,0-.61,12.89c0.3,5.9,2.07,7.55,4.31,9.67s4.77,4.53,7.4,12.13c8.16,23.95,21.73,35.54,41.49,35.54" transform="translate(-1)"/><path class="cls-7" d="M428.65,772.42c-29.21,58.39-70.66,96-70.56,199.14S446,1237.24,442,1329.5c-1.07,24.77-25.59,75.37-26.35,101.93-0.51,18.1,15.32,90.53,25.84,148.69-2,66.77-41.83,142.07-41.83,142.07s43.68,41.61,106.46,41.61,118-41.61,118-41.61S572,1645.43,571.53,1576c10.47-57.45,25.61-127.1,25-144.85-0.68-26.52-25.22-77.09-26.27-101.89-3.94-92.25,83.84-254.8,83.95-357.92s-41.36-140.76-70.62-199.14c-8.4-16.85-10.86-30.82-9.6-43H438.25c1.31,12.28-1.12,26.32-9.6,43.22" transform="translate(-1)"/><path class="cls-5" d="M467.94,459.31l0,0.05-3,6.79L398,614.82c-3.75,5.06-7.53,10.22-11.26,15.32C345.13,686.82,304.25,743,302.32,748.32a5.11,5.11,0,0,0-.21,1.41,3,3,0,0,0,0,.87c0.08,0.42.1,0.89,0.2,1.35s0.15,0.67.2,1c5,24.36,55.18,121.61,55.18,121.61s53.47,12.58,68.4,16.64,23.15,0,9.55,59.88-36.75,27.21-40.85,6.84-16.32-16.37-32.66-20.43S253.33,771.46,243.78,758.28a21,21,0,0,1-3.94-9.7V748.3a15.12,15.12,0,0,1-.15-1.56,23.61,23.61,0,0,1,.08-4.74c0-.52.1-1,0.19-1.62,2.37-16.74,17.35-45.64,59.35-103,29.84-40.8,53.18-69,70.06-88A122.43,122.43,0,0,1,386,529.2a109.05,109.05,0,0,1,16.9-13.76c1.2-.82,2.39-1.59,3.63-2.31,17.49-10.6,31.58-12.28,31.58-12.28,9.32,0,15.57-11.41,19.76-29,0.24-1,.49-2,0.73-3,0.58-2.58,1.1-5.19,1.47-8,0.09-.44.16-0.9,0.21-1.31,0.15-.83.25-1.61,0.39-2.47v0c2.42,0.83,4.87,1.63,7.27,2.32" transform="translate(-1)"/><path class="cls-6" d="M692.73,974.54c-7.12,53.94-21.42,78.13-40.93,83.05s-49.33-9.91-39-26.65,36.71-48.82,39.75-67.56c3.7-23.11-11.67-77.47-11.47-86.79,0.61-34.72,3.68-66.93,3.68-66.93l-1.89-24.8L642.69,782,620.45,648.29l-2.39-14.14-10-8.14-64.6-157-3.52-8.5v0c1.66-.42,3.34-0.89,5-1.35s3.29-1,4.92-1.63v0.05c0.06,0.58.16,1.15,0.23,1.68v0.13c0.08,0.64.22,1.31,0.32,1.94,0.26,1.73.6,3.44,0.95,5.1s0.64,3.17,1,4.67c4.24,18,10.6,29.77,20,29.77,0,0,18.3,2.14,39.22,17.41,15.8,11.51,33,30.46,45,61.45a289.79,289.79,0,0,1,16.34,51.91c7.22,32.74,11.69,74,11.38,126,0,0.39.12,1.25,0.26,2.5,0,0.22.05,0.45,0.08,0.74,0.07,0.76.15,1.71,0.22,2.76,0,0.39.07,0.82,0.14,1.33,0.05,0.91.15,2,.25,3.05,0.13,1.31.22,2.66,0.36,4.14,0.07,0.8.17,1.61,0.22,2.43a4.4,4.4,0,0,0,.1,1c0.08,1.12.19,2.24,0.26,3.47,3.93,46,12.13,153.62,6.53,195.52" transform="translate(-1)"/><path class="cls-7" d="M621.43,584.23c-13.3-39.57-35.94-61.51-42.49-84a64.27,64.27,0,0,0-12-3.19h-0.72c-0.64-.1-8.24-8.55-11.31-16.72a80.85,80.85,0,0,1-12.92,5.2c-13.13,3.76-35.28,9.35-35.28,9.35a535.35,535.35,0,0,1,21.42,53.31c8.7,25.36-5.21,44.4-22.09,45.14-16.84-.74-30.73-19.78-22-45.14a543,543,0,0,1,21.42-53.31s-22.13-5.59-35.28-9.35a107,107,0,0,1-14.59-5.2c-3.1,8.17-9,16.62-9.65,16.72h-0.71a64.42,64.42,0,0,0-12,3.19c-6.53,22.46-22.95,47-42.45,84-9.07,17.23-7.08,36.56-2.74,52a69.73,69.73,0,0,0,6.65,18.3c0.1,0.25.2,0.51,0.3,0.75H395c0.25,0.45.47,0.93,0.74,1.37,13.81,23.64,39.39,42.87,42.51,73H574c3.07-30.21,28.72-49.48,42.59-73.11,3.8-6.46,17.05-35.78,4.83-72.26" transform="translate(-1)"/><path class="cls-8" d="M364.8,874.27a6.71,6.71,0,1,1-6.72-6.71,6.71,6.71,0,0,1,6.72,6.71" transform="translate(-1)"/><path class="cls-8" d="M363.32,887.67a6.69,6.69,0,1,1-6.68-6.72,6.71,6.71,0,0,1,6.68,6.72" transform="translate(-1)"/><path class="cls-8" d="M358.09,899.84a6.71,6.71,0,1,1-6.69-6.68,6.71,6.71,0,0,1,6.69,6.68" transform="translate(-1)"/><path class="cls-8" d="M348.84,908.86a6.7,6.7,0,1,1-6.71-6.68,6.71,6.71,0,0,1,6.71,6.68" transform="translate(-1)"/><g class="cls-9"><g class="cls-10"><path class="cls-11" d="M550.65,461.48c0.1,0.66.2,1.35,0.32,2a57.42,57.42,0,0,1-7,7.87,54.8,54.8,0,0,1-38.63,15.15h-0.22c-19.39-.05-33-10.08-40.83-18a68.87,68.87,0,0,1-4.85-5.5c0.07-.45.15-0.91,0.2-1.35,0.16-.85.26-1.63,0.39-2.53-0.69-.2-1.43-0.49-2.17-0.74,0.87-5.21,1.58-10.72,2.09-16.42,0.36-3.9.74-7.79,1.12-11.8a188.27,188.27,0,0,0,43.53,5.72h0.51a12.5,12.5,0,0,0,1.56-.06,176.34,176.34,0,0,0,42.91-6.15c0.36,3.88.75,7.78,1.11,11.54,0.69,6.2,1.3,12.07,2.22,17.64-0.8.25-1.63,0.54-2.46,0.83,0.05,0.58.15,1.15,0.24,1.72v0.1Z" transform="translate(-1)"/></g></g><path class="cls-12" d="M784.13,281.55c0,44.24-135.47,148.13-280.87,148.13S222.4,340.12,222.4,295.85,353,234,498.37,234s285.77,3.25,285.77,47.52" transform="translate(-1)"/><path class="cls-13" d="M504.72,100.42C351.2,100.13,350.3,223.5,357.12,304c-10.52-18.9-41.64-11.88-39.08,18.35,2.44,28.95,46.44,42.07,45.85,38.88,12.53,65.54,84.91,102,140.83,107.14,0.4,0,.79,0,1.2,0V100.44l-1.2,0" transform="translate(-1)"/><path class="cls-11" d="M325.72,309.53c7.74-11.69,19.58-6.64,22.53-4.06,3.09,2.78,5.56,6.51,3.65,13.43-1.1,3.87-5.41,4.19-4.34,10.08,1.17,6.65,4.39,7.07,6.22,8.58s4.09,2.66,5.26,5.47a13.8,13.8,0,0,1,.69,8.32c-1.2,4.8-8.53,1-13.43-1.12-3.22-1.41-13.53-9.65-16.13-12.43-6.53-7-9.57-20.48-4.45-28.26" transform="translate(-1)"/><path class="cls-14" d="M505.48,100.42C659,100.13,659.91,223.5,653.06,304c10.54-18.9,41.66-11.88,39.13,18.35-2.44,28.95-46.46,42.07-45.83,38.88-12.55,65.54-84.93,102-140.88,107.14-0.38,0-.81,0-1.17,0V100.44l1.17,0" transform="translate(-1)"/><path class="cls-11" d="M685.56,309.53c-7.69-11.69-19.58-6.64-22.5-4.06-3.08,2.78-5.54,6.51-3.64,13.43,1.12,3.87,5.41,4.19,4.34,10.08-1.12,6.65-4.36,7.07-6.23,8.58s-4.12,2.66-5.26,5.47a14.31,14.31,0,0,0-.69,8.32c1.2,4.8,8.5,1,13.45-1.12,3.24-1.41,13.54-9.65,16.11-12.43,6.54-7,9.57-20.48,4.42-28.26" transform="translate(-1)"/><path class="cls-15" d="M503.9,135.32c-51.24,0-88.77,14.15-111.5,42-31.73,39-30.5,98.5-18.79,141.25,3.55,13.06,5.39,48.27,7.87,61.2,11.06,57.79,78.2,88.59,122.42,88.59,0.41,0,.82-0.05,1.22-0.05v-333c-0.42,0-.81,0-1.22,0" transform="translate(-1)"/><path class="cls-6" d="M615.2,177.45c-22.55-27.74-59.64-41.85-110.09-42.09v333c50.5-.52,110.85-34.26,121.22-88.54,2.47-12.94,4.31-48.12,7.88-61.22C645.86,276,647,216.55,615.2,177.45" transform="translate(-1)"/><path class="cls-16" d="M530.93,416.15S519.34,428.53,505,428.53s-25.19-12.13-25.19-12.13A167.13,167.13,0,0,1,505,414.55a210.21,210.21,0,0,1,25.89,1.61" transform="translate(-1)"/><path class="cls-17" d="M512.39,410.42c-4,0-7.26,2.53-7.36,5.62-0.07-3.09-3.29-5.62-7.28-5.62s-18.59,5.72-18.59,5.72,14.15,1.48,18.2,1.48,7.59,1.61,7.67-1.37c0.07,3,3,1.83,7,1.83s18.86-1.95,18.86-1.95-14.5-5.72-18.53-5.72" transform="translate(-1)"/><path class="cls-18" d="M411.12,295a0.92,0.92,0,0,1,.07,1.3h0a0.92,0.92,0,0,1-1.3.07l-8.73-7.78a0.92,0.92,0,0,1-.08-1.3h0a0.93,0.93,0,0,1,1.3-.08Z" transform="translate(-1)"/><path class="cls-18" d="M414,292.32a0.92,0.92,0,0,1-.06,1.3h0a0.92,0.92,0,0,1-1.3-.06l-7.9-8.63a0.93,0.93,0,0,1,.06-1.3h0a0.93,0.93,0,0,1,1.3.06Z" transform="translate(-1)"/><path class="cls-19" d="M437.23,283a33.42,33.42,0,0,0-29,16.72,33.43,33.43,0,0,0,57.91,0A33.42,33.42,0,0,0,437.23,283Z" transform="translate(-1)"/><circle class="cls-20" cx="435.88" cy="302" r="14.47"/><circle class="cls-18" cx="436.01" cy="302.19" r="7.11"/><circle class="cls-21" cx="440.8" cy="294.38" r="4.17"/><path class="cls-2" d="M437.23,316.47c12.37,0,74.23-6.73,29-16.72H408.28C465.13,309.74,424.86,316.47,437.23,316.47Z" transform="translate(-1)"/><path class="cls-18" d="M408.28,299.75a33.43,33.43,0,0,1,57.91,0h1.07a1.09,1.09,0,0,0-.14-0.54,34.5,34.5,0,0,0-59.77,0,1.09,1.09,0,0,0-.14.54h1.07Z" transform="translate(-1)"/><path class="cls-18" d="M596.45,294.39a0.92,0.92,0,0,0-.08,1.3h0a0.92,0.92,0,0,0,1.3.07l8.74-7.78a0.92,0.92,0,0,0,.08-1.31h0a0.93,0.93,0,0,0-1.3-.07Z" transform="translate(-1)"/><path class="cls-18" d="M593.59,291.66a0.92,0.92,0,0,0,.06,1.3h0a0.92,0.92,0,0,0,1.3-.06l7.89-8.63a0.92,0.92,0,0,0-.06-1.3h0a0.92,0.92,0,0,0-1.3.06Z" transform="translate(-1)"/><path class="cls-19" d="M570.34,282.37a33.42,33.42,0,0,1,29,16.73,33.43,33.43,0,0,1-57.91,0A33.42,33.42,0,0,1,570.34,282.37Z" transform="translate(-1)"/><circle class="cls-20" cx="569.69" cy="301.34" r="14.47"/><circle class="cls-18" cx="569.56" cy="301.53" r="7.11"/><circle class="cls-21" cx="564.77" cy="293.72" r="4.17"/><path class="cls-2" d="M570.34,282.37a33.42,33.42,0,0,1,29,16.73H541.38A33.42,33.42,0,0,1,570.34,282.37Z" transform="translate(-1)"/><path class="cls-2" d="M570.34,315.81a33.42,33.42,0,0,1-29-16.72h57.91A33.42,33.42,0,0,1,570.34,315.81Z" transform="translate(-1)"/><path class="cls-18" d="M599.29,299.09a33.42,33.42,0,0,0-57.91,0h-1.07a1.06,1.06,0,0,1,.14-0.54,34.49,34.49,0,0,1,59.77,0,1.08,1.08,0,0,1,.14.54h-1.07Z" transform="translate(-1)"/><path class="cls-4" d="M671.36,185.06c-2-6.36-4-12.25-6.19-18v-2.43c0-24-19.56-55.09-50.69-85.32s-50.65-24-76.43-23.11c0,0-.08.16-0.21,0.5C526.55,54.1,465.72,41,429.51,55.49c-40,16-72.74,43.48-95.88,117.27s-4.1,134.19.36,160c14.17,81.65,82.29,133.33,82.29,133.33s-17.19-21.8-24.87-43.53c-6-16.88-14.86-45.85-14.86-88.51s38.86-95.49,38.86-95.49-18,33.15-21.44,69.57,15.21,64.62,15.21,64.62-23.81-47.32,14.22-82.65a265.58,265.58,0,0,0,30.41-33.67s0,0,0,.07c-9.55,27.9,9.62,51.37,9.62,51.37s-0.35-35.83,19.51-48C531.28,230.21,539,218,545.78,194.1a57.87,57.87,0,0,0,1.85-9.18l44.17,69c2.07,3,5.44,8.07,9.36,14.63,11.49,19.12,27.3,50.48,27.3,77.74,0,42.66-8.89,71.63-14.86,88.51-7.69,21.73-24.87,43.53-24.87,43.53S656.84,426.69,671,345c4.49-25.79,23.49-86.23.35-160" transform="translate(-1)"/><path class="cls-7" d="M691.89,146.22H324.83s-0.69-8.24,0-10.85C338,84.31,387,23,503.33,23c112.75,0,172.53,59.89,188.57,112.38,0.82,2.58,0,10.85,0,10.85" transform="translate(-1)"/><path class="cls-4" d="M691.89,212.05H324.83V146.23S387,100.55,503.33,100.55c112.75,0,188.57,45.68,188.57,45.68v65.82Z" transform="translate(-1)"/><path class="cls-7" d="M498.37,234c-102.18,3.29-273.44,51.72-273.44,51.72s105.9-131.41,270.22-131.61c145.76-.21,289,118.41,289,118.41S565.51,231.9,498.37,234" transform="translate(-1)"/></g></svg>