<svg xmlns="http://www.w3.org/2000/svg" xmlns:xlink="http://www.w3.org/1999/xlink" viewBox="0 0 1215.19 1881.64"><defs><style>.cls-1{fill:#7a8491;}.cls-2{isolation:isolate;}.cls-3{clip-path:url(#clip-path);}.cls-4{fill:#32313b;}.cls-13,.cls-5{fill:#f7cdba;}.cls-6{fill:#deb4a0;}.cls-11,.cls-13,.cls-6{mix-blend-mode:multiply;}.cls-7{fill:#fff;}.cls-8{fill:#972b1f;}.cls-9{fill:#e7e7e7;}.cls-10{fill:#504d4e;}.cls-11{fill:#c8c8c8;}.cls-12{fill:#696772;}.cls-14{fill:#3c2517;}.cls-15{fill:#503d31;}</style><clipPath id="clip-path" transform="translate(104.19 -6)"><path class="cls-1" d="M994,500c0,276.14-217.86,492-494,492S6,776.14,6,500,223.86,6,500,6,994,223.86,994,500Z"/></clipPath></defs><title>m1-circle-avatar-1000x1000</title><g class="cls-2"><g id="m1"><path class="cls-1" d="M994,500c0,276.14-217.86,492-494,492S6,776.14,6,500,223.86,6,500,6,994,223.86,994,500Z" transform="translate(104.19 -6)"/><g class="cls-3"><g id="man"><g id="man-2" data-name="man"><rect class="cls-4" x="493.46" y="735.76" width="228.27" height="96.82"/><polygon class="cls-5" points="730.17 764.82 701.06 751.4 701.06 658.86 514.24 658.86 514.24 751.4 485.01 764.01 492.8 1026.44 514.24 1026.44 514.24 1066.68 701.06 1066.68 701.06 1026.44 722.39 1026.44 730.17 764.82"/><polygon class="cls-6" points="514.24 658.86 514.24 731.46 701.06 745.26 701.06 658.86 514.24 658.86"/><path class="cls-7" d="M628.6,771.43l-6.94,26.07c-12,34.41-42.81,90.69-115.93,90.69-82.5,0-114-71.65-123.74-102.69l-3.75-14.07c-151.95,57.09-105.33,532.95-105.33,532.95l-1,395.24,231.83,0,244.28,0-6.37-395.24S780.55,828.52,628.6,771.43Z" transform="translate(104.19 -6)"/><polygon class="cls-8" points="652.56 869.34 634.63 903.68 580.05 903.68 562.63 869.34 607.59 832.58 652.56 869.34"/><path class="cls-9" d="M503.42,838.58L446,899.07l-98.24-117.2L409,751.34l23.06,21.34Z" transform="translate(104.19 -6)"/><polygon class="cls-9" points="702.03 745.37 607.61 832.57 665.06 893.1 763.27 775.83 702.03 745.37"/><polygon class="cls-8" points="634.63 911.89 656.84 1627.09 607.59 1681.53 558.35 1627.09 580.05 911.89 634.63 911.89"/><path class="cls-4" d="M892.14,909.17c-14.91-87.24-111.58-87.27-263.53-144.36,0,0-125.2,506.73-125.2,506.75S378.2,764.81,378.2,764.81C226.25,821.9,129.58,821.93,114.67,909.17c-24.09,141,56.39,202.56,57,201.77,0,0,6.57,625.8-3.29,776.66l311.66,0,23.35-109,23.35,109,311.66,0c-9.86-150.86-3.29-776.66-3.29-776.66C835.75,1111.73,916.23,1050.16,892.14,909.17Z" transform="translate(104.19 -6)"/><polygon class="cls-10" points="414.85 776.19 417.89 865.46 462.47 902.13 427.78 949.55 606.41 1265.57 493.46 735.76 414.85 776.19"/><polygon class="cls-10" points="800.34 776.19 797.3 865.46 752.72 902.13 787.41 949.55 608.77 1265.57 721.73 735.76 800.34 776.19"/><path class="cls-9" d="M690.15,1414.58h-373a54.49,54.49,0,0,1-54.49-54.49l-23.35-311.37a54.49,54.49,0,0,1,54.49-54.49H713.5A54.49,54.49,0,0,1,768,1048.72l-23.35,311.37A54.49,54.49,0,0,1,690.15,1414.58Z" transform="translate(104.19 -6)"/><path class="cls-11" d="M714.49,994.23H292.78a53.43,53.43,0,0,0-44.68,24.11,53.22,53.22,0,0,1,29.39-8.82H699.21a53.5,53.5,0,0,1,53.5,53.5l-23.35,313.35a53.21,53.21,0,0,1-8.82,29.39,53.43,53.43,0,0,0,24.11-44.68L768,1047.73A53.5,53.5,0,0,0,714.49,994.23Z" transform="translate(104.19 -6)"/><rect class="cls-12" x="386.8" y="1175.48" width="45.86" height="45.86" rx="2.36" ry="2.36"/><path class="cls-5" d="M278.34,1236.08s-36.64,4.08-65.09,6.19l-20.79,1.25-17.94.55-17.22-.07-2.72,116.73,21.58,0.09,21.58-.66L222,1358.7c32.69-2.43,71.84-6.89,71.84-6.89,25.14-3.29,40.61-32.58,35.28-64.25C323.72,1255.64,300.94,1233.14,278.34,1236.08Z" transform="translate(104.19 -6)"/><path class="cls-5" d="M239.49,1205.89c-19.3,2.18-34.29,15.86-45.57,29.49A181.17,181.17,0,0,0,175,1263.31c-4.51,8.47-3.46,20.82,3,27.21s15.66,4.61,20-4.19c0.09-.18,1.41-2.72,3.73-6.45a131.57,131.57,0,0,1,9.65-13.6c8.12-10,19.05-20.19,32.26-21.7,7.63-.86,12.73-10.2,11.4-20.87S246.78,1205.07,239.49,1205.89Z" transform="translate(104.19 -6)"/><path class="cls-4" d="M172,1386.78c-47.92,0-183,7.18-223.42-25.69-28.38-23.11-87.64-98.34-25.23-225.39,51.84-105.55,136.4-201.19,215.57-275.91l93.82,195.95c-73.46,69.35-91.23,64.91-160.28,141.74-20.9,23.26-12.59,31.18-12.07,31.6,11.05,9,77.78,4,121.55.48l11.22,155.23C178.7,1385.95,187.1,1386.78,172,1386.78Z" transform="translate(104.19 -6)"/><path class="cls-5" d="M728.47,1236.08s36.64,4.08,65.09,6.19l20.79,1.25,17.94,0.55,17.22-.07,2.72,116.73-21.58.09-21.58-.66-24.24-1.46c-32.69-2.43-71.84-6.89-71.84-6.89-25.14-3.29-40.61-32.58-35.28-64.25C683.09,1255.64,705.88,1233.14,728.47,1236.08Z" transform="translate(104.19 -6)"/><path class="cls-5" d="M767.32,1205.89c19.3,2.18,34.29,15.86,45.57,29.49a181.16,181.16,0,0,1,18.92,27.93c4.51,8.47,3.46,20.82-3,27.21s-15.66,4.61-20-4.19c-0.09-.18-1.41-2.72-3.73-6.45a131.57,131.57,0,0,0-9.65-13.6c-8.12-10-19.05-20.19-32.26-21.7-7.63-.86-12.73-10.2-11.4-20.87S760,1205.07,767.32,1205.89Z" transform="translate(104.19 -6)"/><path class="cls-4" d="M834.82,1386.78c47.92,0,183,7.18,223.42-25.69,28.38-23.11,87.64-98.34,25.23-225.39-51.84-105.55-136.4-201.19-215.57-275.91l-91.18,198.16c73.46,69.35,88.59,62.7,157.64,139.53,20.9,23.26,12.59,31.18,12.07,31.6-11.05,9-77.78,4-121.55.48l-11.22,155.23C828.11,1385.95,819.72,1386.78,834.82,1386.78Z" transform="translate(104.19 -6)"/><path class="cls-5" d="M707.27,397l6.32-82.21c0-107.5-102.75-194.6-210.17-194.6s-210.17,87.1-210.17,194.6l6.32,82.13a38.14,38.14,0,0,0-16,8.09,38.76,38.76,0,0,0-13.7,29.66v40.48A38.87,38.87,0,0,0,308.58,514c0,101.51,122,197.74,194.85,197.74S698.27,615.55,698.27,514a38.9,38.9,0,0,0,38.65-38.89V434.66A38.85,38.85,0,0,0,707.27,397Z" transform="translate(104.19 -6)"/><path class="cls-13" d="M707.27,397l6.32-82.21c0-107.5-102.75-194.6-210.17-194.6h0V396.51C475,456.89,456.69,544.4,456.69,544.4h46.71V711.76h0.06c72.88,0,194.82-96.23,194.82-197.73a38.9,38.9,0,0,0,38.65-38.89V434.66A38.85,38.85,0,0,0,707.27,397Z" transform="translate(104.19 -6)"/><circle class="cls-13" cx="413.87" cy="443.37" r="30.74" transform="translate(88.96 8.72) rotate(-2)"/><circle class="cls-14" cx="413.87" cy="435.58" r="30.74" transform="translate(89.24 8.71) rotate(-2)"/><circle class="cls-7" cx="424.31" cy="449.34" r="7.69" transform="translate(88.76 9.09) rotate(-2)"/><circle class="cls-13" cx="592.91" cy="443.37" r="30.74" transform="translate(89.07 14.97) rotate(-2)"/><circle class="cls-14" cx="592.91" cy="435.58" r="30.74" transform="translate(89.34 14.96) rotate(-2)"/><circle class="cls-7" cx="603.35" cy="449.34" r="7.69" transform="translate(88.87 15.33) rotate(-2)"/><path class="cls-15" d="M596.35,588.46c-27.9-29.14-85.81-32.24-92.32-32.5q-0.62,0-1.23,0c-6.51.26-64.43,3.36-92.32,32.5a15.52,15.52,0,0,0-4.33,10.9c0.36,40.19,7.1,78.38,7.72,80a15.54,15.54,0,0,0,4.77,6.54c1.31,1.06,40.33,25.75,84.74,25.75S586.86,687,588.17,685.9a15.56,15.56,0,0,0,4.79-6.55c0.62-1.61,7.36-39.79,7.72-80A15.53,15.53,0,0,0,596.35,588.46Zm-31,75.44c-5.65,3.69-26,10.85-42.56,14.43V657.47a19.46,19.46,0,1,0-38.92,0v20.87c-16.54-3.58-36.88-10.75-42.5-14.44-3.17-9.37-2.55-32.93-3.92-57.92,18.05-13.68,52.41-18.23,65.91-18.88,13.52,0.66,47.85,5.21,65.9,18.87C567.95,630.85,568.56,654.49,565.4,663.9Z" transform="translate(104.19 -6)"/><path class="cls-15" d="M737.19,206.06c8.54-26,1.5-67.18-23.63-132-4.83-12.47-21.13-14.63-29.47-4.18-23.71,29.73-57.75,29.44-106.63,2.77C505.43,33.3,448.19,44.45,410.2,75c-259.46,40.8-109.13,375.24-109.13,375.24s-17.79-201.32,73.45-188c56.07,8.16,97.65,10.93,128.91,10.7,31.26,0.23,72.83-2.54,128.91-10.7,91.24-13.28,73.45,188,73.45,188S776.43,315.1,737.19,206.06Z" transform="translate(104.19 -6)"/><path class="cls-4" d="M721.37,372.72H679.25c-13.32-7-31.95-11.43-58-11.43-43.38,0-72.81,8.31-87.92,24.54-7.14-3.93-17.81-8.4-29.88-8.4s-22.53,4.38-29.68,8.29c-15.14-16.16-44.54-24.43-87.81-24.43-26.08,0-44.72,4.45-58,11.43H285.46v30.35l13.93,4.89a70.19,70.19,0,0,0-2,17c0,37.71,9.18,87.85,88.54,87.85,70.88,0,89.48-43.61,98.32-86.26a51.51,51.51,0,0,0,.59-18.42c3.46-2.21,9.16-4.14,18.59-4.14,9.67,0,15.44,2,18.87,4.31a51.6,51.6,0,0,0,.61,18.25c8.84,42.65,27.43,86.26,98.32,86.26,79.36,0,88.54-50.13,88.54-87.85a70.09,70.09,0,0,0-2-17.12l13.65-4.79V372.72ZM469,423.39c-9.19,44.33-26.83,73.86-83.08,73.86-64.13,0-73-34.74-73-72.28,0-11.9,0-48.12,73-48.12,50.35,0,70.19,11.39,78,21C469.4,404.57,471.11,413.18,469,423.39Zm152.22,73.86c-56.24,0-73.88-29.53-83.07-73.86-2.12-10.22-.4-18.82,5.1-25.58,7.78-9.56,27.62-21,78-21,73,0,73,36.21,73,48.12C694.19,462.51,685.35,497.25,621.21,497.25Z" transform="translate(104.19 -6)"/></g></g></g></g></g></svg>