<svg xmlns="http://www.w3.org/2000/svg" xmlns:xlink="http://www.w3.org/1999/xlink" viewBox="0 0 999 1216.73"><defs><style>.cls-1{fill:#7a8491;}.cls-2{isolation:isolate;}.cls-3{clip-path:url(#clip-path);}.cls-4{fill:#32313b;}.cls-13,.cls-5{fill:#f7cdba;}.cls-6{fill:#deb4a0;}.cls-11,.cls-13,.cls-6{mix-blend-mode:multiply;}.cls-7{fill:#fff;}.cls-8{fill:#972b1f;}.cls-9{fill:#e7e7e7;}.cls-10{fill:#504d4e;}.cls-11{fill:#c8c8c8;}.cls-12{fill:#696772;}.cls-14{fill:#3c2517;}.cls-15{fill:#503d31;}</style><clipPath id="clip-path" transform="translate(-1)"><polygon class="cls-1" points="1000 1001.25 1 1000 1 0 1000 0 1000 1001.25"/></clipPath></defs><title>m1-square-avatar-1000x1000</title><g class="cls-2"><g id="m1"><polygon class="cls-1" points="999 1001.25 0 1000 0 0 999 0 999 1001.25"/><g class="cls-3"><g id="man"><rect class="cls-4" x="429.15" y="473.59" width="148.04" height="62.79"/><polygon class="cls-5" points="582.66 492.44 563.79 483.73 563.79 423.72 442.63 423.72 442.63 483.73 423.67 491.91 428.72 662.11 442.63 662.11 442.63 688.2 563.79 688.2 563.79 662.11 577.62 662.11 582.66 492.44"/><polygon class="cls-6" points="442.63 423.72 442.63 470.8 563.79 479.75 563.79 423.72 442.63 423.72"/><path class="cls-7" d="M585.36,492.83l-4.5,16.91c-7.79,22.32-27.76,58.81-75.19,58.81-53.5,0-73.91-46.47-80.25-66.6L423,492.83c-98.54,37-68.31,345.64-68.31,345.64l-0.62,256.33,150.35,0,158.43,0-4.13-256.33S683.9,529.86,585.36,492.83Z" transform="translate(-1)"/><polygon class="cls-8" points="532.33 560.22 520.7 582.49 485.31 582.49 474.01 560.22 503.17 536.38 532.33 560.22"/><path class="cls-9" d="M504.17,536.38l-37.26,39.23-63.71-76L443,479.8l15,13.84Z" transform="translate(-1)"/><polygon class="cls-9" points="564.41 479.82 503.18 536.38 540.43 575.63 604.13 499.58 564.41 479.82"/><polygon class="cls-8" points="520.7 587.82 535.11 1051.65 503.17 1086.96 471.23 1051.65 485.31 587.82 520.7 587.82"/><path class="cls-4" d="M756.27,582.16c-9.67-56.58-72.36-56.6-170.91-93.62,0,0-81.2,328.64-81.2,328.65S423,488.54,423,488.54c-98.54,37-161.24,37-170.91,93.62C236.43,673.6,288.63,713.53,289,713c0,0,4.26,405.85-2.13,503.69l202.12,0,15.14-70.67,15.14,70.67,202.12,0C715,1118.87,719.3,713,719.3,713,719.7,713.53,771.9,673.6,756.27,582.16Z" transform="translate(-1)"/><polygon class="cls-10" points="378.16 499.81 380.14 557.7 409.05 581.48 386.55 612.24 502.4 817.19 429.15 473.59 378.16 499.81"/><polygon class="cls-10" points="628.17 499.81 626.2 557.7 597.29 581.48 619.78 612.24 503.93 817.19 577.19 473.59 628.17 499.81"/><path class="cls-9" d="M625.28,909.94H383.36A35.34,35.34,0,0,1,348,874.6L332.87,672.67a35.34,35.34,0,0,1,35.34-35.34H640.42a35.34,35.34,0,0,1,35.34,35.34L660.62,874.6A35.34,35.34,0,0,1,625.28,909.94Z" transform="translate(-1)"/><path class="cls-11" d="M641.07,637.33H367.57a34.65,34.65,0,0,0-29,15.63,34.51,34.51,0,0,1,19.06-5.72h273.5a34.7,34.7,0,0,1,34.7,34.7L650.7,885.16A34.51,34.51,0,0,1,645,904.22a34.65,34.65,0,0,0,15.63-29L675.76,672A34.7,34.7,0,0,0,641.07,637.33Z" transform="translate(-1)"/><rect class="cls-12" x="359.97" y="758.76" width="29.74" height="29.74" rx="2.36" ry="2.36"/><path class="cls-5" d="M358.21,794.17s-23.76,2.64-42.21,4l-13.48.81-11.63.36-11.17,0L277.95,875l14,0.06,14-.43,15.72-.95c21.2-1.58,46.59-4.47,46.59-4.47,16.3-2.14,26.34-21.13,22.88-41.67C387.64,806.86,372.86,792.27,358.21,794.17Z" transform="translate(-1)"/><path class="cls-5" d="M333,774.6c-12.52,1.41-22.24,10.28-29.56,19.12a117.5,117.5,0,0,0-12.27,18.11c-2.93,5.49-2.24,13.5,1.95,17.65s10.15,3,13-2.72c0.06-.12.92-1.76,2.42-4.18a85.33,85.33,0,0,1,6.26-8.82c5.27-6.5,12.36-13.09,20.92-14.07,4.95-.56,8.26-6.62,7.39-13.53S337.74,774.06,333,774.6Z" transform="translate(-1)"/><path class="cls-4" d="M289.23,891.91c-31.08,0-118.69,4.66-144.89-16.66-18.4-15-56.84-63.78-16.36-146.18,33.62-68.45,88.46-130.48,139.81-178.94l60.85,127.08c-47.64,45-59.17,42.1-103.95,91.92-13.56,15.08-8.16,20.22-7.83,20.49,7.17,5.84,50.44,2.59,78.83.31L303,890.62C293.59,891.37,299,891.91,289.23,891.91Z" transform="translate(-1)"/><path class="cls-5" d="M650.13,794.17s23.76,2.64,42.21,4L705.83,799l11.63,0.36,11.17,0,1.77,75.7-14,.06-14-.43-15.72-.95c-21.2-1.58-46.59-4.47-46.59-4.47-16.3-2.14-26.34-21.13-22.88-41.67C620.7,806.86,635.48,792.27,650.13,794.17Z" transform="translate(-1)"/><path class="cls-5" d="M675.33,774.6c12.52,1.41,22.24,10.28,29.55,19.12a117.49,117.49,0,0,1,12.27,18.11c2.93,5.49,2.24,13.5-1.95,17.65s-10.15,3-13-2.72c-0.06-.12-0.92-1.76-2.42-4.18a85.33,85.33,0,0,0-6.26-8.82c-5.27-6.5-12.36-13.09-20.92-14.07-4.95-.56-8.26-6.62-7.39-13.53S670.6,774.06,675.33,774.6Z" transform="translate(-1)"/><path class="cls-4" d="M719.1,891.91c31.08,0,118.69,4.66,144.89-16.66,18.4-15,56.84-63.78,16.36-146.18-33.62-68.45-88.46-130.48-139.81-178.94L681.42,678.65c47.64,45,57.45,40.67,102.23,90.49,13.56,15.08,8.16,20.22,7.83,20.49-7.17,5.84-50.44,2.59-78.83.31l-7.28,100.68C714.75,891.37,709.31,891.91,719.1,891.91Z" transform="translate(-1)"/><path class="cls-5" d="M636.38,250l4.1-53.31c0-69.72-66.64-126.21-136.3-126.21S367.88,127,367.88,196.67l4.1,53.26a24.74,24.74,0,0,0-10.36,5.25,25.14,25.14,0,0,0-8.89,19.23v26.25a25.21,25.21,0,0,0,25.09,25.23c0,65.84,79.1,128.24,126.36,128.24s126.36-62.4,126.36-128.24a25.23,25.23,0,0,0,25.06-25.22V274.43A25.2,25.2,0,0,0,636.38,250Z" transform="translate(-1)"/><path class="cls-13" d="M636.38,250l4.1-53.31c0-69.72-66.64-126.21-136.3-126.21h0V249.68c-18.41,39.16-30.29,95.92-30.29,95.92h30.29V454.14h0c47.26,0,126.35-62.41,126.35-128.23a25.23,25.23,0,0,0,25.06-25.22V274.43A25.2,25.2,0,0,0,636.38,250Z" transform="translate(-1)"/><circle class="cls-13" cx="446.1" cy="280.07" r="19.94" transform="translate(-10.5 15.74) rotate(-2)"/><circle class="cls-14" cx="446.1" cy="275.02" r="19.94" transform="translate(-10.33 15.74) rotate(-2)"/><circle class="cls-7" cx="452.87" cy="283.95" r="4.98" transform="translate(-10.64 15.98) rotate(-2)"/><circle class="cls-13" cx="562.22" cy="280.07" r="19.94" transform="translate(-10.43 19.8) rotate(-2)"/><circle class="cls-14" cx="562.22" cy="275.02" r="19.94" transform="translate(-10.26 19.79) rotate(-2)"/><circle class="cls-7" cx="568.98" cy="283.95" r="4.98" transform="translate(-10.56 20.03) rotate(-2)"/><path class="cls-15" d="M564.45,374.17c-18.09-18.9-55.65-20.91-59.88-21.08h-0.8c-4.22.17-41.78,2.18-59.87,21.08a10.07,10.07,0,0,0-2.81,7.07c0.23,26.07,4.6,50.83,5,51.87a10.08,10.08,0,0,0,3.1,4.24c0.85,0.69,26.15,16.7,55,16.7s54.14-16,55-16.69a10.09,10.09,0,0,0,3.11-4.25c0.4-1,4.77-25.81,5-51.87A10.07,10.07,0,0,0,564.45,374.17ZM544.37,423.1c-3.66,2.39-16.88,7-27.6,9.36V418.92a12.62,12.62,0,1,0-25.24,0v13.54c-10.73-2.32-23.92-7-27.56-9.36-2.06-6.07-1.65-21.36-2.54-37.56,11.71-8.87,34-11.82,42.74-12.25,8.77,0.43,31,3.38,42.74,12.24C546,401.66,546.42,417,544.37,423.1Z" transform="translate(-1)"/><path class="cls-15" d="M655.79,126.17c5.54-16.84,1-43.57-15.32-85.64a11.08,11.08,0,0,0-19.11-2.71C606,57.1,583.9,56.91,552.2,39.62c-46.72-25.49-83.84-18.26-108.48,1.55-168.27,26.46-70.77,243.36-70.77,243.36s-11.54-130.56,47.63-122c36.37,5.29,63.33,7.09,83.6,6.94,20.27,0.15,47.23-1.65,83.6-6.94,59.17-8.61,47.63,122,47.63,122S681.24,196.88,655.79,126.17Z" transform="translate(-1)"/><path class="cls-4" d="M645.53,234.25H618.21c-8.64-4.53-20.72-7.41-37.64-7.41-28.13,0-47.22,5.39-57,15.92-4.63-2.55-11.55-5.44-19.38-5.44s-14.61,2.84-19.25,5.37c-9.82-10.48-28.88-15.85-57-15.85-16.92,0-29,2.89-37.64,7.41H362.82v19.68l9,3.17a45.52,45.52,0,0,0-1.3,11c0,24.46,6,57,57.42,57,46,0,58-28.28,63.76-55.95a33.41,33.41,0,0,0,.38-11.94c2.24-1.43,5.94-2.69,12.06-2.69,6.27,0,10,1.32,12.24,2.8a33.46,33.46,0,0,0,.4,11.83c5.73,27.66,17.79,55.95,63.76,55.95,51.47,0,57.42-32.51,57.42-57a45.46,45.46,0,0,0-1.32-11.1l8.85-3.11V234.25ZM481.85,267.12c-6,28.75-17.4,47.9-53.88,47.9-41.59,0-47.33-22.53-47.33-46.87,0-7.72,0-31.21,47.33-31.21,32.65,0,45.52,7.39,50.57,13.59C482.11,254.91,483.22,260.49,481.85,267.12ZM580.57,315c-36.48,0-47.92-19.15-53.88-47.9-1.37-6.63-.26-12.21,3.31-16.59,5-6.2,17.92-13.59,50.57-13.59,47.33,0,47.33,23.49,47.33,31.21C627.9,292.49,622.16,315,580.57,315Z" transform="translate(-1)"/></g></g></g></g></svg>