<svg xmlns="http://www.w3.org/2000/svg" xmlns:xlink="http://www.w3.org/1999/xlink" viewBox="0 0 1215.19 2000.02"><defs><style>.cls-1{fill:#7a8491;}.cls-2{fill:#6a5c4e;}.cls-3{isolation:isolate;}.cls-4{clip-path:url(#clip-path);}.cls-5{fill:#32313b;}.cls-14,.cls-6{fill:#f7cdba;}.cls-7{fill:#deb4a0;}.cls-12,.cls-14,.cls-22,.cls-24,.cls-7{mix-blend-mode:multiply;}.cls-8{fill:#fff;}.cls-9{fill:#972b1f;}.cls-10{fill:#e7e7e7;}.cls-11{fill:#504d4e;}.cls-12{fill:#c8c8c8;}.cls-13{fill:#696772;}.cls-15{fill:#3c2517;}.cls-16{fill:#503d31;}.cls-17{clip-path:url(#clip-path-2);}.cls-18{fill:#f1ae75;}.cls-19{fill:#737172;}.cls-20{fill:#393744;}.cls-21{fill:#be8858;}.cls-22,.cls-24{fill:#f5ccb9;}.cls-22{opacity:0.8;}.cls-23{fill:#3c2518;}</style><clipPath id="clip-path" transform="translate(104.19 -6)"><path class="cls-1" d="M994,500c0,276.14-217.86,492-494,492S6,776.14,6,500,223.86,6,500,6,994,223.86,994,500Z"/></clipPath><clipPath id="clip-path-2" transform="translate(104.19 -6)"><path class="cls-2" d="M994,500c0,276.14-217.86,492-494,492S6,776.14,6,500,223.86,6,500,6,994,223.86,994,500Z"/></clipPath></defs><title>m2-circle-avatar-1000x1000</title><g class="cls-3"><g id="m1"><path class="cls-1" d="M994,500c0,276.14-217.86,492-494,492S6,776.14,6,500,223.86,6,500,6,994,223.86,994,500Z" transform="translate(104.19 -6)"/><g class="cls-4"><g id="man"><g id="man-2" data-name="man"><rect class="cls-5" x="493.46" y="735.76" width="228.27" height="96.82"/><polygon class="cls-6" points="730.17 764.82 701.06 751.4 701.06 658.86 514.24 658.86 514.24 751.4 485.01 764.01 492.8 1026.44 514.24 1026.44 514.24 1066.68 701.06 1066.68 701.06 1026.44 722.39 1026.44 730.17 764.82"/><polygon class="cls-7" points="514.24 658.86 514.24 731.46 701.06 745.26 701.06 658.86 514.24 658.86"/><path class="cls-8" d="M628.6,771.43l-6.94,26.07c-12,34.41-42.81,90.69-115.93,90.69-82.5,0-114-71.65-123.74-102.69l-3.75-14.07c-151.95,57.09-105.33,532.95-105.33,532.95l-1,395.24,231.83,0,244.28,0-6.37-395.24S780.55,828.52,628.6,771.43Z" transform="translate(104.19 -6)"/><polygon class="cls-9" points="652.56 869.34 634.63 903.68 580.05 903.68 562.63 869.34 607.59 832.58 652.56 869.34"/><path class="cls-10" d="M503.42,838.58L446,899.07l-98.24-117.2L409,751.34l23.06,21.34Z" transform="translate(104.19 -6)"/><polygon class="cls-10" points="702.03 745.37 607.61 832.57 665.06 893.1 763.27 775.83 702.03 745.37"/><polygon class="cls-9" points="634.63 911.89 656.84 1627.09 607.59 1681.53 558.35 1627.09 580.05 911.89 634.63 911.89"/><path class="cls-5" d="M892.14,909.17c-14.91-87.24-111.58-87.27-263.53-144.36,0,0-125.2,506.73-125.2,506.75S378.2,764.81,378.2,764.81C226.25,821.9,129.58,821.93,114.67,909.17c-24.09,141,56.39,202.56,57,201.77,0,0,6.57,625.8-3.29,776.66l311.66,0,23.35-109,23.35,109,311.66,0c-9.86-150.86-3.29-776.66-3.29-776.66C835.75,1111.73,916.23,1050.16,892.14,909.17Z" transform="translate(104.19 -6)"/><polygon class="cls-11" points="414.85 776.19 417.89 865.46 462.47 902.13 427.78 949.55 606.41 1265.57 493.46 735.76 414.85 776.19"/><polygon class="cls-11" points="800.34 776.19 797.3 865.46 752.72 902.13 787.41 949.55 608.77 1265.57 721.73 735.76 800.34 776.19"/><path class="cls-10" d="M690.15,1414.58h-373a54.49,54.49,0,0,1-54.49-54.49l-23.35-311.37a54.49,54.49,0,0,1,54.49-54.49H713.5A54.49,54.49,0,0,1,768,1048.72l-23.35,311.37A54.49,54.49,0,0,1,690.15,1414.58Z" transform="translate(104.19 -6)"/><path class="cls-12" d="M714.49,994.23H292.78a53.43,53.43,0,0,0-44.68,24.11,53.22,53.22,0,0,1,29.39-8.82H699.21a53.5,53.5,0,0,1,53.5,53.5l-23.35,313.35a53.21,53.21,0,0,1-8.82,29.39,53.43,53.43,0,0,0,24.11-44.68L768,1047.73A53.5,53.5,0,0,0,714.49,994.23Z" transform="translate(104.19 -6)"/><rect class="cls-13" x="386.8" y="1175.48" width="45.86" height="45.86" rx="2.36" ry="2.36"/><path class="cls-6" d="M278.34,1236.08s-36.64,4.08-65.09,6.19l-20.79,1.25-17.94.55-17.22-.07-2.72,116.73,21.58,0.09,21.58-.66L222,1358.7c32.69-2.43,71.84-6.89,71.84-6.89,25.14-3.29,40.61-32.58,35.28-64.25C323.72,1255.64,300.94,1233.14,278.34,1236.08Z" transform="translate(104.19 -6)"/><path class="cls-6" d="M239.49,1205.89c-19.3,2.18-34.29,15.86-45.57,29.49A181.17,181.17,0,0,0,175,1263.31c-4.51,8.47-3.46,20.82,3,27.21s15.66,4.61,20-4.19c0.09-.18,1.41-2.72,3.73-6.45a131.57,131.57,0,0,1,9.65-13.6c8.12-10,19.05-20.19,32.26-21.7,7.63-.86,12.73-10.2,11.4-20.87S246.78,1205.07,239.49,1205.89Z" transform="translate(104.19 -6)"/><path class="cls-5" d="M172,1386.78c-47.92,0-183,7.18-223.42-25.69-28.38-23.11-87.64-98.34-25.23-225.39,51.84-105.55,136.4-201.19,215.57-275.91l93.82,195.95c-73.46,69.35-91.23,64.91-160.28,141.74-20.9,23.26-12.59,31.18-12.07,31.6,11.05,9,77.78,4,121.55.48l11.22,155.23C178.7,1385.95,187.1,1386.78,172,1386.78Z" transform="translate(104.19 -6)"/><path class="cls-6" d="M728.47,1236.08s36.64,4.08,65.09,6.19l20.79,1.25,17.94,0.55,17.22-.07,2.72,116.73-21.58.09-21.58-.66-24.24-1.46c-32.69-2.43-71.84-6.89-71.84-6.89-25.14-3.29-40.61-32.58-35.28-64.25C683.09,1255.64,705.88,1233.14,728.47,1236.08Z" transform="translate(104.19 -6)"/><path class="cls-6" d="M767.32,1205.89c19.3,2.18,34.29,15.86,45.57,29.49a181.16,181.16,0,0,1,18.92,27.93c4.51,8.47,3.46,20.82-3,27.21s-15.66,4.61-20-4.19c-0.09-.18-1.41-2.72-3.73-6.45a131.57,131.57,0,0,0-9.65-13.6c-8.12-10-19.05-20.19-32.26-21.7-7.63-.86-12.73-10.2-11.4-20.87S760,1205.07,767.32,1205.89Z" transform="translate(104.19 -6)"/><path class="cls-5" d="M834.82,1386.78c47.92,0,183,7.18,223.42-25.69,28.38-23.11,87.64-98.34,25.23-225.39-51.84-105.55-136.4-201.19-215.57-275.91l-91.18,198.16c73.46,69.35,88.59,62.7,157.64,139.53,20.9,23.26,12.59,31.18,12.07,31.6-11.05,9-77.78,4-121.55.48l-11.22,155.23C828.11,1385.95,819.72,1386.78,834.82,1386.78Z" transform="translate(104.19 -6)"/><path class="cls-6" d="M707.27,397l6.32-82.21c0-107.5-102.75-194.6-210.17-194.6s-210.17,87.1-210.17,194.6l6.32,82.13a38.14,38.14,0,0,0-16,8.09,38.76,38.76,0,0,0-13.7,29.66v40.48A38.87,38.87,0,0,0,308.58,514c0,101.51,122,197.74,194.85,197.74S698.27,615.55,698.27,514a38.9,38.9,0,0,0,38.65-38.89V434.66A38.85,38.85,0,0,0,707.27,397Z" transform="translate(104.19 -6)"/><path class="cls-14" d="M707.27,397l6.32-82.21c0-107.5-102.75-194.6-210.17-194.6h0V396.51C475,456.89,456.69,544.4,456.69,544.4h46.71V711.76h0.06c72.88,0,194.82-96.23,194.82-197.73a38.9,38.9,0,0,0,38.65-38.89V434.66A38.85,38.85,0,0,0,707.27,397Z" transform="translate(104.19 -6)"/><circle class="cls-14" cx="413.87" cy="443.37" r="30.74" transform="translate(88.96 8.72) rotate(-2)"/><circle class="cls-15" cx="413.87" cy="435.58" r="30.74" transform="translate(89.24 8.71) rotate(-2)"/><circle class="cls-8" cx="424.31" cy="449.34" r="7.69" transform="translate(88.76 9.09) rotate(-2)"/><circle class="cls-14" cx="592.91" cy="443.37" r="30.74" transform="translate(89.07 14.97) rotate(-2)"/><circle class="cls-15" cx="592.91" cy="435.58" r="30.74" transform="translate(89.34 14.96) rotate(-2)"/><circle class="cls-8" cx="603.35" cy="449.34" r="7.69" transform="translate(88.87 15.33) rotate(-2)"/><path class="cls-16" d="M596.35,588.46c-27.9-29.14-85.81-32.24-92.32-32.5q-0.62,0-1.23,0c-6.51.26-64.43,3.36-92.32,32.5a15.52,15.52,0,0,0-4.33,10.9c0.36,40.19,7.1,78.38,7.72,80a15.54,15.54,0,0,0,4.77,6.54c1.31,1.06,40.33,25.75,84.74,25.75S586.86,687,588.17,685.9a15.56,15.56,0,0,0,4.79-6.55c0.62-1.61,7.36-39.79,7.72-80A15.53,15.53,0,0,0,596.35,588.46Zm-31,75.44c-5.65,3.69-26,10.85-42.56,14.43V657.47a19.46,19.46,0,1,0-38.92,0v20.87c-16.54-3.58-36.88-10.75-42.5-14.44-3.17-9.37-2.55-32.93-3.92-57.92,18.05-13.68,52.41-18.23,65.91-18.88,13.52,0.66,47.85,5.21,65.9,18.87C567.95,630.85,568.56,654.49,565.4,663.9Z" transform="translate(104.19 -6)"/><path class="cls-16" d="M737.19,206.06c8.54-26,1.5-67.18-23.63-132-4.83-12.47-21.13-14.63-29.47-4.18-23.71,29.73-57.75,29.44-106.63,2.77C505.43,33.3,448.19,44.45,410.2,75c-259.46,40.8-109.13,375.24-109.13,375.24s-17.79-201.32,73.45-188c56.07,8.16,97.65,10.93,128.91,10.7,31.26,0.23,72.83-2.54,128.91-10.7,91.24-13.28,73.45,188,73.45,188S776.43,315.1,737.19,206.06Z" transform="translate(104.19 -6)"/><path class="cls-5" d="M721.37,372.72H679.25c-13.32-7-31.95-11.43-58-11.43-43.38,0-72.81,8.31-87.92,24.54-7.14-3.93-17.81-8.4-29.88-8.4s-22.53,4.38-29.68,8.29c-15.14-16.16-44.54-24.43-87.81-24.43-26.08,0-44.72,4.45-58,11.43H285.46v30.35l13.93,4.89a70.19,70.19,0,0,0-2,17c0,37.71,9.18,87.85,88.54,87.85,70.88,0,89.48-43.61,98.32-86.26a51.51,51.51,0,0,0,.59-18.42c3.46-2.21,9.16-4.14,18.59-4.14,9.67,0,15.44,2,18.87,4.31a51.6,51.6,0,0,0,.61,18.25c8.84,42.65,27.43,86.26,98.32,86.26,79.36,0,88.54-50.13,88.54-87.85a70.09,70.09,0,0,0-2-17.12l13.65-4.79V372.72ZM469,423.39c-9.19,44.33-26.83,73.86-83.08,73.86-64.13,0-73-34.74-73-72.28,0-11.9,0-48.12,73-48.12,50.35,0,70.19,11.39,78,21C469.4,404.57,471.11,413.18,469,423.39Zm152.22,73.86c-56.24,0-73.88-29.53-83.07-73.86-2.12-10.22-.4-18.82,5.1-25.58,7.78-9.56,27.62-21,78-21,73,0,73,36.21,73,48.12C694.19,462.51,685.35,497.25,621.21,497.25Z" transform="translate(104.19 -6)"/></g></g></g></g><g id="m2"><path class="cls-2" d="M994,500c0,276.14-217.86,492-494,492S6,776.14,6,500,223.86,6,500,6,994,223.86,994,500Z" transform="translate(104.19 -6)"/><g class="cls-17"><g id="man-3" data-name="man"><rect class="cls-5" x="499.26" y="729.75" width="217.89" height="92.42"/><polygon class="cls-18" points="725.21 757.49 697.42 744.68 697.42 656.35 519.1 656.35 519.1 744.68 491.19 756.72 498.63 1007.21 519.1 1007.21 519.1 1045.62 697.42 1045.62 697.42 1007.21 717.78 1007.21 725.21 757.49"/><polygon class="cls-7" points="519.1 656.35 519.1 716.36 697.42 738.83 697.42 656.35 519.1 656.35"/><path class="cls-8" d="M384.54,764.07L391.17,789c11.46,32.85,40.86,86.57,110.66,86.57,78.75,0,108.79-68.39,118.11-98l3.58-13.43C768.55,818.57,724,1272.78,724,1272.78L725,1650l-221.29,0-233.17,0,6.08-377.26S239.5,818.57,384.54,764.07Z" transform="translate(104.19 -6)"/><polygon class="cls-9" points="565.31 857.25 582.42 890.04 634.51 890.04 651.14 857.25 608.23 822.17 565.31 857.25"/><path class="cls-10" d="M504,828.17l54.84,57.74L652.64,774l-58.52-29.14-22,20.37Z" transform="translate(104.19 -6)"/><polygon class="cls-10" points="518.09 738.92 608.21 822.16 553.37 879.94 459.63 768 518.09 738.92"/><polygon class="cls-9" points="582.42 897.87 561.22 1580.55 608.23 1632.51 655.23 1580.55 634.51 897.87 582.42 897.87"/><path class="cls-5" d="M133,895.55c14.23-83.27,106.51-83.3,251.54-137.79,0,0,119.51,483.69,119.51,483.71S623.55,757.76,623.55,757.76c145,54.49,237.31,54.52,251.54,137.79,23,134.58-53.83,193.35-54.41,192.6,0,0-6.27,597.34,3.14,741.34l-297.49,0L504,1725.5l-22.29,104-297.49,0c9.41-144,3.14-741.34,3.14-741.34C186.81,1088.9,110,1030.13,133,895.55Z" transform="translate(104.19 -6)"/><polygon class="cls-11" points="792.21 768.35 789.3 853.55 746.75 888.55 779.86 933.82 609.35 1235.47 717.17 729.75 792.21 768.35"/><polygon class="cls-11" points="424.24 768.35 427.15 853.55 469.7 888.55 436.59 933.82 607.1 1235.47 499.28 729.75 424.24 768.35"/><rect class="cls-19" x="510.67" y="1144.87" width="313.67" height="178.32" rx="5" ry="5" transform="translate(2005.73 560.53) rotate(90)"/><path class="cls-12" d="M624.78,1077.2h85.45a46.22,46.22,0,0,1,37,18.69,46,46,0,0,0-27.75-9.4H634.07a46.44,46.44,0,0,0-46.44,46.44v220.8a46,46,0,0,0,9.4,27.75,46.22,46.22,0,0,1-18.69-37v-220.8A46.44,46.44,0,0,1,624.78,1077.2Z" transform="translate(104.19 -6)"/><rect class="cls-20" x="653.24" y="1102.5" width="28.53" height="28.53" rx="1.54" ry="1.54" transform="translate(1888.46 443.26) rotate(90)"/><path class="cls-21" d="M168.88,1941.46L141.15,1784.2l-87.81,15.48,27.73,157.26c5.48,31.08,29.58,52.81,53.83,48.54S174.36,1972.54,168.88,1941.46Z" transform="translate(104.19 -6)"/><path class="cls-21" d="M189.85,1905.68c-4.86-55.5-56.58-90.14-58.78-91.59a18.27,18.27,0,0,0-25.65,5.7,19.38,19.38,0,0,0,5.64,26.3c0.7,0.47,38.59,26.31,41.79,62.82A18.58,18.58,0,1,0,189.85,1905.68Z" transform="translate(104.19 -6)"/><path class="cls-5" d="M300.72,785.57c-112.9,35.22-194.07,45.38-206.19,116.3-23,134.58-49.24,287.09-64,450.64-5,213.22,14.24,479,14.24,479H161.58c0.66-1.1,2.91-170.29,7.27-359.36,21.39-137.75,31.52-198.61,32.1-199.37l125.38-398.7C324.42,870.07,310.9,810,300.72,785.57Z" transform="translate(104.19 -6)"/><path class="cls-18" d="M718.86,1207.59s35,3.89,62.13,5.91l19.84,1.2,17.12,0.52,16.44-.07,2.6,111.42-20.6.09-20.6-.63-23.14-1.39c-31.2-2.32-68.58-6.58-68.58-6.58-24-3.14-38.76-31.1-33.68-61.33C675.55,1226.26,697.3,1204.78,718.86,1207.59Z" transform="translate(104.19 -6)"/><path class="cls-18" d="M755.95,1178.78c18.43,2.08,32.73,15.14,43.5,28.14a172.87,172.87,0,0,1,18.06,26.66c4.31,8.08,3.3,19.87-2.87,26s-14.94,4.4-19.14-4c-0.09-.17-1.35-2.59-3.56-6.15a125.38,125.38,0,0,0-9.21-13c-7.75-9.57-18.19-19.27-30.79-20.71-7.28-.82-12.15-9.74-10.88-19.92S749,1178,755.95,1178.78Z" transform="translate(104.19 -6)"/><path class="cls-5" d="M820.38,1351.44c45.74,0,174.7,6.86,213.25-24.52,27.09-22.06,83.65-93.87,24.08-215.14C1008.23,1011,927.52,919.73,852,848.41L719,997c70.12,66.2,130.52,100.41,196.43,173.74,20,22.2,12,29.76,11.52,30.16-10.55,8.59-74.24,3.82-116,.46l-10.71,148.18C814,1350.64,806,1351.44,820.38,1351.44Z" transform="translate(104.19 -6)"/><path class="cls-18" d="M700.15,396.27l6-78.47C706.18,215.19,608.11,132,505.57,132S305,215.19,305,317.8l6,78.39a36.39,36.39,0,0,0-15.24,7.72,37,37,0,0,0-13.08,28.31v38.64A37.1,37.1,0,0,0,319.59,508c0,96.9,116.43,188.75,186,188.75s186-91.84,186-188.74a37.14,37.14,0,0,0,36.89-37.13V432.24A37.08,37.08,0,0,0,700.15,396.27Z" transform="translate(104.19 -6)"/><path class="cls-22" d="M700.15,396.27l6-78.47C706.18,215.19,608.11,132,505.57,132c0,0,0,263.77,0,263.77C478.44,453.46,461,537,461,537h44.58V696.74c69.62,0,186-91.85,186-188.74a37.14,37.14,0,0,0,36.89-37.13V432.24A37.08,37.08,0,0,0,700.15,396.27Z" transform="translate(104.19 -6)"/><path class="cls-15" d="M507.55,94.59c-299.66-40-238.06,300.59-218.07,364.56,3.63,11.7,19.28,29.73,19.35,29.73,6.09,11.41-16.13,229.84,198.72,229.84S700.18,500.29,706.27,488.88c0.07,0,15.72-18,19.35-29.73C745.61,395.18,789.2,132.22,507.55,94.59ZM682,482.48c0,24.37-15,60.45-36.25,76.44a32.07,32.07,0,0,1-31.87,3.51c-17.73-7.58-57.34-14.37-106.38-14.37s-88.65,6.8-106.37,14.37a32.07,32.07,0,0,1-31.87-3.51c-21.26-16-36.25-52.08-36.25-76.44,0,0-29.6-106.73-7.34-185.15,11-38.82,58.61-60.69,97.76-50.89,28.43,7.11,57.94,9.48,84.08,9.54s55.65-2.42,84.08-9.54c39.14-9.8,86.74,12.07,97.76,50.89C711.64,375.75,682,482.48,682,482.48Z" transform="translate(104.19 -6)"/><path class="cls-23" d="M598.28,82c68.34,46.73,85.28,73.45,114.82,51.59,9-6.68,22.55-2.38,24,8.75C757.31,303.28,560.42,367,373.61,233.8,286,171.31,422.94-37.85,598.28,82Z" transform="translate(104.19 -6)"/><path class="cls-18" d="M457,588.83h97.16a3.39,3.39,0,0,1,2.34,5.86c-7,6.3-22,15.42-50.92,15.42s-44-9.12-50.92-15.42A3.39,3.39,0,0,1,457,588.83Z" transform="translate(104.19 -6)"/><circle class="cls-24" cx="419.36" cy="438.42" r="29.34" transform="matrix(1, -0.03, 0.03, 1, 89.15, 8.9)"/><circle class="cls-23" cx="419.36" cy="430.99" r="29.34" transform="matrix(1, -0.03, 0.03, 1, 89.41, 8.89)"/><circle class="cls-8" cx="429.32" cy="421.83" r="7.34" transform="translate(89.72 9.24) rotate(-2)"/><circle class="cls-24" cx="590.26" cy="438.42" r="29.34" transform="translate(89.25 14.86) rotate(-2)"/><circle class="cls-23" cx="590.26" cy="430.99" r="29.34" transform="translate(89.51 14.86) rotate(-2)"/><circle class="cls-8" cx="600.22" cy="421.83" r="7.34" transform="translate(89.83 15.21) rotate(-2)"/><path class="cls-5" d="M711,365.37H670.84c-12.71-6.66-30.5-10.91-55.39-10.91-41.4,0-69.5,7.93-83.92,23.43-6.82-3.75-17-8-28.52-8s-21.51,4.18-28.33,7.91c-14.45-15.42-42.51-23.32-83.82-23.32-24.9,0-42.68,4.25-55.39,10.91H295v29L308.25,399a67,67,0,0,0-1.92,16.25c0,36,8.76,83.85,84.51,83.85,67.66,0,85.41-41.63,93.85-82.34a49.16,49.16,0,0,0,.56-17.58c3.3-2.11,8.74-4,17.74-4,9.23,0,14.74,1.94,18,4.12a49.25,49.25,0,0,0,.59,17.42c8.44,40.71,26.19,82.34,93.85,82.34,75.75,0,84.51-47.85,84.51-83.85A66.9,66.9,0,0,0,698,398.91l13-4.57v-29Zm-240.9,48.37c-8.77,42.32-25.61,70.5-79.3,70.5-61.22,0-69.65-33.16-69.65-69,0-11.36,0-45.93,69.65-45.93,48.06,0,67,10.88,74.42,20C470.53,395.78,472.17,404,470.15,413.75Zm145.29,70.5c-53.69,0-70.52-28.18-79.3-70.5-2-9.75-.38-18,4.87-24.42,7.43-9.13,26.37-20,74.42-20,69.65,0,69.65,34.57,69.65,45.93C685.1,451.08,676.66,484.24,615.44,484.24Z" transform="translate(104.19 -6)"/></g></g></g></g></svg>