<svg xmlns="http://www.w3.org/2000/svg" xmlns:xlink="http://www.w3.org/1999/xlink" viewBox="0 0 999 1334.4"><defs><style>.cls-1{fill:#7a8491;}.cls-2{fill:#6a5c4e;}.cls-3{isolation:isolate;}.cls-4{clip-path:url(#clip-path);}.cls-5{fill:#32313b;}.cls-14,.cls-6{fill:#f7cdba;}.cls-7{fill:#deb4a0;}.cls-12,.cls-14,.cls-22,.cls-24,.cls-7{mix-blend-mode:multiply;}.cls-8{fill:#fff;}.cls-9{fill:#972b1f;}.cls-10{fill:#e7e7e7;}.cls-11{fill:#504d4e;}.cls-12{fill:#c8c8c8;}.cls-13{fill:#696772;}.cls-15{fill:#3c2517;}.cls-16{fill:#503d31;}.cls-17{clip-path:url(#clip-path-2);}.cls-18{fill:#f1ae75;}.cls-19{fill:#737172;}.cls-20{fill:#393744;}.cls-21{fill:#be8858;}.cls-22,.cls-24{fill:#f5ccb9;}.cls-22{opacity:0.8;}.cls-23{fill:#3c2518;}</style><clipPath id="clip-path" transform="translate(-1)"><polygon class="cls-1" points="1000 1001.25 1 1000 1 0 1000 0 1000 1001.25"/></clipPath><clipPath id="clip-path-2" transform="translate(-1)"><polygon class="cls-2" points="1000 1001.25 1 1000 1 0 1000 0 1000 1001.25"/></clipPath></defs><title>m2-square-avatar-1000x1000</title><g class="cls-3"><g id="m1"><polygon class="cls-1" points="999 1001.25 0 1000 0 0 999 0 999 1001.25"/><g class="cls-4"><g id="man"><rect class="cls-5" x="429.15" y="473.59" width="148.04" height="62.79"/><polygon class="cls-6" points="582.66 492.44 563.79 483.73 563.79 423.72 442.63 423.72 442.63 483.73 423.67 491.91 428.72 662.11 442.63 662.11 442.63 688.2 563.79 688.2 563.79 662.11 577.62 662.11 582.66 492.44"/><polygon class="cls-7" points="442.63 423.72 442.63 470.8 563.79 479.75 563.79 423.72 442.63 423.72"/><path class="cls-8" d="M585.36,492.83l-4.5,16.91c-7.79,22.32-27.76,58.81-75.19,58.81-53.5,0-73.91-46.47-80.25-66.6L423,492.83c-98.54,37-68.31,345.64-68.31,345.64l-0.62,256.33,150.35,0,158.43,0-4.13-256.33S683.9,529.86,585.36,492.83Z" transform="translate(-1)"/><polygon class="cls-9" points="532.33 560.22 520.7 582.49 485.31 582.49 474.01 560.22 503.17 536.38 532.33 560.22"/><path class="cls-10" d="M504.17,536.38l-37.26,39.23-63.71-76L443,479.8l15,13.84Z" transform="translate(-1)"/><polygon class="cls-10" points="564.41 479.82 503.18 536.38 540.43 575.63 604.13 499.58 564.41 479.82"/><polygon class="cls-9" points="520.7 587.82 535.11 1051.65 503.17 1086.96 471.23 1051.65 485.31 587.82 520.7 587.82"/><path class="cls-5" d="M756.27,582.16c-9.67-56.58-72.36-56.6-170.91-93.62,0,0-81.2,328.64-81.2,328.65S423,488.54,423,488.54c-98.54,37-161.24,37-170.91,93.62C236.43,673.6,288.63,713.53,289,713c0,0,4.26,405.85-2.13,503.69l202.12,0,15.14-70.67,15.14,70.67,202.12,0C715,1118.87,719.3,713,719.3,713,719.7,713.53,771.9,673.6,756.27,582.16Z" transform="translate(-1)"/><polygon class="cls-11" points="378.16 499.81 380.14 557.7 409.05 581.48 386.55 612.24 502.4 817.19 429.15 473.59 378.16 499.81"/><polygon class="cls-11" points="628.17 499.81 626.2 557.7 597.29 581.48 619.78 612.24 503.93 817.19 577.19 473.59 628.17 499.81"/><path class="cls-10" d="M625.28,909.94H383.36A35.34,35.34,0,0,1,348,874.6L332.87,672.67a35.34,35.34,0,0,1,35.34-35.34H640.42a35.34,35.34,0,0,1,35.34,35.34L660.62,874.6A35.34,35.34,0,0,1,625.28,909.94Z" transform="translate(-1)"/><path class="cls-12" d="M641.07,637.33H367.57a34.65,34.65,0,0,0-29,15.63,34.51,34.51,0,0,1,19.06-5.72h273.5a34.7,34.7,0,0,1,34.7,34.7L650.7,885.16A34.51,34.51,0,0,1,645,904.22a34.65,34.65,0,0,0,15.63-29L675.76,672A34.7,34.7,0,0,0,641.07,637.33Z" transform="translate(-1)"/><rect class="cls-13" x="359.97" y="758.76" width="29.74" height="29.74" rx="2.36" ry="2.36"/><path class="cls-6" d="M358.21,794.17s-23.76,2.64-42.21,4l-13.48.81-11.63.36-11.17,0L277.95,875l14,0.06,14-.43,15.72-.95c21.2-1.58,46.59-4.47,46.59-4.47,16.3-2.14,26.34-21.13,22.88-41.67C387.64,806.86,372.86,792.27,358.21,794.17Z" transform="translate(-1)"/><path class="cls-6" d="M333,774.6c-12.52,1.41-22.24,10.28-29.56,19.12a117.5,117.5,0,0,0-12.27,18.11c-2.93,5.49-2.24,13.5,1.95,17.65s10.15,3,13-2.72c0.06-.12.92-1.76,2.42-4.18a85.33,85.33,0,0,1,6.26-8.82c5.27-6.5,12.36-13.09,20.92-14.07,4.95-.56,8.26-6.62,7.39-13.53S337.74,774.06,333,774.6Z" transform="translate(-1)"/><path class="cls-5" d="M289.23,891.91c-31.08,0-118.69,4.66-144.89-16.66-18.4-15-56.84-63.78-16.36-146.18,33.62-68.45,88.46-130.48,139.81-178.94l60.85,127.08c-47.64,45-59.17,42.1-103.95,91.92-13.56,15.08-8.16,20.22-7.83,20.49,7.17,5.84,50.44,2.59,78.83.31L303,890.62C293.59,891.37,299,891.91,289.23,891.91Z" transform="translate(-1)"/><path class="cls-6" d="M650.13,794.17s23.76,2.64,42.21,4L705.83,799l11.63,0.36,11.17,0,1.77,75.7-14,.06-14-.43-15.72-.95c-21.2-1.58-46.59-4.47-46.59-4.47-16.3-2.14-26.34-21.13-22.88-41.67C620.7,806.86,635.48,792.27,650.13,794.17Z" transform="translate(-1)"/><path class="cls-6" d="M675.33,774.6c12.52,1.41,22.24,10.28,29.55,19.12a117.49,117.49,0,0,1,12.27,18.11c2.93,5.49,2.24,13.5-1.95,17.65s-10.15,3-13-2.72c-0.06-.12-0.92-1.76-2.42-4.18a85.33,85.33,0,0,0-6.26-8.82c-5.27-6.5-12.36-13.09-20.92-14.07-4.95-.56-8.26-6.62-7.39-13.53S670.6,774.06,675.33,774.6Z" transform="translate(-1)"/><path class="cls-5" d="M719.1,891.91c31.08,0,118.69,4.66,144.89-16.66,18.4-15,56.84-63.78,16.36-146.18-33.62-68.45-88.46-130.48-139.81-178.94L681.42,678.65c47.64,45,57.45,40.67,102.23,90.49,13.56,15.08,8.16,20.22,7.83,20.49-7.17,5.84-50.44,2.59-78.83.31l-7.28,100.68C714.75,891.37,709.31,891.91,719.1,891.91Z" transform="translate(-1)"/><path class="cls-6" d="M636.38,250l4.1-53.31c0-69.72-66.64-126.21-136.3-126.21S367.88,127,367.88,196.67l4.1,53.26a24.74,24.74,0,0,0-10.36,5.25,25.14,25.14,0,0,0-8.89,19.23v26.25a25.21,25.21,0,0,0,25.09,25.23c0,65.84,79.1,128.24,126.36,128.24s126.36-62.4,126.36-128.24a25.23,25.23,0,0,0,25.06-25.22V274.43A25.2,25.2,0,0,0,636.38,250Z" transform="translate(-1)"/><path class="cls-14" d="M636.38,250l4.1-53.31c0-69.72-66.64-126.21-136.3-126.21h0V249.68c-18.41,39.16-30.29,95.92-30.29,95.92h30.29V454.14h0c47.26,0,126.35-62.41,126.35-128.23a25.23,25.23,0,0,0,25.06-25.22V274.43A25.2,25.2,0,0,0,636.38,250Z" transform="translate(-1)"/><circle class="cls-14" cx="446.1" cy="280.07" r="19.94" transform="translate(-10.5 15.74) rotate(-2)"/><circle class="cls-15" cx="446.1" cy="275.02" r="19.94" transform="translate(-10.33 15.74) rotate(-2)"/><circle class="cls-8" cx="452.87" cy="283.95" r="4.98" transform="translate(-10.64 15.98) rotate(-2)"/><circle class="cls-14" cx="562.22" cy="280.07" r="19.94" transform="translate(-10.43 19.8) rotate(-2)"/><circle class="cls-15" cx="562.22" cy="275.02" r="19.94" transform="translate(-10.26 19.79) rotate(-2)"/><circle class="cls-8" cx="568.98" cy="283.95" r="4.98" transform="translate(-10.56 20.03) rotate(-2)"/><path class="cls-16" d="M564.45,374.17c-18.09-18.9-55.65-20.91-59.88-21.08h-0.8c-4.22.17-41.78,2.18-59.87,21.08a10.07,10.07,0,0,0-2.81,7.07c0.23,26.07,4.6,50.83,5,51.87a10.08,10.08,0,0,0,3.1,4.24c0.85,0.69,26.15,16.7,55,16.7s54.14-16,55-16.69a10.09,10.09,0,0,0,3.11-4.25c0.4-1,4.77-25.81,5-51.87A10.07,10.07,0,0,0,564.45,374.17ZM544.37,423.1c-3.66,2.39-16.88,7-27.6,9.36V418.92a12.62,12.62,0,1,0-25.24,0v13.54c-10.73-2.32-23.92-7-27.56-9.36-2.06-6.07-1.65-21.36-2.54-37.56,11.71-8.87,34-11.82,42.74-12.25,8.77,0.43,31,3.38,42.74,12.24C546,401.66,546.42,417,544.37,423.1Z" transform="translate(-1)"/><path class="cls-16" d="M655.79,126.17c5.54-16.84,1-43.57-15.32-85.64a11.08,11.08,0,0,0-19.11-2.71C606,57.1,583.9,56.91,552.2,39.62c-46.72-25.49-83.84-18.26-108.48,1.55-168.27,26.46-70.77,243.36-70.77,243.36s-11.54-130.56,47.63-122c36.37,5.29,63.33,7.09,83.6,6.94,20.27,0.15,47.23-1.65,83.6-6.94,59.17-8.61,47.63,122,47.63,122S681.24,196.88,655.79,126.17Z" transform="translate(-1)"/><path class="cls-5" d="M645.53,234.25H618.21c-8.64-4.53-20.72-7.41-37.64-7.41-28.13,0-47.22,5.39-57,15.92-4.63-2.55-11.55-5.44-19.38-5.44s-14.61,2.84-19.25,5.37c-9.82-10.48-28.88-15.85-57-15.85-16.92,0-29,2.89-37.64,7.41H362.82v19.68l9,3.17a45.52,45.52,0,0,0-1.3,11c0,24.46,6,57,57.42,57,46,0,58-28.28,63.76-55.95a33.41,33.41,0,0,0,.38-11.94c2.24-1.43,5.94-2.69,12.06-2.69,6.27,0,10,1.32,12.24,2.8a33.46,33.46,0,0,0,.4,11.83c5.73,27.66,17.79,55.95,63.76,55.95,51.47,0,57.42-32.51,57.42-57a45.46,45.46,0,0,0-1.32-11.1l8.85-3.11V234.25ZM481.85,267.12c-6,28.75-17.4,47.9-53.88,47.9-41.59,0-47.33-22.53-47.33-46.87,0-7.72,0-31.21,47.33-31.21,32.65,0,45.52,7.39,50.57,13.59C482.11,254.91,483.22,260.49,481.85,267.12ZM580.57,315c-36.48,0-47.92-19.15-53.88-47.9-1.37-6.63-.26-12.21,3.31-16.59,5-6.2,17.92-13.59,50.57-13.59,47.33,0,47.33,23.49,47.33,31.21C627.9,292.49,622.16,315,580.57,315Z" transform="translate(-1)"/></g></g></g><g id="m2"><polygon class="cls-2" points="999 1001.25 0 1000 0 0 999 0 999 1001.25"/><g class="cls-17"><g id="man-2" data-name="man"><rect class="cls-5" x="430.71" y="484.66" width="145.76" height="61.82"/><polygon class="cls-18" points="581.86 503.22 563.27 494.65 563.27 435.56 443.98 435.56 443.98 494.65 425.32 502.7 430.29 670.27 443.98 670.27 443.98 695.96 563.27 695.96 563.27 670.27 576.89 670.27 581.86 503.22"/><polygon class="cls-7" points="443.98 435.56 443.98 475.7 563.27 490.73 563.27 435.56 443.98 435.56"/><path class="cls-8" d="M424.67,503.61l4.43,16.65c7.67,22,27.33,57.91,74,57.91,52.68,0,72.77-45.75,79-65.57l2.39-9c97,36.45,67.25,340.3,67.25,340.3l0.61,252.37-148,0-156,0,4.07-252.37S327.64,540.06,424.67,503.61Z" transform="translate(-1)"/><polygon class="cls-9" points="474.89 569.96 486.35 591.89 521.19 591.89 532.32 569.96 503.61 546.49 474.89 569.96"/><path class="cls-10" d="M504.6,546.49l36.68,38.62L604,510.27l-39.15-19.5-14.73,13.63Z" transform="translate(-1)"/><polygon class="cls-10" points="443.31 490.8 503.6 546.48 466.91 585.13 404.2 510.25 443.31 490.8"/><polygon class="cls-9" points="486.35 597.13 472.16 1053.8 503.61 1088.56 535.05 1053.8 521.19 597.13 486.35 597.13"/><path class="cls-5" d="M256.39,591.56c9.52-55.71,71.25-55.72,168.27-92.17,0,0,79.95,323.56,79.95,323.57s79.95-323.57,79.95-323.57c97,36.45,158.75,36.47,168.27,92.17,15.38,90-36,129.34-36.4,128.84,0,0-4.19,399.59,2.1,495.92l-199,0-14.91-69.58-14.91,69.58-199,0c6.3-96.33,2.1-495.92,2.1-495.92C292.4,720.9,241,681.58,256.39,591.56Z" transform="translate(-1)"/><polygon class="cls-11" points="626.68 510.48 624.74 567.48 596.27 590.89 618.42 621.17 504.36 822.96 576.48 484.66 626.68 510.48"/><polygon class="cls-11" points="380.53 510.48 382.48 567.48 410.94 590.89 388.79 621.17 502.85 822.96 430.73 484.66 380.53 510.48"/><rect class="cls-19" x="509.04" y="758.34" width="209.83" height="119.29" rx="5" ry="5" transform="translate(1430.94 204.03) rotate(90)"/><path class="cls-12" d="M585.38,713.07h57.16a30.92,30.92,0,0,1,24.77,12.5,30.79,30.79,0,0,0-18.56-6.29H591.59a31.07,31.07,0,0,0-31.06,31.06v147.7a30.79,30.79,0,0,0,6.29,18.56,30.92,30.92,0,0,1-12.5-24.77V744.14A31.07,31.07,0,0,1,585.38,713.07Z" transform="translate(-1)"/><rect class="cls-20" x="604.41" y="730" width="19.09" height="19.09" rx="1.54" ry="1.54" transform="translate(1352.5 125.59) rotate(90)"/><path class="cls-21" d="M280.4,1291.21L261.85,1186l-58.74,10.36,18.55,105.2c3.67,20.79,19.79,35.33,36,32.47S284.07,1312,280.4,1291.21Z" transform="translate(-1)"/><path class="cls-21" d="M294.43,1267.28c-3.25-37.13-37.85-60.3-39.32-61.27a12.22,12.22,0,0,0-17.16,3.81,13,13,0,0,0,3.77,17.59c0.47,0.31,25.82,17.6,28,42A12.43,12.43,0,1,0,294.43,1267.28Z" transform="translate(-1)"/><path class="cls-5" d="M368.6,518c-75.52,23.56-129.82,30.36-137.93,77.8-15.39,90-32.94,192-42.82,301.46-3.37,142.63,9.53,320.43,9.53,320.43h78.14c0.44-.74,1.94-113.91,4.86-240.39,14.31-92.14,21.08-132.86,21.48-133.36L385.73,577.2C384.45,574.51,375.41,534.34,368.6,518Z" transform="translate(-1)"/><path class="cls-18" d="M648.31,800.3s23.4,2.6,41.56,4l13.27,0.8,11.45,0.35,11,0,1.74,74.54-13.78.06-13.78-.42-15.48-.93c-20.87-1.55-45.87-4.4-45.87-4.4-16.05-2.1-25.93-20.81-22.53-41C619.34,812.79,633.89,798.42,648.31,800.3Z" transform="translate(-1)"/><path class="cls-18" d="M673.12,781c12.33,1.39,21.89,10.13,29.1,18.83a115.64,115.64,0,0,1,12.08,17.83c2.88,5.41,2.21,13.29-1.92,17.38s-10,2.95-12.8-2.68c-0.06-.11-0.9-1.73-2.38-4.12a83.87,83.87,0,0,0-6.16-8.68c-5.19-6.4-12.17-12.89-20.6-13.85-4.87-.55-8.13-6.51-7.28-13.33S668.46,780.5,673.12,781Z" transform="translate(-1)"/><path class="cls-5" d="M716.22,896.53c30.6,0,116.86,4.59,142.66-16.41,18.12-14.76,56-62.79,16.11-143.92-33.1-67.39-87.1-128.47-137.65-176.18l-89,99.4c46.91,44.28,87.31,67.17,131.4,116.22,13.35,14.85,8,19.91,7.71,20.18-7.06,5.75-49.66,2.55-77.61.31l-7.16,99.12C711.93,896,706.58,896.53,716.22,896.53Z" transform="translate(-1)"/><path class="cls-18" d="M635.79,257.57l4-52.49c0-68.64-65.61-124.26-134.2-124.26s-134.2,55.62-134.2,124.26l4,52.44a24.35,24.35,0,0,0-10.2,5.17,24.75,24.75,0,0,0-8.75,18.94v25.85a24.82,24.82,0,0,0,24.7,24.84c0,64.82,77.88,126.26,124.41,126.26S630,397.13,630,332.31a24.84,24.84,0,0,0,24.68-24.83V281.63A24.81,24.81,0,0,0,635.79,257.57Z" transform="translate(-1)"/><path class="cls-22" d="M635.79,257.57l4-52.49c0-68.64-65.61-124.26-134.2-124.26,0,0,0,176.45,0,176.45-18.13,38.56-29.82,94.44-29.82,94.44h29.82V458.57c46.57,0,124.43-61.44,124.43-126.25a24.84,24.84,0,0,0,24.68-24.83V281.63A24.81,24.81,0,0,0,635.79,257.57Z" transform="translate(-1)"/><path class="cls-15" d="M507,55.76C306.5,29,347.71,256.84,361.08,299.63c2.43,7.83,12.9,19.89,12.94,19.89,4.08,7.63-10.79,153.75,132.93,153.75S635.81,327.15,639.89,319.52c0,0,10.51-12.06,12.95-19.89C666.2,256.84,695.36,80.93,507,55.76ZM623.68,315.24c0,16.3-10,40.44-24.25,51.14a21.46,21.46,0,0,1-21.32,2.35c-11.86-5.07-38.35-9.62-71.16-9.62s-59.3,4.55-71.16,9.62a21.45,21.45,0,0,1-21.32-2.35c-14.22-10.7-24.25-34.84-24.25-51.14,0,0-19.8-71.4-4.91-123.85,7.37-26,39.21-40.6,65.39-34,19,4.76,38.76,6.34,56.24,6.38s37.22-1.62,56.24-6.38c26.18-6.55,58,8.07,65.39,34C643.48,243.84,623.68,315.24,623.68,315.24Z" transform="translate(-1)"/><path class="cls-23" d="M567.65,47.37c45.72,31.26,57,49.14,76.81,34.51,6-4.47,15.08-1.59,16,5.85C674,195.36,542.32,238,417.35,148.89,358.74,107.09,450.35-32.83,567.65,47.37Z" transform="translate(-1)"/><path class="cls-18" d="M473.15,386.38h65a2.27,2.27,0,0,1,1.57,3.92c-4.66,4.21-14.74,10.32-34.06,10.32s-29.41-6.1-34.07-10.32A2.27,2.27,0,0,1,473.15,386.38Z" transform="translate(-1)"/><circle class="cls-24" cx="447.96" cy="285.76" r="19.63" transform="translate(-10.7 15.8) rotate(-2)"/><circle class="cls-23" cx="447.96" cy="280.79" r="19.63" transform="translate(-10.52 15.8) rotate(-2)"/><circle class="cls-8" cx="454.63" cy="274.67" r="4.91" transform="translate(-10.31 16.04) rotate(-2)"/><circle class="cls-24" cx="562.28" cy="285.76" r="19.63" transform="translate(-10.63 19.79) rotate(-2)"/><circle class="cls-23" cx="562.28" cy="280.79" r="19.63" transform="translate(-10.45 19.79) rotate(-2)"/><circle class="cls-8" cx="568.94" cy="274.67" r="4.91" transform="translate(-10.24 20.03) rotate(-2)"/><path class="cls-5" d="M643.08,236.9h-26.9c-8.5-4.46-20.4-7.3-37.06-7.3-27.7,0-46.49,5.31-56.14,15.67-4.56-2.51-11.37-5.36-19.08-5.36s-14.39,2.8-19,5.29c-9.67-10.32-28.44-15.6-56.07-15.6-16.66,0-28.55,2.84-37.06,7.3H364.74v19.38l8.89,3.12a44.82,44.82,0,0,0-1.28,10.87c0,24.08,5.86,56.09,56.54,56.09,45.26,0,57.13-27.85,62.78-55.08a32.89,32.89,0,0,0,.38-11.76c2.21-1.41,5.85-2.65,11.87-2.65,6.18,0,9.86,1.3,12,2.75a32.94,32.94,0,0,0,.39,11.65c5.64,27.24,17.52,55.08,62.78,55.08,50.67,0,56.54-32,56.54-56.09a44.75,44.75,0,0,0-1.3-10.93l8.72-3.06V236.9ZM481.93,269.26c-5.87,28.31-17.13,47.16-53,47.16-40.95,0-46.59-22.18-46.59-46.15,0-7.6,0-30.73,46.59-30.73,32.15,0,44.82,7.28,49.79,13.38C482.19,257.24,483.29,262.74,481.93,269.26Zm97.19,47.16c-35.91,0-47.18-18.85-53-47.16-1.35-6.52-.25-12,3.26-16.33,5-6.11,17.64-13.38,49.79-13.38,46.59,0,46.59,23.12,46.59,30.73C625.72,294.24,620.08,316.42,579.13,316.42Z" transform="translate(-1)"/></g></g></g></g></svg>