<svg xmlns="http://www.w3.org/2000/svg" xmlns:xlink="http://www.w3.org/1999/xlink" viewBox="0 0 1222.52 1669.37"><defs><style>.cls-1{fill:#67883e;}.cls-2{isolation:isolate;}.cls-3{clip-path:url(#clip-path);}.cls-4{fill:#be8858;}.cls-5{fill:#deb4a0;}.cls-10,.cls-12,.cls-5{mix-blend-mode:multiply;}.cls-6{fill:#d1e8c5;}.cls-7{fill:#0f6b94;}.cls-8{fill:#fcf9ce;}.cls-9{fill:#504d4e;}.cls-10{fill:#c8c8c8;}.cls-11{fill:#393744;}.cls-12{fill:#f1c9b5;opacity:0.8;}.cls-13{fill:#3c2518;}.cls-14{fill:#fff;}.cls-15{fill:#f05e45;}</style><clipPath id="clip-path" transform="translate(46.01 -6)"><path class="cls-1" d="M994,500c0,276.14-217.86,492-494,492S6,776.14,6,500,223.86,6,500,6,994,223.86,994,500Z"/></clipPath></defs><title>m3-circle-avatar-1000x1000</title><g class="cls-2"><g id="m3"><path class="cls-1" d="M994,500c0,276.14-217.86,492-494,492S6,776.14,6,500,223.86,6,500,6,994,223.86,994,500Z" transform="translate(46.01 -6)"/><g class="cls-3"><g id="man"><polygon class="cls-4" points="684.85 755.61 656.32 742.46 656.32 651.73 473.15 651.73 473.15 742.46 444.49 754.82 452.13 1012.11 473.15 1012.11 473.15 1051.56 656.32 1051.56 656.32 1012.11 677.22 1012.11 684.85 755.61"/><polygon class="cls-5" points="656.27 660.95 656.27 734.75 473.11 696.29 473.11 660.95 656.27 660.95"/><path class="cls-6" d="M908.76,899.22C875.18,826,780.93,807.95,645.84,761.47c-4.81-1.68-9.69-3.36-14.58-5.11-0.08.23-.08,0.53-0.15,0.76-8.9,50.3-34.15,115.41-112.43,123.05-78.28-7.64-103.54-72.75-112.43-123.05-0.08-.23-0.08-0.53-0.15-0.76-4.88,1.76-9.77,3.43-14.58,5.11C256.44,807.95,162.18,826,128.6,899.22c-42.07,93.25,78.76,190.18,78.76,190.18s10.91,586,29.15,586H800.85c18.24,0,29.15-586,29.15-586S950.83,992.47,908.76,899.22Z" transform="translate(46.01 -6)"/><polygon class="cls-7" points="608.75 858.08 591.17 891.76 537.67 891.76 520.59 858.08 564.67 822.04 608.75 858.08"/><path class="cls-8" d="M518.66,828l-56.33,59.31L352.77,774.82c0.16-.08,73.35-32.31,73.35-32.31l22.61,20.92Z" transform="translate(46.01 -6)"/><path class="cls-8" d="M518.67,828L575,887.35,684.56,774.82c-0.16-.08-73.35-32.31-73.35-32.31l-22.61,20.92Z" transform="translate(46.01 -6)"/><polygon class="cls-7" points="591.17 899.8 612.95 1601 564.67 1654.37 516.39 1601 537.67 899.8 591.17 899.8"/><rect class="cls-9" x="72.67" y="517.72" width="335.61" height="114.48" rx="5" ry="5" transform="translate(783.13 192.47) rotate(75.53)"/><path class="cls-10" d="M325.9,677l-60-232.59a47.7,47.7,0,0,0-58.1-34.27l-18.47,4.77a47.25,47.25,0,0,0-25.81,17.33,47.44,47.44,0,0,1,16.27-7.79l18.47-4.77a47.7,47.7,0,0,1,58.1,34.27l60,232.59a47.42,47.42,0,0,1-8.46,40.77A47.65,47.65,0,0,0,325.9,677Z" transform="translate(46.01 -6)"/><path class="cls-11" d="M201.78,461.67l-3-11.82a9.16,9.16,0,1,1,17.73-4.58l3.05,11.82A9.16,9.16,0,0,1,201.78,461.67Z" transform="translate(46.01 -6)"/><path class="cls-4" d="M315.81,605.85l-70.14,95.54-107.2-40.17,32-126.07c9.34-24.92,56.17-36.12,85.77-25S325.15,580.93,315.81,605.85Z" transform="translate(46.01 -6)"/><path class="cls-6" d="M22.7,1202a68.68,68.68,0,0,1-64.33-92.79l184-491L271,666.44,156.77,971.28l36.86-22.44,71.46,140.22L58.41,1192A68.61,68.61,0,0,1,22.7,1202Z" transform="translate(46.01 -6)"/><path class="cls-4" d="M775.39,1511.84l119.47-91.09,69.41,91-119.47,91.08c-23.61,18-35.4,12.22-54.56-12.92S751.77,1529.84,775.39,1511.84Z" transform="translate(46.01 -6)"/><path class="cls-4" d="M778.14,1468.15c41.68-31.78,91.82-26.54,94.33-25.79a19.91,19.91,0,0,1,13.65,23.25,17.2,17.2,0,0,1-22,12.51,44.8,44.8,0,0,0-6.3.15,116.15,116.15,0,0,0-15.12,2.12c-12.17,2.51-27.67,7.67-41.38,18.12-7.87,6-19.43,4.07-25.82-4.31S770.26,1474.15,778.14,1468.15Z" transform="translate(46.01 -6)"/><path class="cls-6" d="M907.9,1574.14l-78.11-131.28,172.69-195.57L820.21,1085.23,892.34,873l269.56,335.59a68.69,68.69,0,0,1-3.57,88.91Z" transform="translate(46.01 -6)"/><path class="cls-4" d="M712.42,392.43l3.38-80.76C712.13,206.33,608.47,124.5,503.22,128.18S300.26,220.72,303.94,326l9,80.25a37.4,37.4,0,0,0-15.37,8.47,38,38,0,0,0-12.41,29.53L286.55,484a38.11,38.11,0,0,0,39.23,36.79c3.47,99.46,126.28,189.58,197.68,187.09S711.08,606.9,707.6,507.43A38.14,38.14,0,0,0,744.14,468l-1.39-39.66A38.09,38.09,0,0,0,712.42,392.43Z" transform="translate(46.01 -6)"/><path class="cls-12" d="M712.42,392.43l3.38-80.76C712.13,206.33,608.47,124.5,503.22,128.18c0,0,9.42,270.76,9.42,270.76-25.76,60.14-40.7,146.51-40.7,146.51l45.76-1.6,5.73,164c71.46-2.52,187.65-101,184.18-200.41A38.14,38.14,0,0,0,744.14,468l-1.39-39.66A38.09,38.09,0,0,0,712.42,392.43Z" transform="translate(46.01 -6)"/><circle class="cls-5" cx="425.73" cy="425.04" r="30.14" transform="translate(17.4 24.73) rotate(-4)"/><circle class="cls-13" cx="425.46" cy="417.41" r="30.14" transform="translate(17.93 24.69) rotate(-4)"/><circle class="cls-14" cx="435.36" cy="407.66" r="7.54" transform="translate(18.63 25.36) rotate(-4)"/><circle class="cls-5" cx="601.15" cy="418.91" r="30.14" transform="translate(18.25 36.95) rotate(-4)"/><circle class="cls-13" cx="600.89" cy="411.29" r="30.14" transform="matrix(1, -0.07, 0.07, 1, 18.78, 36.92)"/><circle class="cls-14" cx="610.79" cy="401.53" r="7.54" transform="translate(19.49 37.58) rotate(-4)"/><path class="cls-15" d="M586.67,582.53c1.18,33.7-28.6,62.09-66.51,63.41s-69.6-24.92-70.78-58.62Z" transform="translate(46.01 -6)"/><path class="cls-14" d="M460.44,584.94H574.91a0,0,0,0,1,0,0v21.9a1,1,0,0,1-1,1H461.44a1,1,0,0,1-1-1v-21.9A0,0,0,0,1,460.44,584.94Z" transform="translate(25.51 12.43) rotate(-2)"/><path class="cls-13" d="M738.38,191.47a42.48,42.48,0,0,0-38.16-40.76A46.45,46.45,0,0,0,676.13,119c0.09-1.53.13-3.08,0.07-4.64a50.44,50.44,0,0,0-66.05-46.3,53.62,53.62,0,0,0-71.33-13,50.65,50.65,0,0,0-63.58,3.64,47.22,47.22,0,0,0-66.64,18.82,37.68,37.68,0,0,0-54.21,32c-0.57.86-1.2,1.69-1.72,2.59a47,47,0,0,0-36.78,36.43c-1.13-.05-2.27-0.09-3.42-0.05a42.27,42.27,0,0,0-28.76,71.83c-7.11,60.46,2.87,166.48,15.6,214,2.31,8.62,15,6.89,15-2,0.17-57.25,9.64-166.95,67.46-160.58,55.22,6.07,96.06,7.37,126.67,6.07,30.63-.84,71.28-5,125.94-14.89,57.24-10.38,74.34,98.38,78.5,155.49,0.65,8.89,13.39,9.74,15.1,1,8.77-45.11,11.56-140.87,2.69-202.07A42.26,42.26,0,0,0,738.38,191.47Z" transform="translate(46.01 -6)"/></g></g></g></g></svg>