<svg xmlns="http://www.w3.org/2000/svg" xmlns:xlink="http://www.w3.org/1999/xlink" viewBox="0 0 999 1101.29"><defs><style>.cls-1{fill:#67883e;}.cls-2{isolation:isolate;}.cls-3{clip-path:url(#clip-path);}.cls-4{fill:#be8858;}.cls-5{fill:#deb4a0;}.cls-10,.cls-12,.cls-5{mix-blend-mode:multiply;}.cls-6{fill:#d1e8c5;}.cls-7{fill:#0f6b94;}.cls-8{fill:#fcf9ce;}.cls-9{fill:#504d4e;}.cls-10{fill:#c8c8c8;}.cls-11{fill:#393744;}.cls-12{fill:#f1c9b5;opacity:0.8;}.cls-13{fill:#3c2518;}.cls-14{fill:#fff;}.cls-15{fill:#f05e45;}</style><clipPath id="clip-path" transform="translate(-1)"><polygon class="cls-1" points="1000 1001.25 1 1000 1 0 1000 0 1000 1001.25"/></clipPath></defs><title>m3-square-avatar-1000x1000</title><g class="cls-2"><g id="m3"><polygon class="cls-1" points="999 1001.25 0 1000 0 0 999 0 999 1001.25"/><g class="cls-3"><g id="man"><polygon class="cls-4" points="592.12 496.72 573.23 488.02 573.23 427.99 452.05 427.99 452.05 488.02 433.09 496.2 438.14 666.43 452.05 666.43 452.05 692.53 573.23 692.53 573.23 666.43 587.07 666.43 592.12 496.72"/><polygon class="cls-5" points="573.2 434.09 573.2 482.92 452.02 457.47 452.02 434.09 573.2 434.09"/><path class="cls-6" d="M771.7,587.77c-22.22-48.42-84.58-60.39-174-91.14-3.18-1.11-6.41-2.22-9.64-3.38-0.05.15-.05,0.35-0.1,0.5-5.89,33.28-22.59,76.36-74.39,81.41-51.79-5.05-68.5-48.13-74.39-81.41-0.05-.15-0.05-0.35-0.1-0.5-3.23,1.16-6.46,2.27-9.64,3.38-89.37,30.75-151.73,42.72-174,91.14-27.83,61.7,52.11,125.83,52.11,125.83s7.22,387.69,19.29,387.69H700.3c12.07,0,19.29-387.69,19.29-387.69S799.53,649.46,771.7,587.77Z" transform="translate(-1)"/><polygon class="cls-7" points="541.77 564.52 530.13 586.8 494.73 586.8 483.43 564.52 512.6 540.67 541.77 564.52"/><path class="cls-8" d="M513.6,540.68l-37.27,39.24-72.49-74.46,48.53-21.37,15,13.84Z" transform="translate(-1)"/><path class="cls-8" d="M513.6,540.68l37.27,39.24,72.49-74.46-48.53-21.37-15,13.84Z" transform="translate(-1)"/><polygon class="cls-7" points="530.13 592.12 544.54 1056.05 512.6 1091.36 480.66 1056.05 494.73 592.12 530.13 592.12"/><rect class="cls-9" x="218.52" y="335.36" width="222.05" height="75.74" rx="5" ry="5" transform="translate(607.61 -39.11) rotate(75.53)"/><path class="cls-10" d="M386.06,440.71l-39.7-153.89a31.56,31.56,0,0,0-38.44-22.67l-12.22,3.15a31.26,31.26,0,0,0-17.08,11.47,31.38,31.38,0,0,1,10.76-5.15l12.22-3.15A31.56,31.56,0,0,1,340,293.13L379.75,447a31.38,31.38,0,0,1-5.6,27A31.52,31.52,0,0,0,386.06,440.71Z" transform="translate(-1)"/><path class="cls-11" d="M303.94,298.27l-2-7.82a6.06,6.06,0,0,1,11.73-3l2,7.82A6.06,6.06,0,0,1,303.94,298.27Z" transform="translate(-1)"/><path class="cls-4" d="M379.39,393.66L333,456.88,262.06,430.3l21.16-83.41c6.18-16.49,37.16-23.9,56.75-16.56S385.56,377.18,379.39,393.66Z" transform="translate(-1)"/><path class="cls-6" d="M185.46,788.13a45.44,45.44,0,0,1-42.56-61.39L264.63,401.86l85.11,31.89L274.16,635.44l24.38-14.85,47.28,92.77L209.09,781.49A45.39,45.39,0,0,1,185.46,788.13Z" transform="translate(-1)"/><path class="cls-4" d="M683.45,993.09l79-60.26,45.92,60.23-79,60.26c-15.62,11.91-23.42,8.08-36.1-8.55S667.83,1005,683.45,993.09Z" transform="translate(-1)"/><path class="cls-4" d="M685.27,964.19c27.58-21,60.75-17.56,62.41-17.06a13.18,13.18,0,0,1,9,15.38,11.38,11.38,0,0,1-14.58,8.28,29.64,29.64,0,0,0-4.17.1,76.85,76.85,0,0,0-10,1.4c-8.05,1.66-18.31,5.07-27.38,12-5.21,4-12.85,2.69-17.08-2.85S680.06,968.16,685.27,964.19Z" transform="translate(-1)"/><path class="cls-6" d="M771.13,1034.31l-51.68-86.85L833.71,818.06,713.11,710.84,760.83,570.4l178.35,222a45.45,45.45,0,0,1-2.36,58.83Z" transform="translate(-1)"/><path class="cls-4" d="M641.79,252.46L644,199C641.6,129.34,573,75.2,503.38,77.63S369.1,138.85,371.53,208.54l6,53.1a24.74,24.74,0,0,0-10.17,5.61,25.14,25.14,0,0,0-8.21,19.54L360,313a25.21,25.21,0,0,0,26,24.34c2.3,65.81,83.55,125.43,130.79,123.78S640.9,394.36,638.61,328.55a25.24,25.24,0,0,0,24.17-26.09l-0.92-26.24A25.2,25.2,0,0,0,641.79,252.46Z" transform="translate(-1)"/><path class="cls-12" d="M641.79,252.46L644,199C641.6,129.34,573,75.2,503.38,77.63c0,0,6.23,179.14,6.23,179.14-17,39.79-26.93,96.94-26.93,96.94L513,352.65l3.79,108.49C564,459.48,640.9,394.35,638.61,328.55a25.24,25.24,0,0,0,24.17-26.09l-0.92-26.24A25.2,25.2,0,0,0,641.79,252.46Z" transform="translate(-1)"/><circle class="cls-5" cx="452.11" cy="274.04" r="19.94" transform="translate(-19.01 32.2) rotate(-4)"/><circle class="cls-13" cx="451.94" cy="268.99" r="19.94" transform="translate(-18.66 32.18) rotate(-4)"/><circle class="cls-14" cx="458.48" cy="262.54" r="4.99" transform="translate(-18.2 32.62) rotate(-4)"/><circle class="cls-5" cx="568.18" cy="269.98" r="19.94" transform="translate(-18.45 40.29) rotate(-4)"/><circle class="cls-13" cx="568" cy="264.94" r="19.94" transform="translate(-18.1 40.27) rotate(-4)"/><circle class="cls-14" cx="574.55" cy="258.48" r="4.99" transform="translate(-17.63 40.71) rotate(-4)"/><path class="cls-15" d="M558.59,378.23c0.78,22.3-18.92,41.08-44,42s-46-16.49-46.83-38.78Z" transform="translate(-1)"/><path class="cls-14" d="M475.08,379.83h75.74a0,0,0,0,1,0,0V394a1,1,0,0,1-1,1H476.08a1,1,0,0,1-1-1V379.83A0,0,0,0,1,475.08,379.83Z" transform="translate(-14.21 18.14) rotate(-2)"/><path class="cls-13" d="M659,119.5a28.11,28.11,0,0,0-25.24-27,30.73,30.73,0,0,0-15.95-20.95c0.06-1,.08-2,0-3.07a33.37,33.37,0,0,0-43.7-30.63,35.48,35.48,0,0,0-47.19-8.59,33.51,33.51,0,0,0-42.07,2.41,31.24,31.24,0,0,0-44.09,12.45A24.93,24.93,0,0,0,404.9,65.29c-0.38.57-.79,1.12-1.13,1.72a31.09,31.09,0,0,0-24.33,24.11c-0.75,0-1.5-.06-2.26,0a28,28,0,0,0-19,47.52c-4.7,40,1.9,110.15,10.32,141.6,1.53,5.7,9.9,4.56,9.92-1.34C378.5,241,384.77,168.4,423,172.61c36.54,4,63.55,4.88,83.81,4,20.27-.56,47.16-3.29,83.33-9.85,37.87-6.87,49.19,65.09,51.94,102.87,0.43,5.88,8.86,6.44,10,.65,5.8-29.85,7.65-93.2,1.78-133.69A28,28,0,0,0,659,119.5Z" transform="translate(-1)"/></g></g></g></g></svg>