<svg xmlns="http://www.w3.org/2000/svg" xmlns:xlink="http://www.w3.org/1999/xlink" viewBox="0 0 1194.12 1684.13"><defs><style>.cls-1{fill:#988f76;}.cls-2{isolation:isolate;}.cls-3{clip-path:url(#clip-path);}.cls-13,.cls-4,.cls-5{fill:#f7cdba;}.cls-10,.cls-13,.cls-5{mix-blend-mode:multiply;}.cls-6{fill:#fff;}.cls-7{fill:#f05e45;}.cls-8{fill:#e7e7e7;}.cls-9{fill:#504d4e;}.cls-10{fill:#c8c8c8;}.cls-11{fill:#393744;}.cls-12{fill:#3c2518;}.cls-13{opacity:0.8;}.cls-14{fill:#503d31;}.cls-15{fill:#6a3940;}.cls-16{fill:#bc776d;}</style><clipPath id="clip-path" transform="translate(90.22 -6)"><path class="cls-1" d="M994,500c0,276.14-217.86,492-494,492S6,776.14,6,500,223.86,6,500,6,994,223.86,994,500Z"/></clipPath></defs><title>m4-circle-avatar-1000x1000</title><g class="cls-2"><g id="m4"><path class="cls-1" d="M994,500c0,276.14-217.86,492-494,492S6,776.14,6,500,223.86,6,500,6,994,223.86,994,500Z" transform="translate(90.22 -6)"/><g class="cls-3"><g id="man"><polygon class="cls-4" points="716.06 757.34 687.12 744 687.12 651.98 501.35 651.98 501.35 744 472.28 756.54 480.02 1017.5 501.35 1017.5 501.35 1057.51 687.12 1057.51 687.12 1017.5 708.32 1017.5 716.06 757.34"/><polygon class="cls-5" points="687.07 661.33 687.07 736.18 501.3 697.17 501.3 661.33 687.07 661.33"/><path class="cls-6" d="M899.6,902.91c-34.06-74.23-129.65-92.58-266.66-139.72-4.88-1.7-9.83-3.41-14.78-5.19-0.08.23-.08,0.54-0.15,0.77-9,51-34.64,117.06-114,124.81-79.4-7.75-105-73.79-114-124.81-0.08-.23-0.08-0.54-0.15-0.77-5,1.78-9.91,3.48-14.78,5.19-137,47.14-232.6,65.48-266.66,139.72-42.67,94.58,79.88,192.89,79.88,192.89s11.07,594.32,29.57,594.32H790.15c18.5,0,29.57-594.32,29.57-594.32S942.27,997.49,899.6,902.91Z" transform="translate(90.22 -6)"/><polygon class="cls-7" points="638.88 861.27 621.05 895.43 566.78 895.43 549.46 861.27 594.17 824.72 638.88 861.27"/><path class="cls-8" d="M503.95,830.72l-57.13,60.15L335.69,776.73c0.16-.08,74.4-32.77,74.4-32.77L433,765.19Z" transform="translate(90.22 -6)"/><path class="cls-8" d="M504,830.72l57.13,60.15L672.21,776.73c-0.16-.08-74.4-32.77-74.4-32.77l-22.93,21.22Z" transform="translate(90.22 -6)"/><polygon class="cls-7" points="621.05 903.59 643.14 1614.78 594.17 1668.91 545.2 1614.78 566.78 903.59 621.05 903.59"/><path class="cls-9" d="M692.54,1409H321.6a54.18,54.18,0,0,1-54.18-54.18L244.2,1045.19A54.18,54.18,0,0,1,298.38,991H715.76a54.18,54.18,0,0,1,54.18,54.18l-23.22,309.62A54.18,54.18,0,0,1,692.54,1409Z" transform="translate(90.22 -6)"/><path class="cls-10" d="M716.74,991H297.4A53.13,53.13,0,0,0,253,1015a52.92,52.92,0,0,1,29.23-8.77H701.55a53.2,53.2,0,0,1,53.2,53.2L731.52,1371a52.93,52.93,0,0,1-8.77,29.23,53.13,53.13,0,0,0,24-44.43l23.22-311.59A53.2,53.2,0,0,0,716.74,991Z" transform="translate(90.22 -6)"/><rect class="cls-11" x="377.5" y="1171.2" width="45.6" height="45.6" rx="2.36" ry="2.36"/><path class="cls-4" d="M283,1231.49s-36.43,4.06-64.73,6.15l-20.67,1.25-17.83.55-17.12-.07L160,1355.45l21.46,0.09,21.46-.65,24.1-1.45c32.51-2.42,71.44-6.85,71.44-6.85,25-3.27,40.38-32.4,35.09-63.89C328.16,1250.95,305.51,1228.57,283,1231.49Z" transform="translate(90.22 -6)"/><path class="cls-4" d="M244.41,1201.48c-19.2,2.17-34.1,15.77-45.32,29.32a180.25,180.25,0,0,0-18.81,27.77c-4.49,8.42-3.44,20.7,3,27.06s15.57,4.59,19.94-4.17c0.09-.18,1.41-2.7,3.71-6.41a130.61,130.61,0,0,1,9.6-13.52c8.08-10,18.95-20.07,32.08-21.58,7.58-.86,12.66-10.15,11.34-20.75S251.66,1200.66,244.41,1201.48Z" transform="translate(90.22 -6)"/><path class="cls-6" d="M177.29,1381.35c-47.65,0-182,7.14-222.16-25.55-28.22-23-77.47-97.79-15.41-224.13,51.55-105,126-200.07,204.68-274.37l93.3,194.85c-73.05,69-90.72,64.55-159.38,140.95-20.79,23.13-12.52,31-12,31.42,11,9,77.34,4,120.87.48l11.16,154.36C184,1380.52,192.31,1381.35,177.29,1381.35Z" transform="translate(90.22 -6)"/><path class="cls-4" d="M730.64,1231.49s36.43,4.06,64.73,6.15l20.67,1.25,17.83,0.55,17.12-.07,2.71,116.08-21.46.09-21.46-.65-24.1-1.45c-32.51-2.42-71.44-6.85-71.44-6.85-25-3.27-40.38-32.4-35.08-63.89C685.52,1250.95,708.18,1228.57,730.64,1231.49Z" transform="translate(90.22 -6)"/><path class="cls-4" d="M769.28,1201.48c19.2,2.17,34.1,15.77,45.32,29.32a180.19,180.19,0,0,1,18.81,27.77c4.49,8.42,3.44,20.7-3,27.06s-15.57,4.59-19.94-4.17c-0.09-.18-1.41-2.7-3.71-6.41a130.58,130.58,0,0,0-9.6-13.52c-8.08-10-18.95-20.07-32.08-21.58-7.58-.86-12.66-10.15-11.34-20.75S762,1200.66,769.28,1201.48Z" transform="translate(90.22 -6)"/><path class="cls-6" d="M836.4,1381.35c47.65,0,182,7.14,222.16-25.55,28.22-23,77.47-97.79,15.41-224.13-51.55-105-125-194.49-203.68-268.79l-91.68,191.47c73.05,69,88.09,62.35,156.75,138.75,20.79,23.13,12.52,31,12,31.42-11,9-77.34,4-120.87.48l-11.16,154.36C829.72,1380.52,821.38,1381.35,836.4,1381.35Z" transform="translate(90.22 -6)"/><g id="man-2" data-name="man"><path class="cls-12" d="M723.45,479.93c0,7.43-.31,14.78-1,22.06q-0.58,7.55-1.86,14.86a236.28,236.28,0,0,1-9.6,40.72l0.85-1.7c-8.05,17.57-6.42,39.79,0,56.66-8.67-2.86-15.56-7.51-18-15.48-11.61,21.29-160.85,101.32-191,101.32S323.5,618.18,312,597c-2.55,8-9.44,12.62-18.11,15.48,6.42-16.87,8-39.09,0-56.66l0.93,1.7a229.39,229.39,0,0,1-9.68-40.72,135.18,135.18,0,0,1-1.78-14.78,210.92,210.92,0,0,1-1.08-22.14,244.35,244.35,0,0,1,5.19-50.31c1.16-6,2.63-11.84,4.26-17.57a236.23,236.23,0,0,1,17.65-44.43A228.65,228.65,0,0,1,340.22,322a222.3,222.3,0,0,1,33.44-31.58,25.22,25.22,0,0,1,2.86-2.17,212.55,212.55,0,0,1,30.57-19.12,210,210,0,0,1,191.5.08A220.79,220.79,0,0,1,665.47,322a228.69,228.69,0,0,1,30.88,45.67A236.23,236.23,0,0,1,714,412.05c1.7,5.88,3.1,11.69,4.26,17.57A244.35,244.35,0,0,1,723.45,479.93Z" transform="translate(90.22 -6)"/><path class="cls-4" d="M706.67,396L713,314.29c0-106.9-102.18-193.51-209-193.51S295,207.39,295,314.29L301.26,396a37.92,37.92,0,0,0-15.88,8,38.55,38.55,0,0,0-13.62,29.49v40.25a38.65,38.65,0,0,0,38.46,38.68c0,100.94,121.29,196.63,193.75,196.63s193.75-95.68,193.75-196.62a38.69,38.69,0,0,0,38.43-38.68V433.51A38.63,38.63,0,0,0,706.67,396Z" transform="translate(90.22 -6)"/><path class="cls-13" d="M706.67,396L713,314.29c0-106.9-102.18-193.51-209-193.51,0,0,0,290.27,0,290.27-28.23,60-46.44,147.07-46.44,147.07h46.44V709.05c72.53,0,193.78-95.69,193.78-196.62a38.69,38.69,0,0,0,38.43-38.68V433.51A38.63,38.63,0,0,0,706.67,396Z" transform="translate(90.22 -6)"/><circle class="cls-5" cx="414.92" cy="434.42" r="30.57" transform="matrix(1, -0.03, 0.03, 1, 75.31, 8.74)"/><circle class="cls-12" cx="414.92" cy="426.68" r="30.57" transform="translate(75.58 8.74) rotate(-2)"/><circle class="cls-6" cx="425.3" cy="432.62" r="7.64" transform="translate(75.38 9.11) rotate(-2)"/><circle class="cls-5" cx="592.95" cy="434.42" r="30.57" transform="matrix(1, -0.03, 0.03, 1, 75.42, 14.95)"/><circle class="cls-12" cx="592.95" cy="426.68" r="30.57" transform="translate(75.69 14.95) rotate(-2)"/><circle class="cls-6" cx="603.33" cy="432.62" r="7.64" transform="translate(75.49 15.32) rotate(-2)"/><path class="cls-14" d="M716.18,176.82c0-.08-0.08-0.08-0.08-0.15-35.37-66-100.86-131-213.25-131s-177.88,65-213.25,131c0,0.08-.08.08-0.08,0.15-47.91,89.71-40.17,210-18.89,278.12a185.76,185.76,0,0,0,12.62,31.58,0.08,0.08,0,0,0,.08.08c8.52,15.95,17.8,24,26,20.67,0.08,0,.15-0.08.23-0.08v-34l-0.08-50.78a171.45,171.45,0,0,0,17.26-25.93c20.74-37.85,35.68-89.17,46.91-121.6,0.54-1.7,1.16-3.33,1.7-5l1.16,2.79c16.8,42,45.59,73.92,89.56,80.81-6.19-10.06-9.91-28.18-9-39.94,8,15.09,25.23,28,45.75,38.32,39.09,19.74,90.18,30,112.24,28-1.86-4.8-7-11.61-7-26.78,19.2,22.91,31,33.59,59.22,41.64-4.33-12.15-6.12-27.79-3.17-46.44a493.18,493.18,0,0,0,15.79,47.6V396c4.8,12.31,10.45,24.54,16.26,33.21l-0.08,44v34c0.08,0,.15.08,0.23,0.08,8.2,3.33,17.49-4.72,26-20.67a0.08,0.08,0,0,0,.08-0.08,185.67,185.67,0,0,0,12.62-31.58C756.35,386.82,764.09,266.53,716.18,176.82Zm-19.82,56.43v1.32a9.44,9.44,0,0,0-.54-1.32h0.54Z" transform="translate(90.22 -6)"/></g></g></g><path class="cls-15" d="M447,604.78l4.75,1.7c0.76,0.27,1.58.6,2.5,0.9l3,0.93,3.39,1.06,3.8,1c1.33,0.34,2.69.77,4.14,1.07l4.46,1c1.52,0.37,3.11.64,4.74,0.9s3.27,0.61,5,.83l5.17,0.63,1.31,0.16,1.33,0.09,2.67,0.2c1.79,0.14,3.59.29,5.4,0.28s3.63,0.09,5.45.08l5.45-.18,1.36,0,1.35-.12,2.69-.25c3.58-.24,7-0.9,10.43-1.37l4.92-1.06c0.8-.17,1.6-0.32,2.38-0.51l2.29-.64,4.4-1.23c1.4-.46,2.74-0.95,4-1.39s2.55-.85,3.7-1.33l3.27-1.37,2.88-1.21,2.37-1.19,4.52-2.25-4.34,2.59-2.31,1.34-2.82,1.39-3.21,1.58c-1.13.56-2.39,1-3.67,1.52s-2.62,1.06-4,1.59l-4.41,1.39-2.3.73c-0.79.22-1.59,0.39-2.4,0.6l-5,1.18-5.21.88c-0.88.13-1.76,0.34-2.66,0.41l-2.71.27-2.73.27-1.37.13-1.38.05-5.54.22c-1.85,0-3.7-.08-5.54-0.12s-3.67-.17-5.48-0.32c-3.64-.21-7.17-0.79-10.6-1.27-1.71-.26-3.37-0.63-5-1s-3.23-.64-4.76-1.07l-4.47-1.15c-1.44-.37-2.8-0.86-4.12-1.27s-2.58-.81-3.77-1.21L457,609l-2.93-1.12c-0.9-.35-1.71-0.73-2.44-1Z" transform="translate(90.22 -6)"/><path class="cls-16" d="M493.67,633.53s0.36,0.14,1,.42c0.3,0.15.68,0.29,1.09,0.45s0.88,0.34,1.41.5,1.09,0.32,1.69.48,1.25,0.25,1.9.4,1.35,0.2,2.05.24,1.41,0.07,2.12.1,1.42,0,2.12-.11,1.38-.15,2-0.25,1.3-.24,1.9-0.41,1.17-.31,1.69-0.49,1-.34,1.41-0.51,0.8-.3,1.09-0.45c0.6-.27,1-0.42,1-0.42s-0.26.28-.74,0.75a7.09,7.09,0,0,1-.93.78l-0.6.46c-0.22.15-.46,0.28-0.71,0.43a11.25,11.25,0,0,1-1.68.86,15.12,15.12,0,0,1-2,.72,17.37,17.37,0,0,1-2.22.46,15.65,15.65,0,0,1-4.68,0,17.77,17.77,0,0,1-2.22-.45,15.27,15.27,0,0,1-2-.71,11.33,11.33,0,0,1-1.68-.85c-0.25-.15-0.49-0.28-0.72-0.43l-0.61-.46a6.89,6.89,0,0,1-.93-0.78C493.94,633.81,493.67,633.53,493.67,633.53Z" transform="translate(90.22 -6)"/></g></g></svg>