<svg xmlns="http://www.w3.org/2000/svg" xmlns:xlink="http://www.w3.org/1999/xlink" viewBox="0 0 999 1110.01"><defs><style>.cls-1{fill:#988f76;}.cls-2{isolation:isolate;}.cls-3{clip-path:url(#clip-path);}.cls-13,.cls-4,.cls-5{fill:#f7cdba;}.cls-10,.cls-13,.cls-5{mix-blend-mode:multiply;}.cls-6{fill:#fff;}.cls-7{fill:#f05e45;}.cls-8{fill:#e7e7e7;}.cls-9{fill:#504d4e;}.cls-10{fill:#c8c8c8;}.cls-11{fill:#393744;}.cls-12{fill:#3c2518;}.cls-13{opacity:0.8;}.cls-14{fill:#503d31;}.cls-15{fill:#6a3940;}.cls-16{fill:#bc776d;}</style><clipPath id="clip-path" transform="translate(-1)"><polygon class="cls-1" points="1000 1001.25 1 1000 1 0 1000 0 1000 1001.25"/></clipPath></defs><title>m4-square-avatar-1000x1000</title><g class="cls-2"><g id="m4"><polygon class="cls-1" points="999 1001.25 0 1000 0 0 999 0 999 1001.25"/><g class="cls-3"><g id="man"><polygon class="cls-4" points="584.53 498.43 565.42 489.62 565.42 428.9 442.83 428.9 442.83 489.62 423.65 497.9 428.76 670.1 442.83 670.1 442.83 696.5 565.42 696.5 565.42 670.1 579.42 670.1 584.53 498.43"/><polygon class="cls-5" points="565.39 435.07 565.39 484.46 442.81 458.72 442.81 435.07 565.39 435.07"/><path class="cls-6" d="M766.18,590.53c-22.47-49-85.56-61.09-176-92.2-3.22-1.12-6.49-2.25-9.76-3.42-0.05.15-.05,0.36-0.1,0.51-6,33.66-22.86,77.24-75.25,82.36-52.4-5.11-69.3-48.69-75.25-82.36-0.05-.15-0.05-0.36-0.1-0.51-3.27,1.17-6.54,2.3-9.76,3.42-90.41,31.11-153.49,43.21-176,92.2-28.16,62.41,52.71,127.29,52.71,127.29S304,1110,316.25,1110H694c12.21,0,19.51-392.19,19.51-392.19S794.33,652.94,766.18,590.53Z" transform="translate(-1)"/><polygon class="cls-7" points="533.59 567.01 521.83 589.55 486.01 589.55 474.58 567.01 504.09 542.89 533.59 567.01"/><path class="cls-8" d="M505.09,542.89l-37.7,39.69-73.33-75.32,49.09-21.62,15.13,14Z" transform="translate(-1)"/><path class="cls-8" d="M505.09,542.89l37.7,39.69,73.33-75.32L567,485.64l-15.13,14Z" transform="translate(-1)"/><polygon class="cls-7" points="521.83 594.93 536.4 1064.24 504.09 1099.97 471.77 1064.24 486.01 594.93 521.83 594.93"/><path class="cls-9" d="M629.54,924.49H384.76A35.76,35.76,0,0,1,349,888.73L333.68,684.42a35.76,35.76,0,0,1,35.76-35.76H644.86a35.76,35.76,0,0,1,35.76,35.76L665.29,888.73A35.76,35.76,0,0,1,629.54,924.49Z" transform="translate(-1)"/><path class="cls-10" d="M645.51,648.66H368.79a35.06,35.06,0,0,0-29.32,15.82,34.92,34.92,0,0,1,19.29-5.79H635.48a35.11,35.11,0,0,1,35.11,35.11L655.26,899.41a34.93,34.93,0,0,1-5.79,19.29,35.06,35.06,0,0,0,15.82-29.32l15.32-205.62A35.11,35.11,0,0,0,645.51,648.66Z" transform="translate(-1)"/><rect class="cls-11" x="361.11" y="771.53" width="30.09" height="30.09" rx="2.36" ry="2.36"/><path class="cls-4" d="M359.31,807.36s-24,2.68-42.71,4.06l-13.64.82-11.77.36-11.3,0-1.79,76.6,14.16,0.06,14.16-.43,15.91-1c21.45-1.6,47.14-4.52,47.14-4.52,16.5-2.16,26.65-21.38,23.15-42.16C389.09,820.19,374.14,805.43,359.31,807.36Z" transform="translate(-1)"/><path class="cls-4" d="M333.82,787.55c-12.67,1.43-22.5,10.41-29.9,19.35a119,119,0,0,0-12.41,18.33c-3,5.56-2.27,13.66,2,17.86s10.27,3,13.16-2.75c0.06-.12.93-1.78,2.45-4.23a86.19,86.19,0,0,1,6.33-8.92c5.33-6.58,12.5-13.25,21.17-14.24,5-.57,8.35-6.7,7.48-13.69S338.6,787,333.82,787.55Z" transform="translate(-1)"/><path class="cls-6" d="M289.53,906.25c-31.45,0-120.1,4.71-146.6-16.86-18.62-15.16-51.12-64.53-10.17-147.9,34-69.26,83.12-132,135.07-181.05L329.39,689c-48.21,45.51-59.86,42.6-105.17,93-13.72,15.26-8.26,20.46-7.92,20.74,7.25,5.91,51,2.62,79.76.31l7.36,101.86C293.93,905.7,299.44,906.25,289.53,906.25Z" transform="translate(-1)"/><path class="cls-4" d="M654.68,807.36s24,2.68,42.71,4.06L711,812.24l11.77,0.36,11.3,0,1.79,76.6-14.16.06-14.16-.43-15.91-1c-21.45-1.6-47.14-4.52-47.14-4.52-16.5-2.16-26.65-21.38-23.15-42.16C624.91,820.19,639.86,805.43,654.68,807.36Z" transform="translate(-1)"/><path class="cls-4" d="M680.18,787.55c12.67,1.43,22.5,10.41,29.9,19.35a118.91,118.91,0,0,1,12.41,18.33c3,5.56,2.27,13.66-2,17.86s-10.27,3-13.16-2.75c-0.06-.12-0.93-1.78-2.45-4.23a86.17,86.17,0,0,0-6.33-8.92c-5.33-6.58-12.5-13.25-21.17-14.24-5-.57-8.35-6.7-7.48-13.69S675.39,787,680.18,787.55Z" transform="translate(-1)"/><path class="cls-6" d="M724.47,906.25c31.45,0,120.1,4.71,146.6-16.86,18.62-15.16,51.12-64.53,10.17-147.9-34-69.26-82.46-128.34-134.41-177.37l-60.5,126.35C734.55,736,744.47,731.61,789.78,782c13.72,15.26,8.26,20.46,7.92,20.74-7.25,5.91-51,2.62-79.76.31l-7.36,101.86C720.07,905.7,714.56,906.25,724.47,906.25Z" transform="translate(-1)"/><g id="man-2" data-name="man"><path class="cls-12" d="M649.94,311.41c0,4.9-.2,9.76-0.66,14.56q-0.38,5-1.23,9.81a155.92,155.92,0,0,1-6.33,26.87l0.56-1.12c-5.31,11.6-4.24,26.26,0,37.39-5.72-1.89-10.27-5-11.9-10.22-7.66,14-106.14,66.86-126,66.86S386,402.64,378.4,388.69c-1.69,5.26-6.23,8.33-12,10.22,4.24-11.13,5.31-25.79,0-37.39l0.61,1.12a151.38,151.38,0,0,1-6.38-26.87A89.21,89.21,0,0,1,359.5,326a139.19,139.19,0,0,1-.71-14.61,161.24,161.24,0,0,1,3.42-33.2c0.77-3.93,1.74-7.82,2.81-11.6a155.88,155.88,0,0,1,11.65-29.32A150.88,150.88,0,0,1,397,207.16a146.69,146.69,0,0,1,22.07-20.84,16.64,16.64,0,0,1,1.89-1.43,140.26,140.26,0,0,1,20.18-12.62,138.54,138.54,0,0,1,126.37.05,145.7,145.7,0,0,1,44.13,34.84,150.91,150.91,0,0,1,20.38,30.14,155.89,155.89,0,0,1,11.65,29.32c1.12,3.88,2,7.71,2.81,11.6A161.24,161.24,0,0,1,649.94,311.41Z" transform="translate(-1)"/><path class="cls-4" d="M638.86,256L643,202.1c0-70.54-67.42-127.7-137.91-127.7S367.19,131.56,367.19,202.1L371.33,256a25,25,0,0,0-10.48,5.31,25.44,25.44,0,0,0-9,19.46v26.56a25.51,25.51,0,0,0,25.38,25.52c0,66.61,80,129.76,127.86,129.76S633,399.47,633,332.85a25.53,25.53,0,0,0,25.36-25.52V280.77A25.49,25.49,0,0,0,638.86,256Z" transform="translate(-1)"/><path class="cls-13" d="M638.86,256L643,202.1c0-70.54-67.42-127.7-137.91-127.7,0,0,0,191.55,0,191.55C486.45,305.57,474.43,363,474.43,363h30.65v99.6c47.86,0,127.88-63.14,127.88-129.75a25.53,25.53,0,0,0,25.36-25.52V280.77A25.49,25.49,0,0,0,638.86,256Z" transform="translate(-1)"/><circle class="cls-5" cx="446.34" cy="281.37" r="20.17" transform="translate(-10.55 15.74) rotate(-2)"/><circle class="cls-12" cx="446.34" cy="276.27" r="20.17" transform="matrix(1, -0.03, 0.03, 1, -10.37, 15.74)"/><circle class="cls-6" cx="453.19" cy="280.19" r="5.04" transform="translate(-10.5 15.99) rotate(-2)"/><circle class="cls-5" cx="563.82" cy="281.37" r="20.17" transform="translate(-10.47 19.84) rotate(-2)"/><circle class="cls-12" cx="563.82" cy="276.27" r="20.17" transform="translate(-10.3 19.84) rotate(-2)"/><circle class="cls-6" cx="570.67" cy="280.19" r="5.04" transform="translate(-10.43 20.09) rotate(-2)"/><path class="cls-14" d="M645.14,111.38c0-.05-0.05-0.05-0.05-0.1C621.74,67.71,578.53,24.8,504.36,24.8S387,67.71,363.64,111.28c0,0.05-.05.05-0.05,0.1C332,170.58,337.08,250,351.12,294.91a122.58,122.58,0,0,0,8.33,20.84,0.05,0.05,0,0,0,.05.05c5.62,10.52,11.75,15.83,17.16,13.64,0.05,0,.1-0.05.15-0.05V307l-0.05-33.51a113.14,113.14,0,0,0,11.39-17.11c13.69-25,23.55-58.84,31-80.25,0.36-1.12.77-2.2,1.12-3.27l0.77,1.84c11.08,27.68,30.09,48.78,59.1,53.33-4.09-6.64-6.54-18.59-5.93-26.36,5.26,10,16.65,18.49,30.19,25.28,25.8,13,59.51,19.82,74.07,18.49-1.23-3.17-4.6-7.66-4.6-17.67,12.67,15.12,20.43,22.17,39.08,27.48-2.86-8-4-18.34-2.09-30.65A325.45,325.45,0,0,0,621.23,256V256c3.17,8.12,6.9,16.19,10.73,21.91l-0.05,29v22.42c0.05,0,.1.05,0.15,0.05,5.41,2.2,11.54-3.12,17.16-13.64a0.05,0.05,0,0,0,.05-0.05,122.52,122.52,0,0,0,8.33-20.84C671.65,250,676.75,170.58,645.14,111.38Zm-13.08,37.24v0.87a6.23,6.23,0,0,0-.36-0.87h0.36Z" transform="translate(-1)"/></g></g></g><path class="cls-15" d="M459.62,391s1.4,0.47,3.82,1.33c0.61,0.21,1.27.47,2,.7l2.39,0.73,2.72,0.83,3,0.8c1.06,0.27,2.16.6,3.31,0.84l3.57,0.78c1.22,0.29,2.49.5,3.79,0.71s2.62,0.48,4,.65l4.13,0.5c0.7,0.09,1.4.17,2.11,0.2l2.13,0.16c2.85,0.28,5.77.23,8.68,0.29,2.91-.1,5.82-0.13,8.66-0.47s5.63-.71,8.34-1.08l3.93-.83c0.64-.14,1.28-0.25,1.91-0.4l1.83-.51,3.52-1,3.23-1.1c1-.37,2-0.67,3-1l2.63-1.08,2.31-1,1.9-.94c2.3-1.14,3.64-1.76,3.64-1.76s-1.24.78-3.45,2.11l-1.84,1.09-2.25,1.13L540.08,394c-0.9.46-1.91,0.8-2.93,1.23l-3.21,1.29-3.53,1.13-1.85.59c-0.63.18-1.27,0.32-1.92,0.49l-4,1c-2.74.43-5.56,1.07-8.48,1.27-2.9.37-5.87,0.43-8.84,0.55-3-.07-5.94-0.05-8.84-0.36s-5.75-.65-8.5-1c-1.37-.22-2.7-0.51-4-0.78s-2.59-.52-3.81-0.87l-3.58-.94c-1.15-.31-2.24-0.71-3.3-1s-2.07-.66-3-1l-2.67-1-2.34-.92c-0.72-.29-1.36-0.6-2-0.85C461,391.68,459.62,391,459.62,391Z" transform="translate(-1)"/><path class="cls-16" d="M497,414.07s0.3,0.1.79,0.3c0.24,0.11.56,0.21,0.89,0.33s0.71,0.24,1.14.36,0.88,0.23,1.35.35,1,0.17,1.51.29,1.07,0.14,1.63.17,1.12,0,1.68.07,1.13,0,1.68-.08,1.1-.11,1.62-0.18,1-.17,1.51-0.3,0.94-.22,1.35-0.36,0.8-.25,1.14-0.37,0.65-.22.89-0.33c0.49-.2.79-0.3,0.79-0.3s-0.19.24-.57,0.63a5.45,5.45,0,0,1-.73.66,6.85,6.85,0,0,1-1,.75,8.58,8.58,0,0,1-1.34.73,11.41,11.41,0,0,1-1.6.61,13.44,13.44,0,0,1-1.8.39,12.2,12.2,0,0,1-3.79,0,13.8,13.8,0,0,1-1.8-.38,11.55,11.55,0,0,1-1.61-.6,8.65,8.65,0,0,1-1.35-.72,7,7,0,0,1-1.05-.75,5.22,5.22,0,0,1-.73-0.65C497.19,414.31,497,414.07,497,414.07Z" transform="translate(-1)"/></g></g></svg>