<svg id="m5" xmlns="http://www.w3.org/2000/svg" xmlns:xlink="http://www.w3.org/1999/xlink" viewBox="0 0 988 2738"><defs><style>.cls-1{fill:#7a8491;}.cls-17,.cls-2{fill:none;}.cls-3{clip-path:url(#clip-path);}.cls-4{clip-path:url(#clip-path-2);}.cls-5{fill:url(#linear-gradient);}.cls-6{fill:#010101;}.cls-7{fill:#e1bd9a;}.cls-8{fill:#f0d2ad;}.cls-9{opacity:0.7;}.cls-10{clip-path:url(#clip-path-3);}.cls-11{fill:#bf9980;}.cls-12{fill:#1b1c1c;}.cls-13{fill:#0e0f0f;}.cls-14{fill:#070707;}.cls-15{fill:#383841;}.cls-16{fill:#17171b;}.cls-17{stroke:#010101;stroke-miterlimit:10;stroke-width:0.5px;}.cls-18{fill:#d3a889;}.cls-19{fill:#deb79a;}.cls-20{fill:#e1be9b;}.cls-21{fill:#f1d1ad;}.cls-22{fill:#111;}.cls-23{fill:#231f20;}</style><clipPath id="clip-path" transform="translate(-6 -6)"><path class="cls-1" d="M994,500c0,276.14-217.86,492-494,492S6,776.14,6,500,223.86,6,500,6,994,223.86,994,500Z"/></clipPath><clipPath id="clip-path-2" transform="translate(-6 -6)"><path class="cls-2" d="M430.74,1530.57a22.33,22.33,0,0,0,3.44.37,85.88,85.88,0,0,0,13.87.55c3.18,0,4.9-.07,4.9-0.07l-4.9-.29c-1.57-.07-3.52-0.18-5.86-0.26s-4.94-.62-7.84-1a18.68,18.68,0,0,1-3.62-.7v1.39Z"/></clipPath><linearGradient id="linear-gradient" x1="31.69" y1="756.48" x2="69.21" y2="756.48" gradientTransform="matrix(4.93, 0, 0, -4.93, 105.68, 5254.89)" gradientUnits="userSpaceOnUse"><stop offset="0" stop-color="#fff"/><stop offset="1" stop-color="#221a15"/></linearGradient><clipPath id="clip-path-3" transform="translate(-6 -6)"><rect class="cls-2" x="436.15" y="652.79" width="131.69" height="77.83"/></clipPath></defs><title>m5-circle-avatar-1000x1000</title><path class="cls-1" d="M994,500c0,276.14-217.86,492-494,492S6,776.14,6,500,223.86,6,500,6,994,223.86,994,500Z" transform="translate(-6 -6)"/><g class="cls-3"><g class="cls-4"><rect class="cls-5" x="424.74" y="1523.18" width="22.22" height="2.53"/></g><path class="cls-6" d="M449.88,1557.15v0Z" transform="translate(-6 -6)"/><path class="cls-7" d="M494.95,1566.37c0,1.87,0,5.93-.11,11.9-0.11,10.51-.36,26.69-0.69,46-1.32,71.54-4.18,186.57-8.17,217.62-5.89,46.21-23.47,192.61-23.47,192.61s2.53,25.26,5.16,55.5c3.26,37.82,6.63,83.4,5,97-7.84,70.62-9.45,139.82-9.45,139.82s-4.72,131.94-4.43,180.64a11.91,11.91,0,0,1,6.29,10.17,11.79,11.79,0,0,1-5.12,9.3c1,4.87,2.46,10.4,4.18,16.22,3,9.81,6.7,20.57,10.21,30.75,2,6,4,11.94,5.6,17.32,3.63,12,5.78,21.89,4.18,26.54-1.94,5.57-13.73,17-13.73,17s5.78,56.42-19.22,75-79.08,28.41-131.87,9.63,6.7-56.23,12.52-80.8c3.18-13.4,9.63-26.4,15.6-38.11v-0.07c4.94-9.74,9.63-18.67,11.86-26.25a2,2,0,0,0,0-.26c1.54-5.35,2.56-13.22,3.3-21.82,1.72-20.54,1.83-45.58,3.51-52.79,16-68.35-53.56-177.31-45.32-313,2.23-36.13,6.85-66.19,11-91,0.58-3.48.91-5.35,0.91-5.35,4.69-27.06,8.53-47.48,7.84-62.79-2.64-51.84-23.07-125.68-32.95-198.5-9.59-69.71-23.8-222.52-16.37-289.63l-0.18,0c0.18-1,.26-2,0.48-3,6.52-43,12.78-70.51,14.86-79.52,0.51-2.2.84-3.3,0.84-3.3s0.07-24.6,5.86-40.31c0.18-.44.37-0.88,0.59-1.54,2.52-7.36,8.38-25.89,14.68-46.54,0.48-1.68,1-3.4,1.61-5.12,0-.33.18-0.69,0.26-1.06a0.94,0.94,0,0,0,.07-0.18,10.89,10.89,0,0,0,.33,1.14,98.58,98.58,0,0,0,13.44,31.78c9.7,14.71,25.08,23.06,40,31.12,9.81,5.42,19,10.44,25.55,16.73,9.63,9.37,26.87,36.68,40.13,61.14,6.52,12.08,12.12,23.39,15.38,31.52,1.39,3.55,2.49,6.41,3.33,8.5,5.45,13.58,10,22.52,26.43,26" transform="translate(-6 -6)"/><path class="cls-8" d="M673,2638.53c5.82,24.6,65.39,62.06,12.52,80.84s-106.72,9.08-131.84-9.59-19.26-75-19.26-75-11.72-11.46-13.69-17c-1.43-4.17.11-12.52,3.15-23l0-.22c1.8-6.34,4.1-13.37,6.63-20.69,3.44-10.25,7.21-20.94,10.14-30.79,1.76-5.78,3.15-11.31,4.17-16.22-3-2.34-5.09-5.64-5.09-9.3a12,12,0,0,1,6.3-10.17c0.29-48.73-4.47-180.6-4.47-180.6s-1.57-69.19-9.44-139.89c-2.78-24.38,10.25-152.45,10.25-152.45s-17.65-146.37-23.54-192.61c-4-31.19-6.92-146.55-8.2-218.09-0.26-19-.51-35-0.59-45.36v-0.11c-0.15-6-.15-10.07-0.15-11.94,16.47-3.51,20.94-12.45,26.43-26,0.8-2.05,2-4.94,3.37-8.46,3.22-8.17,8.86-19.51,15.34-31.52,13.22-24.5,30.5-51.81,40.13-61.14,6.48-6.33,15.74-11.39,25.59-16.73,14.87-8.09,30.28-16.47,40-31.12a101,101,0,0,0,13.47-31.81,0.33,0.33,0,0,0,0-.22c0.11-.33.15-0.58,0.22-0.88,0.62,2.12,1.36,4.29,1.94,6.33,6.33,20.62,12.15,39.18,14.72,46.57,0.22,0.59.36,1.06,0.55,1.54,5.82,15.7,5.89,40.31,5.89,40.31s0.3,1.06.81,3.3c1.87,7.84,6.81,29.77,12.41,63.67,1,5.93,2,12.23,2.93,18.82l-0.15.11c7.43,67-6.77,219.85-16.33,289.59-10,72.82-30.39,146.7-33,198.5-1.54,29.95,14.86,79.81,19.7,159.11,8.24,135.68-61.28,244.56-45.29,313,1.72,7.61,1.76,34.89,3.81,55.87a111,111,0,0,0,3,18.78,1.68,1.68,0,0,0,0,.18c2.42,8.13,7.51,17.68,12.85,28.26,5.64,11.2,11.57,23.5,14.57,36.17" transform="translate(-6 -6)"/><path class="cls-7" d="M502.2,772.06v806.36a15.87,15.87,0,0,1-1.83-.07c-0.88,0-1.68,0-2.46-.07H494.8c-2.64,0-4.06,0-4.06,0l0.4-.91c-1.87-.44-3.73-1-5.82-1.39-1.65-.66-3.44-1.5-5.2-2.34a42.26,42.26,0,0,1-5-3.81c-6.11-6.41-9.15-15.6-13.29-24.82-5.68-13.58-12.23-28.78-19.59-44.77-2.82-6.19-5.86-12.48-8.9-18.82-5.56-11.31-11.72-23.39-19.15-33.5-1.06-1.24-2.23-2.46-3.37-3.73-1-.81-2.31-2-3.48-3-2.56-1.94-5.31-3.77-8.13-5.49-5.71-3.48-11.75-6.52-17.79-9.74-12-6.52-24.35-13.55-33.43-24.71a96.07,96.07,0,0,1-16.4-36.43,0.13,0.13,0,0,1-.11-0.11c-0.4-1.72-.77-3.4-1-5,0-.37-0.11-0.66-0.15-1a79.07,79.07,0,0,1,.7-31.74c0.91-2.86,1.9-5.64,2.82-8.35s2-5.2,2.93-7.69c1.8-5.16,3.3-10.29,4.8-15.12,2.78-9.78,5.31-18.78,7.47-26.84a154.57,154.57,0,0,0,3.22-15.85c0,0.07-.07.11-0.07,0.18-0.4-52.06-5.64-126.09-5.64-126.09-11.5-22.37-27.28-71.87-36.5-102.58-4.72-15.6-7.76-26.4-7.76-26.4s0.73-6.19,2.09-16.44c5.12-36.68,18.82-125.76,38.29-173.06,9-22,30.9-32.4,55.14-36.8,42.83-7.8,93.06,3.15,93.06,3.15,3.92-1.17,7.72-2.09,11.35-3" transform="translate(-6 -6)"/><path class="cls-8" d="M650.51,1238.92c0,3.26,0,6.52-.11,9.66,1.43,5.64,3.19,12.52,5.24,20.25,2.16,7.94,4.69,16.95,7.43,26.76,1.54,4.84,3,10,4.83,15.16,1,2.49,1.94,5.05,2.93,7.62,0.95,2.78,1.87,5.56,2.85,8.38a78.8,78.8,0,0,1,.62,31.7,7.45,7.45,0,0,1-.07.88,0.39,0.39,0,0,1,0,.22c-0.25,1.68-.58,3.3-0.91,5,0,0,0,0-.07.11v0a98.76,98.76,0,0,1-16.51,36.43c-9.08,11.16-21.42,18.19-33.43,24.71-6,3.22-12.08,6.26-17.76,9.7-2.86,1.72-5.57,3.59-8.13,5.49-1.21,1-2.6,2.16-3.48,3-1.14,1.32-2.34,2.49-3.37,3.77-7.51,10.11-13.62,22.15-19.19,33.5-2.89,6-5.71,11.94-8.35,17.76-7.58,16.4-14.28,31.89-20.17,45.8-4.1,9.26-7.18,18.52-13.25,24.86a45,45,0,0,1-5.05,3.84c-1.79.81-3.51,1.65-5.23,2.34-2.05.4-4,1-5.82,1.39l0.48,1.1s-1.32,0-4,.07h-1c-0.66,0-1.39,0-2.23,0-1.36,0-2.93,0-4.58,0V772.06c21.31-4.94,38.52-5.27,52.32-2.53a234,234,0,0,1,38.37.7c28.74,3,56.45,13,67,38.44,21.71,52.57,31.81,156.51,34.12,183.16,0.37,4.14.51,6.34,0.51,6.34s-3.84,17.35-9.56,39.72c-7.76,30.24-19,69.93-28.92,89.26,0,0-4.39,61.4-5.49,111.73v0Z" transform="translate(-6 -6)"/><path class="cls-8" d="M782.2,1471.92c-0.33,16.44-1.17,30.79-2.56,42.18-10.51,86.47-31.74,125.28-60.55,133.15-20.69,5.71-49.28-4.9-58.18-21.27-3.51-6.48-3.92-13.84.44-21.45,13-22.59,38.7-62.83,49.06-92.85a86.32,86.32,0,0,0,4-15.49c1.21-7.8.59-17.72-1.13-28.81-6.22-41.63-27.61-98.59-27.39-110.38,1-55.65,11.2-107.34,11.2-107.34L694,1205.21s-25-40.42-39.43-95.74c-6.74-25.81,12.48-154.06,12.48-154.06L606.5,761.59s162.63,0,160.69,404.59c0,0,17.46,197.3,15,305.74" transform="translate(-6 -6)"/><path class="cls-7" d="M333.24,957.31s19.22,128.21,12.52,154.1c-14.46,55.24-39.47,95.7-39.47,95.7l-3,44.41s10.21,51.69,11.2,107.38c0.18,11.64-20.57,67-27.16,108.48-1.87,11.82-2.56,22.52-1.35,30.72a93.52,93.52,0,0,0,5.49,19.4c11.09,29.51,35.08,67.25,47.56,88.89,4.06,7,4,13.95,1.17,20-7.91,17.21-37.6,28.7-58.9,22.81-28.85-8-50-46.72-60.56-133.26-1.46-11.79-2.31-26.69-2.64-43.86-2.16-108.81,15.12-304,15.12-304-2-404.59,160.65-404.59,160.65-404.59Z" transform="translate(-6 -6)"/><path class="cls-7" d="M501.8,574.58v436.48H264.52c-3.81-1.68-5.78-2.53-5.78-2.53C258.74,774.41,404,756.94,404,756.94c14.46,0,23.8-18.64,29.95-46.9,1-4.36,1.83-8.86,2.53-13.69,1.32-7.94,2.45-16.44,3.3-25.26,0.51-5.31,1-10.65,1.5-16.14,2.16-26.8,2.82-55.9,2.82-83.55,0,0,32,3.18,57.74,3.18" transform="translate(-6 -6)"/><path class="cls-8" d="M745.74,1008.53s-2.16.81-5.64,2.49H501.8V574.58h0.51c25.81,0,57.88-3.15,57.88-3.15,0,27.42.69,56.23,2.82,82.85,0.51,5.31,1.06,10.69,1.54,15.82,1,9.11,2,17.76,3.33,26v0.18c0.44,3.63,1.13,7,1.79,10.29,6.15,30.13,15.78,50.41,30.79,50.41,0,0,145.27,17.46,145.27,251.59" transform="translate(-6 -6)"/><g class="cls-9"><g class="cls-10"><path class="cls-11" d="M567.84,694.63v0.18A76.86,76.86,0,0,1,502,730.62h-0.33c-37.82-.15-59.82-27.64-65.5-35.66,1.32-8,2.49-16.51,3.3-25.34,0.55-5.35,1-10.65,1.5-16.18a260,260,0,0,0,60,7.84h0.66a247.4,247.4,0,0,0,61.4-8.49c0.47,5.34.95,10.69,1.5,15.85,1,9.15,1.94,17.87,3.3,26" transform="translate(-6 -6)"/></g></g><path class="cls-12" d="M483.45,2543.19c1.17,4.54,2.05,8.27,1.06,11.27-3.73,11.5-8.71,13.84-8.2,15.45l3.37,25.08c3.63,12.92,5.78,23.58,4.17,28.59-2,6-13.73,18.31-13.73,18.31s5.78,60.77-19.11,80.87-78.79,30.5-131.4,10.29c-20.39-7.84-21.82-33.2-21.82-33.2s30.72-37.6,34.3-53.85c3.15-14.43,9.59-28.41,15.52-41.08v0l1.72-28.56a34.6,34.6,0,0,0,1.24-17.94,129.21,129.21,0,0,1,12.15-5.56,133.61,133.61,0,0,1,49.86-9.63h70.84Z" transform="translate(-6 -6)"/><path class="cls-13" d="M483.82,2543.19c1.21,4.24,2.05,7.69,1.1,10.47-3.77,10.65-8.79,12.85-8.27,14.35l3.44,23.25c3.62,12,5.75,21.93,4.14,26.58-2,5.53-13.77,16.95-13.77,16.95s5.79,56.42-19.22,75.09-79,28.33-131.84,9.55,6.7-56.23,12.52-80.84c3.19-13.4,9.66-26.4,15.6-38.07v-0.07l1.76-26.47a30.19,30.19,0,0,0,1.24-16.7c4-1.9,8.06-3.62,12.15-5.16a144.56,144.56,0,0,1,50-8.93h71.1Z" transform="translate(-6 -6)"/><path class="cls-12" d="M527.64,2569.92l-3.37,25c-3.63,13-5.75,23.65-4.14,28.67,1.94,6,13.66,18.27,13.66,18.27s-5.71,60.74,19.18,80.84,78.75,30.57,131.4,10.36c20.39-7.84,21.82-33.2,21.82-33.2s-30.79-37.64-34.3-53.89c-3.19-14.43-9.63-28.41-15.56-41v0l-11.2-27.86c-0.62-2.45,6.48-8.86,8.2-18.71a124.56,124.56,0,0,0-12.12-5.53,133.8,133.8,0,0,0-49.9-9.63s-63.12,25.11-63.67,26.73" transform="translate(-6 -6)"/><path class="cls-13" d="M685.55,2719.4c-52.79,18.78-106.72,9.08-131.84-9.56s-19.22-75.05-19.22-75.05-11.79-11.42-13.73-17c-1.43-4.1.11-12.52,3.11-22.88l0-.25,4.47-26.73c0.55-1.76-2.56-5.71-5-13.62-1-3.48,1.9-6.62,3.92-11.13h57.63a142.82,142.82,0,0,1,57.59,12c3.92,1.68,7.69,3.59,11.39,5.53-2.34,6.44-4.94,10.43-4.5,12.19l9,29.54c5.68,11.21,11.64,23.51,14.61,36.21,5.86,24.53,65.43,62,12.52,80.76" transform="translate(-6 -6)"/><path class="cls-14" d="M684.74,1922.86c-7.69,38.84-13.91,136.27-9.92,159.18,4.72,27.31,10.69,61.4,13.29,104.09,4.43,73.07-13.11,137.07-28.59,193.53-5,18.3-8.09,49.9-9.81,82.33-0.44,8.31,6.7,23.91,6.41,32.15-0.22,7.87-6.11,9.11-4.14,17.24,2.53,10.62-4,19.37-4,27.46,0,7.65,8.2,15.3,6.52,20.28-0.15.51-.33,1-0.55,1.57-2.38,6.44-4.94,10.43-4.54,12.19l9,29.51s-26,5.67-34.89,5.86c-25.19.37-99.69-13.33-99.69-13.33l0-.29,4.47-26.69c0.59-1.76-2.52-5.71-5-13.62-1.06-3.51,1.9-6.66,4-11.13a20.37,20.37,0,0,0,1.8-7.21c0.22-6.63-4.36-18.45-1.36-28.08,2.13-6.88-.69-9.08-0.55-15.27,0.18-9.37,5.09-24.2,5.16-34.6,1.28-96.36.58-227.36-4.21-270.56-2.79-24.09-7.65-300.61-13.25-345-4.87-37.6-7.73-188.69-8.28-218.57-0.22-16.77-.44-31-0.58-41.34h-0.33c-1.21,0-2.38,0-3.55,0h-0.25c-0.51,0-1.1,0-1.87,0h-1.21c-0.11,10.36-.33,24.9-0.62,41.88-0.51,30-3.4,181.08-8.2,218.09-4.17,32.8-12.08,405.36-14,603.49,0,10.29-.15,20.1-0.22,29.4,0,2.78,3.22,10.69,6.44,20.32s-1.65,20.32-1.65,29.65c-0.07,7,1.83,13,3.22,17.87,1.21,4.21,2.05,7.65,1.06,10.43-3.73,10.69-8.75,12.85-8.24,14.35l3.4,23.28s-67.29,16.92-90.25,17c-10.76,0-42.29-7.76-42.29-7.76v0l1.76-26.51a30,30,0,0,0,1.24-16.66c-0.15-.73-0.29-1.42-0.48-2.2-1.28-5.2,7-20.87,6.88-29.21,0-9-5.27-14.06-2.74-27.13,1.24-6.77,2.12-13.22,1.94-18.6-0.4-9.92-.88-20-1.54-29.84-1.79-28.19-4.76-54.55-9.15-70.66-15.49-56.46-33-120.45-28.56-193.53,2.6-42.69,8.53-76.7,13.26-104.09,4-22.92-2.23-120.41-9.92-159.26-6-30.42-12.23-61.87-16.51-93.47C295.38,1769,279.93,1614.48,287,1542l-0.15-.11,0.4-3.48s0.33-2.49.44-3c6.11-40.27,12-67.33,14.94-79.81,0.37-1.35.58-2.34,0.69-2.89,0-3.7.55-26.07,6.11-41.15L310,1410c2.34-6.85,7.94-24.68,14.57-46.31l0.33-1.17c0.48-1.35.91-2.74,1.35-4.06l0.62-2,2.53-.81,0.44,0c0.26,0,.59-0.07.88-0.07a129.07,129.07,0,0,1,17.5-1.06H677.56l2.82,9.15c6.63,21.82,12.19,39.61,14.61,46.42l0.55,1.42c5.6,15.12,6.08,37.42,6.11,41.19,0.11,0.55.33,1.54,0.73,2.89,2.34,10.14,7.1,31.85,12.45,64,1,5.9,1.94,12.19,3,18.89l0.51,3.37L718,1542c7,72.49-8.42,227-16.73,287.4-4.29,31.52-10.51,63-16.51,93.47" transform="translate(-6 -6)"/><path class="cls-15" d="M675.88,755.33c-26.4,35.15-55.76,69.16-87.57,99.76C542.4,899.32,517.72,957,505,1010.84c-0.18-.55-0.36-1.24-0.51-1.75-1.76-8.06-4.06-15.93-6.52-23.94V985C484,939,460.24,892.33,421.8,855.09,388.23,823,357.48,787,330.05,750c12.27-14.2,24.82-27.09,35.66-35.48,11-8.57,19.07-15.6,25.34-21.35h0.15c13,3.7,25.92,7,38.81,9.45,27.06,5.6,53.67,8.38,77.94,8a353,353,0,0,0,63.12-7A400.77,400.77,0,0,0,610.5,694h0.22c6.3,5.6,14.2,12.19,24.64,20.43,12,9.41,26.54,24.78,40.53,40.86" transform="translate(-6 -6)"/><path class="cls-16" d="M759.76,934.87a385.13,385.13,0,0,0-32.84-70.15,1.16,1.16,0,0,0-.15-0.33c-9.85-20.43-20.83-36.87-32.54-50.16a169.43,169.43,0,0,0-39.14-33.43c-1.21,1.68-2.45,3.4-3.73,5.09C622.54,768.7,601,767.38,601,767.38l-20,59.9c-2.71,1.9-5.53,3.88-8.53,5.86-11.57,26.54-28.15,56.27-47.89,80.14-13.29,16.15-20.47,37.12-24.13,56.64-3.66-19.51-10.83-40.49-24.12-56.64-20.1-24.24-36.87-54.48-48.4-81.39-0.7-.58-1.39-1.21-2-1.79l-21-62.72s-1.32.11-3.62,0.44c-0.66-2.05-1.47-4.28-2.42-6.85h-0.36s-47.15,5.56-88.93,52.94c-15.08,16.92-29.43,39.39-40.75,68.79a402.22,402.22,0,0,0-22.62,52.17c-57.74,161.6-27.86,590.46-27.86,590.46l77.65-.48c-2.89-13.73-4.5-24-2.78-38.22,1.72-14.42,3.66-29,8.05-42.87,4.72-15,17.39-77.18,17.21-93.54,0-2.13,20.17-201.8,20.17-201.8s21.64,30.49,7.47,109.72c-4.17,23.14-21.86,90.94-21.86,92.08,0.15,13.18-9.08,27.31-11.24,40.42-2.6,15.78-5.31,28-10.47,43-5.82,16.66-8.17,41.37-10.1,58.87-1.72,15.08-11.9,175.11-2.31,258.18,23.65,204.62,0,438.74,0,438.74l177.52,7.94,248.15-7.94s-22.55-234,0-438.74c9.41-85.74,8.5-158.82,2.53-221.24,0,0-6.88-29.55-8.71-45.1-2.12-17.72-3.37-35.33-6.22-52.9-5.31-32.47-24.93-96.69-23.76-97.2-8.6-30.46-16.15-55.57-19.81-76.12-14.17-79.23,7.47-109.72,7.47-109.72l15.52,186.31c0.33,0.33,3.77,33.35,3.88,33.9,7,31.92,11.53,30.31,16.69,62.83,2.56,16.29,9.37,31,11.31,47.37,2.08,17.68-3.44,23.65-7.8,42.4l75.57,8.24s35-433-22.74-594.6" transform="translate(-6 -6)"/><path class="cls-14" d="M487.41,1012.74L330.75,931.5l59.38-77.21s-25.48-26.54-40.3-38.81c-6.85-5.64-24-4.39-40.24-1.57a352.1,352.1,0,0,0-36.54,8.38c2.31-3.33,29-40.75,57-72.34,12.23-14.2,24.82-27.09,35.66-35.48,11-8.57,19-15.6,25.34-21.35h0.15c5.78-5.2,10.36-9.44,14.5-13.11,8.42,3.48,23.5,8.31,31.89,10.91-0.33,4.36-1.68,8.17-2.05,12.74-0.7,7.36-25.81,61.8-23,79.26,1.9,13,7.32,30.06,15.34,49,11.57,26.87,28.37,57.15,48.47,81.39,13.25,16.11,20.43,37.12,24.05,56.67,2.82,14.68-13,42.8-13,42.8" transform="translate(-6 -6)"/><path class="cls-14" d="M610.68,854.25L670.1,931.5l-199.27,95.7-3.88,2.05-3.63,2.16a40.24,40.24,0,0,1-.18-4.21c-0.33-6.81-1.9-11.94,0-29,0,0,1.39-9.45,1.39-9.59,0.7-4.76,1.39-9.78,2.42-15,3.73-19.55,44.33-44.15,57.62-60.26,19.73-23.87,36.35-53.6,47.89-80.14,8.17-19.26,13.77-37.09,15.85-50.16,2.82-17.54-12.38-39.36-15.23-60-0.62-5.75-2.93-12.08-3.62-19.11-0.51-4.54-1.57-8.49-1.9-12.89,8.9-2.64,20.1-6.3,29-9.74,4,3.44,8.42,7.65,14,12.78h0.18c6.29,5.57,14.24,12.23,24.68,20.43,12,9.41,26.54,24.82,40.53,40.86,26,30.42,50,63.81,52,67-1.35-.33-16.69-4.9-33.68-8.05s-35.81-4.72-43.17,1.21c-14.86,12.27-40.38,38.81-40.38,38.81" transform="translate(-6 -6)"/><line class="cls-17" x1="461.86" y1="988" x2="461.86" y2="2168.77"/><path class="cls-15" d="M526.36,1103.91a14.19,14.19,0,1,1-14.2-14.17,14.22,14.22,0,0,1,14.2,14.17" transform="translate(-6 -6)"/><path class="cls-15" d="M526.36,1264.11a14.19,14.19,0,1,1-14.2-14.2,14.18,14.18,0,0,1,14.2,14.2" transform="translate(-6 -6)"/><path class="cls-15" d="M526.36,1419.49a14.19,14.19,0,1,1-14.2-14.2,14.19,14.19,0,0,1,14.2,14.2" transform="translate(-6 -6)"/><path class="cls-15" d="M526.36,1603.72a14.19,14.19,0,1,1-14.2-14.17,14.22,14.22,0,0,1,14.2,14.17" transform="translate(-6 -6)"/><path class="cls-14" d="M340.45,1626.42c-7.91,17.2-37.6,28.63-58.91,22.73-28.85-8-50-46.72-60.59-133.23-1.47-11.79-2.27-26.73-2.6-43.86,18.71-3.3,40.16-5.05,51.69-5.05,3.08,0,10.29.07,17.57,0.37-1.9,11.86-2.6,22.52-1.39,30.75a96.3,96.3,0,0,0,5.49,19.37c6.34,30.5,31.85,78.13,46.39,103.57a27.87,27.87,0,0,1,2.34,5.35" transform="translate(-6 -6)"/><path class="cls-14" d="M782.49,1471.92c-0.33,16.44-1.17,30.79-2.56,42.18-10.51,86.47-31.74,125.28-60.55,133.15-20.69,5.71-49.28-4.9-58.18-21.27a22,22,0,0,1,2.2-4.87c15.34-26.84,42.8-78.31,47.23-108.37a3.51,3.51,0,0,0,.07-1.06,86.71,86.71,0,0,0,4-15.49c1.17-7.8.59-17.72-1.14-28.81,7.39-.29,14.72-0.4,17.86-0.4,11.42,0,32.48,1.72,51,4.94" transform="translate(-6 -6)"/><path class="cls-18" d="M502.75,120.35c-233.95,0-235.3,195.8-224.87,324-16-30.39-63.52-21-59.6,26.84,3.73,46.13,70.77,69.93,69.89,64.62,19.15,105.44,129.2,166.36,214.58,166.36,0.62,0,1.21-.11,1.75-0.11V120.35h-1.75Z" transform="translate(-6 -6)"/><path class="cls-11" d="M233.22,450.95c11.61-18.49,29.4-10.51,33.79-6.44,4.65,4.43,8.34,10.32,5.45,21.23-1.65,6.15-8.09,6.63-6.52,16,1.76,10.51,6.63,11.2,9.37,13.58s6.15,4.17,7.87,8.6a23.44,23.44,0,0,1,1.06,13.25c-1.79,7.51-12.78,1.5-20.17-1.87-4.87-2.2-20.32-15.23-24.23-19.62-9.81-11.09-14.35-32.36-6.63-44.7" transform="translate(-6 -6)"/><path class="cls-19" d="M503.92,120.35c233.94,0,235.26,195.8,224.87,324,16-30.39,63.48-21,59.6,26.84-3.77,46.13-70.77,69.93-69.89,64.62C699.35,641.22,589.26,702.14,503.92,702.14c-0.58,0-1.21-.11-1.79-0.11V120.35h1.79Z" transform="translate(-6 -6)"/><path class="cls-11" d="M773.45,450.95c-11.57-18.49-29.44-10.51-33.79-6.44-4.65,4.43-8.31,10.32-5.45,21.23,1.61,6.15,8.05,6.63,6.52,16-1.72,10.51-6.59,11.2-9.37,13.58s-6.15,4.17-7.91,8.6a24.05,24.05,0,0,0-1.06,13.25c1.79,7.51,12.81,1.5,20.21-1.87,4.87-2.2,20.32-15.23,24.16-19.62,9.89-11.09,14.43-32.36,6.7-44.7" transform="translate(-6 -6)"/><path class="cls-20" d="M500.73,175.56c-77,0-133.3,22.3-167.42,66.45-47.63,61.62-45.8,155.74-28.23,223.33,5.35,20.65,8.09,76.33,11.82,96.76,16.62,91.38,117.41,140.07,183.82,140.07,0.55,0,1.21-.11,1.8-0.11V175.59c-0.58,0-1.21,0-1.8,0" transform="translate(-6 -6)"/><path class="cls-21" d="M667.79,242.12c-33.86-43.86-89.51-66.16-165.26-66.53V702c75.82-.8,166.43-54.11,182-139.93,3.66-20.43,6.44-76.12,11.82-96.73,17.5-67.44,19.18-161.42-28.56-223.25" transform="translate(-6 -6)"/><path class="cls-14" d="M624,189.73c-12.67,58.43-123.71,112.84-182.47,129.82s-152,35.59-152,35.59,3,55.9,1.9,74.5c-1.61,28,9.7,55.65,9.7,55.65l-18.45-8.13s-1-39.62-17.91-46.53c-26-10.55-67.51-60-55.17-111.08s50.85-121.51,66.27-154S341,73.78,382.74,62.91s122.17-29.36,171.63-6.15,114.44,55.61,114.44,55.61,29.36,7.76,52.58,29.4,56,99.62,56,214.8c0,17.21-5.64,58.87-27.72,71.14C721.9,443,721.9,467.57,721.9,467.57l-9.74,6.88s9.74-63.23,9.74-85c0-65-36-95-65.24-116.79-48-35.59-80.65-35-80.65-35Z" transform="translate(-6 -6)"/><path class="cls-22" d="M469.58,461c0,26.43-39.06,52.72-84.94,53.85-0.91.07-2,.07-3.08,0.07-3.84,0-7.58-.07-11-0.22-55.54-2.56-63.3-25.19-63.3-50.81,0-27-16.26-48.84,79.74-48.84,14.57,0,26.47.44,36.39,1.32,13.51,1.17,23.1,3,29.87,5.64,21.23,7.76,16.33,21.67,16.33,39" transform="translate(-6 -6)"/><path class="cls-14" d="M486.9,423.6c-5.64-.88-19.22-4.32-33-7-12.23-2.38-24.71-4-31.59-4.8-16.62-1.65-59.05-2.78-85.38-1-31.27,2.09-55.21,4.65-56.38,6.48-0.88,1.28-2.78,17.9-.25,19.66s11.35,5.42,13.51,11.31,10.8,48.29,30.13,59.9c31.85,19.07,138.79,20,157.25-49.68,2.56-9.48,5.89-15,11.61-16.55a38.67,38.67,0,0,1,10.4-1.17v-16a77.75,77.75,0,0,1-16.26-1.06m-22.55,41.08c-16.62,54.58-97.24,48.22-116.68,43.9-8.6-1.87-33.61-8.93-37.67-53.31-2.79-30.86,17.46-32.69,46.09-35.33a320.22,320.22,0,0,1,58,.07c14,1.28,46.65,6.26,49.86,14.72s4.1,18,.44,29.95" transform="translate(-6 -6)"/><path class="cls-22" d="M697.67,463.95c0,27.13-8.83,51-74.36,51-2.75,0-5.53-.11-8.2-0.37a95.84,95.84,0,0,1-14.39-1.79c-36.87-6.81-65.35-29.29-65.35-51.77,0-27-11.9-46,82.56-46,14.06,0,25.67.44,35.29,1.32,25.7,2.38,37.16,7.58,42,14.86,6,8.68,2.46,20.1,2.46,32.69" transform="translate(-6 -6)"/><path class="cls-14" d="M501.06,424.62V440.7a42.53,42.53,0,0,1,10.44,1.14c5.75,1.54,9,7.14,11.57,16.62,18.45,69.56,125.47,68.76,157.28,49.61,19.33-11.57,28-54,30.13-59.89s11-9.41,13.47-11.24,0.62-18.45-.22-19.73c-1.21-1.8-25.15-4.36-56.38-6.44-26.4-1.79-68.72-.58-85.41,1.06-6.81.73-19.33,2.34-31.56,4.76-13.84,2.74-27.42,6.15-33,7a75.62,75.62,0,0,1-16.29,1.06m39.25,10.11c3.22-8.46,35.88-13.44,49.86-14.72a316.76,316.76,0,0,1,58-.07c28.66,2.64,48.91,4.47,46.09,35.33-4.06,44.34-29.11,51.48-37.6,53.34-19.51,4.28-100.09,10.65-116.75-43.93-3.63-11.9-2.78-21.49.44-29.95" transform="translate(-6 -6)"/><path class="cls-23" d="M393.57,625.73c22.22-18.09,28.12-41.59,47.34-47.6S500.7,573,500.7,573s10.1,15.56-12.93,22.52C462.26,603.21,460,609,442.08,616.14s-48.51,9.59-48.51,9.59" transform="translate(-6 -6)"/><path class="cls-23" d="M612.29,625.73c-22.22-18.09-28.12-41.59-47.3-47.6S505.16,573,505.16,573s-10.1,15.56,12.92,22.52c25.48,7.69,27.75,13.44,45.69,20.61s48.51,9.59,48.51,9.59" transform="translate(-6 -6)"/><path class="cls-23" d="M551.18,661.39c-1.42,11.6-9.11,33.13-27.09,35.29a148.29,148.29,0,0,1-21.46,1.1h0a148,148,0,0,1-21.41-1.1c-17.94-2.16-25.67-23.69-27.06-35.29,0,0-6.08,15.3-5.57,25.22,0.26,4.39,15.12,18.16,18.64,36,2.78,14.24,20.94,15.3,35.4,15.3h0c14.53,0,32.66-1.06,35.48-15.3,3.48-17.86,18.38-31.63,18.6-36,0.51-9.92-5.53-25.22-5.53-25.22" transform="translate(-6 -6)"/></g></svg>