<svg id="m5" xmlns="http://www.w3.org/2000/svg" xmlns:xlink="http://www.w3.org/1999/xlink" viewBox="0 0 999 1812.81"><defs><style>.cls-1{fill:#7a8491;}.cls-17,.cls-2{fill:none;}.cls-3{clip-path:url(#clip-path);}.cls-4{clip-path:url(#clip-path-2);}.cls-5{fill:url(#linear-gradient);}.cls-6{fill:#010101;}.cls-7{fill:#e1bd9a;}.cls-8{fill:#f0d2ad;}.cls-9{opacity:0.7;}.cls-10{clip-path:url(#clip-path-3);}.cls-11{fill:#bf9980;}.cls-12{fill:#1b1c1c;}.cls-13{fill:#0e0f0f;}.cls-14{fill:#070707;}.cls-15{fill:#383841;}.cls-16{fill:#17171b;}.cls-17{stroke:#010101;stroke-miterlimit:10;stroke-width:0.5px;}.cls-18{fill:#d3a889;}.cls-19{fill:#deb79a;}.cls-20{fill:#e1be9b;}.cls-21{fill:#f1d1ad;}.cls-22{fill:#111;}.cls-23{fill:#231f20;}</style><clipPath id="clip-path" transform="translate(-1)"><polygon class="cls-1" points="1000 1001.25 1 1000 1 0 1000 0 1000 1001.25"/></clipPath><clipPath id="clip-path-2" transform="translate(-1)"><path class="cls-2" d="M456.14,1008a14.81,14.81,0,0,0,2.28.24,57,57,0,0,0,9.2.36l3.25,0-3.25-.19c-1,0-2.33-.12-3.89-0.17s-3.28-.41-5.2-0.65a12.39,12.39,0,0,1-2.4-.46V1008Z"/></clipPath><linearGradient id="linear-gradient" x1="47.96" y1="862.45" x2="72.84" y2="862.45" gradientTransform="matrix(4.93, 0, 0, -4.93, 110.68, 5260.89)" gradientUnits="userSpaceOnUse"><stop offset="0" stop-color="#fff"/><stop offset="1" stop-color="#221a15"/></linearGradient><clipPath id="clip-path-3" transform="translate(-1)"><rect class="cls-2" x="459.74" y="425.73" width="87.35" height="51.63"/></clipPath></defs><title>m5-square-avatar-1000x1000</title><polygon class="cls-1" points="999 1001.25 0 1000 0 0 999 0 999 1001.25"/><g class="cls-3"><g class="cls-4"><rect class="cls-5" x="455.14" y="1007.03" width="14.74" height="1.68"/></g><path class="cls-6" d="M468.84,1025.59v0Z" transform="translate(-1)"/><path class="cls-7" d="M498.73,1031.71c0,1.24,0,3.93-.07,7.89-0.07,7-.24,17.7-0.46,30.5-0.88,47.45-2.77,123.75-5.42,144.34-3.91,30.65-15.57,127.76-15.57,127.76s1.68,16.76,3.42,36.81c2.16,25.09,4.4,55.32,3.33,64.33-5.2,46.84-6.27,92.74-6.27,92.74s-3.13,87.52-2.94,119.82a7.9,7.9,0,0,1,4.18,6.75,7.82,7.82,0,0,1-3.4,6.17c0.68,3.23,1.63,6.9,2.77,10.76,2,6.51,4.44,13.65,6.77,20.4,1.31,4,2.62,7.92,3.72,11.49,2.4,8,3.84,14.52,2.77,17.61-1.29,3.69-9.11,11.27-9.11,11.27s3.83,37.42-12.75,49.76-52.45,18.85-87.47,6.39,4.44-37.3,8.31-53.59c2.11-8.89,6.39-17.51,10.34-25.28v0c3.28-6.46,6.39-12.39,7.87-17.41a1.34,1.34,0,0,0,0-.17A83.35,83.35,0,0,0,411,1685.5c1.14-13.62,1.21-30.23,2.33-35,10.61-45.34-35.53-117.61-30.06-207.58a559.73,559.73,0,0,1,7.31-60.34c0.39-2.31.61-3.55,0.61-3.55,3.11-17.95,5.66-31.5,5.2-41.65C394.6,1303,381.05,1254,374.5,1205.7c-6.36-46.24-15.79-147.6-10.86-192.11l-0.12,0c0.12-.66.17-1.34,0.32-2,4.32-28.51,8.48-46.77,9.86-52.74,0.34-1.46.56-2.19,0.56-2.19s0-16.32,3.88-26.74c0.12-.29.24-0.58,0.39-1,1.67-4.88,5.56-17.17,9.74-30.87,0.32-1.12.68-2.26,1.07-3.4,0-.22.12-0.46,0.17-0.7a0.62,0.62,0,0,0,0-.12,7.22,7.22,0,0,0,.22.75,65.39,65.39,0,0,0,8.91,21.08c6.44,9.76,16.64,15.3,26.54,20.64,6.51,3.6,12.63,6.92,16.95,11.1,6.39,6.22,17.82,24.33,26.61,40.55a224.45,224.45,0,0,1,10.2,20.91c0.92,2.35,1.65,4.25,2.21,5.63,3.62,9,6.6,14.93,17.53,17.26" transform="translate(-1)"/><path class="cls-8" d="M616.8,1742.85c3.86,16.32,43.37,41.16,8.31,53.62s-70.79,6-87.45-6.36-12.77-49.76-12.77-49.76-7.77-7.6-9.08-11.27c-0.95-2.77.07-8.31,2.09-15.23l0-.14c1.19-4.2,2.72-8.86,4.4-13.72,2.28-6.8,4.78-13.89,6.73-20.42,1.17-3.84,2.09-7.5,2.77-10.76a7.44,7.44,0,0,1,.8-12.92c0.19-32.32-3-119.79-3-119.79s-1-45.9-6.26-92.79c-1.85-16.17,6.8-101.12,6.8-101.12s-11.7-97.09-15.61-127.76c-2.62-20.69-4.59-97.21-5.44-144.66-0.17-12.63-.34-23.22-0.39-30.09v-0.07c-0.1-4-.1-6.68-0.1-7.92,10.93-2.33,13.89-8.26,17.53-17.26,0.53-1.36,1.31-3.28,2.23-5.61a215,215,0,0,1,10.18-20.91c8.77-16.25,20.23-34.36,26.61-40.55,4.3-4.2,10.44-7.55,17-11.1,9.86-5.37,20.08-10.93,26.52-20.64a67,67,0,0,0,8.94-21.1,0.22,0.22,0,0,0,0-.15c0.07-.22.1-0.39,0.14-0.58,0.41,1.41.9,2.84,1.29,4.2,4.2,13.67,8.06,26,9.76,30.89,0.14,0.39.24,0.71,0.36,1,3.86,10.42,3.91,26.73,3.91,26.73s0.2,0.71.53,2.19c1.24,5.2,4.52,19.74,8.23,42.23,0.66,3.93,1.31,8.11,1.94,12.48l-0.1.07c4.93,44.46-4.49,145.82-10.83,192.08C626.3,1254,612.75,1303,611,1337.37c-1,19.86,9.86,52.94,13.07,105.54,5.47,90-40.65,162.22-30,207.58,1.14,5.05,1.17,23.14,2.53,37.06a73.65,73.65,0,0,0,2,12.46,1.11,1.11,0,0,0,0,.12c1.6,5.39,5,11.73,8.52,18.75,3.74,7.43,7.67,15.59,9.67,24" transform="translate(-1)"/><path class="cls-7" d="M503.54,504.85V1039.7a10.53,10.53,0,0,1-1.21,0c-0.58,0-1.12,0-1.63,0h-2.06l-2.7,0,0.27-.61c-1.24-.29-2.48-0.63-3.86-0.92-1.09-.44-2.28-1-3.45-1.55a28,28,0,0,1-3.35-2.53c-4.06-4.25-6.07-10.34-8.82-16.46-3.76-9-8.11-19.09-13-29.7-1.87-4.11-3.88-8.28-5.9-12.48-3.69-7.5-7.77-15.52-12.7-22.22-0.7-.83-1.48-1.63-2.24-2.48-0.63-.53-1.53-1.34-2.31-2-1.7-1.29-3.52-2.5-5.39-3.64-3.79-2.31-7.8-4.32-11.8-6.46-8-4.32-16.15-9-22.17-16.39A63.72,63.72,0,0,1,390.36,898a0.09,0.09,0,0,1-.07-0.07c-0.27-1.14-.51-2.26-0.65-3.35,0-.24-0.07-0.44-0.1-0.66a52.45,52.45,0,0,1,.46-21.05c0.61-1.89,1.26-3.74,1.87-5.54s1.31-3.45,1.94-5.1c1.19-3.42,2.19-6.82,3.18-10,1.85-6.49,3.52-12.46,5-17.8a102.52,102.52,0,0,0,2.14-10.51s0,0.07,0,.12c-0.27-34.53-3.74-83.63-3.74-83.63-7.63-14.84-18.09-47.67-24.21-68-3.13-10.35-5.15-17.51-5.15-17.51s0.48-4.11,1.39-10.9c3.4-24.33,12.48-83.41,25.4-114.79,6-14.57,20.5-21.49,36.57-24.41,28.41-5.17,61.73,2.09,61.73,2.09,2.6-.78,5.12-1.39,7.53-2" transform="translate(-1)"/><path class="cls-8" d="M601.92,814.51c0,2.16,0,4.32-.07,6.41,0.95,3.74,2.11,8.31,3.47,13.43s3.11,11.24,4.93,17.75c1,3.21,2,6.61,3.21,10.05,0.66,1.65,1.29,3.35,1.94,5.05s1.24,3.69,1.89,5.56a52.27,52.27,0,0,1,.41,21,4.94,4.94,0,0,1,0,.58,0.26,0.26,0,0,1,0,.15c-0.17,1.12-.39,2.19-0.61,3.3,0,0,0,0,0,.07v0a65.51,65.51,0,0,1-11,24.16c-6,7.41-14.21,12.07-22.17,16.39-4,2.14-8,4.15-11.78,6.44-1.89,1.14-3.69,2.38-5.39,3.64-0.8.65-1.73,1.43-2.31,2-0.75.87-1.55,1.65-2.23,2.5-5,6.7-9,14.69-12.73,22.22-1.92,4-3.79,7.92-5.54,11.78-5,10.88-9.47,21.15-13.38,30.38-2.72,6.14-4.76,12.29-8.79,16.49a29.85,29.85,0,0,1-3.35,2.55c-1.19.53-2.33,1.09-3.47,1.55-1.36.27-2.65,0.66-3.86,0.92l0.32,0.73s-0.88,0-2.62,0h-0.66c-0.44,0-.92,0-1.48,0-0.9,0-1.94,0-3,0V504.85c14.13-3.28,25.55-3.5,34.7-1.68a155.17,155.17,0,0,1,25.45.46c19.06,2,37.44,8.64,44.41,25.5,14.4,34.87,21.1,103.81,22.63,121.49,0.24,2.75.34,4.2,0.34,4.2s-2.55,11.51-6.34,26.35c-5.15,20.06-12.6,46.38-19.18,59.2,0,0-2.91,40.72-3.64,74.11v0Z" transform="translate(-1)"/><path class="cls-8" d="M689.27,969.06c-0.22,10.9-.78,20.42-1.7,28-7,57.36-21.05,83.1-40.16,88.32-13.72,3.79-32.69-3.25-38.59-14.11a13.93,13.93,0,0,1,.29-14.23c8.6-15,25.67-41.67,32.54-61.58a57.26,57.26,0,0,0,2.67-10.27c0.8-5.17.39-11.75-.75-19.11-4.13-27.61-18.31-65.4-18.16-73.22a455,455,0,0,1,7.43-71.2l-2-29.48a256.4,256.4,0,0,1-26.15-63.5c-4.47-17.12,8.28-102.19,8.28-102.19L572.73,497.9s107.87,0,106.58,268.36c0,0,11.58,130.87,10,202.79" transform="translate(-1)"/><path class="cls-7" d="M391.47,627.72s12.75,85,8.31,102.21a257.58,257.58,0,0,1-26.18,63.48l-2,29.46A458.55,458.55,0,0,1,379,894.09c0.12,7.72-13.65,44.46-18,72-1.24,7.84-1.7,14.93-.9,20.37a62,62,0,0,0,3.64,12.87c7.36,19.57,23.27,44.61,31.55,59a13.83,13.83,0,0,1,.78,13.26c-5.24,11.41-24.94,19-39.07,15.13-19.14-5.32-33.2-31-40.17-88.39-1-7.82-1.53-17.7-1.75-29.09-1.43-72.17,10-201.65,10-201.65-1.31-268.36,106.56-268.36,106.56-268.36Z" transform="translate(-1)"/><path class="cls-7" d="M503.28,373.86V663.37H345.89c-2.53-1.12-3.84-1.68-3.84-1.68,0-155.29,96.33-166.88,96.33-166.88,9.59,0,15.79-12.36,19.86-31.11,0.66-2.89,1.21-5.88,1.68-9.08,0.88-5.27,1.63-10.9,2.19-16.76,0.34-3.52.66-7.06,1-10.71,1.43-17.78,1.87-37.08,1.87-55.42,0,0,21.2,2.11,38.3,2.11" transform="translate(-1)"/><path class="cls-8" d="M665.08,661.7s-1.43.53-3.74,1.65H503.28V373.86h0.34c17.12,0,38.39-2.09,38.39-2.09,0,18.19.46,37.3,1.87,55,0.34,3.52.7,7.09,1,10.49,0.66,6,1.31,11.78,2.21,17.22v0.12c0.29,2.4.75,4.62,1.19,6.83,4.08,20,10.47,33.44,20.42,33.44,0,0,96.36,11.58,96.36,166.88" transform="translate(-1)"/><g class="cls-9"><g class="cls-10"><path class="cls-11" d="M547.08,453.49v0.12a51,51,0,0,1-43.69,23.75h-0.22c-25.09-.1-39.68-18.33-43.44-23.65,0.87-5.32,1.65-11,2.19-16.8,0.36-3.55.68-7.07,1-10.73a172.45,172.45,0,0,0,39.83,5.2h0.44a164.1,164.1,0,0,0,40.72-5.63c0.31,3.54.63,7.09,1,10.51,0.63,6.07,1.29,11.85,2.19,17.24" transform="translate(-1)"/></g></g><path class="cls-12" d="M491.11,1679.62c0.78,3,1.36,5.49.7,7.48-2.48,7.63-5.78,9.18-5.44,10.25l2.23,16.63c2.4,8.57,3.84,15.64,2.77,19-1.34,4-9.11,12.14-9.11,12.14s3.84,40.31-12.67,53.64-52.26,20.23-87.15,6.82c-13.53-5.2-14.47-22-14.47-22s20.37-24.94,22.75-35.72c2.09-9.57,6.36-18.85,10.3-27.25v0l1.14-18.94a23,23,0,0,0,.83-11.9A85.7,85.7,0,0,1,411,1686a88.63,88.63,0,0,1,33.07-6.39h47Z" transform="translate(-1)"/><path class="cls-13" d="M491.35,1679.62c0.8,2.81,1.36,5.1.73,6.95-2.5,7.06-5.83,8.52-5.49,9.52l2.28,15.42c2.4,8,3.81,14.55,2.74,17.63-1.31,3.67-9.13,11.24-9.13,11.24s3.84,37.42-12.75,49.81-52.4,18.79-87.45,6.34,4.44-37.3,8.31-53.62c2.11-8.89,6.41-17.51,10.34-25.25v0l1.17-17.56a20,20,0,0,0,.83-11.08c2.62-1.26,5.34-2.4,8.06-3.42a95.88,95.88,0,0,1,33.2-5.92h47.16Z" transform="translate(-1)"/><path class="cls-12" d="M520.42,1697.35L518.19,1714c-2.4,8.6-3.81,15.69-2.75,19,1.29,4,9.06,12.12,9.06,12.12s-3.79,40.29,12.72,53.62,52.23,20.28,87.15,6.87c13.52-5.2,14.47-22,14.47-22s-20.42-25-22.75-35.75c-2.11-9.57-6.39-18.85-10.32-27.22v0l-7.43-18.48c-0.41-1.63,4.3-5.88,5.44-12.41a82.62,82.62,0,0,0-8-3.67,88.75,88.75,0,0,0-33.1-6.39s-41.87,16.66-42.23,17.73" transform="translate(-1)"/><path class="cls-13" d="M625.16,1796.5c-35,12.46-70.79,6-87.45-6.34S525,1740.38,525,1740.38s-7.82-7.58-9.11-11.27c-0.95-2.72.07-8.31,2.06-15.18l0-.17,3-17.73c0.37-1.17-1.7-3.79-3.3-9-0.68-2.31,1.26-4.39,2.6-7.38h38.22a94.73,94.73,0,0,1,38.2,7.94c2.6,1.12,5.1,2.38,7.55,3.67-1.55,4.27-3.28,6.92-3,8.09l6,19.59c3.76,7.43,7.72,15.59,9.69,24,3.89,16.27,43.4,41.14,8.31,53.57" transform="translate(-1)"/><path class="cls-14" d="M624.62,1268.16c-5.1,25.76-9.23,90.38-6.58,105.59,3.13,18.12,7.09,40.72,8.82,69,2.94,48.47-8.69,90.92-19,128.36-3.33,12.14-5.37,33.1-6.51,54.61-0.29,5.51,4.44,15.86,4.25,21.32-0.15,5.22-4.06,6-2.75,11.44,1.68,7-2.67,12.85-2.65,18.21,0,5.08,5.44,10.15,4.32,13.45-0.1.34-.22,0.68-0.36,1-1.58,4.27-3.28,6.92-3,8.09l6,19.57s-17.27,3.76-23.14,3.88c-16.71.24-66.13-8.84-66.13-8.84l0-.19,3-17.7c0.39-1.17-1.67-3.79-3.3-9-0.7-2.33,1.26-4.42,2.62-7.38a13.51,13.51,0,0,0,1.19-4.78c0.14-4.4-2.89-12.24-.9-18.63,1.41-4.57-.46-6-0.36-10.13,0.12-6.22,3.37-16.05,3.42-22.95,0.85-63.91.39-150.8-2.79-179.46-1.85-16-5.08-199.39-8.79-228.85-3.23-24.94-5.12-125.16-5.49-145-0.14-11.12-.29-20.59-0.39-27.42H505.9c-0.8,0-1.58,0-2.35,0h-0.17c-0.34,0-.73,0-1.24,0h-0.8c-0.07,6.87-.22,16.51-0.41,27.78-0.34,19.89-2.26,120.11-5.44,144.66-2.77,21.76-8,268.87-9.3,400.29,0,6.82-.1,13.33-0.15,19.5,0,1.85,2.14,7.09,4.27,13.48s-1.09,13.48-1.09,19.67c0,4.66,1.22,8.6,2.14,11.85,0.8,2.79,1.36,5.08.7,6.92-2.48,7.09-5.8,8.52-5.46,9.52l2.26,15.44s-44.63,11.22-59.86,11.27c-7.14,0-28-5.15-28-5.15v0l1.17-17.58a19.88,19.88,0,0,0,.83-11.05c-0.1-.48-0.19-0.94-0.32-1.46-0.85-3.45,4.62-13.84,4.57-19.38,0-6-3.5-9.32-1.82-18a60.48,60.48,0,0,0,1.29-12.34c-0.27-6.58-.58-13.28-1-19.79-1.19-18.7-3.16-36.18-6.07-46.87-10.27-37.45-21.88-79.89-18.94-128.36,1.73-28.32,5.66-50.87,8.79-69,2.65-15.2-1.48-79.87-6.58-105.64-4-20.18-8.11-41-11-62-5.51-40-15.76-142.5-11.1-190.58l-0.1-.07,0.27-2.31s0.22-1.65.29-2c4.05-26.71,8-44.66,9.91-52.94,0.24-.9.39-1.55,0.46-1.92,0-2.45.37-17.29,4.06-27.3l0.41-1c1.55-4.54,5.27-16.37,9.67-30.72l0.22-.78c0.32-.9.61-1.82,0.9-2.7l0.41-1.31,1.68-.53,0.29,0c0.17,0,.39,0,0.58,0a85.61,85.61,0,0,1,11.61-.71H619.86l1.87,6.07c4.4,14.47,8.09,26.27,9.69,30.79l0.36,0.94c3.72,10,4,24.82,4.06,27.32,0.07,0.36.22,1,.49,1.92,1.55,6.73,4.71,21.13,8.26,42.47,0.65,3.91,1.29,8.09,2,12.53l0.34,2.24-0.22.07c4.66,48.08-5.59,150.56-11.1,190.63-2.84,20.91-7,41.77-11,62" transform="translate(-1)"/><path class="cls-15" d="M618.74,493.75a552.25,552.25,0,0,1-58.09,66.17c-30.45,29.33-46.82,67.58-55.27,103.3-0.12-.36-0.24-0.83-0.34-1.16-1.17-5.34-2.7-10.56-4.32-15.88v-0.12c-9.28-30.48-25-61.44-50.51-86.14a550.52,550.52,0,0,1-60.86-69.74c8.14-9.42,16.46-18,23.65-23.53s12.65-10.34,16.8-14.16h0.1c8.6,2.45,17.19,4.66,25.74,6.27a240.78,240.78,0,0,0,51.7,5.32,234.14,234.14,0,0,0,41.87-4.64,265.82,265.82,0,0,0,26.15-6.34h0.14c4.18,3.72,9.42,8.09,16.34,13.55,8,6.24,17.61,16.44,26.88,27.1" transform="translate(-1)"/><path class="cls-16" d="M674.38,612.84a255.45,255.45,0,0,0-21.78-46.53,0.77,0.77,0,0,0-.1-0.22,145.1,145.1,0,0,0-21.59-33.27,112.38,112.38,0,0,0-26-22.17c-0.8,1.12-1.63,2.26-2.48,3.37-19.11-11.41-33.39-12.29-33.39-12.29L555.8,541.47c-1.8,1.26-3.67,2.57-5.66,3.88-7.67,17.61-18.67,37.32-31.76,53.16-8.82,10.71-13.57,24.62-16,37.57-2.43-12.94-7.19-26.86-16-37.57-13.33-16.08-24.45-36.13-32.1-54-0.46-.39-0.92-0.8-1.34-1.19L439,501.74s-0.88.07-2.4,0.29c-0.44-1.36-1-2.84-1.6-4.54h-0.24s-31.28,3.69-59,35.11c-10,11.22-19.52,26.13-27,45.63a266.79,266.79,0,0,0-15,34.6c-38.3,107.19-18.48,391.65-18.48,391.65l51.51-.32c-1.92-9.11-3-15.93-1.85-25.35s2.43-19.23,5.34-28.43c3.13-10,11.54-51.19,11.41-62,0-1.41,13.38-133.85,13.38-133.85s14.35,20.23,5,72.78c-2.77,15.35-14.5,60.32-14.5,61.07,0.1,8.74-6,18.12-7.45,26.81a162,162,0,0,1-6.95,28.53c-3.86,11-5.42,27.44-6.7,39-1.14,10-7.89,116.15-1.53,171.25,15.69,135.72,0,291,0,291l117.75,5.27L645.24,1445s-15-155.2,0-291c6.24-56.87,5.63-105.34,1.68-146.75,0,0-4.57-19.6-5.78-29.92-1.41-11.75-2.23-23.43-4.13-35.09-3.52-21.54-16.54-64.13-15.76-64.47-5.71-20.2-10.71-36.86-13.14-50.49-9.4-52.55,5-72.78,5-72.78l10.3,123.58c0.22,0.22,2.5,22.12,2.57,22.49,4.64,21.17,7.65,20.11,11.07,41.67,1.7,10.8,6.22,20.57,7.5,31.42,1.38,11.73-2.28,15.69-5.17,28.12l50.12,5.46S712.68,720,674.38,612.84" transform="translate(-1)"/><path class="cls-14" d="M493.73,664.49L389.82,610.6l39.39-51.21s-16.9-17.61-26.73-25.74c-4.54-3.74-15.91-2.91-26.69-1a233.54,233.54,0,0,0-24.23,5.56c1.53-2.21,19.26-27,37.81-48,8.11-9.42,16.46-18,23.65-23.53s12.63-10.34,16.8-14.16h0.1c3.84-3.45,6.87-6.26,9.62-8.69,5.59,2.31,15.59,5.51,21.15,7.24-0.22,2.89-1.12,5.42-1.36,8.45-0.46,4.88-17.12,41-15.25,52.57,1.26,8.6,4.86,19.94,10.18,32.47,7.67,17.82,18.82,37.91,32.15,54,8.79,10.69,13.55,24.62,16,37.59,1.87,9.74-8.62,28.39-8.62,28.39" transform="translate(-1)"/><path class="cls-14" d="M575.5,559.36l39.41,51.24L482.73,674.08l-2.57,1.36-2.4,1.43a26.69,26.69,0,0,1-.12-2.79c-0.22-4.52-1.26-7.92,0-19.26,0,0,.92-6.27.92-6.36,0.46-3.16.92-6.49,1.6-10,2.48-13,29.41-29.29,38.22-40,13.09-15.83,24.11-35.55,31.76-53.16,5.42-12.77,9.13-24.6,10.52-33.27,1.87-11.63-8.21-26.1-10.1-39.78-0.41-3.81-1.94-8-2.4-12.68-0.34-3-1-5.63-1.26-8.55,5.9-1.75,13.33-4.18,19.21-6.46,2.67,2.28,5.58,5.08,9.28,8.47h0.12c4.17,3.69,9.44,8.11,16.37,13.55,8,6.24,17.61,16.46,26.88,27.1,17.24,20.18,33.15,42.33,34.51,44.41-0.9-.22-11.07-3.25-22.34-5.34s-23.75-3.13-28.63.8c-9.86,8.14-26.78,25.74-26.78,25.74" transform="translate(-1)"/><line class="cls-17" x1="479.76" y1="652.05" x2="479.76" y2="1435.25"/><path class="cls-15" d="M519.57,725a9.41,9.41,0,1,1-9.42-9.4,9.43,9.43,0,0,1,9.42,9.4" transform="translate(-1)"/><path class="cls-15" d="M519.57,831.22a9.41,9.41,0,1,1-9.42-9.42,9.41,9.41,0,0,1,9.42,9.42" transform="translate(-1)"/><path class="cls-15" d="M519.57,934.28a9.41,9.41,0,1,1-9.42-9.42,9.41,9.41,0,0,1,9.42,9.42" transform="translate(-1)"/><path class="cls-15" d="M519.57,1056.48a9.41,9.41,0,1,1-9.42-9.4,9.43,9.43,0,0,1,9.42,9.4" transform="translate(-1)"/><path class="cls-14" d="M396.26,1071.53c-5.25,11.41-24.94,19-39.07,15.08-19.14-5.29-33.2-31-40.19-88.37-1-7.82-1.51-17.73-1.73-29.09a228.7,228.7,0,0,1,34.29-3.35c2,0,6.82,0,11.66.24-1.26,7.87-1.73,14.93-.92,20.4a63.87,63.87,0,0,0,3.64,12.85c4.2,20.23,21.13,51.82,30.77,68.7a18.49,18.49,0,0,1,1.55,3.55" transform="translate(-1)"/><path class="cls-14" d="M689.46,969.06c-0.22,10.9-.78,20.42-1.7,28-7,57.36-21.05,83.1-40.16,88.32-13.72,3.79-32.69-3.25-38.59-14.11a14.57,14.57,0,0,1,1.46-3.23c10.18-17.8,28.39-51.94,31.33-71.88a2.33,2.33,0,0,0,0-.7,57.52,57.52,0,0,0,2.67-10.27c0.78-5.17.39-11.75-.75-19.11,4.9-.19,9.76-0.27,11.85-0.27a228.24,228.24,0,0,1,33.85,3.28" transform="translate(-1)"/><path class="cls-18" d="M503.91,72.57c-155.17,0-156.07,129.87-149.15,214.89-10.64-20.15-42.13-13.94-39.53,17.8,2.48,30.6,46.94,46.38,46.36,42.86,12.7,69.94,85.7,110.35,142.33,110.35,0.41,0,.8-0.07,1.16-0.07V72.57h-1.16Z" transform="translate(-1)"/><path class="cls-11" d="M325.13,291.86c7.7-12.26,19.5-7,22.42-4.27,3.08,2.94,5.53,6.85,3.62,14.08-1.09,4.08-5.37,4.4-4.32,10.59,1.17,7,4.4,7.43,6.22,9s4.08,2.77,5.22,5.71a15.55,15.55,0,0,1,.7,8.79c-1.19,5-8.47,1-13.38-1.24-3.23-1.46-13.48-10.1-16.07-13-6.51-7.36-9.52-21.47-4.4-29.65" transform="translate(-1)"/><path class="cls-19" d="M504.68,72.57c155.17,0,156,129.87,149.15,214.89,10.61-20.15,42.11-13.94,39.53,17.8-2.5,30.6-46.94,46.38-46.36,42.86-12.7,69.94-85.72,110.35-142.33,110.35-0.39,0-.8-0.07-1.19-0.07V72.57h1.19Z" transform="translate(-1)"/><path class="cls-11" d="M683.46,291.86c-7.67-12.26-19.53-7-22.41-4.27-3.08,2.94-5.51,6.85-3.62,14.08,1.07,4.08,5.34,4.4,4.32,10.59-1.14,7-4.37,7.43-6.22,9s-4.08,2.77-5.24,5.71a16,16,0,0,0-.7,8.79c1.19,5,8.5,1,13.4-1.24,3.23-1.46,13.48-10.1,16-13,6.56-7.36,9.57-21.47,4.45-29.65" transform="translate(-1)"/><path class="cls-20" d="M502.57,109.19c-51,0-88.42,14.79-111,44.07-31.59,40.87-30.38,103.3-18.72,148.13,3.55,13.69,5.37,50.63,7.84,64.18,11,60.61,77.88,92.91,121.93,92.91,0.37,0,.8-0.07,1.19-0.07V109.22l-1.19,0" transform="translate(-1)"/><path class="cls-21" d="M613.38,153.34c-22.46-29.09-59.37-43.88-109.62-44.13V458.39c50.29-.53,110.39-35.89,120.71-92.81,2.43-13.55,4.27-50.49,7.84-64.16,11.61-44.73,12.72-107.07-18.94-148.08" transform="translate(-1)"/><path class="cls-14" d="M584.33,118.59c-8.4,38.76-82.05,74.84-121,86.11s-100.85,23.6-100.85,23.6,2,37.08,1.26,49.42c-1.07,18.55,6.43,36.91,6.43,36.91l-12.24-5.39S357.23,283,346,278.38c-17.22-7-44.78-39.8-36.6-73.68s33.73-80.6,44-102.14,43.25-60.88,70.91-68.09,81-19.48,113.84-4.08,75.91,36.89,75.91,36.89,19.48,5.15,34.87,19.5,37.13,66.08,37.13,142.47c0,11.41-3.74,39-18.38,47.18-18.41,10.17-18.41,26.44-18.41,26.44l-6.46,4.57s6.46-41.94,6.46-56.36c0-43.13-23.87-63-43.28-77.46-31.81-23.6-53.5-23.24-53.5-23.24Z" transform="translate(-1)"/><path class="cls-22" d="M481.91,298.53c0,17.53-25.91,35-56.34,35.72-0.61,0-1.31,0-2,0-2.55,0-5,0-7.31-.15-36.84-1.7-42-16.71-42-33.7,0-17.9-10.78-32.4,52.89-32.4,9.66,0,17.56.29,24.14,0.88,9,0.78,15.32,2,19.81,3.74,14.08,5.15,10.83,14.38,10.83,25.86" transform="translate(-1)"/><path class="cls-14" d="M493.39,273.72c-3.74-.58-12.75-2.87-21.9-4.66-8.11-1.58-16.39-2.67-21-3.18-11-1.09-39.17-1.85-56.63-.68-20.74,1.39-36.62,3.08-37.4,4.3-0.58.85-1.85,11.87-.17,13s7.53,3.59,9,7.5,7.16,32,20,39.73c21.13,12.65,92.06,13.23,104.3-33,1.7-6.29,3.91-10,7.7-11a25.65,25.65,0,0,1,6.9-.78V274.42a51.57,51.57,0,0,1-10.78-.7m-15,27.25c-11,36.21-64.5,32-77.39,29.12-5.71-1.24-22.29-5.93-25-35.36-1.85-20.47,11.58-21.69,30.57-23.43a212.4,212.4,0,0,1,38.44,0c9.3,0.85,30.94,4.15,33.07,9.76s2.72,12,.29,19.86" transform="translate(-1)"/><path class="cls-22" d="M633.19,300.48c0,18-5.85,33.85-49.32,33.85-1.82,0-3.67-.07-5.44-0.24a63.57,63.57,0,0,1-9.54-1.19c-24.45-4.52-43.34-19.43-43.34-34.34,0-17.92-7.89-30.5,54.76-30.5,9.32,0,17,.29,23.41.88,17,1.58,24.65,5,27.85,9.86,4,5.75,1.63,13.33,1.63,21.69" transform="translate(-1)"/><path class="cls-14" d="M502.79,274.39v10.66a28.21,28.21,0,0,1,6.92.75c3.81,1,6,4.73,7.67,11,12.24,46.14,83.22,45.61,104.32,32.9,12.82-7.67,18.58-35.79,20-39.73s7.28-6.24,8.93-7.46,0.41-12.24-.14-13.09c-0.8-1.19-16.68-2.89-37.4-4.27-17.51-1.19-45.58-.39-56.65.7-4.52.49-12.82,1.55-20.93,3.16-9.18,1.82-18.19,4.08-21.9,4.64a50.16,50.16,0,0,1-10.81.7m26,6.7c2.14-5.61,23.8-8.91,33.07-9.76a210.1,210.1,0,0,1,38.44,0c19,1.75,32.44,3,30.57,23.43-2.7,29.41-19.31,34.14-24.94,35.38-12.94,2.84-66.39,7.06-77.44-29.14-2.4-7.89-1.85-14.26.29-19.86" transform="translate(-1)"/><path class="cls-23" d="M431.49,407.79c14.74-12,18.65-27.59,31.4-31.57s39.66-3.4,39.66-3.4,6.7,10.32-8.57,14.93c-16.92,5.1-18.41,8.91-30.3,13.67s-32.18,6.36-32.18,6.36" transform="translate(-1)"/><path class="cls-23" d="M576.56,407.79c-14.74-12-18.65-27.59-31.37-31.57s-39.68-3.4-39.68-3.4-6.7,10.32,8.57,14.93c16.9,5.1,18.41,8.91,30.31,13.67s32.17,6.36,32.17,6.36" transform="translate(-1)"/><path class="cls-23" d="M536,431.44c-0.94,7.7-6,22-18,23.41a98.36,98.36,0,0,1-14.23.73h0a98.18,98.18,0,0,1-14.2-.73c-11.9-1.43-17-15.71-17.95-23.41,0,0-4,10.15-3.69,16.73,0.17,2.91,10,12,12.36,23.89,1.85,9.45,13.89,10.15,23.48,10.15h0c9.64,0,21.66-.7,23.53-10.15,2.31-11.85,12.19-21,12.34-23.89,0.34-6.58-3.67-16.73-3.67-16.73" transform="translate(-1)"/></g></svg>