<svg id="m6" xmlns="http://www.w3.org/2000/svg" xmlns:xlink="http://www.w3.org/1999/xlink" viewBox="0 0 1020.28 2588.03"><defs><style>.cls-1{fill:#988f76;}.cls-2{fill:none;}.cls-3{clip-path:url(#clip-path);}.cls-4{clip-path:url(#clip-path-2);}.cls-5{fill:url(#linear-gradient);}.cls-6{fill:#010101;}.cls-7{fill:#e1bd9a;}.cls-8{fill:#f0d2ad;}.cls-9{fill:#f9f9fa;}.cls-10{opacity:0.7;}.cls-11{clip-path:url(#clip-path-3);}.cls-12{fill:#bf9980;}.cls-13{fill:#d3a889;}.cls-14{fill:#deb79a;}.cls-15{fill:#e1be9b;}.cls-16{fill:#f1d1ad;}.cls-17{fill:#7c542d;}.cls-18{fill:#1b1c1c;}.cls-19{fill:#0e0f0f;}.cls-20{fill:#1d2351;}.cls-21{fill:#141314;}.cls-22{fill:#6c4828;}.cls-23{fill:#fffffd;}.cls-24{fill:#403c3a;}.cls-25{fill:#1c1918;}.cls-26{fill:#fff;}.cls-27{fill:#3c322d;}</style><clipPath id="clip-path" transform="translate(26.28 -6)"><path class="cls-1" d="M994,500c0,276.14-217.86,492-494,492S6,776.14,6,500,223.86,6,500,6,994,223.86,994,500Z"/></clipPath><clipPath id="clip-path-2" transform="translate(26.28 -6)"><path class="cls-2" d="M574.48,1509.74a15.94,15.94,0,0,0,3.23.48,89.87,89.87,0,0,0,12.85.41c3,0,4.59,0,4.59,0s-1.6-.1-4.59-0.24c-1.43-.07-3.25-0.14-5.44-0.27s-4.52-.61-7.24-0.92a19.66,19.66,0,0,1-3.4-.61v1.19Z"/></clipPath><linearGradient id="linear-gradient" x1="102.39" y1="717.69" x2="137.14" y2="717.69" gradientTransform="matrix(4.93, 0, 0, -4.93, -54.91, 5042.83)" gradientUnits="userSpaceOnUse"><stop offset="0" stop-color="#fff"/><stop offset="1" stop-color="#221a15"/></linearGradient><clipPath id="clip-path-3" transform="translate(26.28 -6)"><rect class="cls-2" x="440.83" y="651.14" width="122.23" height="72.3"/></clipPath></defs><title>m6-circle-avatar-1000x1000</title><path class="cls-1" d="M994,500c0,276.14-217.86,492-494,492S6,776.14,6,500,223.86,6,500,6,994,223.86,994,500Z" transform="translate(26.28 -6)"/><g class="cls-3"><g class="cls-4"><rect class="cls-5" x="600.76" y="1502.55" width="20.67" height="2.28"/></g><path class="cls-6" d="M592.28,1534.49v0Z" transform="translate(26.28 -6)"/><path class="cls-7" d="M495.41,1499.48c0,1.7,0,5.51-.12,11-0.1,9.76-.34,24.75-0.65,42.7-1.16,66.43-3.84,173.23-7.53,202.06-5.49,42.93-21.82,178.84-21.82,178.84s12.05,118.88,9.46,141.52c-7.28,65.64-8.8,129.89-8.8,129.89s-4.39,122.48-4.11,167.73a10.43,10.43,0,0,1,1.16,18.08c0.9,4.56,2.23,9.66,3.83,15,2.72,9.14,6.24,19.14,9.43,28.59,1.92,5.58,3.72,11,5.25,16.08,3.38,11.15,5.37,20.33,3.87,24.65-1.82,5.2-12.75,15.77-12.75,15.77s5.34,52.35-17.85,69.69c-23.34,17.3-73.39,26.31-122.43,8.91s6.19-52.25,11.63-75c3-12.44,8.94-24.51,14.48-35.39v-0.07c4.59-9,8.94-17.34,11-24.41a1.42,1.42,0,0,1,0-.17c1.46-5,2.36-12.27,3.06-20.29,1.6-19.07,1.72-42.32,3.28-49.05,14.82-63.43-49.75-164.6-42.08-290.55,4.49-73.67,19.73-120,18.3-147.74-2.39-48.14-21.38-116.74-30.59-184.35-8.92-64.73-22.08-206.62-15.14-268.9l-0.17,0c0.17-.92.27-1.9,0.41-2.79,6.07-39.94,11.88-65.51,13.85-73.87,0.46-2.07.73-3.06,0.73-3.06s0.07-22.85,5.48-37.43c0.14-.41.31-0.85,0.56-1.43,2.33-6.83,7.75-24.07,13.6-43.21,0.46-1.57,1-3.16,1.5-4.76,0.08-.3.19-0.68,0.29-1l0-.17a10.43,10.43,0,0,0,.27,1.05,92,92,0,0,0,12.49,29.51c9,13.63,23.3,21.42,37.15,28.93,9.08,5,17.65,9.62,23.73,15.5,9,8.7,25,34.07,37.26,56.77,6.05,11.22,11.23,21.69,14.23,29.27,1.29,3.27,2.38,5.95,3.14,7.92,5.08,12.54,9.25,20.87,24.54,24.13" transform="translate(26.28 -6)"/><path class="cls-8" d="M660.71,2495c5.39,22.84,60.72,57.62,11.63,75.06s-99.11,8.4-122.43-8.91-17.85-69.65-17.85-69.65-10.94-10.61-12.75-15.78c-1.36-3.91.1-11.66,2.89-21.31l0.07-.2c1.66-5.88,3.82-12.41,6.15-19.24,3.21-9.48,6.7-19.48,9.45-28.55,1.6-5.44,2.92-10.5,3.86-15.06a11,11,0,0,1-4.74-8.63,11.1,11.1,0,0,1,5.85-9.45c0.29-45.25-4.13-167.7-4.13-167.7s-1.49-64.28-8.77-129.89c-2.58-22.64,9.5-141.56,9.5-141.56s-16.4-135.91-21.82-178.88c-3.74-28.93-6.44-136.08-7.63-202.47-0.28-17.71-.49-32.5-0.6-42.16v0c-0.1-5.58-.1-9.42-0.1-11.12,15.28-3.26,19.46-11.59,24.54-24.17,0.77-1.9,1.8-4.62,3.09-7.85a307.11,307.11,0,0,1,14.28-29.3c12.26-22.71,28.3-48.1,37.24-56.77,6.07-5.91,14.62-10.57,23.78-15.5,13.82-7.51,28.13-15.3,37.14-28.93a92.64,92.64,0,0,0,12.46-29.54,0.17,0.17,0,0,0,.08-0.2,3.33,3.33,0,0,0,.17-0.78c0.63,2,1.24,4,1.83,5.88,5.85,19.14,11.29,36.37,13.61,43.24A12.24,12.24,0,0,1,678,1357c5.42,14.55,5.49,37.39,5.49,37.39s0.25,1,.73,3.06c1.75,7.31,6.34,27.67,11.52,59.15,1,5.47,1.86,11.32,2.75,17.47l-0.14.07c6.89,62.28-6.3,204.17-15.18,268.93-9.23,67.55-28.2,136.18-30.59,184.32-1.43,27.78,13.82,74.11,18.31,147.74,7.67,126-56.91,227.08-42.09,290.55,1.6,7.1,1.66,32.36,3.55,51.91A104.46,104.46,0,0,0,635.2,2435s0,0.17,0,.21c2.26,7.55,7,16.39,11.9,26.21,5.25,10.4,10.79,21.86,13.58,33.62" transform="translate(26.28 -6)"/><path class="cls-7" d="M501.79,578.53V983.81H281.43c-3.52-1.56-5.39-2.34-5.39-2.34,0-217.36,134.89-233.61,134.89-233.61,13.43,0,22.1-17.27,27.81-43.55,1-4,1.72-8.23,2.33-12.68,1.22-7.41,2.31-15.3,3.07-23.46,0.48-5,.94-9.93,1.4-15,2-24.85,2.64-51.91,2.64-77.54,0,0,29.66,2.92,53.61,2.92" transform="translate(26.28 -6)"/><path class="cls-8" d="M728.29,981.47s-2,.74-5.25,2.31H501.79V578.56h0.44c23.95,0,53.78-3,53.78-3,0,25.46.63,52.22,2.62,77,0.49,4.93.94,9.89,1.4,14.65,0.93,8.5,1.83,16.52,3.09,24.07v0.21c0.46,3.4,1.09,6.49,1.72,9.55,5.69,27.94,14.65,46.81,28.57,46.81,0,0,134.89,16.25,134.89,233.61" transform="translate(26.28 -6)"/><path class="cls-7" d="M502.16,761.93v748.66c-0.56,0-1.09,0-1.7,0-0.81,0-1.58,0-2.28,0h-2.89c-2.46-.07-3.79-0.07-3.79-0.07l0.36-.85c-1.72-.37-3.48-0.85-5.37-1.22-1.53-.65-3.19-1.46-4.86-2.21a40.57,40.57,0,0,1-4.68-3.54c-5.71-5.95-8.5-14.48-12.32-23-5.28-12.65-11.39-26.75-18.2-41.61-2.62-5.74-5.42-11.56-8.28-17.47-5.12-10.47-10.79-21.69-17.8-31.07-1-1.19-2-2.31-3.09-3.5-0.87-.71-2.13-1.87-3.21-2.72a86.37,86.37,0,0,0-7.58-5.13c-5.28-3.16-10.93-6-16.5-9-11.17-6.05-22.59-12.61-31-22.95a89.6,89.6,0,0,1-15.28-33.79,0.32,0.32,0,0,1-.07-0.24,43.34,43.34,0,0,1-.9-4.62c0-.34-0.1-0.58-0.14-0.88a72.13,72.13,0,0,1,.63-29.51c0.87-2.65,1.74-5.2,2.6-7.75s1.85-4.79,2.75-7.14c1.63-4.76,3-9.59,4.45-14.07,2.58-9,4.91-17.44,6.9-24.85a134.25,134.25,0,0,0,3-14.75l-0.07.17c-0.39-48.27-5.25-117.08-5.25-117.08-10.66-20.77-25.31-66.73-33.87-95.22-4.39-14.52-7.24-24.51-7.24-24.51s0.7-5.75,2-15.3c4.72-34,17.41-116.74,35.54-160.66,8.34-20.4,28.67-30.09,51.16-34.23,39.79-7.24,86.43,3,86.43,3,3.62-1.09,7.17-1.9,10.55-2.72" transform="translate(26.28 -6)"/><path class="cls-8" d="M639.85,1195.4c0,3,0,6.08-.1,9,1.33,5.23,3,11.59,4.88,18.76,2,7.41,4.35,15.74,6.92,24.85,1.4,4.52,2.79,9.28,4.46,14.07,0.92,2.35,1.82,4.72,2.72,7.1,0.87,2.58,1.77,5.17,2.62,7.78a72.66,72.66,0,0,1,.65,29.44,3,3,0,0,1-.1.78,0.26,0.26,0,0,1-.07.24c-0.21,1.56-.51,3.06-0.84,4.59a0.12,0.12,0,0,1-.07.1v0.07A91.42,91.42,0,0,1,645.6,1346c-8.43,10.3-19.88,16.86-31.05,22.95-5.58,3-11.17,5.81-16.47,9-2.64,1.6-5.18,3.37-7.55,5.1-1.12.92-2.39,2-3.28,2.79-1,1.16-2.13,2.31-3.09,3.47-7,9.42-12.63,20.6-17.78,31.07-2.69,5.61-5.34,11.15-7.77,16.55-7,15.2-13.26,29.58-18.73,42.49-3.79,8.64-6.65,17.24-12.32,23.12a47.63,47.63,0,0,1-4.62,3.57c-1.72.72-3.31,1.53-4.91,2.18-1.92.34-3.69,0.92-5.44,1.26l0.46,1.05s-1.22,0-3.65,0h-0.9c-0.66,0-1.36,0-2.09.07-1.22,0-2.68,0-4.25-.07V761.93c19.8-4.66,35.74-4.89,48.56-2.38a217,217,0,0,1,35.64.64c26.67,2.79,52.42,12.13,62.21,35.69,20.16,48.85,29.53,145.36,31.68,170.11,0.31,3.81.47,5.85,0.47,5.85s-3.62,16.11-8.9,36.92c-7.21,28.08-17.65,64.9-26.84,82.88,0,0-4.11,57-5.12,103.68v0.07Z" transform="translate(26.28 -6)"/><path class="cls-9" d="M552,818.6l-49.8,93.69-0.07,7a0.23,0.23,0,0,1-.29,0l-0.07-7-49-92A73.44,73.44,0,0,1,459,813a62.33,62.33,0,0,1,88.08,0A47.31,47.31,0,0,1,552,818.6" transform="translate(26.28 -6)"/><g class="cls-10"><g class="cls-11"><path class="cls-12" d="M563.08,690v0.17A71.33,71.33,0,0,1,502,723.45h-0.29c-35.15-.14-55.55-25.7-60.85-33.11,1.26-7.45,2.31-15.37,3.11-23.52,0.44-5,.93-9.93,1.38-15A241.37,241.37,0,0,0,501,659h0.66a226,226,0,0,0,57-7.89c0.44,5,.94,10,1.4,14.75,0.93,8.5,1.83,16.56,3.06,24.14" transform="translate(26.28 -6)"/></g></g><path class="cls-13" d="M502.57,119.88c-232.64,0-233.92,194.75-223.62,322.2-15.91-30.22-63.11-20.9-59.25,26.72,3.72,45.82,70.42,69.49,69.49,64.15C308.25,637.88,417.7,698.43,502.57,698.43c0.6,0,1.19-.1,1.78-0.1V119.91c-0.6,0-1.19,0-1.78,0" transform="translate(26.28 -6)"/><path class="cls-12" d="M234.55,448.64c11.56-18.39,29.25-10.4,33.61-6.39,4.66,4.42,8.31,10.27,5.42,21.11-1.6,6.05-8,6.59-6.47,15.87,1.75,10.44,6.58,11.12,9.33,13.46s6.13,4.18,7.84,8.6a23,23,0,0,1,1,13.12c-1.73,7.55-12.7,1.53-20-1.8-4.85-2.18-20.19-15.16-24.1-19.51-9.78-11-14.3-32.23-6.61-44.47" transform="translate(26.28 -6)"/><path class="cls-14" d="M503.71,119.88c232.64,0,234,194.75,223.61,322.2,15.91-30.22,63.15-20.9,59.25,26.72-3.72,45.82-70.39,69.49-69.49,64.15-19,104.94-128.52,165.49-213.38,165.49-0.56,0-1.19-.1-1.79-0.1V119.91c0.6,0,1.23,0,1.79,0" transform="translate(26.28 -6)"/><path class="cls-12" d="M771.72,448.64c-11.49-18.39-29.25-10.4-33.6-6.39-4.62,4.42-8.28,10.27-5.42,21.11,1.63,6.05,8,6.59,6.47,15.87-1.7,10.44-6.54,11.12-9.33,13.46s-6.12,4.18-7.84,8.6a23.24,23.24,0,0,0-1,13.12c1.73,7.55,12.7,1.53,20.05-1.8,4.83-2.18,20.18-15.16,24.09-19.51,9.74-11,14.23-32.23,6.58-44.47" transform="translate(26.28 -6)"/><path class="cls-15" d="M500.56,174.77C424,174.77,368,197,334.07,240.89c-47.35,61.26-45.54,154.91-28,222.06,5.28,20.53,8,75.87,11.73,96.2,16.5,90.9,116.75,139.28,182.79,139.28,0.56,0,1.19-.1,1.79-0.1V174.84c-0.63,0-1.19-.07-1.79-0.07" transform="translate(26.28 -6)"/><path class="cls-16" d="M666.68,241c-33.67-43.62-89-65.78-164.35-66.12V698.36c75.37-.81,165.49-53.88,180.94-139.17,3.7-20.33,6.44-75.71,11.78-96.24,17.44-67,19.1-160.46-28.37-222" transform="translate(26.28 -6)"/><path class="cls-17" d="M623.13,188.92C610.52,247,500.1,301.17,441.7,318s-151.19,35.35-151.19,35.35,3,55.58,1.92,74.11c-1.6,27.81,9.6,55.34,9.6,55.34l-18.31-8.16s-1.09-39.4-17.83-46.2C240.11,418,198.79,368.75,211.08,318s50.5-120.85,65.86-153.15,64.81-91.28,106.3-102.05,121.46-29.2,170.64-6.15,113.8,55.38,113.8,55.38S696.9,119.7,720,141.22s55.63,99.06,55.63,213.62c0,17.06-5.54,58.5-27.54,70.68-27.6,15.3-27.6,39.7-27.6,39.7l-9.67,6.8s9.67-62.89,9.67-84.48c0-64.69-35.78-94.5-64.84-116.12C607.95,236,575.4,236.58,575.4,236.58Z" transform="translate(26.28 -6)"/><path class="cls-17" d="M503.11,600.42c-2.4,34.37-61.89,31.21-92.87,31.21,15.48-15.43,55.87-50.28,86.82-50.28,0,0,6.44,14.14,6.05,19.07" transform="translate(26.28 -6)"/><path class="cls-17" d="M498.74,600.42c2.45,34.37,61.9,31.21,92.87,31.21-15.49-15.43-55.87-50.28-86.82-50.28,0,0-6.42,14.14-6.05,19.07" transform="translate(26.28 -6)"/><path class="cls-8" d="M598.48,753.19s151,0,149.17,375.64c0,0,21.47,242.75,11.66,323S729.79,1568.15,703,1575.59s-67.89-14.82-53.58-39.74,45.11-72.71,49.26-100.55c5.15-34.44-26.7-115.41-26.45-129.21,0.87-51.74,10.4-99.71,10.4-99.71l-2.89-41.27s-23.22-37.53-36.58-88.9c-6.24-24,11.59-143,11.59-143Z" transform="translate(26.28 -6)"/><path class="cls-7" d="M401,754.89s-151,0-149.2,375.67c0,0-21.4,242.79-11.59,323s29.49,116.3,56.29,123.71,67.87-14.79,53.61-39.7-45.16-72.75-49.29-100.59c-5.12-34.44,26.69-115.38,26.45-129.21-0.87-51.71-10.37-99.71-10.37-99.71l2.85-41.3s23.22-37.5,36.58-88.86c6.27-24-11.59-143-11.59-143Z" transform="translate(26.28 -6)"/><path class="cls-18" d="M484.09,2407.57c1.12,4.22,1.92,7.68,1,10.44-3.48,10.68-8.12,12.89-7.63,14.38l3.13,23.29c3.35,12,5.34,21.89,3.84,26.55-1.82,5.54-12.72,17-12.72,17s5.35,56.43-17.78,75.1-73.11,28.31-122,9.55c-18.9-7.28-20.26-30.84-20.26-30.84s28.59-34.91,31.89-50c2.92-13.46,8.92-26.45,14.41-38.14v0l1.6-26.52a32.39,32.39,0,0,0,1.19-16.69,105.84,105.84,0,0,1,11.25-5.17,124.31,124.31,0,0,1,46.33-8.94h65.75Z" transform="translate(26.28 -6)"/><path class="cls-19" d="M484.43,2407.57c1.1,3.91,2,7.14,1,9.69-3.48,9.92-8.14,12-7.65,13.36l3.16,21.59c3.38,11.15,5.35,20.36,3.86,24.68C483,2482,472,2492.63,472,2492.63s5.35,52.39-17.83,69.69c-23.35,17.3-73.38,26.31-122.43,8.91s6.2-52.22,11.63-75.06c2.92-12.44,9-24.48,14.48-35.39v-0.07l1.61-24.58a27.87,27.87,0,0,0,1.14-15.47A117.71,117.71,0,0,1,372,2415.9a133.18,133.18,0,0,1,46.44-8.33h66Z" transform="translate(26.28 -6)"/><path class="cls-18" d="M525.39,2432.39l-3.13,23.25c-3.38,12.07-5.35,21.93-3.86,26.62,1.84,5.51,12.73,16.93,12.73,16.93s-5.35,56.43,17.8,75.13,73.11,28.35,122,9.59c18.93-7.28,20.26-30.87,20.26-30.87s-28.54-34.91-31.85-50c-3-13.39-8.91-26.38-14.41-38.07v-0.07l-1.6-26.52a32.45,32.45,0,0,1-1.19-16.73c-3.69-1.87-7.41-3.64-11.27-5.13a124.07,124.07,0,0,0-46.3-8.94s-58.66,23.32-59.15,24.82" transform="translate(26.28 -6)"/><path class="cls-19" d="M671.77,2571.22c-49.05,17.41-99.11,8.4-122.43-8.91s-17.86-69.65-17.86-69.65-10.9-10.61-12.75-15.78c-1.34-3.87.12-11.66,2.89-21.31l0.05-.2,4.13-24.78c0.53-1.63-2.36-5.34-4.59-12.68-1-3.26,1.73-6.15,3.62-10.34h53.51a132.87,132.87,0,0,1,53.49,11.15q5.43,2.35,10.56,5.1c-2.19,6-4.59,9.69-4.18,11.29l8.37,27.43c5.25,10.4,10.79,21.86,13.58,33.62,5.39,22.84,60.7,57.62,11.63,75.06" transform="translate(26.28 -6)"/><path class="cls-6" d="M671,1831.57c-7.14,36.07-13,126.49-9.23,147.84,4.4,25.36,9.92,56.94,12.32,96.65,4.11,67.82-12.17,127.27-26.52,179.69-4.68,16.93-7.52,46.3-9.13,76.38-0.41,7.75,6.24,22.23,6,29.88-0.22,7.35-5.67,8.47-3.87,16,2.36,9.89-3.76,17.95-3.69,25.53,0,7,7.63,14.17,6.05,18.8-0.17.51-.34,1-0.54,1.46-2.19,6-4.61,9.69-4.18,11.29l8.38,27.43s-24.19,5.27-32.36,5.44c-23.39.34-92.6-12.37-92.6-12.37l0.07-.24,4.11-24.82c0.56-1.6-2.36-5.31-4.59-12.61-1-3.3,1.73-6.19,3.66-10.4a18.18,18.18,0,0,0,1.63-6.67c0.2-6.19-4-17.13-1.23-26,2-6.46-.66-8.5-0.56-14.18,0.19-8.74,4.74-22.47,4.85-32.16,1.19-89.44.56-211.07-3.9-251.19-2.58-22.4-7.1-279.16-12.32-320.4-4.54-34.91-7.21-175.17-7.67-202.95-0.24-15.53-.44-28.83-0.56-38.41h-0.31c-1.12,0-2.19,0-3.35,0h-0.2c-0.49,0-1,0-1.7,0h-1.12c-0.14,9.65-.34,23.15-0.6,39-0.51,27.78-3.16,168.1-7.61,202.47-3.86,30.46-11.22,376.42-13,560.4-0.07,9.55-.17,18.66-0.2,27.29,0,2.55,3,9.89,6,18.84s-1.57,18.9-1.57,27.57c0,6.46,1.7,12,3,16.52,1.1,3.94,1.92,7.14,1,9.72-3.48,9.92-8.14,12-7.65,13.36l3.13,21.59s-62.48,15.7-83.83,15.77c-9.95,0-39.23-7.21-39.23-7.21v0l1.62-24.61a28.09,28.09,0,0,0,1.17-15.47c-0.1-.64-0.24-1.36-0.41-2-1.19-4.83,6.43-19.38,6.36-27.16,0-8.29-4.86-13-2.57-25.15a84.92,84.92,0,0,0,1.83-17.27c-0.37-9.21-.83-18.6-1.46-27.71-1.63-26.18-4.42-50.65-8.45-65.58-14.38-52.42-30.68-111.88-26.56-179.69,2.43-39.7,7.94-71.25,12.35-96.65,3.69-21.35-2.09-111.81-9.23-147.87-5.56-28.25-11.37-57.45-15.35-86.86-7.68-56-22.06-199.45-15.52-266.79l-0.17-.1,0.37-3.2s0.36-2.31.42-2.79c5.68-37.43,11.14-62.52,13.89-74.11,0.34-1.26.56-2.18,0.66-2.65,0-3.47.48-24.2,5.68-38.21l0.54-1.46c2.19-6.36,7.38-22.88,13.55-43l0.31-1.12c0.42-1.26.81-2.55,1.22-3.77l0.63-1.8,2.33-.75,0.39-.07c0.27,0,.51-0.07.8-0.07a120.86,120.86,0,0,1,16.28-1H664.31l2.65,8.53c6.15,20.26,11.34,36.78,13.53,43.11l0.53,1.33c5.22,14.07,5.64,34.74,5.71,38.28,0.1,0.48.31,1.4,0.63,2.65,2.19,9.42,6.65,29.61,11.59,59.46,0.9,5.51,1.8,11.32,2.7,17.54l0.49,3.09-0.31.1c6.58,67.34-7.77,210.8-15.5,266.82-4,29.37-9.74,58.58-15.32,86.86" transform="translate(26.28 -6)"/><polygon class="cls-20" points="507.6 813.25 527.2 786.15 546.83 813.25 566.5 1046.28 527.2 1089.79 487.94 1046.28 507.6 813.25"/><path class="cls-21" d="M508.75,2146.12l-7.31-179.83,4.15-195.4-4.15-820.53-0.14-30.12-0.07-7-49-91.92-38.8-72.85S300.59,754.28,247,904.4s-219.79,559.48-81.91,646.07c29.9,18.76,140.28-74.41,157-89.51,0-.27-8.3-29.88-1.33-52.66,6.58-21.55,7.06-67.14,8.21-67.34l19.94-238.27s20.09,28.32,6.9,101.88c-5.22,29.2-19.26,76.08-29.24,135.33,0.94,0.31-23.91,113.24-25.17,139.65-8.14,85.29-35,659.42-35,659.42Z" transform="translate(26.28 -6)"/><path class="cls-21" d="M756,904.4c-53.61-150.08-166.61-156-166.61-156l-37.9,71.22-49.82,93.69-0.07,7-0.1,30.05-4.18,820.6,4.18,195.37-6.58,180.1L736.57,2139s-23.91-550.1-32.23-646c-0.85-25.56-30.92-154.13-29.62-154.2-10.13-60-22.35-104.81-27.6-134.25C634,1131,654,1102.66,654,1102.66s21.45,250.51,21.31,254.55l0.2,2.21c-0.1-.44-0.14-0.88-0.24-1.33-0.36,10.57-.6,21.38,1.63,31.31,2.36,10.34,5.88,20.36,8.77,30.53,6.71,23.66-5.22,46.2-5.51,46.84,16.74,24.1,98.31,121.67,124.56,110.21,154.59-67.24,4.85-522.5-48.76-672.58" transform="translate(26.28 -6)"/><path class="cls-20" d="M521.86,813.06a20.92,20.92,0,1,1-20.92-20.91,20.89,20.89,0,0,1,20.92,20.91" transform="translate(26.28 -6)"/><path class="cls-9" d="M590.22,750.41c-3.52-9-12-17.51-15.08-24.68-5.15-11.93-9.86-22.5-9.86-22.5-1.14,11.42-18.76,62-18.76,62S491.31,791.74,500,793.61s49.65,53.47,61.28,67.17c11.8,13.63,9.84,26.34,12.87,7.92s25.48-94.13,16.1-118.3" transform="translate(26.28 -6)"/><path class="cls-9" d="M456.32,765.23s-17.62-50.62-18.73-62c0,0-4.71,10.54-9.86,22.47-3.09,7.17-11.63,15.64-15.15,24.65-9.36,24.2,13.05,99.84,16.1,118.33s1.1,5.74,12.8-7.92S491.3,795.52,500,793.61s-43.65-28.39-43.65-28.39" transform="translate(26.28 -6)"/><path class="cls-17" d="M-24.72,1859.07c1.89,5.78,21.55,10.94,21.55,10.94l54.38-107.15s-15.67-12.2-21.55-11c-29.4,6.29-63.69,78.63-54.37,107.18" transform="translate(26.28 -6)"/><path class="cls-17" d="M170.63,1958.17s15.65,12.17,21.59,10.91c29.37-6.26,63.65-78.6,54.33-107.12-1.87-5.74-21.54-11-21.54-11Z" transform="translate(26.28 -6)"/><polygon class="cls-17" points="196.91 1952.17 24.55 1864.73 78.9 1757.58 251.28 1844.98 196.91 1952.17"/><rect class="cls-22" x="-39.13" y="1805.15" width="126.97" height="21.3" transform="translate(-1580.35 1011.3) rotate(-63.15)"/><polygon class="cls-22" points="57.17 1884.28 38.14 1874.59 95.57 1761.39 114.61 1771.08 57.17 1884.28"/><polygon class="cls-22" points="179.47 1946.32 160.43 1936.66 217.87 1823.46 236.92 1833.08 179.47 1946.32"/><polygon class="cls-22" points="205.2 1959.37 186.16 1949.75 243.6 1836.48 262.64 1846.14 205.2 1959.37"/><path class="cls-17" d="M131,1857.17A15.64,15.64,0,1,1,103.15,1843l157.6-310.71a15.64,15.64,0,1,1,27.88,14.17Z" transform="translate(26.28 -6)"/><polygon class="cls-22" points="185.01 1810.51 145.88 1790.69 155.88 1770.94 195 1790.83 185.01 1810.51"/><polygon class="cls-22" points="199.63 1775.12 165.79 1757.95 174.45 1740.92 208.26 1758.09 199.63 1775.12"/><path class="cls-23" d="M597.09,410.34c26.5,0,49.63,7.58,62,18.84-12.39,11.26-35.52,18.84-62,18.84s-49.64-7.58-62-18.84C547.46,417.92,570.58,410.34,597.09,410.34Z" transform="translate(26.28 -6)"/><path class="cls-24" d="M616.23,429.19a19.14,19.14,0,1,0-19.14,19.14A19.15,19.15,0,0,0,616.23,429.19Z" transform="translate(26.28 -6)"/><path class="cls-25" d="M606.5,429.19a9.4,9.4,0,1,0-9.4,9.4A9.41,9.41,0,0,0,606.5,429.19Z" transform="translate(26.28 -6)"/><circle class="cls-26" cx="617.03" cy="412.86" r="5.52"/><path class="cls-2" d="M597.09,410.34c26.5,0,49.63,7.58,62,18.84h-124C547.46,417.92,570.58,410.34,597.09,410.34Z" transform="translate(26.28 -6)"/><path class="cls-27" d="M659.11,429.18c-12.39-11.26-35.52-18.84-62-18.84s-49.64,7.58-62,18.84h-2.3a0.82,0.82,0,0,1,.31-0.61c13.2-12,37.72-19.44,64-19.44s50.81,7.45,64,19.44a0.82,0.82,0,0,1,.31.61h-2.29Z" transform="translate(26.28 -6)"/><path class="cls-23" d="M420.43,410.34c-26.51,0-49.63,7.58-62,18.84,12.38,11.26,35.51,18.84,62,18.84s49.63-7.58,62-18.84C470.06,417.92,446.93,410.34,420.43,410.34Z" transform="translate(26.28 -6)"/><path class="cls-24" d="M401.28,429.19a19.14,19.14,0,1,1,19.14,19.14A19.15,19.15,0,0,1,401.28,429.19Z" transform="translate(26.28 -6)"/><path class="cls-25" d="M411,429.19a9.4,9.4,0,1,1,9.4,9.4A9.41,9.41,0,0,1,411,429.19Z" transform="translate(26.28 -6)"/><path class="cls-26" d="M421.26,418.86a5.52,5.52,0,1,1,5.52,5.52A5.52,5.52,0,0,1,421.26,418.86Z" transform="translate(26.28 -6)"/><path class="cls-2" d="M420.43,410.34c-26.51,0-49.63,7.58-62,18.84h124C470.06,417.92,446.93,410.34,420.43,410.34Z" transform="translate(26.28 -6)"/><path class="cls-27" d="M358.41,429.18c12.38-11.26,35.51-18.84,62-18.84s49.63,7.58,62,18.84h2.3a0.83,0.83,0,0,0-.31-0.61c-13.2-12-37.73-19.44-64-19.44s-50.81,7.45-64,19.44a0.8,0.8,0,0,0-.31.61h2.3Z" transform="translate(26.28 -6)"/></g></svg>