<svg id="m6" xmlns="http://www.w3.org/2000/svg" xmlns:xlink="http://www.w3.org/1999/xlink" viewBox="0 0 999 1704.53"><defs><style>.cls-1{fill:#988f76;}.cls-2{fill:none;}.cls-3{clip-path:url(#clip-path);}.cls-4{clip-path:url(#clip-path-2);}.cls-5{fill:url(#linear-gradient);}.cls-6{fill:#010101;}.cls-7{fill:#e1bd9a;}.cls-8{fill:#f0d2ad;}.cls-9{fill:#f9f9fa;}.cls-10{opacity:0.7;}.cls-11{clip-path:url(#clip-path-3);}.cls-12{fill:#bf9980;}.cls-13{fill:#d3a889;}.cls-14{fill:#deb79a;}.cls-15{fill:#e1be9b;}.cls-16{fill:#f1d1ad;}.cls-17{fill:#7c542d;}.cls-18{fill:#1b1c1c;}.cls-19{fill:#0e0f0f;}.cls-20{fill:#1d2351;}.cls-21{fill:#141314;}.cls-22{fill:#6c4828;}.cls-23{fill:#fffffd;}.cls-24{fill:#403c3a;}.cls-25{fill:#1c1918;}.cls-26{fill:#fff;}.cls-27{fill:#3c322d;}</style><clipPath id="clip-path" transform="translate(-1)"><polygon class="cls-1" points="1000 1001.25 1 1000 1 0 1000 0 1000 1001.25"/></clipPath><clipPath id="clip-path-2" transform="translate(-1)"><path class="cls-2" d="M553.18,989.08a10.52,10.52,0,0,0,2.13.31,59.3,59.3,0,0,0,8.48.27l3,0s-1.05-.07-3-0.16c-0.94,0-2.14-.09-3.59-0.18s-3-.4-4.78-0.61a13,13,0,0,1-2.24-.4v0.78Z"/></clipPath><linearGradient id="linear-gradient" x1="108.47" y1="823.27" x2="131.4" y2="823.27" gradientTransform="matrix(4.93, 0, 0, -4.93, -82.19, 5048.83)" gradientUnits="userSpaceOnUse"><stop offset="0" stop-color="#fff"/><stop offset="1" stop-color="#221a15"/></linearGradient><clipPath id="clip-path-3" transform="translate(-1)"><rect class="cls-2" x="464.99" y="422.55" width="80.65" height="47.71"/></clipPath></defs><title>m6-square-avatar-1000x1000</title><polygon class="cls-1" points="999 1001.25 0 1000 0 0 999 0 999 1001.25"/><g class="cls-3"><g class="cls-4"><rect class="cls-5" x="552.18" y="988.3" width="13.64" height="1.5"/></g><path class="cls-6" d="M564.92,1005.41v0Z" transform="translate(-1)"/><path class="cls-7" d="M501,982.31c0,1.12,0,3.63-.08,7.29-0.07,6.44-.23,16.33-0.43,28.17-0.76,43.83-2.53,114.31-5,133.33-3.62,28.33-14.4,118-14.4,118s8,78.44,6.25,93.38c-4.8,43.31-5.81,85.71-5.81,85.71s-2.89,80.82-2.71,110.67a6.88,6.88,0,0,1,.76,11.93c0.59,3,1.47,6.37,2.52,9.92,1.79,6,4.12,12.63,6.22,18.86,1.27,3.68,2.46,7.29,3.47,10.61,2.23,7.36,3.54,13.41,2.56,16.26-1.2,3.43-8.41,10.41-8.41,10.41s3.52,34.54-11.78,46-48.43,17.36-80.78,5.88,4.08-34.48,7.67-49.51c2-8.21,5.9-16.17,9.56-23.35v0c3-6,5.9-11.44,7.26-16.11a0.94,0.94,0,0,1,0-.11,76,76,0,0,0,2-13.39c1.05-12.58,1.13-27.93,2.16-32.37,9.78-41.85-32.83-108.61-27.77-191.71,3-48.61,13-79.16,12.08-97.49-1.58-31.76-14.11-77-20.19-121.64-5.89-42.71-14.57-136.33-10-177.43l-0.11,0c0.11-.6.18-1.26,0.27-1.84,4-26.35,7.84-43.22,9.14-48.74,0.3-1.37.48-2,.48-2s0-15.07,3.61-24.7c0.09-.27.2-0.56,0.37-0.94,1.54-4.51,5.11-15.88,9-28.51,0.3-1,.63-2.09,1-3.14,0.06-.2.12-0.45,0.19-0.65l0-.11a6.88,6.88,0,0,0,.18.7,60.71,60.71,0,0,0,8.24,19.47c5.93,9,15.38,14.13,24.51,19.09,6,3.28,11.64,6.35,15.66,10.23,5.91,5.74,16.48,22.48,24.58,37.46a198.94,198.94,0,0,1,9.39,19.31c0.85,2.15,1.57,3.93,2.07,5.23,3.35,8.28,6.1,13.77,16.2,15.92" transform="translate(-1)"/><path class="cls-8" d="M610.08,1639.2c3.56,15.07,40.06,38,7.67,49.53s-65.4,5.54-80.78-5.88-11.78-46-11.78-46-7.22-7-8.41-10.41c-0.9-2.58.07-7.69,1.91-14.06l0-.13c1.1-3.88,2.52-8.19,4.06-12.7,2.12-6.26,4.42-12.85,6.24-18.84,1.05-3.59,1.93-6.93,2.55-9.94a7.25,7.25,0,0,1-3.13-5.7,7.33,7.33,0,0,1,3.86-6.24c0.19-29.86-2.73-110.65-2.73-110.65s-1-42.42-5.79-85.71c-1.7-14.94,6.27-93.4,6.27-93.4s-10.82-89.68-14.4-118c-2.47-19.09-4.25-89.79-5-133.6-0.18-11.69-.33-21.44-0.39-27.82v0c-0.07-3.68-.07-6.22-0.07-7.34,10.08-2.15,12.84-7.65,16.2-15.95,0.51-1.26,1.19-3.05,2-5.18a202.64,202.64,0,0,1,9.42-19.34c8.09-15,18.67-31.74,24.57-37.46,4-3.9,9.64-7,15.69-10.23,9.12-5,18.56-10.09,24.51-19.09a61.13,61.13,0,0,0,8.22-19.49,0.11,0.11,0,0,0,.05-0.13,2.19,2.19,0,0,0,.11-0.52c0.42,1.3.82,2.63,1.21,3.88,3.86,12.63,7.45,24,9,28.53a8.07,8.07,0,0,1,.35.94c3.58,9.6,3.62,24.67,3.62,24.67s0.17,0.67.48,2c1.16,4.82,4.18,18.26,7.6,39,0.63,3.61,1.22,7.47,1.82,11.53l-0.09,0c4.54,41.09-4.16,134.72-10,177.45-6.09,44.57-18.61,89.86-20.19,121.62-0.94,18.33,9.12,48.9,12.08,97.49,5.06,83.13-37.55,149.84-27.77,191.71,1.05,4.69,1.1,21.35,2.34,34.25a68.93,68.93,0,0,0,1.84,11.48s0,0.11,0,.14c1.49,5,4.61,10.81,7.85,17.29,3.47,6.87,7.12,14.42,9,22.19" transform="translate(-1)"/><path class="cls-7" d="M505.21,374.64V642.06H359.82c-2.32-1-3.56-1.55-3.56-1.55,0-143.42,89-154.15,89-154.15,8.86,0,14.58-11.39,18.35-28.73,0.63-2.67,1.13-5.43,1.54-8.37,0.81-4.89,1.53-10.09,2-15.48,0.31-3.28.62-6.55,0.92-9.92,1.32-16.4,1.74-34.25,1.74-51.16,0,0,19.57,1.93,35.37,1.93" transform="translate(-1)"/><path class="cls-8" d="M654.67,640.51s-1.33.49-3.46,1.53h-146V374.66h0.29c15.8,0,35.49-2,35.49-2,0,16.8.42,34.45,1.73,50.78,0.33,3.25.62,6.53,0.92,9.67,0.62,5.61,1.21,10.9,2,15.88v0.14c0.3,2.24.72,4.28,1.13,6.3,3.76,18.44,9.67,30.89,18.85,30.89,0,0,89,10.72,89,154.15" transform="translate(-1)"/><path class="cls-7" d="M505.46,495.65v494c-0.37,0-.72,0-1.12,0s-1,0-1.5,0h-1.91c-1.63,0-2.5,0-2.5,0l0.23-.56c-1.13-.25-2.3-0.56-3.54-0.81-1-.43-2.11-1-3.21-1.46a26.77,26.77,0,0,1-3.08-2.33c-3.77-3.93-5.61-9.56-8.13-15.21-3.49-8.34-7.51-17.65-12-27.46-1.73-3.79-3.58-7.63-5.46-11.53-3.38-6.91-7.12-14.31-11.74-20.5-0.64-.79-1.33-1.53-2-2.31-0.57-.47-1.4-1.23-2.12-1.79a57,57,0,0,0-5-3.39c-3.49-2.09-7.21-4-10.89-5.94-7.37-4-14.9-8.32-20.47-15.14a59.12,59.12,0,0,1-10.08-22.3,0.21,0.21,0,0,1,0-.16,28.6,28.6,0,0,1-.59-3.05c0-.23-0.07-0.38-0.09-0.58a47.59,47.59,0,0,1,.41-19.47c0.57-1.75,1.15-3.43,1.72-5.11s1.22-3.16,1.82-4.71c1.07-3.14,2-6.33,2.94-9.29,1.7-6,3.24-11.51,4.55-16.4a88.58,88.58,0,0,0,2-9.73l0,0.11c-0.26-31.85-3.47-77.25-3.47-77.25-7-13.71-16.7-44-22.35-62.83-2.89-9.58-4.78-16.17-4.78-16.17s0.46-3.79,1.31-10.1c3.12-22.43,11.48-77,23.45-106,5.51-13.46,18.92-19.85,33.76-22.59,26.26-4.78,57,2,57,2,2.39-.72,4.73-1.25,7-1.79" transform="translate(-1)"/><path class="cls-8" d="M596.31,781.67c0,2,0,4-.07,5.94,0.88,3.45,2,7.65,3.22,12.38,1.3,4.89,2.87,10.39,4.56,16.4,0.92,3,1.84,6.12,2.94,9.29,0.6,1.55,1.2,3.12,1.79,4.69s1.17,3.41,1.73,5.14a48,48,0,0,1,.43,19.43,2,2,0,0,1-.07.52,0.17,0.17,0,0,1,0,.16c-0.14,1-.34,2-0.55,3a0.08,0.08,0,0,1,0,.07v0a60.32,60.32,0,0,1-10.11,22.32c-5.56,6.8-13.12,11.13-20.49,15.14-3.68,2-7.37,3.84-10.87,5.92-1.74,1.05-3.42,2.22-5,3.36-0.74.61-1.58,1.35-2.16,1.84-0.64.76-1.4,1.53-2,2.29-4.59,6.21-8.33,13.59-11.73,20.5-1.77,3.7-3.52,7.36-5.13,10.92-4.64,10-8.75,19.52-12.36,28-2.5,5.7-4.38,11.37-8.13,15.25a31.43,31.43,0,0,1-3.05,2.35c-1.13.47-2.19,1-3.24,1.44-1.27.23-2.43,0.61-3.59,0.83l0.3,0.7-2.41,0h-0.59c-0.44,0-.9,0-1.38,0-0.81,0-1.77,0-2.8,0v-494c13.06-3.07,23.58-3.23,32-1.57a143.18,143.18,0,0,1,23.52.42c17.6,1.84,34.59,8,41,23.55C615.36,550.29,621.54,614,623,630.3c0.2,2.51.31,3.86,0.31,3.86s-2.39,10.63-5.88,24.36c-4.76,18.53-11.64,42.82-17.71,54.69,0,0-2.71,37.62-3.38,68.41v0Z" transform="translate(-1)"/><path class="cls-9" d="M538.33,533l-32.86,61.82,0,4.6a0.15,0.15,0,0,1-.19,0l0-4.6-32.31-60.68a48.46,48.46,0,0,1,4.13-4.82,41.13,41.13,0,0,1,58.12,0,31.22,31.22,0,0,1,3.21,3.68" transform="translate(-1)"/><g class="cls-10"><g class="cls-11"><path class="cls-12" d="M545.65,448.21v0.11a47.06,47.06,0,0,1-40.33,21.94h-0.19c-23.19-.09-36.65-17-40.15-21.85,0.83-4.91,1.53-10.14,2.05-15.52,0.29-3.28.62-6.55,0.91-9.91a159.27,159.27,0,0,0,36.75,4.78h0.44a149.09,149.09,0,0,0,37.58-5.2c0.29,3.28.62,6.57,0.92,9.73,0.62,5.61,1.21,10.92,2,15.93" transform="translate(-1)"/></g></g><path class="cls-13" d="M505.73,72C352.22,72,351.38,200.51,358.18,284.6c-10.5-19.94-41.64-13.79-39.1,17.63,2.46,30.24,46.46,45.85,45.85,42.33,12.58,69.24,84.8,109.19,140.8,109.19,0.39,0,.78-0.07,1.18-0.07V72l-1.18,0" transform="translate(-1)"/><path class="cls-12" d="M328.88,288.93c7.63-12.13,19.3-6.86,22.17-4.22,3.07,2.92,5.48,6.77,3.58,13.93-1.05,4-5.3,4.35-4.27,10.47,1.16,6.89,4.34,7.34,6.16,8.88s4,2.76,5.17,5.68a15.18,15.18,0,0,1,.66,8.66c-1.14,5-8.38,1-13.2-1.19-3.2-1.44-13.32-10-15.9-12.87-6.45-7.29-9.43-21.26-4.36-29.34" transform="translate(-1)"/><path class="cls-14" d="M506.48,72C660,72,660.85,200.51,654,284.6c10.5-19.94,41.67-13.79,39.1,17.63-2.46,30.24-46.44,45.85-45.85,42.33-12.56,69.24-84.8,109.19-140.8,109.19-0.37,0-.79-0.07-1.18-0.07V72l1.18,0" transform="translate(-1)"/><path class="cls-12" d="M683.32,288.93c-7.58-12.13-19.3-6.86-22.17-4.22-3.05,2.92-5.46,6.77-3.58,13.93,1.08,4,5.31,4.35,4.27,10.47-1.12,6.89-4.32,7.34-6.16,8.88s-4,2.76-5.17,5.68a15.34,15.34,0,0,0-.66,8.66c1.14,5,8.38,1,13.23-1.19,3.19-1.44,13.31-10,15.89-12.87,6.43-7.29,9.39-21.26,4.34-29.34" transform="translate(-1)"/><path class="cls-15" d="M504.4,108.23c-50.5,0-87.47,14.67-109.85,43.63-31.24,40.42-30,102.22-18.49,146.52,3.49,13.55,5.3,50.06,7.74,63.48,10.89,60,77,91.9,120.61,91.9,0.37,0,.79-0.07,1.18-0.07V108.27c-0.42,0-.79,0-1.18,0" transform="translate(-1)"/><path class="cls-16" d="M614,151.92c-22.22-28.78-58.73-43.4-108.44-43.63V453.7c49.73-.54,109.19-35.55,119.39-91.83,2.44-13.41,4.25-50,7.77-63.5C644.24,254.16,645.34,192.5,614,151.92" transform="translate(-1)"/><path class="cls-17" d="M585.28,117.56c-8.32,38.33-81.18,74.07-119.71,85.19s-99.76,23.33-99.76,23.33,2,36.67,1.27,48.9c-1.05,18.35,6.34,36.52,6.34,36.52l-12.08-5.38s-0.72-26-11.76-30.48c-17-6.93-44.28-39.41-36.17-72.88S346.72,123,356.85,101.7,399.62,41.47,427,34.36s80.15-19.27,112.59-4.06,75.09,36.54,75.09,36.54,19.28,5,34.5,19.25,36.71,65.36,36.71,141c0,11.26-3.66,38.6-18.17,46.63-18.21,10.09-18.21,26.2-18.21,26.2l-6.38,4.49s6.38-41.5,6.38-55.74c0-42.69-23.61-62.36-42.79-76.62-31.45-23.35-52.93-23-52.93-23Z" transform="translate(-1)"/><path class="cls-17" d="M506.09,389.08c-1.58,22.68-40.83,20.59-61.28,20.59C455,399.49,481.67,376.5,502.1,376.5c0,0,4.25,9.33,4,12.58" transform="translate(-1)"/><path class="cls-17" d="M503.2,389.08c1.61,22.68,40.85,20.59,61.28,20.59-10.22-10.18-36.87-33.18-57.29-33.18,0,0-4.24,9.33-4,12.58" transform="translate(-1)"/><path class="cls-8" d="M569,489.89s99.61,0,98.43,247.86c0,0,14.17,160.18,7.69,213.14s-19.48,76.74-37.17,81.65-44.79-9.78-35.35-26.22,29.77-48,32.5-66.35c3.4-22.72-17.62-76.15-17.45-85.26a418.29,418.29,0,0,1,6.86-65.79l-1.91-27.23A236.3,236.3,0,0,1,598.49,703c-4.12-15.83,7.65-94.39,7.65-94.39Z" transform="translate(-1)"/><path class="cls-7" d="M438.71,491s-99.61,0-98.45,247.88c0,0-14.12,160.2-7.65,213.16s19.46,76.74,37.14,81.63,44.78-9.76,35.37-26.2-29.8-48-32.52-66.37c-3.38-22.72,17.61-76.13,17.45-85.26a420.33,420.33,0,0,0-6.84-65.79l1.88-27.25a235.92,235.92,0,0,0,24.14-58.64c4.14-15.81-7.65-94.37-7.65-94.37Z" transform="translate(-1)"/><path class="cls-18" d="M493.54,1581.5c0.74,2.78,1.27,5.07.67,6.89-2.3,7-5.36,8.5-5,9.49l2.06,15.37c2.21,7.92,3.52,14.45,2.54,17.52-1.2,3.65-8.39,11.21-8.39,11.21s3.53,37.24-11.73,49.55-48.24,18.68-80.52,6.3c-12.47-4.8-13.37-20.35-13.37-20.35s18.86-23,21-33c1.93-8.88,5.89-17.45,9.51-25.17v0l1.05-17.5a21.37,21.37,0,0,0,.78-11,69.84,69.84,0,0,1,7.43-3.41,82,82,0,0,1,30.57-5.9h43.38Z" transform="translate(-1)"/><path class="cls-19" d="M493.76,1581.5c0.73,2.58,1.29,4.71.66,6.39-2.3,6.55-5.37,7.92-5,8.81l2.09,14.25c2.23,7.36,3.53,13.43,2.55,16.28-1.21,3.39-8.42,10.39-8.42,10.39s3.53,34.57-11.76,46S425.4,1701,393,1689.49s4.09-34.45,7.67-49.53c1.93-8.21,5.91-16.15,9.56-23.35v0l1.07-16.22a18.39,18.39,0,0,0,.75-10.21,77.67,77.67,0,0,1,7.49-3.14,87.87,87.87,0,0,1,30.64-5.5h43.55Z" transform="translate(-1)"/><path class="cls-18" d="M520.79,1597.88l-2.06,15.34c-2.23,8-3.53,14.47-2.55,17.56,1.21,3.63,8.4,11.17,8.4,11.17s-3.53,37.24,11.74,49.57,48.24,18.71,80.48,6.33c12.49-4.8,13.37-20.37,13.37-20.37s-18.83-23-21-33c-2-8.84-5.88-17.41-9.51-25.12v0l-1.05-17.5a21.41,21.41,0,0,1-.78-11c-2.43-1.23-4.89-2.4-7.44-3.39a81.86,81.86,0,0,0-30.55-5.9s-38.7,15.39-39,16.37" transform="translate(-1)"/><path class="cls-19" d="M617.38,1689.49C585,1701,552,1695,536.59,1683.61s-11.79-46-11.79-46-7.19-7-8.41-10.41c-0.89-2.56.08-7.69,1.91-14.06l0-.13,2.72-16.35c0.35-1.08-1.56-3.52-3-8.37-0.64-2.15,1.14-4.06,2.39-6.82h35.31a87.67,87.67,0,0,1,35.29,7.36q3.58,1.55,7,3.36c-1.45,4-3,6.39-2.76,7.45l5.52,18.1c3.47,6.87,7.12,14.42,9,22.19,3.56,15.07,40.05,38,7.67,49.53" transform="translate(-1)"/><path class="cls-6" d="M616.88,1201.44c-4.71,23.8-8.55,83.46-6.09,97.55,2.9,16.73,6.55,37.57,8.13,63.77,2.71,44.75-8,84-17.5,118.57-3.08,11.17-5,30.55-6,50.4-0.27,5.12,4.12,14.67,3.93,19.72-0.14,4.85-3.74,5.59-2.56,10.57,1.56,6.53-2.48,11.84-2.43,16.85,0,4.64,5,9.35,4,12.4-0.11.34-.23,0.63-0.36,1-1.45,4-3,6.39-2.76,7.45l5.53,18.1s-16,3.48-21.35,3.59c-15.43.22-61.1-8.17-61.1-8.17l0-.16,2.71-16.37c0.37-1.05-1.56-3.5-3-8.32-0.65-2.18,1.14-4.08,2.41-6.86a12,12,0,0,0,1.08-4.4c0.13-4.08-2.65-11.3-.81-17.18,1.31-4.26-.44-5.61-0.37-9.35,0.12-5.77,3.13-14.83,3.2-21.22,0.78-59,.37-139.27-2.57-165.74-1.7-14.78-4.69-184.2-8.13-211.41-3-23-4.75-115.59-5.06-133.91-0.16-10.25-.29-19-0.37-25.35h-0.2c-0.74,0-1.45,0-2.21,0h-0.13c-0.33,0-.66,0-1.12,0H503c-0.09,6.37-.23,15.27-0.39,25.7-0.34,18.33-2.09,110.92-5,133.6-2.55,20.1-7.4,248.38-8.59,369.77,0,6.3-.11,12.31-0.13,18,0,1.68,2,6.53,3.95,12.43s-1,12.47-1,18.19a36.85,36.85,0,0,0,2,10.9c0.73,2.6,1.27,4.71.66,6.42-2.3,6.55-5.37,7.89-5,8.81l2.06,14.25s-41.23,10.36-55.31,10.41c-6.56,0-25.89-4.75-25.89-4.75v0l1.07-16.24a18.54,18.54,0,0,0,.77-10.21c-0.07-.42-0.16-0.9-0.27-1.35-0.79-3.19,4.24-12.78,4.19-17.92,0-5.47-3.21-8.57-1.69-16.6a56,56,0,0,0,1.21-11.4c-0.25-6.08-.55-12.27-1-18.28-1.08-17.27-2.91-33.42-5.57-43.27-9.49-34.59-20.24-73.82-17.53-118.57,1.6-26.2,5.24-47,8.15-63.77,2.43-14.09-1.38-73.77-6.09-97.57-3.67-18.64-7.5-37.91-10.13-57.31-5.07-36.94-14.56-131.6-10.24-176l-0.11-.07,0.25-2.11s0.24-1.53.28-1.84c3.75-24.7,7.35-41.25,9.16-48.9,0.22-.83.37-1.44,0.44-1.75,0-2.29.31-16,3.75-25.21l0.36-1c1.45-4.19,4.87-15.1,8.94-28.35l0.2-.74c0.28-.83.54-1.68,0.81-2.49l0.42-1.19,1.54-.49,0.26,0c0.18,0,.34,0,0.53,0a79.75,79.75,0,0,1,10.74-.67H612.45l1.75,5.63c4.06,13.37,7.48,24.27,8.93,28.44l0.35,0.88c3.44,9.29,3.72,22.93,3.77,25.26,0.07,0.31.2,0.92,0.42,1.75,1.44,6.21,4.38,19.54,7.65,39.23,0.59,3.63,1.19,7.47,1.78,11.57l0.33,2-0.2.07c4.34,44.44-5.13,139.09-10.23,176.06-2.61,19.38-6.43,38.65-10.11,57.31" transform="translate(-1)"/><polygon class="cls-20" points="490.71 533.47 503.64 515.59 516.6 533.47 529.57 687.23 503.64 715.94 477.73 687.23 490.71 533.47"/><path class="cls-21" d="M509.81,1409L505,1290.33l2.74-128.93L505,620l-0.09-19.87,0-4.6-32.32-60.65-25.6-48.07s-74.47,3.81-109.84,102.87-145,369.17-54,426.3c19.73,12.38,92.56-49.1,103.57-59.06,0-.18-5.47-19.72-0.88-34.75,4.34-14.22,4.66-44.3,5.42-44.44L404.31,720.5s13.26,18.69,4.55,67.22c-3.44,19.27-12.71,50.2-19.29,89.3,0.62,0.2-15.78,74.72-16.61,92.15-5.37,56.28-23.13,435.11-23.13,435.11Z" transform="translate(-1)"/><path class="cls-21" d="M672.93,589.66C637.55,490.63,563,486.72,563,486.72l-25,47-32.87,61.82,0,4.6L505,620l-2.76,541.46L505,1290.33l-4.34,118.84,159.47-4.87s-15.78-363-21.26-426.25c-0.56-16.87-20.4-101.7-19.55-101.75-6.68-39.61-14.75-69.16-18.21-88.58-8.68-48.54,4.54-67.25,4.54-67.25s14.15,165.29,14.06,168l0.13,1.46c-0.07-.29-0.09-0.58-0.16-0.88-0.24,7-.39,14.11,1.08,20.66,1.56,6.82,3.88,13.44,5.79,20.14,4.43,15.61-3.44,30.48-3.63,30.91,11,15.9,64.87,80.28,82.19,72.72,102-44.37,3.2-344.76-32.18-443.79" transform="translate(-1)"/><path class="cls-20" d="M518.46,529.39a13.8,13.8,0,1,1-13.81-13.8,13.78,13.78,0,0,1,13.81,13.8" transform="translate(-1)"/><path class="cls-9" d="M563.57,488c-2.32-6-7.93-11.55-9.95-16.29-3.4-7.87-6.5-14.85-6.5-14.85-0.75,7.54-12.38,40.94-12.38,40.94S498.3,515.32,504,516.56s32.76,35.28,40.43,44.32,6.49,17.38,8.49,5.23S569.76,504,563.57,488" transform="translate(-1)"/><path class="cls-9" d="M475.21,497.83s-11.63-33.4-12.36-40.89c0,0-3.11,7-6.5,14.83-2,4.73-7.67,10.32-10,16.26-6.18,16,8.61,65.88,10.62,78.08s0.73,3.79,8.45-5.23,32.87-43.07,38.59-44.32-28.8-18.73-28.8-18.73" transform="translate(-1)"/><path class="cls-17" d="M157.8,1219.58c1.25,3.81,14.22,7.22,14.22,7.22l35.88-70.7s-10.34-8.05-14.22-7.24c-19.4,4.15-42,51.88-35.88,70.72" transform="translate(-1)"/><path class="cls-17" d="M286.7,1285s10.33,8,14.24,7.2c19.38-4.13,42-51.86,35.85-70.68-1.23-3.79-14.21-7.24-14.21-7.24Z" transform="translate(-1)"/><polygon class="cls-17" points="285.7 1284.97 171.98 1227.28 207.83 1156.57 321.58 1214.24 285.7 1284.97"/><rect class="cls-22" x="148.3" y="1184" width="83.78" height="14.05" transform="translate(-959.31 822.7) rotate(-63.15)"/><polygon class="cls-22" points="193.5 1240.17 180.94 1233.78 218.84 1159.09 231.4 1165.48 193.5 1240.17"/><polygon class="cls-22" points="274.19 1281.11 261.63 1274.74 299.53 1200.05 312.1 1206.39 274.19 1281.11"/><polygon class="cls-22" points="291.18 1289.72 278.61 1283.38 316.51 1208.64 329.07 1215.01 291.18 1289.72"/><path class="cls-17" d="M260.58,1218.33a10.32,10.32,0,1,1-18.41-9.33l104-205a10.32,10.32,0,1,1,18.39,9.35Z" transform="translate(-1)"/><polygon class="cls-22" points="277.85 1191.5 252.03 1178.42 258.63 1165.39 284.45 1178.51 277.85 1191.5"/><polygon class="cls-22" points="287.5 1168.15 265.17 1156.82 270.89 1145.58 293.19 1156.91 287.5 1168.15"/><path class="cls-23" d="M568.1,263.66c17.49,0,32.75,5,40.92,12.43-8.18,7.43-23.44,12.43-40.92,12.43s-32.75-5-40.92-12.43C535.35,268.66,550.61,263.66,568.1,263.66Z" transform="translate(-1)"/><circle class="cls-24" cx="567.1" cy="276.09" r="12.63"/><circle class="cls-25" cx="567.1" cy="276.09" r="6.2"/><circle class="cls-26" cx="562.91" cy="269.28" r="3.64"/><path class="cls-2" d="M568.1,263.66c17.49,0,32.75,5,40.92,12.43H527.18C535.35,268.66,550.61,263.66,568.1,263.66Z" transform="translate(-1)"/><path class="cls-27" d="M609,276.09c-8.18-7.43-23.44-12.43-40.92-12.43s-32.75,5-40.92,12.43h-1.52a0.54,0.54,0,0,1,.2-0.4c8.71-7.91,24.89-12.83,42.24-12.83s33.53,4.92,42.23,12.83a0.54,0.54,0,0,1,.2.4H609Z" transform="translate(-1)"/><path class="cls-23" d="M451.53,263.66c-17.49,0-32.75,5-40.92,12.43,8.17,7.43,23.43,12.43,40.92,12.43s32.75-5,40.92-12.43C484.28,268.66,469,263.66,451.53,263.66Z" transform="translate(-1)"/><circle class="cls-24" cx="450.53" cy="276.09" r="12.63"/><circle class="cls-25" cx="450.53" cy="276.09" r="6.2"/><circle class="cls-26" cx="454.72" cy="269.28" r="3.64"/><path class="cls-2" d="M451.53,263.66c-17.49,0-32.75,5-40.92,12.43h81.84C484.28,268.66,469,263.66,451.53,263.66Z" transform="translate(-1)"/><path class="cls-27" d="M410.61,276.09c8.17-7.43,23.43-12.43,40.92-12.43s32.75,5,40.92,12.43H494a0.54,0.54,0,0,0-.2-0.4c-8.71-7.91-24.89-12.83-42.24-12.83S418,267.78,409.3,275.69a0.53,0.53,0,0,0-.21.4h1.52Z" transform="translate(-1)"/></g></svg>